<?xml version="1.0" encoding="utf-8"?>
<!-- Generator: Adobe Illustrator 28.0.0, SVG Export Plug-In . SVG Version: 6.00 Build 0)  -->
<svg version="1.1" id="Layer_1" xmlns="http://www.w3.org/2000/svg" xmlns:xlink="http://www.w3.org/1999/xlink" x="0px" y="0px"
	 width="80.8px" height="95.1px" viewBox="0 0 80.8 95.1" style="enable-background:new 0 0 80.8 95.1;" xml:space="preserve">
<style type="text/css">
	.st0{fill:#4ED8AA;}
	.st1{fill:#18B771;}
	.st2{fill:#F9E3C7;}
	.st3{fill:#4C3024;}
	.st4{fill:#F4683D;}
	.st5{fill:#FFFFFF;}
	.st6{fill:#F2A4A2;}
	.st7{fill:#404F36;}
	.st8{fill:#74594A;}
</style>
<path class="st0" d="M72.8,8.9c0.1,0.6,0.2,1.3,0.2,2v50.4c0,6-4.8,10.8-10.8,10.8H18.1c-6,0-10.8-4.8-10.8-10.8V10.8
	c0-0.5,0-1.1,0.1-1.6C2.9,12.3,0,17.4,0,23.2v54.8c0,9.4,7.6,17,17,17h46.7c9.4,0,17-7.6,17-17V23.2C80.8,17.2,77.6,11.9,72.8,8.9"
	/>
<path class="st0" d="M62.2,0H18.1C12.6,0,8.2,4,7.4,9.2c2.7-1.9,6.1-3,9.6-3h46.7c3.3,0,6.5,1,9.1,2.6C71.9,3.8,67.5,0,62.2,0"/>
<path class="st1" d="M39.6,18.6c-0.2,0-0.5,0.1-0.7,0.2c-0.3,0.2-0.5,0.6-0.5,1c0.6-0.1,1.3-0.1,1.9-0.1c0.4,0,0.8,0,1.3,0
	c-0.3-0.4-0.7-0.8-1.2-1C40.2,18.7,39.9,18.6,39.6,18.6 M42.7,19.5c0.3-0.7,0.3-1.7,0-2.5c-0.3-0.7-0.8-1.4-1.5-1.6
	c-0.3-0.1-0.4-0.5-0.3-0.8c0.1-0.2,0.3-0.4,0.5-0.4c0.1,0,0.2,0,0.2,0c0.9,0.4,1.7,1.2,2.1,2.3c0.4,1.1,0.4,2.4,0,3.4
	c0,0.1,0,0.1-0.1,0.2c8.7,1.5,15.6,8.4,16.9,17.1c1.7,0.3,3,1.7,3,3.5s-1.4,3.3-3.1,3.5C58.8,53.8,50.4,61,40.3,61
	s-18.5-7.2-20.2-16.8C18.3,44,17,42.6,17,40.7s1.3-3.2,3-3.5c1.4-8.9,8.4-15.9,17.3-17.2c0-0.8,0.4-1.7,1-2.1
	c0.4-0.3,0.9-0.5,1.4-0.5c0.4,0,0.9,0.1,1.3,0.3C41.7,18.1,42.3,18.7,42.7,19.5 M63.7,6.2H17c-3.6,0-6.9,1.1-9.6,3
	c-0.1,0.5-0.1,1.1-0.1,1.6v50.4c0,6,4.8,10.8,10.8,10.8h44.1c6,0,10.8-4.8,10.8-10.8V10.8c0-0.7-0.1-1.3-0.2-2
	C70.2,7.2,67.1,6.2,63.7,6.2"/>
<path class="st2" d="M28,49.4c-1.5,0-2.8-1.2-2.8-2.8s1.2-2.8,2.8-2.8s2.8,1.2,2.8,2.8S29.5,49.4,28,49.4 M52.7,49.3
	c-1.5,0-2.8-1.2-2.8-2.8s1.2-2.8,2.8-2.8s2.8,1.2,2.8,2.8S54.2,49.3,52.7,49.3 M37.2,20c-8.9,1.3-15.9,8.3-17.3,17.2
	c-1.7,0.3-3,1.7-3,3.5s1.4,3.3,3.1,3.5C21.9,53.8,30.3,61,40.3,61s18.5-7.2,20.2-16.8c1.8-0.2,3.1-1.7,3.1-3.5s-1.3-3.2-3-3.5
	c-1.4-8.8-8.2-15.7-16.9-17.1c-0.1,0.3-0.3,0.6-0.5,0.8c0.1,1-0.1,2-0.7,2.7c-0.4,0.5-0.9,0.7-1.2,0.8c-0.7,0.3-1.5,0.5-2.2,0.5h0
	c-0.3,0-0.6-0.2-0.6-0.6c0-0.3,0.2-0.6,0.6-0.6c0.6,0,1.2-0.2,1.8-0.4c0.4-0.2,0.6-0.3,0.8-0.5c0.2-0.2,0.3-0.6,0.4-1
	c-0.6,0.3-1.3,0.5-2.1,0.5c-0.1,0-0.1,0-0.2,0c-1.2,0-2-0.5-2.4-1.3C37.3,20.7,37.2,20.4,37.2,20 M40.4,19.8c-0.7,0-1.3,0-1.9,0.1
	c0,0.2,0,0.5,0.1,0.7c0.2,0.4,0.6,0.6,1.3,0.6c0,0,0.1,0,0.1,0c0.5,0,1.4-0.1,2-0.7v0c-0.1-0.2-0.2-0.5-0.3-0.7
	C41.2,19.8,40.8,19.8,40.4,19.8"/>
<path class="st3" d="M53.1,41.1c-0.1-1.5-1.3-2.6-2.8-2.7c-1.7-0.1-3,1.3-3,2.9l0,0c0,0.5,0.6,0.7,0.9,0.4c0.5-0.5,1.2-0.8,2-0.8
	s1.5,0.3,2,0.8c0.3,0.3,0.9,0.1,0.9-0.4C53.1,41.3,53.1,41.1,53.1,41.1z"/>
<path class="st3" d="M30.3,38.4c-1.5,0.1-2.7,1.2-2.8,2.7v0.2c0,0.5,0.5,0.7,0.9,0.4c0.5-0.5,1.2-0.8,2-0.8s1.5,0.3,2,0.8
	c0.3,0.3,0.9,0.1,0.9-0.4l0,0C33.3,39.7,32,38.3,30.3,38.4z"/>
<path class="st4" d="M34.6,44.4c0.3,3,2.8,5.3,5.8,5.3s5.5-2.3,5.8-5.3C46.1,44.4,34.6,44.4,34.6,44.4z"/>
<path class="st5" d="M37.9,44.4c0.1,1.3,1.2,2.2,2.5,2.2s2.3-1,2.5-2.2H37.9L37.9,44.4z"/>
<path class="st6" d="M28,43.9c-1.5,0-2.8,1.2-2.8,2.8s1.2,2.8,2.8,2.8s2.8-1.2,2.8-2.8S29.5,43.9,28,43.9"/>
<path class="st6" d="M52.7,43.8c-1.5,0-2.8,1.2-2.8,2.8s1.2,2.8,2.8,2.8s2.8-1.2,2.8-2.8S54.2,43.8,52.7,43.8"/>
<path class="st7" d="M41.5,14.2c-0.2,0-0.5,0.1-0.5,0.4c-0.1,0.3,0,0.6,0.3,0.8c0.6,0.3,1.2,0.9,1.5,1.6c0.3,0.8,0.3,1.8,0,2.5
	c-0.4-0.7-1.1-1.3-1.8-1.7c-0.4-0.2-0.9-0.3-1.3-0.3c-0.5,0-1,0.1-1.4,0.5c-0.6,0.5-1,1.3-1,2.1c0.4-0.1,0.8-0.1,1.2-0.2
	c0-0.4,0.3-0.8,0.5-1c0.2-0.2,0.5-0.2,0.7-0.2c0.3,0,0.6,0.1,0.8,0.2c0.5,0.2,0.9,0.6,1.2,1c0.7,0,1.5,0.1,2.2,0.2
	c0-0.1,0-0.1,0.1-0.2c0.4-1,0.4-2.3,0-3.4c-0.4-1-1.2-1.9-2.1-2.3C41.7,14.2,41.6,14.2,41.5,14.2"/>
<path class="st8" d="M41.6,19.9c0.1,0.2,0.2,0.4,0.3,0.7v0c-0.7,0.5-1.5,0.6-2,0.7c0,0-0.1,0-0.1,0c-0.7,0-1.1-0.2-1.3-0.6
	c-0.1-0.2-0.1-0.4-0.1-0.7c-0.4,0-0.8,0.1-1.2,0.2c0,0.3,0.1,0.7,0.2,1c0.4,0.9,1.2,1.3,2.4,1.3c0.1,0,0.1,0,0.2,0
	c0.8,0,1.5-0.2,2.1-0.5c0,0.4-0.2,0.8-0.4,1c-0.2,0.2-0.4,0.4-0.8,0.5c-0.6,0.3-1.2,0.4-1.8,0.4c-0.3,0-0.6,0.3-0.6,0.6
	c0,0.3,0.3,0.6,0.6,0.6h0c0.8,0,1.5-0.2,2.2-0.5c0.3-0.2,0.8-0.4,1.2-0.8c0.5-0.7,0.8-1.7,0.7-2.7c0.2-0.2,0.4-0.5,0.5-0.8
	C43.1,20,42.3,19.9,41.6,19.9"/>
<path class="st5" d="M35,79.4c0-0.7,0.2-1.4,0.7-2.1c0.5-0.7,1.1-1.3,2-1.8c0.9-0.5,1.9-0.7,3-0.7c1.1,0,2,0.2,2.8,0.6
	s1.4,0.9,1.9,1.6c0.4,0.7,0.7,1.4,0.7,2.2c0,0.6-0.1,1.2-0.4,1.6s-0.6,0.9-0.9,1.2s-1,0.9-1.9,1.7c-0.2,0.2-0.5,0.4-0.6,0.6
	c-0.2,0.2-0.3,0.3-0.3,0.5s-0.1,0.3-0.2,0.4s-0.1,0.4-0.2,0.8c-0.1,0.8-0.6,1.1-1.3,1.1c-0.4,0-0.7-0.1-1-0.4s-0.4-0.6-0.4-1.1
	c0-0.6,0.1-1.2,0.3-1.6s0.4-0.8,0.8-1.2c0.3-0.3,0.7-0.7,1.3-1.2c0.5-0.4,0.8-0.7,1-0.9c0.2-0.2,0.4-0.4,0.5-0.7
	c0.1-0.3,0.2-0.5,0.2-0.8c0-0.6-0.2-1.1-0.7-1.5c-0.4-0.4-1-0.6-1.7-0.6c-0.8,0-1.4,0.2-1.8,0.6c-0.4,0.4-0.7,1-1,1.8
	c-0.2,0.8-0.7,1.2-1.4,1.2c-0.4,0-0.8-0.1-1-0.4C35.2,80.1,35,79.8,35,79.4L35,79.4z M40.4,91.4c-0.5,0-0.8-0.1-1.2-0.4
	c-0.3-0.3-0.5-0.7-0.5-1.2c0-0.5,0.2-0.9,0.5-1.2s0.7-0.5,1.2-0.5s0.8,0.2,1.2,0.5s0.5,0.7,0.5,1.2c0,0.5-0.2,0.9-0.5,1.2
	C41.2,91.3,40.8,91.4,40.4,91.4L40.4,91.4z"/>
</svg>
