<?xml version="1.0" encoding="utf-8"?>
<!-- Generator: Adobe Illustrator 28.0.0, SVG Export Plug-In . SVG Version: 6.00 Build 0)  -->
<svg version="1.1" id="Layer_1" xmlns="http://www.w3.org/2000/svg" xmlns:xlink="http://www.w3.org/1999/xlink" x="0px" y="0px"
	 width="94.8px" height="83.8px" viewBox="0 0 94.8 83.8" style="enable-background:new 0 0 94.8 83.8;" xml:space="preserve">
<style type="text/css">
	.st0{opacity:0.9;fill:#FC8E2C;enable-background:new    ;}
	.st1{opacity:0.99;fill:#F24512;enable-background:new    ;}
	.st2{fill:#2BAC32;}
	.st3{opacity:0.98;fill:#DB3F11;enable-background:new    ;}
	.st4{fill:#264C12;}
	.st5{fill:#FDC371;}
	.st6{fill:#FA751C;}
	.st7{fill:#FFFFFF;}
</style>
<path class="st0" d="M71.1,83.7V71.1c0-5.7,4.7-10.4,10.4-10.4h13.2L71.1,83.7 M47.1,56.1c0.9-3.2,2.6-5.6,5.9-5.6
	c0.7,0,1.5,0.1,2.3,0.3c0,0,5.1,1.8,3.1,7.8c1.1,1.8,1.4,5-2,10c0,0-2.5,3.8-9.2,9.1l0,0l0,0c-6.7-5.3-9.2-9.1-9.2-9.1
	c-3.3-4.7-3.2-7.8-2.2-9.7c-2.2-6.2,3-8.1,3-8.1c0.9-0.2,1.6-0.3,2.3-0.3C44.5,50.5,46.2,52.9,47.1,56.1 M82.5,9.3h-7.4v6.2
	c0,2.3-1.8,4.1-4.1,4.1h-2c-2.3,0-4.1-1.8-4.1-4.1V9.3H28.4v6.2c0,2.3-1.8,4.1-4.1,4.1h-2c-2.3,0-4.1-1.8-4.1-4.1V9.3h-5.9
	C5.5,9.3,0,14.8,0,21.6v49.9c0,6.8,5.5,12.3,12.3,12.3h58.9l23.6-23V21.6C94.8,14.8,89.3,9.3,82.5,9.3"/>
<path class="st1" d="M94.7,60.8H81.5c-5.8,0-10.4,4.6-10.4,10.4v12.5L94.7,60.8"/>
<path class="st2" d="M53.1,50.5c-3.3,0-5.1,2.4-6,5.6c-0.9-3.2-2.6-5.6-6-5.6c-0.7,0-1.5,0.1-2.3,0.3c0,0-5.2,1.8-3,8.1
	c1-2,3-2.7,3-2.7c0.9-0.2,1.7-0.3,2.4-0.3c3.4,0,5.2,2.4,6,5.7c0.9-3.2,2.7-5.7,6-5.7c0.7,0,1.5,0.1,2.4,0.3c0,0,1.8,0.6,2.8,2.4
	c2-6-3.1-7.8-3.1-7.8C54.6,50.7,53.8,50.5,53.1,50.5"/>
<path class="st3" d="M58.5,58.6c-0.4,1.3-1.2,2.7-2.3,4.4c0,0-2.4,3.7-9.1,8.9l0,0l0,0c-6.7-5.2-9.1-8.9-9.1-8.9
	c-1.1-1.6-1.8-2.9-2.2-4.1c-1,1.9-1.1,4.9,2.2,9.7c0,0,2.5,3.8,9.2,9.1l0,0l0,0c6.7-5.3,9.2-9.1,9.2-9.1
	C60,63.6,59.6,60.5,58.5,58.6"/>
<path class="st4" d="M53.3,55.9c-3.4,0-5.2,2.4-6,5.7c-0.9-3.2-2.7-5.7-6-5.7c-0.7,0-1.5,0.1-2.4,0.3c0,0-2,0.7-3,2.7
	c0.4,1.2,1.1,2.6,2.2,4.1c0,0,2.4,3.7,9.1,8.9l0,0l0,0c6.7-5.2,9.1-8.9,9.1-8.9c1.2-1.7,1.9-3.2,2.3-4.4c-1.1-1.8-2.8-2.4-2.8-2.4
	C54.8,56,54,55.9,53.3,55.9"/>
<path class="st5" d="M24.3,0h-2c-2.3,0-4.1,1.9-4.1,4.1v5.2h10.3V4.1C28.5,1.8,26.6,0,24.3,0"/>
<path class="st6" d="M28.5,9.3H18.2v6.2c0,2.3,1.8,4.1,4.1,4.1h2c2.3,0,4.1-1.8,4.1-4.1V9.3"/>
<path class="st5" d="M71,0h-2c-2.3,0-4.1,1.9-4.1,4.1v5.2h10.3V4.1C75.2,1.8,73.3,0,71,0"/>
<path class="st6" d="M75.2,9.3H64.9v6.2c0,2.3,1.8,4.1,4.1,4.1h2c2.3,0,4.1-1.8,4.1-4.1V9.3"/>
<path class="st7" d="M14.6,27.1h9.7c2.1,0,3.7,1.7,3.7,3.7v9.6c0,2.1-1.7,3.7-3.7,3.7h-9.7c-2.1,0-3.7-1.7-3.7-3.7v-9.6
	C10.9,28.7,12.6,27.1,14.6,27.1z"/>
<path class="st7" d="M14.6,54.1h9.7c2.1,0,3.7,1.7,3.7,3.7v9.7c0,2.1-1.7,3.7-3.7,3.7h-9.7c-2.1,0-3.7-1.7-3.7-3.7v-9.7
	C10.9,55.8,12.6,54.1,14.6,54.1z"/>
<path class="st7" d="M68.2,27.1h9.7c2.1,0,3.7,1.7,3.7,3.7v9.6c0,2.1-1.7,3.7-3.7,3.7h-9.7c-2.1,0-3.7-1.7-3.7-3.7v-9.6
	C64.4,28.7,66.1,27.1,68.2,27.1z"/>
<path class="st7" d="M41.5,27.1h9.6c2.1,0,3.7,1.7,3.7,3.7v9.6c0,2.1-1.7,3.7-3.7,3.7h-9.6c-2.1,0-3.7-1.7-3.7-3.7v-9.6
	C37.8,28.7,39.5,27.1,41.5,27.1z"/>
</svg>
