<?xml version="1.0" encoding="utf-8"?>
<!-- Generator: Adobe Illustrator 28.0.0, SVG Export Plug-In . SVG Version: 6.00 Build 0)  -->
<svg version="1.1" id="Layer_1" xmlns="http://www.w3.org/2000/svg" xmlns:xlink="http://www.w3.org/1999/xlink" x="0px" y="0px"
	 width="95px" height="96.3px" viewBox="0 0 95 96.3" style="enable-background:new 0 0 95 96.3;" xml:space="preserve">
<style type="text/css">
	.st0{opacity:0.47;fill:#4D4D4A;enable-background:new    ;}
	.st1{fill:#F3F2F2;}
	.st2{fill:#ECEDEB;}
	.st3{fill:#CCE589;}
	.st4{fill:#C2D982;}
	.st5{fill:#A3CE4A;}
	.st6{clip-path:url(#SVGID_00000150078959255585064910000008824660876928618625_);}
	.st7{fill:#17A27B;}
	.st8{clip-path:url(#SVGID_00000143592163433327667730000011951089235320038073_);}
	.st9{fill:#007662;}
	.st10{fill:#CD8B65;}
	.st11{opacity:0.72;fill:#3D3D3A;enable-background:new    ;}
	.st12{fill:#A3A2A1;}
	.st13{fill:#829257;}
	.st14{fill:#6D8A31;}
	.st15{clip-path:url(#SVGID_00000173856830845416032830000009788086337196624057_);}
	.st16{fill:#87BD40;}
	.st17{clip-path:url(#SVGID_00000164498819264188923070000002417219717005340853_);}
	.st18{clip-path:url(#SVGID_00000009568181248863264570000008288851768613757362_);}
</style>
<polyline class="st0" points="62.8,0 6.3,1.6 6.4,5.2 56.4,1.9 58.1,26.8 63.6,27.5 62.8,0 "/>
<polyline class="st1" points="56.4,1.9 6.4,5.2 0,5.6 4.2,68.5 31.7,66.7 33.2,54.6 11.2,56.1 11.1,53.9 8.7,54.1 5.9,11.7 
	19.2,10.9 19.2,10.9 51.4,8.7 51.5,10.9 53.9,10.8 54.9,26.4 58.1,26.8 56.4,1.9 "/>
<polyline class="st2" points="54.2,51 8.7,54.1 5.9,11.7 51.4,8.7 54.2,51 "/>
<path class="st3" d="M51.4,8.7l-32.2,2.1c1,0.5,1.9,1.2,2.7,2l29.6-2L51.4,8.7"/>
<path class="st4" d="M33.5,52.4l-22.5,1.5l0.1,2.2l22-1.5L33.5,52.4 M53.9,10.8l-2.3,0.2l1,15.1l2.4,0.3L53.9,10.8"/>
<path class="st5" d="M51.5,10.9l-29.6,2c2.6,2.8,3.6,7,1.2,10.7c0,0,0.1,0,0.1,0c8.7,0,13.9,11.2,8.2,17.8l1.8,11l-22.2,1.5
	l22.5-1.5l3.7-28.3l15.3,2L51.5,10.9"/>
<g>
	<defs>
		<polyline id="SVGID_1_" points="8.7,54.1 54.2,51 51.4,8.7 5.9,11.7 8.7,54.1 		"/>
	</defs>
	<clipPath id="SVGID_00000053531050419506140720000011507379732404530307_">
		<use xlink:href="#SVGID_1_"  style="overflow:visible;"/>
	</clipPath>
	<g style="clip-path:url(#SVGID_00000053531050419506140720000011507379732404530307_);">
		<path class="st7" d="M19.2,10.9L5.9,11.7l2.8,42.3l2.4-0.2l22.2-1.5l-1.8-11c5.6-6.6,0.5-17.8-8.2-17.8c0,0-0.1,0-0.1,0
			c2.4-3.6,1.3-7.9-1.2-10.7C21.1,12.1,20.2,11.4,19.2,10.9L19.2,10.9"/>
	</g>
</g>
<g>
	<defs>
		<polyline id="SVGID_00000137094432064333192270000000744403664139871391_" points="8.7,54.1 54.2,51 51.4,8.7 5.9,11.7 8.7,54.1 
					"/>
	</defs>
	<clipPath id="SVGID_00000103236002705426723680000012477223474956707754_">
		<use xlink:href="#SVGID_00000137094432064333192270000000744403664139871391_"  style="overflow:visible;"/>
	</clipPath>
	<g style="clip-path:url(#SVGID_00000103236002705426723680000012477223474956707754_);">
		<path class="st9" d="M13.6,33.3c-8.8-1-15.5-9.7-14.1-18.4C0,10.8,2,7.1,5.2,4.5c2.7-2.2-0.8-6.4-3.5-4.1
			c-18.9,16,0.1,46.5,22.8,36.6l-2.1-4.9C19.7,33.3,16.7,33.7,13.6,33.3L13.6,33.3z"/>
		<path class="st10" d="M33.2,25.3c-3.5-2.3-6.4,6-10.9,6.8l2.1,4.9C27.8,35.3,37.4,29.6,33.2,25.3L33.2,25.3z"/>
	</g>
</g>
<polyline class="st0" points="63.6,27.5 63.7,30.8 93,33.4 93.2,31.3 63.6,27.5 "/>
<polyline class="st11" points="58.1,26.8 58.3,30.3 63.7,30.8 63.6,27.5 58.1,26.8 "/>
<polyline class="st12" points="54.9,26.4 55.1,30 58.3,30.3 58.1,26.8 54.9,26.4 "/>
<polyline class="st0" points="35.3,66.5 31.7,66.7 29.1,86.6 33.5,87.2 35.3,66.5 "/>
<polyline class="st12" points="36.4,54.4 33.2,54.6 31.7,66.7 35.3,66.5 36.4,54.4 "/>
<polyline class="st13" points="36.6,52.2 33.5,52.4 33.2,54.6 36.4,54.4 36.6,52.2 "/>
<polyline class="st13" points="52.5,26.1 52.8,29.8 55.1,30 54.9,26.4 52.5,26.1 "/>
<polyline class="st14" points="37.2,24.1 33.5,52.4 36.6,52.2 38.7,28.6 52.8,29.8 52.5,26.1 37.2,24.1 "/>
<path class="st1" d="M39.8,77.8L39.8,77.8l3.7-42.2l45.4,4l-0.2,2.8l2.7,0.2l-3.7,42.2l-45.4-4l0.2-2.8L39.8,77.8 M38.7,28.6
	l-2.1,23.6l-0.2,2.2l-1.1,12l-1.8,20.7l-0.4,4.2l56.3,5L95,33.5l-2-0.2l-29.3-2.6l-5.4-0.5L55.1,30l-2.4-0.2L38.7,28.6"/>
<polyline class="st3" points="43.5,35.5 39.8,77.8 42.5,78 46,38.6 88.7,42.3 88.9,39.6 43.5,35.5 "/>
<polyline class="st4" points="88.7,42.3 85.2,81.8 42.5,78 42.2,80.8 87.6,84.8 91.3,42.6 88.7,42.3 "/>
<polyline class="st5" points="46,38.6 42.5,78 85.2,81.8 88.7,42.3 46,38.6 "/>
<g>
	<defs>
		<polyline id="SVGID_00000091017704677113731420000006833009441805297591_" points="39.8,77.8 85.2,81.8 88.9,39.6 43.5,35.5 
			39.8,77.8 		"/>
	</defs>
	<clipPath id="SVGID_00000134237171176950542980000007779329106857971353_">
		<use xlink:href="#SVGID_00000091017704677113731420000006833009441805297591_"  style="overflow:visible;"/>
	</clipPath>
	<g style="clip-path:url(#SVGID_00000134237171176950542980000007779329106857971353_);">
		<path class="st16" d="M79,67.8c-2.1,23.8-37.5,21.3-36.2-2.5C44.8,41.5,80.2,43.9,79,67.8z"/>
		<path class="st16" d="M44.5,27.8C11.8,102.5-7.7,88.2,68.2,94.2c2.7,0.2,4.7-2.4,3.8-5l-20.6-61C50.4,25.1,46,24.8,44.5,27.8
			L44.5,27.8z"/>
	</g>
</g>
<g>
	<defs>
		<polyline id="SVGID_00000098189579428982309090000010414440032524734131_" points="39.8,77.8 85.2,81.8 88.9,39.6 43.5,35.5 
			39.8,77.8 		"/>
	</defs>
	<clipPath id="SVGID_00000063592961051142627710000016721598645204368004_">
		<use xlink:href="#SVGID_00000098189579428982309090000010414440032524734131_"  style="overflow:visible;"/>
	</clipPath>
	<g style="clip-path:url(#SVGID_00000063592961051142627710000016721598645204368004_);">
		<path class="st16" d="M59.7,58.3c-0.8,11.4-18.2,10.2-17.5-1.2C43,45.7,60.4,46.8,59.7,58.3z"/>
		<path class="st7" d="M62.1,48.4c-0.6,0-1.1,0-1.7,0c4.4-5.2,0.2-13.9-6.7-13.4l-2.2-6.7c-1.1-3.2-5.5-3.5-7-0.5L15.8,85.4
			c-1.2,2.4,0.4,5.3,3.1,5.5l49.3,3.4c6.9-0.1,2.6-8.3,1.5-11.8C85.1,74.5,79.8,49,62.1,48.4L62.1,48.4z"/>
	</g>
</g>
<g>
	<defs>
		<polyline id="SVGID_00000031172439431906140370000009288444591308899510_" points="39.8,77.8 85.2,81.8 88.9,39.6 43.5,35.5 
			39.8,77.8 		"/>
	</defs>
	<clipPath id="SVGID_00000116933482085759766010000000936119663993850280_">
		<use xlink:href="#SVGID_00000031172439431906140370000009288444591308899510_"  style="overflow:visible;"/>
	</clipPath>
	<g style="clip-path:url(#SVGID_00000116933482085759766010000000936119663993850280_);">
		<path class="st9" d="M57.4,61.5c-13.4-3.4-16-23-4-29.8c3-1.8,0.1-6.4-2.8-4.6c-21.1,13-7,46,17,39.6l-1.4-5.1
			C63.3,62.4,60.3,62.4,57.4,61.5L57.4,61.5z"/>
		<path class="st10" d="M77.9,56.6c-3.3-2.8-7.3,5-11.8,5.1l1.4,5.1C71.1,65.6,81.4,61.5,77.9,56.6z"/>
	</g>
</g>
</svg>
