<?xml version="1.0" encoding="UTF-8" standalone="no"?>
<!DOCTYPE svg PUBLIC "-//W3C//DTD SVG 1.1//EN"
 "http://www.w3.org/Graphics/SVG/1.1/DTD/svg11.dtd">
<!-- Generated by graphviz version 2.47.0 (20210316.0004)
 -->
<!-- Title: dependencies Pages: 1 -->
<svg width="876pt" height="211pt"
 viewBox="0.00 0.00 876.00 211.00" xmlns="http://www.w3.org/2000/svg" xmlns:xlink="http://www.w3.org/1999/xlink">
<g id="graph0" class="graph" transform="scale(1 1) rotate(0) translate(4 207)">
<title>dependencies</title>
<polygon fill="white" stroke="transparent" points="-4,4 -4,-207 872,-207 872,4 -4,4"/>
<text text-anchor="start" x="413.01" y="-42.4" font-family="Times-12" font-weight="bold" font-size="14.00">Legend</text>
<polygon fill="#ffffb3" stroke="transparent" points="200,-10 200,-30 220,-30 220,-10 200,-10"/>
<text text-anchor="start" x="223.63" y="-15.4" font-family="Times-12" font-size="14.00"> &#160;Declarations</text>
<polygon fill="#8dd3c7" stroke="transparent" points="313,-10 313,-30 333,-30 333,-10 313,-10"/>
<text text-anchor="start" x="336.73" y="-15.4" font-family="Times-12" font-size="14.00"> &#160;Module</text>
<polygon fill="#80b1d3" stroke="transparent" points="399,-10 399,-30 419,-30 419,-10 399,-10"/>
<text text-anchor="start" x="422.78" y="-15.4" font-family="Times-12" font-size="14.00"> &#160;Bootstrap</text>
<polygon fill="#fdb462" stroke="transparent" points="496,-10 496,-30 516,-30 516,-10 496,-10"/>
<text text-anchor="start" x="519.67" y="-15.4" font-family="Times-12" font-size="14.00"> &#160;Providers</text>
<polygon fill="#fb8072" stroke="transparent" points="592,-10 592,-30 612,-30 612,-10 592,-10"/>
<text text-anchor="start" x="615.73" y="-15.4" font-family="Times-12" font-size="14.00"> &#160;Exports</text>
<g id="clust1" class="cluster">
<title>cluster_PaymentModule</title>
<polygon fill="none" stroke="black" stroke-dasharray="1,5" points="8,-70 8,-195 860,-195 860,-70 8,-70"/>
</g>
<g id="clust6" class="cluster">
<title>cluster_PaymentModule_providers</title>
<polygon fill="none" stroke="black" points="520,-78 520,-130 852,-130 852,-78 520,-78"/>
</g>
<g id="clust3" class="cluster">
<title>cluster_PaymentModule_imports</title>
<polygon fill="none" stroke="black" points="16,-78 16,-130 512,-130 512,-78 16,-78"/>
</g>
<!-- JwtUtilsModule -->
<g id="node1" class="node">
<title>JwtUtilsModule</title>
<polygon fill="#8dd3c7" stroke="black" points="504.21,-122 501.21,-126 480.21,-126 477.21,-122 397.79,-122 397.79,-86 504.21,-86 504.21,-122"/>
<text text-anchor="middle" x="451" y="-99.8" font-family="Times,serif" font-size="14.00">JwtUtilsModule</text>
</g>
<!-- PaymentModule -->
<g id="node5" class="node">
<title>PaymentModule</title>
<polygon fill="#8dd3c7" stroke="black" points="435.04,-187 432.04,-191 411.04,-191 408.04,-187 326.96,-187 326.96,-151 435.04,-151 435.04,-187"/>
<text text-anchor="middle" x="381" y="-164.8" font-family="Times,serif" font-size="14.00">PaymentModule</text>
</g>
<!-- JwtUtilsModule&#45;&gt;PaymentModule -->
<g id="edge1" class="edge">
<title>JwtUtilsModule&#45;&gt;PaymentModule</title>
<path fill="none" stroke="black" d="M416.58,-122.11C416.58,-122.11 416.58,-140.99 416.58,-140.99"/>
<polygon fill="black" stroke="black" points="413.08,-140.99 416.58,-150.99 420.08,-140.99 413.08,-140.99"/>
</g>
<!-- MembershipsModule -->
<g id="node2" class="node">
<title>MembershipsModule</title>
<polygon fill="#8dd3c7" stroke="black" points="379.75,-122 376.75,-126 355.75,-126 352.75,-122 244.25,-122 244.25,-86 379.75,-86 379.75,-122"/>
<text text-anchor="middle" x="312" y="-99.8" font-family="Times,serif" font-size="14.00">MembershipsModule</text>
</g>
<!-- MembershipsModule&#45;&gt;PaymentModule -->
<g id="edge2" class="edge">
<title>MembershipsModule&#45;&gt;PaymentModule</title>
<path fill="none" stroke="black" d="M353.3,-122.11C353.3,-122.11 353.3,-140.99 353.3,-140.99"/>
<polygon fill="black" stroke="black" points="349.8,-140.99 353.3,-150.99 356.8,-140.99 349.8,-140.99"/>
</g>
<!-- PayosModule -->
<g id="node3" class="node">
<title>PayosModule</title>
<polygon fill="#8dd3c7" stroke="black" points="226.49,-122 223.49,-126 202.49,-126 199.49,-122 133.51,-122 133.51,-86 226.49,-86 226.49,-122"/>
<text text-anchor="middle" x="180" y="-99.8" font-family="Times,serif" font-size="14.00">PayosModule</text>
</g>
<!-- PayosModule&#45;&gt;PaymentModule -->
<g id="edge3" class="edge">
<title>PayosModule&#45;&gt;PaymentModule</title>
<path fill="none" stroke="black" d="M180,-122.02C180,-139.37 180,-163 180,-163 180,-163 316.87,-163 316.87,-163"/>
<polygon fill="black" stroke="black" points="316.87,-166.5 326.87,-163 316.87,-159.5 316.87,-166.5"/>
</g>
<!-- UsersModule -->
<g id="node4" class="node">
<title>UsersModule</title>
<polygon fill="#8dd3c7" stroke="black" points="115.92,-122 112.92,-126 91.92,-126 88.92,-122 24.08,-122 24.08,-86 115.92,-86 115.92,-122"/>
<text text-anchor="middle" x="70" y="-99.8" font-family="Times,serif" font-size="14.00">UsersModule</text>
</g>
<!-- UsersModule&#45;&gt;PaymentModule -->
<g id="edge4" class="edge">
<title>UsersModule&#45;&gt;PaymentModule</title>
<path fill="none" stroke="black" d="M70,-122.28C70,-143.32 70,-175 70,-175 70,-175 316.83,-175 316.83,-175"/>
<polygon fill="black" stroke="black" points="316.83,-178.5 326.83,-175 316.83,-171.5 316.83,-178.5"/>
</g>
<!-- DatabaseService -->
<g id="node6" class="node">
<title>DatabaseService</title>
<ellipse fill="#fdb462" stroke="black" cx="769" cy="-104" rx="75.26" ry="18"/>
<text text-anchor="middle" x="769" y="-99.8" font-family="Times,serif" font-size="14.00">DatabaseService</text>
</g>
<!-- DatabaseService&#45;&gt;PaymentModule -->
<g id="edge5" class="edge">
<title>DatabaseService&#45;&gt;PaymentModule</title>
<path fill="none" stroke="black" d="M769,-122.28C769,-143.32 769,-175 769,-175 769,-175 445.36,-175 445.36,-175"/>
<polygon fill="black" stroke="black" points="445.36,-171.5 435.36,-175 445.36,-178.5 445.36,-171.5"/>
</g>
<!-- PaymentService -->
<g id="node7" class="node">
<title>PaymentService</title>
<ellipse fill="#fdb462" stroke="black" cx="602" cy="-104" rx="73.57" ry="18"/>
<text text-anchor="middle" x="602" y="-99.8" font-family="Times,serif" font-size="14.00">PaymentService</text>
</g>
<!-- PaymentService&#45;&gt;PaymentModule -->
<g id="edge6" class="edge">
<title>PaymentService&#45;&gt;PaymentModule</title>
<path fill="none" stroke="black" d="M602,-122.02C602,-139.37 602,-163 602,-163 602,-163 445.06,-163 445.06,-163"/>
<polygon fill="black" stroke="black" points="445.06,-159.5 435.06,-163 445.06,-166.5 445.06,-159.5"/>
</g>
</g>
</svg>
