<?xml version="1.0" encoding="UTF-8" standalone="no"?>
<!DOCTYPE svg PUBLIC "-//W3C//DTD SVG 1.1//EN"
 "http://www.w3.org/Graphics/SVG/1.1/DTD/svg11.dtd">
<!-- Generated by graphviz version 2.47.0 (20210316.0004)
 -->
<!-- Title: dependencies Pages: 1 -->
<svg width="504pt" height="211pt"
 viewBox="0.00 0.00 504.00 211.00" xmlns="http://www.w3.org/2000/svg" xmlns:xlink="http://www.w3.org/1999/xlink">
<g id="graph0" class="graph" transform="scale(1 1) rotate(0) translate(4 207)">
<title>dependencies</title>
<polygon fill="white" stroke="transparent" points="-4,4 -4,-207 500,-207 500,4 -4,4"/>
<text text-anchor="start" x="227.01" y="-42.4" font-family="Times-12" font-weight="bold" font-size="14.00">Legend</text>
<polygon fill="#ffffb3" stroke="transparent" points="14,-10 14,-30 34,-30 34,-10 14,-10"/>
<text text-anchor="start" x="37.63" y="-15.4" font-family="Times-12" font-size="14.00"> &#160;Declarations</text>
<polygon fill="#8dd3c7" stroke="transparent" points="127,-10 127,-30 147,-30 147,-10 127,-10"/>
<text text-anchor="start" x="150.73" y="-15.4" font-family="Times-12" font-size="14.00"> &#160;Module</text>
<polygon fill="#80b1d3" stroke="transparent" points="213,-10 213,-30 233,-30 233,-10 213,-10"/>
<text text-anchor="start" x="236.78" y="-15.4" font-family="Times-12" font-size="14.00"> &#160;Bootstrap</text>
<polygon fill="#fdb462" stroke="transparent" points="310,-10 310,-30 330,-30 330,-10 310,-10"/>
<text text-anchor="start" x="333.67" y="-15.4" font-family="Times-12" font-size="14.00"> &#160;Providers</text>
<polygon fill="#fb8072" stroke="transparent" points="406,-10 406,-30 426,-30 426,-10 406,-10"/>
<text text-anchor="start" x="429.73" y="-15.4" font-family="Times-12" font-size="14.00"> &#160;Exports</text>
<g id="clust1" class="cluster">
<title>cluster_NoteModule</title>
<polygon fill="none" stroke="black" stroke-dasharray="1,5" points="24,-70 24,-195 472,-195 472,-70 24,-70"/>
</g>
<g id="clust3" class="cluster">
<title>cluster_NoteModule_imports</title>
<polygon fill="none" stroke="black" points="342,-78 342,-130 464,-130 464,-78 342,-78"/>
</g>
<g id="clust6" class="cluster">
<title>cluster_NoteModule_providers</title>
<polygon fill="none" stroke="black" points="32,-78 32,-130 334,-130 334,-78 32,-78"/>
</g>
<!-- JwtUtilsModule -->
<g id="node1" class="node">
<title>JwtUtilsModule</title>
<polygon fill="#8dd3c7" stroke="black" points="456.21,-122 453.21,-126 432.21,-126 429.21,-122 349.79,-122 349.79,-86 456.21,-86 456.21,-122"/>
<text text-anchor="middle" x="403" y="-99.8" font-family="Times,serif" font-size="14.00">JwtUtilsModule</text>
</g>
<!-- NoteModule -->
<g id="node2" class="node">
<title>NoteModule</title>
<polygon fill="#8dd3c7" stroke="black" points="294.26,-187 291.26,-191 270.26,-191 267.26,-187 207.74,-187 207.74,-151 294.26,-151 294.26,-187"/>
<text text-anchor="middle" x="251" y="-164.8" font-family="Times,serif" font-size="14.00">NoteModule</text>
</g>
<!-- JwtUtilsModule&#45;&gt;NoteModule -->
<g id="edge1" class="edge">
<title>JwtUtilsModule&#45;&gt;NoteModule</title>
<path fill="none" stroke="black" d="M403,-122.11C403,-141.34 403,-169 403,-169 403,-169 304.56,-169 304.56,-169"/>
<polygon fill="black" stroke="black" points="304.56,-165.5 294.56,-169 304.56,-172.5 304.56,-165.5"/>
</g>
<!-- DatabaseService -->
<g id="node3" class="node">
<title>DatabaseService</title>
<ellipse fill="#fdb462" stroke="black" cx="251" cy="-104" rx="75.26" ry="18"/>
<text text-anchor="middle" x="251" y="-99.8" font-family="Times,serif" font-size="14.00">DatabaseService</text>
</g>
<!-- DatabaseService&#45;&gt;NoteModule -->
<g id="edge2" class="edge">
<title>DatabaseService&#45;&gt;NoteModule</title>
<path fill="none" stroke="black" d="M251,-122.11C251,-122.11 251,-140.99 251,-140.99"/>
<polygon fill="black" stroke="black" points="247.5,-140.99 251,-150.99 254.5,-140.99 247.5,-140.99"/>
</g>
<!-- NoteService -->
<g id="node4" class="node">
<title>NoteService</title>
<ellipse fill="#fdb462" stroke="black" cx="99" cy="-104" rx="58.53" ry="18"/>
<text text-anchor="middle" x="99" y="-99.8" font-family="Times,serif" font-size="14.00">NoteService</text>
</g>
<!-- NoteService&#45;&gt;NoteModule -->
<g id="edge3" class="edge">
<title>NoteService&#45;&gt;NoteModule</title>
<path fill="none" stroke="black" d="M99,-122.11C99,-141.34 99,-169 99,-169 99,-169 197.44,-169 197.44,-169"/>
<polygon fill="black" stroke="black" points="197.44,-172.5 207.44,-169 197.44,-165.5 197.44,-172.5"/>
</g>
</g>
</svg>
