<?xml version="1.0" encoding="UTF-8" standalone="no"?>
<!DOCTYPE svg PUBLIC "-//W3C//DTD SVG 1.1//EN"
 "http://www.w3.org/Graphics/SVG/1.1/DTD/svg11.dtd">
<!-- Generated by graphviz version 2.47.0 (20210316.0004)
 -->
<!-- Title: dependencies Pages: 1 -->
<svg width="735pt" height="211pt"
 viewBox="0.00 0.00 735.00 211.00" xmlns="http://www.w3.org/2000/svg" xmlns:xlink="http://www.w3.org/1999/xlink">
<g id="graph0" class="graph" transform="scale(1 1) rotate(0) translate(4 207)">
<title>dependencies</title>
<polygon fill="white" stroke="transparent" points="-4,4 -4,-207 731,-207 731,4 -4,4"/>
<text text-anchor="start" x="342.51" y="-42.4" font-family="Times-12" font-weight="bold" font-size="14.00">Legend</text>
<polygon fill="#ffffb3" stroke="transparent" points="129.5,-10 129.5,-30 149.5,-30 149.5,-10 129.5,-10"/>
<text text-anchor="start" x="153.13" y="-15.4" font-family="Times-12" font-size="14.00"> &#160;Declarations</text>
<polygon fill="#8dd3c7" stroke="transparent" points="242.5,-10 242.5,-30 262.5,-30 262.5,-10 242.5,-10"/>
<text text-anchor="start" x="266.23" y="-15.4" font-family="Times-12" font-size="14.00"> &#160;Module</text>
<polygon fill="#80b1d3" stroke="transparent" points="328.5,-10 328.5,-30 348.5,-30 348.5,-10 328.5,-10"/>
<text text-anchor="start" x="352.28" y="-15.4" font-family="Times-12" font-size="14.00"> &#160;Bootstrap</text>
<polygon fill="#fdb462" stroke="transparent" points="425.5,-10 425.5,-30 445.5,-30 445.5,-10 425.5,-10"/>
<text text-anchor="start" x="449.17" y="-15.4" font-family="Times-12" font-size="14.00"> &#160;Providers</text>
<polygon fill="#fb8072" stroke="transparent" points="521.5,-10 521.5,-30 541.5,-30 541.5,-10 521.5,-10"/>
<text text-anchor="start" x="545.23" y="-15.4" font-family="Times-12" font-size="14.00"> &#160;Exports</text>
<g id="clust1" class="cluster">
<title>cluster_CommentsModule</title>
<polygon fill="none" stroke="black" stroke-dasharray="1,5" points="8,-70 8,-195 719,-195 719,-70 8,-70"/>
</g>
<g id="clust6" class="cluster">
<title>cluster_CommentsModule_providers</title>
<polygon fill="none" stroke="black" points="363,-78 363,-130 711,-130 711,-78 363,-78"/>
</g>
<g id="clust3" class="cluster">
<title>cluster_CommentsModule_imports</title>
<polygon fill="none" stroke="black" points="16,-78 16,-130 355,-130 355,-78 16,-78"/>
</g>
<!-- JwtUtilsModule -->
<g id="node1" class="node">
<title>JwtUtilsModule</title>
<polygon fill="#8dd3c7" stroke="black" points="347.21,-122 344.21,-126 323.21,-126 320.21,-122 240.79,-122 240.79,-86 347.21,-86 347.21,-122"/>
<text text-anchor="middle" x="294" y="-99.8" font-family="Times,serif" font-size="14.00">JwtUtilsModule</text>
</g>
<!-- CommentsModule -->
<g id="node4" class="node">
<title>CommentsModule</title>
<polygon fill="#8dd3c7" stroke="black" points="354.22,-187 351.22,-191 330.22,-191 327.22,-187 233.78,-187 233.78,-151 354.22,-151 354.22,-187"/>
<text text-anchor="middle" x="294" y="-164.8" font-family="Times,serif" font-size="14.00">CommentsModule</text>
</g>
<!-- JwtUtilsModule&#45;&gt;CommentsModule -->
<g id="edge1" class="edge">
<title>JwtUtilsModule&#45;&gt;CommentsModule</title>
<path fill="none" stroke="black" d="M294,-122.11C294,-122.11 294,-140.99 294,-140.99"/>
<polygon fill="black" stroke="black" points="290.5,-140.99 294,-150.99 297.5,-140.99 290.5,-140.99"/>
</g>
<!-- PostsModule -->
<g id="node2" class="node">
<title>PostsModule</title>
<polygon fill="#8dd3c7" stroke="black" points="222.61,-122 219.61,-126 198.61,-126 195.61,-122 133.39,-122 133.39,-86 222.61,-86 222.61,-122"/>
<text text-anchor="middle" x="178" y="-99.8" font-family="Times,serif" font-size="14.00">PostsModule</text>
</g>
<!-- PostsModule&#45;&gt;CommentsModule -->
<g id="edge2" class="edge">
<title>PostsModule&#45;&gt;CommentsModule</title>
<path fill="none" stroke="black" d="M222.71,-104C231.15,-104 237.39,-104 237.39,-104 237.39,-104 237.39,-140.89 237.39,-140.89"/>
<polygon fill="black" stroke="black" points="233.89,-140.89 237.39,-150.89 240.89,-140.89 233.89,-140.89"/>
</g>
<!-- UsersModule -->
<g id="node3" class="node">
<title>UsersModule</title>
<polygon fill="#8dd3c7" stroke="black" points="115.92,-122 112.92,-126 91.92,-126 88.92,-122 24.08,-122 24.08,-86 115.92,-86 115.92,-122"/>
<text text-anchor="middle" x="70" y="-99.8" font-family="Times,serif" font-size="14.00">UsersModule</text>
</g>
<!-- UsersModule&#45;&gt;CommentsModule -->
<g id="edge3" class="edge">
<title>UsersModule&#45;&gt;CommentsModule</title>
<path fill="none" stroke="black" d="M70,-122.11C70,-141.34 70,-169 70,-169 70,-169 223.68,-169 223.68,-169"/>
<polygon fill="black" stroke="black" points="223.68,-172.5 233.68,-169 223.68,-165.5 223.68,-172.5"/>
</g>
<!-- CommentsService -->
<g id="node5" class="node">
<title>CommentsService</title>
<ellipse fill="#fdb462" stroke="black" cx="621" cy="-104" rx="81.68" ry="18"/>
<text text-anchor="middle" x="621" y="-99.8" font-family="Times,serif" font-size="14.00">CommentsService</text>
</g>
<!-- CommentsService&#45;&gt;CommentsModule -->
<g id="edge4" class="edge">
<title>CommentsService&#45;&gt;CommentsModule</title>
<path fill="none" stroke="black" d="M621,-122.11C621,-141.34 621,-169 621,-169 621,-169 364.36,-169 364.36,-169"/>
<polygon fill="black" stroke="black" points="364.36,-165.5 354.36,-169 364.36,-172.5 364.36,-165.5"/>
</g>
<!-- DatabaseService -->
<g id="node6" class="node">
<title>DatabaseService</title>
<ellipse fill="#fdb462" stroke="black" cx="446" cy="-104" rx="75.26" ry="18"/>
<text text-anchor="middle" x="446" y="-99.8" font-family="Times,serif" font-size="14.00">DatabaseService</text>
</g>
<!-- DatabaseService&#45;&gt;CommentsModule -->
<g id="edge5" class="edge">
<title>DatabaseService&#45;&gt;CommentsModule</title>
<path fill="none" stroke="black" d="M370.37,-104C358.8,-104 350.61,-104 350.61,-104 350.61,-104 350.61,-140.89 350.61,-140.89"/>
<polygon fill="black" stroke="black" points="347.11,-140.89 350.61,-150.89 354.11,-140.89 347.11,-140.89"/>
</g>
</g>
</svg>
