<?xml version="1.0" encoding="UTF-8" standalone="no"?>
<!DOCTYPE svg PUBLIC "-//W3C//DTD SVG 1.1//EN"
 "http://www.w3.org/Graphics/SVG/1.1/DTD/svg11.dtd">
<!-- Generated by graphviz version 2.47.0 (20210316.0004)
 -->
<!-- Title: dependencies Pages: 1 -->
<svg width="585pt" height="284pt"
 viewBox="0.00 0.00 585.00 284.00" xmlns="http://www.w3.org/2000/svg" xmlns:xlink="http://www.w3.org/1999/xlink">
<g id="graph0" class="graph" transform="scale(1 1) rotate(0) translate(4 280)">
<title>dependencies</title>
<polygon fill="white" stroke="transparent" points="-4,4 -4,-280 581,-280 581,4 -4,4"/>
<text text-anchor="start" x="267.51" y="-42.4" font-family="Times-12" font-weight="bold" font-size="14.00">Legend</text>
<polygon fill="#ffffb3" stroke="transparent" points="54.5,-10 54.5,-30 74.5,-30 74.5,-10 54.5,-10"/>
<text text-anchor="start" x="78.13" y="-15.4" font-family="Times-12" font-size="14.00"> &#160;Declarations</text>
<polygon fill="#8dd3c7" stroke="transparent" points="167.5,-10 167.5,-30 187.5,-30 187.5,-10 167.5,-10"/>
<text text-anchor="start" x="191.23" y="-15.4" font-family="Times-12" font-size="14.00"> &#160;Module</text>
<polygon fill="#80b1d3" stroke="transparent" points="253.5,-10 253.5,-30 273.5,-30 273.5,-10 253.5,-10"/>
<text text-anchor="start" x="277.28" y="-15.4" font-family="Times-12" font-size="14.00"> &#160;Bootstrap</text>
<polygon fill="#fdb462" stroke="transparent" points="350.5,-10 350.5,-30 370.5,-30 370.5,-10 350.5,-10"/>
<text text-anchor="start" x="374.17" y="-15.4" font-family="Times-12" font-size="14.00"> &#160;Providers</text>
<polygon fill="#fb8072" stroke="transparent" points="446.5,-10 446.5,-30 466.5,-30 466.5,-10 446.5,-10"/>
<text text-anchor="start" x="470.23" y="-15.4" font-family="Times-12" font-size="14.00"> &#160;Exports</text>
<g id="clust1" class="cluster">
<title>cluster_PostsModule</title>
<polygon fill="none" stroke="black" stroke-dasharray="1,5" points="8,-70 8,-268 569,-268 569,-70 8,-70"/>
</g>
<g id="clust3" class="cluster">
<title>cluster_PostsModule_imports</title>
<polygon fill="none" stroke="black" points="329,-78 329,-130 561,-130 561,-78 329,-78"/>
</g>
<g id="clust6" class="cluster">
<title>cluster_PostsModule_providers</title>
<polygon fill="none" stroke="black" points="16,-78 16,-130 321,-130 321,-78 16,-78"/>
</g>
<g id="clust4" class="cluster">
<title>cluster_PostsModule_exports</title>
<polygon fill="none" stroke="black" points="256,-208 256,-260 364,-260 364,-208 256,-208"/>
</g>
<!-- JwtUtilsModule -->
<g id="node1" class="node">
<title>JwtUtilsModule</title>
<polygon fill="#8dd3c7" stroke="black" points="553.21,-122 550.21,-126 529.21,-126 526.21,-122 446.79,-122 446.79,-86 553.21,-86 553.21,-122"/>
<text text-anchor="middle" x="500" y="-99.8" font-family="Times,serif" font-size="14.00">JwtUtilsModule</text>
</g>
<!-- PostsModule -->
<g id="node3" class="node">
<title>PostsModule</title>
<polygon fill="#8dd3c7" stroke="black" points="354.61,-187 351.61,-191 330.61,-191 327.61,-187 265.39,-187 265.39,-151 354.61,-151 354.61,-187"/>
<text text-anchor="middle" x="310" y="-164.8" font-family="Times,serif" font-size="14.00">PostsModule</text>
</g>
<!-- JwtUtilsModule&#45;&gt;PostsModule -->
<g id="edge1" class="edge">
<title>JwtUtilsModule&#45;&gt;PostsModule</title>
<path fill="none" stroke="black" d="M500,-122.11C500,-141.34 500,-169 500,-169 500,-169 365.03,-169 365.03,-169"/>
<polygon fill="black" stroke="black" points="365.03,-165.5 355.03,-169 365.03,-172.5 365.03,-165.5"/>
</g>
<!-- UsersModule -->
<g id="node2" class="node">
<title>UsersModule</title>
<polygon fill="#8dd3c7" stroke="black" points="428.92,-122 425.92,-126 404.92,-126 401.92,-122 337.08,-122 337.08,-86 428.92,-86 428.92,-122"/>
<text text-anchor="middle" x="383" y="-99.8" font-family="Times,serif" font-size="14.00">UsersModule</text>
</g>
<!-- UsersModule&#45;&gt;PostsModule -->
<g id="edge2" class="edge">
<title>UsersModule&#45;&gt;PostsModule</title>
<path fill="none" stroke="black" d="M345.92,-122.11C345.92,-122.11 345.92,-140.99 345.92,-140.99"/>
<polygon fill="black" stroke="black" points="342.42,-140.99 345.92,-150.99 349.42,-140.99 342.42,-140.99"/>
</g>
<!-- PostsService  -->
<g id="node4" class="node">
<title>PostsService </title>
<polygon fill="#fb8072" stroke="black" points="355.54,-252 264.46,-252 264.46,-216 355.54,-216 355.54,-252"/>
<text text-anchor="middle" x="310" y="-229.8" font-family="Times,serif" font-size="14.00">PostsService </text>
</g>
<!-- PostsModule&#45;&gt;PostsService  -->
<g id="edge3" class="edge">
<title>PostsModule&#45;&gt;PostsService </title>
<path fill="none" stroke="black" stroke-dasharray="5,2" d="M310,-187.11C310,-187.11 310,-205.99 310,-205.99"/>
<polygon fill="black" stroke="black" points="306.5,-205.99 310,-215.99 313.5,-205.99 306.5,-205.99"/>
</g>
<!-- DatabaseService -->
<g id="node5" class="node">
<title>DatabaseService</title>
<ellipse fill="#fdb462" stroke="black" cx="238" cy="-104" rx="75.26" ry="18"/>
<text text-anchor="middle" x="238" y="-99.8" font-family="Times,serif" font-size="14.00">DatabaseService</text>
</g>
<!-- DatabaseService&#45;&gt;PostsModule -->
<g id="edge4" class="edge">
<title>DatabaseService&#45;&gt;PostsModule</title>
<path fill="none" stroke="black" d="M289.41,-117.47C289.41,-117.47 289.41,-140.86 289.41,-140.86"/>
<polygon fill="black" stroke="black" points="285.91,-140.86 289.41,-150.86 292.91,-140.86 285.91,-140.86"/>
</g>
<!-- PostsService -->
<g id="node6" class="node">
<title>PostsService</title>
<ellipse fill="#fdb462" stroke="black" cx="84" cy="-104" rx="60.27" ry="18"/>
<text text-anchor="middle" x="84" y="-99.8" font-family="Times,serif" font-size="14.00">PostsService</text>
</g>
<!-- PostsService&#45;&gt;PostsModule -->
<g id="edge5" class="edge">
<title>PostsService&#45;&gt;PostsModule</title>
<path fill="none" stroke="black" d="M84,-122.11C84,-141.34 84,-169 84,-169 84,-169 255.35,-169 255.35,-169"/>
<polygon fill="black" stroke="black" points="255.35,-172.5 265.35,-169 255.35,-165.5 255.35,-172.5"/>
</g>
</g>
</svg>
