<?xml version="1.0" encoding="UTF-8" standalone="no"?>
<!DOCTYPE svg PUBLIC "-//W3C//DTD SVG 1.1//EN"
 "http://www.w3.org/Graphics/SVG/1.1/DTD/svg11.dtd">
<!-- Generated by graphviz version 2.47.0 (20210316.0004)
 -->
<!-- Title: dependencies Pages: 1 -->
<svg width="504pt" height="284pt"
 viewBox="0.00 0.00 504.00 284.00" xmlns="http://www.w3.org/2000/svg" xmlns:xlink="http://www.w3.org/1999/xlink">
<g id="graph0" class="graph" transform="scale(1 1) rotate(0) translate(4 280)">
<title>dependencies</title>
<polygon fill="white" stroke="transparent" points="-4,4 -4,-280 500,-280 500,4 -4,4"/>
<text text-anchor="start" x="227.01" y="-42.4" font-family="Times-12" font-weight="bold" font-size="14.00">Legend</text>
<polygon fill="#ffffb3" stroke="transparent" points="14,-10 14,-30 34,-30 34,-10 14,-10"/>
<text text-anchor="start" x="37.63" y="-15.4" font-family="Times-12" font-size="14.00"> &#160;Declarations</text>
<polygon fill="#8dd3c7" stroke="transparent" points="127,-10 127,-30 147,-30 147,-10 127,-10"/>
<text text-anchor="start" x="150.73" y="-15.4" font-family="Times-12" font-size="14.00"> &#160;Module</text>
<polygon fill="#80b1d3" stroke="transparent" points="213,-10 213,-30 233,-30 233,-10 213,-10"/>
<text text-anchor="start" x="236.78" y="-15.4" font-family="Times-12" font-size="14.00"> &#160;Bootstrap</text>
<polygon fill="#fdb462" stroke="transparent" points="310,-10 310,-30 330,-30 330,-10 310,-10"/>
<text text-anchor="start" x="333.67" y="-15.4" font-family="Times-12" font-size="14.00"> &#160;Providers</text>
<polygon fill="#fb8072" stroke="transparent" points="406,-10 406,-30 426,-30 426,-10 406,-10"/>
<text text-anchor="start" x="429.73" y="-15.4" font-family="Times-12" font-size="14.00"> &#160;Exports</text>
<g id="clust1" class="cluster">
<title>cluster_MembershipsModule</title>
<polygon fill="none" stroke="black" stroke-dasharray="1,5" points="55,-70 55,-268 441,-268 441,-70 55,-70"/>
</g>
<g id="clust6" class="cluster">
<title>cluster_MembershipsModule_providers</title>
<polygon fill="none" stroke="black" points="63,-78 63,-130 433,-130 433,-78 63,-78"/>
</g>
<g id="clust4" class="cluster">
<title>cluster_MembershipsModule_exports</title>
<polygon fill="none" stroke="black" points="180,-208 180,-260 334,-260 334,-208 180,-208"/>
</g>
<!-- MembershipsService  -->
<g id="node1" class="node">
<title>MembershipsService </title>
<polygon fill="#fb8072" stroke="black" points="325.68,-252 188.32,-252 188.32,-216 325.68,-216 325.68,-252"/>
<text text-anchor="middle" x="257" y="-229.8" font-family="Times,serif" font-size="14.00">MembershipsService </text>
</g>
<!-- MembershipsModule -->
<g id="node2" class="node">
<title>MembershipsModule</title>
<polygon fill="#8dd3c7" stroke="black" points="324.75,-187 321.75,-191 300.75,-191 297.75,-187 189.25,-187 189.25,-151 324.75,-151 324.75,-187"/>
<text text-anchor="middle" x="257" y="-164.8" font-family="Times,serif" font-size="14.00">MembershipsModule</text>
</g>
<!-- MembershipsModule&#45;&gt;MembershipsService  -->
<g id="edge1" class="edge">
<title>MembershipsModule&#45;&gt;MembershipsService </title>
<path fill="none" stroke="black" stroke-dasharray="5,2" d="M257,-187.11C257,-187.11 257,-205.99 257,-205.99"/>
<polygon fill="black" stroke="black" points="253.5,-205.99 257,-215.99 260.5,-205.99 253.5,-205.99"/>
</g>
<!-- DatabaseService -->
<g id="node3" class="node">
<title>DatabaseService</title>
<ellipse fill="#fdb462" stroke="black" cx="350" cy="-104" rx="75.26" ry="18"/>
<text text-anchor="middle" x="350" y="-99.8" font-family="Times,serif" font-size="14.00">DatabaseService</text>
</g>
<!-- DatabaseService&#45;&gt;MembershipsModule -->
<g id="edge2" class="edge">
<title>DatabaseService&#45;&gt;MembershipsModule</title>
<path fill="none" stroke="black" d="M299.75,-117.47C299.75,-117.47 299.75,-140.86 299.75,-140.86"/>
<polygon fill="black" stroke="black" points="296.25,-140.86 299.75,-150.86 303.25,-140.86 296.25,-140.86"/>
</g>
<!-- MembershipsService -->
<g id="node4" class="node">
<title>MembershipsService</title>
<ellipse fill="#fdb462" stroke="black" cx="164" cy="-104" rx="92.61" ry="18"/>
<text text-anchor="middle" x="164" y="-99.8" font-family="Times,serif" font-size="14.00">MembershipsService</text>
</g>
<!-- MembershipsService&#45;&gt;MembershipsModule -->
<g id="edge3" class="edge">
<title>MembershipsService&#45;&gt;MembershipsModule</title>
<path fill="none" stroke="black" d="M222.84,-118.1C222.84,-118.1 222.84,-140.72 222.84,-140.72"/>
<polygon fill="black" stroke="black" points="219.34,-140.72 222.84,-150.72 226.34,-140.72 219.34,-140.72"/>
</g>
</g>
</svg>
