<?xml version="1.0" encoding="UTF-8" standalone="no"?>
<!DOCTYPE svg PUBLIC "-//W3C//DTD SVG 1.1//EN"
 "http://www.w3.org/Graphics/SVG/1.1/DTD/svg11.dtd">
<!-- Generated by graphviz version 2.47.0 (20210316.0004)
 -->
<!-- Title: dependencies Pages: 1 -->
<svg width="1410pt" height="211pt"
 viewBox="0.00 0.00 1410.00 211.00" xmlns="http://www.w3.org/2000/svg" xmlns:xlink="http://www.w3.org/1999/xlink">
<g id="graph0" class="graph" transform="scale(1 1) rotate(0) translate(4 207)">
<title>dependencies</title>
<polygon fill="white" stroke="transparent" points="-4,4 -4,-207 1406,-207 1406,4 -4,4"/>
<text text-anchor="start" x="680.01" y="-42.4" font-family="Times-12" font-weight="bold" font-size="14.00">Legend</text>
<polygon fill="#ffffb3" stroke="transparent" points="467,-10 467,-30 487,-30 487,-10 467,-10"/>
<text text-anchor="start" x="490.63" y="-15.4" font-family="Times-12" font-size="14.00"> &#160;Declarations</text>
<polygon fill="#8dd3c7" stroke="transparent" points="580,-10 580,-30 600,-30 600,-10 580,-10"/>
<text text-anchor="start" x="603.73" y="-15.4" font-family="Times-12" font-size="14.00"> &#160;Module</text>
<polygon fill="#80b1d3" stroke="transparent" points="666,-10 666,-30 686,-30 686,-10 666,-10"/>
<text text-anchor="start" x="689.78" y="-15.4" font-family="Times-12" font-size="14.00"> &#160;Bootstrap</text>
<polygon fill="#fdb462" stroke="transparent" points="763,-10 763,-30 783,-30 783,-10 763,-10"/>
<text text-anchor="start" x="786.67" y="-15.4" font-family="Times-12" font-size="14.00"> &#160;Providers</text>
<polygon fill="#fb8072" stroke="transparent" points="859,-10 859,-30 879,-30 879,-10 859,-10"/>
<text text-anchor="start" x="882.73" y="-15.4" font-family="Times-12" font-size="14.00"> &#160;Exports</text>
<g id="clust1" class="cluster">
<title>cluster_RecordsModule</title>
<polygon fill="none" stroke="black" stroke-dasharray="1,5" points="8,-70 8,-195 1394,-195 1394,-70 8,-70"/>
</g>
<g id="clust3" class="cluster">
<title>cluster_RecordsModule_imports</title>
<polygon fill="none" stroke="black" points="694,-78 694,-130 1386,-130 1386,-78 694,-78"/>
</g>
<g id="clust6" class="cluster">
<title>cluster_RecordsModule_providers</title>
<polygon fill="none" stroke="black" points="16,-78 16,-130 686,-130 686,-78 16,-78"/>
</g>
<!-- JwtUtilsModule -->
<g id="node1" class="node">
<title>JwtUtilsModule</title>
<polygon fill="#8dd3c7" stroke="black" points="1378.21,-122 1375.21,-126 1354.21,-126 1351.21,-122 1271.79,-122 1271.79,-86 1378.21,-86 1378.21,-122"/>
<text text-anchor="middle" x="1325" y="-99.8" font-family="Times,serif" font-size="14.00">JwtUtilsModule</text>
</g>
<!-- RecordsModule -->
<g id="node7" class="node">
<title>RecordsModule</title>
<polygon fill="#8dd3c7" stroke="black" points="852.92,-187 849.92,-191 828.92,-191 825.92,-187 747.08,-187 747.08,-151 852.92,-151 852.92,-187"/>
<text text-anchor="middle" x="800" y="-164.8" font-family="Times,serif" font-size="14.00">RecordsModule</text>
</g>
<!-- JwtUtilsModule&#45;&gt;RecordsModule -->
<g id="edge1" class="edge">
<title>JwtUtilsModule&#45;&gt;RecordsModule</title>
<path fill="none" stroke="black" d="M1325,-122.01C1325,-144.49 1325,-180 1325,-180 1325,-180 862.74,-180 862.74,-180"/>
<polygon fill="black" stroke="black" points="862.74,-176.5 852.74,-180 862.74,-183.5 862.74,-176.5"/>
</g>
<!-- MediaModule -->
<g id="node2" class="node">
<title>MediaModule</title>
<polygon fill="#8dd3c7" stroke="black" points="1253.81,-122 1250.81,-126 1229.81,-126 1226.81,-122 1158.19,-122 1158.19,-86 1253.81,-86 1253.81,-122"/>
<text text-anchor="middle" x="1206" y="-99.8" font-family="Times,serif" font-size="14.00">MediaModule</text>
</g>
<!-- MediaModule&#45;&gt;RecordsModule -->
<g id="edge2" class="edge">
<title>MediaModule&#45;&gt;RecordsModule</title>
<path fill="none" stroke="black" d="M1206,-122.13C1206,-142.57 1206,-173 1206,-173 1206,-173 863.08,-173 863.08,-173"/>
<polygon fill="black" stroke="black" points="863.08,-169.5 853.08,-173 863.08,-176.5 863.08,-169.5"/>
</g>
<!-- MetricModule -->
<g id="node3" class="node">
<title>MetricModule</title>
<polygon fill="#8dd3c7" stroke="black" points="1140.37,-122 1137.37,-126 1116.37,-126 1113.37,-122 1043.63,-122 1043.63,-86 1140.37,-86 1140.37,-122"/>
<text text-anchor="middle" x="1092" y="-99.8" font-family="Times,serif" font-size="14.00">MetricModule</text>
</g>
<!-- MetricModule&#45;&gt;RecordsModule -->
<g id="edge3" class="edge">
<title>MetricModule&#45;&gt;RecordsModule</title>
<path fill="none" stroke="black" d="M1092,-122.27C1092,-140.56 1092,-166 1092,-166 1092,-166 862.88,-166 862.88,-166"/>
<polygon fill="black" stroke="black" points="862.88,-162.5 852.88,-166 862.88,-169.5 862.88,-162.5"/>
</g>
<!-- ReminderModule -->
<g id="node4" class="node">
<title>ReminderModule</title>
<polygon fill="#8dd3c7" stroke="black" points="1025.26,-122 1022.26,-126 1001.26,-126 998.26,-122 910.74,-122 910.74,-86 1025.26,-86 1025.26,-122"/>
<text text-anchor="middle" x="968" y="-99.8" font-family="Times,serif" font-size="14.00">ReminderModule</text>
</g>
<!-- ReminderModule&#45;&gt;RecordsModule -->
<g id="edge4" class="edge">
<title>ReminderModule&#45;&gt;RecordsModule</title>
<path fill="none" stroke="black" d="M968,-122.01C968,-138.05 968,-159 968,-159 968,-159 863.16,-159 863.16,-159"/>
<polygon fill="black" stroke="black" points="863.16,-155.5 853.16,-159 863.16,-162.5 863.16,-155.5"/>
</g>
<!-- TagModule -->
<g id="node5" class="node">
<title>TagModule</title>
<polygon fill="#8dd3c7" stroke="black" points="892.82,-122 889.82,-126 868.82,-126 865.82,-122 811.18,-122 811.18,-86 892.82,-86 892.82,-122"/>
<text text-anchor="middle" x="852" y="-99.8" font-family="Times,serif" font-size="14.00">TagModule</text>
</g>
<!-- TagModule&#45;&gt;RecordsModule -->
<g id="edge5" class="edge">
<title>TagModule&#45;&gt;RecordsModule</title>
<path fill="none" stroke="black" d="M832.03,-122.11C832.03,-122.11 832.03,-140.99 832.03,-140.99"/>
<polygon fill="black" stroke="black" points="828.53,-140.99 832.03,-150.99 835.53,-140.99 828.53,-140.99"/>
</g>
<!-- UsersModule -->
<g id="node6" class="node">
<title>UsersModule</title>
<polygon fill="#8dd3c7" stroke="black" points="793.92,-122 790.92,-126 769.92,-126 766.92,-122 702.08,-122 702.08,-86 793.92,-86 793.92,-122"/>
<text text-anchor="middle" x="748" y="-99.8" font-family="Times,serif" font-size="14.00">UsersModule</text>
</g>
<!-- UsersModule&#45;&gt;RecordsModule -->
<g id="edge6" class="edge">
<title>UsersModule&#45;&gt;RecordsModule</title>
<path fill="none" stroke="black" d="M770.5,-122.11C770.5,-122.11 770.5,-140.99 770.5,-140.99"/>
<polygon fill="black" stroke="black" points="767,-140.99 770.5,-150.99 774,-140.99 767,-140.99"/>
</g>
<!-- DatabaseService -->
<g id="node8" class="node">
<title>DatabaseService</title>
<ellipse fill="#fdb462" stroke="black" cx="603" cy="-104" rx="75.26" ry="18"/>
<text text-anchor="middle" x="603" y="-99.8" font-family="Times,serif" font-size="14.00">DatabaseService</text>
</g>
<!-- DatabaseService&#45;&gt;RecordsModule -->
<g id="edge7" class="edge">
<title>DatabaseService&#45;&gt;RecordsModule</title>
<path fill="none" stroke="black" d="M603,-122.01C603,-138.05 603,-159 603,-159 603,-159 737.21,-159 737.21,-159"/>
<polygon fill="black" stroke="black" points="737.21,-162.5 747.21,-159 737.21,-155.5 737.21,-162.5"/>
</g>
<!-- RecordsService -->
<g id="node9" class="node">
<title>RecordsService</title>
<ellipse fill="#fdb462" stroke="black" cx="438" cy="-104" rx="71.77" ry="18"/>
<text text-anchor="middle" x="438" y="-99.8" font-family="Times,serif" font-size="14.00">RecordsService</text>
</g>
<!-- RecordsService&#45;&gt;RecordsModule -->
<g id="edge8" class="edge">
<title>RecordsService&#45;&gt;RecordsModule</title>
<path fill="none" stroke="black" d="M438,-122.27C438,-140.56 438,-166 438,-166 438,-166 736.97,-166 736.97,-166"/>
<polygon fill="black" stroke="black" points="736.97,-169.5 746.97,-166 736.97,-162.5 736.97,-169.5"/>
</g>
<!-- StandardService -->
<g id="node10" class="node">
<title>StandardService</title>
<ellipse fill="#fdb462" stroke="black" cx="274" cy="-104" rx="74.14" ry="18"/>
<text text-anchor="middle" x="274" y="-99.8" font-family="Times,serif" font-size="14.00">StandardService</text>
</g>
<!-- StandardService&#45;&gt;RecordsModule -->
<g id="edge9" class="edge">
<title>StandardService&#45;&gt;RecordsModule</title>
<path fill="none" stroke="black" d="M274,-122.13C274,-142.57 274,-173 274,-173 274,-173 737.16,-173 737.16,-173"/>
<polygon fill="black" stroke="black" points="737.16,-176.5 747.16,-173 737.16,-169.5 737.16,-176.5"/>
</g>
<!-- TimeUtilsService -->
<g id="node11" class="node">
<title>TimeUtilsService</title>
<ellipse fill="#fdb462" stroke="black" cx="103" cy="-104" rx="79.3" ry="18"/>
<text text-anchor="middle" x="103" y="-99.8" font-family="Times,serif" font-size="14.00">TimeUtilsService</text>
</g>
<!-- TimeUtilsService&#45;&gt;RecordsModule -->
<g id="edge10" class="edge">
<title>TimeUtilsService&#45;&gt;RecordsModule</title>
<path fill="none" stroke="black" d="M103,-122.01C103,-144.49 103,-180 103,-180 103,-180 737.04,-180 737.04,-180"/>
<polygon fill="black" stroke="black" points="737.04,-183.5 747.04,-180 737.04,-176.5 737.04,-183.5"/>
</g>
</g>
</svg>
