<?xml version="1.0" encoding="UTF-8" standalone="no"?>
<!DOCTYPE svg PUBLIC "-//W3C//DTD SVG 1.1//EN"
 "http://www.w3.org/Graphics/SVG/1.1/DTD/svg11.dtd">
<!-- Generated by graphviz version 2.47.0 (20210316.0004)
 -->
<!-- Title: dependencies Pages: 1 -->
<svg width="504pt" height="284pt"
 viewBox="0.00 0.00 504.00 284.00" xmlns="http://www.w3.org/2000/svg" xmlns:xlink="http://www.w3.org/1999/xlink">
<g id="graph0" class="graph" transform="scale(1 1) rotate(0) translate(4 280)">
<title>dependencies</title>
<polygon fill="white" stroke="transparent" points="-4,4 -4,-280 500,-280 500,4 -4,4"/>
<text text-anchor="start" x="227.01" y="-42.4" font-family="Times-12" font-weight="bold" font-size="14.00">Legend</text>
<polygon fill="#ffffb3" stroke="transparent" points="14,-10 14,-30 34,-30 34,-10 14,-10"/>
<text text-anchor="start" x="37.63" y="-15.4" font-family="Times-12" font-size="14.00"> &#160;Declarations</text>
<polygon fill="#8dd3c7" stroke="transparent" points="127,-10 127,-30 147,-30 147,-10 127,-10"/>
<text text-anchor="start" x="150.73" y="-15.4" font-family="Times-12" font-size="14.00"> &#160;Module</text>
<polygon fill="#80b1d3" stroke="transparent" points="213,-10 213,-30 233,-30 233,-10 213,-10"/>
<text text-anchor="start" x="236.78" y="-15.4" font-family="Times-12" font-size="14.00"> &#160;Bootstrap</text>
<polygon fill="#fdb462" stroke="transparent" points="310,-10 310,-30 330,-30 330,-10 310,-10"/>
<text text-anchor="start" x="333.67" y="-15.4" font-family="Times-12" font-size="14.00"> &#160;Providers</text>
<polygon fill="#fb8072" stroke="transparent" points="406,-10 406,-30 426,-30 426,-10 406,-10"/>
<text text-anchor="start" x="429.73" y="-15.4" font-family="Times-12" font-size="14.00"> &#160;Exports</text>
<g id="clust1" class="cluster">
<title>cluster_MetricModule</title>
<polygon fill="none" stroke="black" stroke-dasharray="1,5" points="29,-70 29,-268 467,-268 467,-70 29,-70"/>
</g>
<g id="clust6" class="cluster">
<title>cluster_MetricModule_providers</title>
<polygon fill="none" stroke="black" points="143,-78 143,-130 459,-130 459,-78 143,-78"/>
</g>
<g id="clust4" class="cluster">
<title>cluster_MetricModule_exports</title>
<polygon fill="none" stroke="black" points="160,-208 160,-260 274,-260 274,-208 160,-208"/>
</g>
<g id="clust3" class="cluster">
<title>cluster_MetricModule_imports</title>
<polygon fill="none" stroke="black" points="37,-78 37,-130 135,-130 135,-78 37,-78"/>
</g>
<!-- TagModule -->
<g id="node1" class="node">
<title>TagModule</title>
<polygon fill="#8dd3c7" stroke="black" points="126.82,-122 123.82,-126 102.82,-126 99.82,-122 45.18,-122 45.18,-86 126.82,-86 126.82,-122"/>
<text text-anchor="middle" x="86" y="-99.8" font-family="Times,serif" font-size="14.00">TagModule</text>
</g>
<!-- MetricModule -->
<g id="node2" class="node">
<title>MetricModule</title>
<polygon fill="#8dd3c7" stroke="black" points="265.37,-187 262.37,-191 241.37,-191 238.37,-187 168.63,-187 168.63,-151 265.37,-151 265.37,-187"/>
<text text-anchor="middle" x="217" y="-164.8" font-family="Times,serif" font-size="14.00">MetricModule</text>
</g>
<!-- TagModule&#45;&gt;MetricModule -->
<g id="edge1" class="edge">
<title>TagModule&#45;&gt;MetricModule</title>
<path fill="none" stroke="black" d="M86,-122.11C86,-141.34 86,-169 86,-169 86,-169 158.59,-169 158.59,-169"/>
<polygon fill="black" stroke="black" points="158.59,-172.5 168.59,-169 158.59,-165.5 158.59,-172.5"/>
</g>
<!-- MetricService  -->
<g id="node3" class="node">
<title>MetricService </title>
<polygon fill="#fb8072" stroke="black" points="266.29,-252 167.71,-252 167.71,-216 266.29,-216 266.29,-252"/>
<text text-anchor="middle" x="217" y="-229.8" font-family="Times,serif" font-size="14.00">MetricService </text>
</g>
<!-- MetricModule&#45;&gt;MetricService  -->
<g id="edge2" class="edge">
<title>MetricModule&#45;&gt;MetricService </title>
<path fill="none" stroke="black" stroke-dasharray="5,2" d="M217,-187.11C217,-187.11 217,-205.99 217,-205.99"/>
<polygon fill="black" stroke="black" points="213.5,-205.99 217,-215.99 220.5,-205.99 213.5,-205.99"/>
</g>
<!-- DatabaseService -->
<g id="node4" class="node">
<title>DatabaseService</title>
<ellipse fill="#fdb462" stroke="black" cx="376" cy="-104" rx="75.26" ry="18"/>
<text text-anchor="middle" x="376" y="-99.8" font-family="Times,serif" font-size="14.00">DatabaseService</text>
</g>
<!-- DatabaseService&#45;&gt;MetricModule -->
<g id="edge3" class="edge">
<title>DatabaseService&#45;&gt;MetricModule</title>
<path fill="none" stroke="black" d="M376,-122.11C376,-141.34 376,-169 376,-169 376,-169 275.57,-169 275.57,-169"/>
<polygon fill="black" stroke="black" points="275.57,-165.5 265.57,-169 275.57,-172.5 275.57,-165.5"/>
</g>
<!-- MetricService -->
<g id="node5" class="node">
<title>MetricService</title>
<ellipse fill="#fdb462" stroke="black" cx="217" cy="-104" rx="65.96" ry="18"/>
<text text-anchor="middle" x="217" y="-99.8" font-family="Times,serif" font-size="14.00">MetricService</text>
</g>
<!-- MetricService&#45;&gt;MetricModule -->
<g id="edge4" class="edge">
<title>MetricService&#45;&gt;MetricModule</title>
<path fill="none" stroke="black" d="M217,-122.11C217,-122.11 217,-140.99 217,-140.99"/>
<polygon fill="black" stroke="black" points="213.5,-140.99 217,-150.99 220.5,-140.99 213.5,-140.99"/>
</g>
</g>
</svg>
