<?xml version="1.0" encoding="UTF-8" standalone="no"?>
<!DOCTYPE svg PUBLIC "-//W3C//DTD SVG 1.1//EN"
 "http://www.w3.org/Graphics/SVG/1.1/DTD/svg11.dtd">
<!-- Generated by graphviz version 2.47.0 (20210316.0004)
 -->
<!-- Title: dependencies Pages: 1 -->
<svg width="504pt" height="211pt"
 viewBox="0.00 0.00 504.00 211.00" xmlns="http://www.w3.org/2000/svg" xmlns:xlink="http://www.w3.org/1999/xlink">
<g id="graph0" class="graph" transform="scale(1 1) rotate(0) translate(4 207)">
<title>dependencies</title>
<polygon fill="white" stroke="transparent" points="-4,4 -4,-207 500,-207 500,4 -4,4"/>
<text text-anchor="start" x="227.01" y="-42.4" font-family="Times-12" font-weight="bold" font-size="14.00">Legend</text>
<polygon fill="#ffffb3" stroke="transparent" points="14,-10 14,-30 34,-30 34,-10 14,-10"/>
<text text-anchor="start" x="37.63" y="-15.4" font-family="Times-12" font-size="14.00"> &#160;Declarations</text>
<polygon fill="#8dd3c7" stroke="transparent" points="127,-10 127,-30 147,-30 147,-10 127,-10"/>
<text text-anchor="start" x="150.73" y="-15.4" font-family="Times-12" font-size="14.00"> &#160;Module</text>
<polygon fill="#80b1d3" stroke="transparent" points="213,-10 213,-30 233,-30 233,-10 213,-10"/>
<text text-anchor="start" x="236.78" y="-15.4" font-family="Times-12" font-size="14.00"> &#160;Bootstrap</text>
<polygon fill="#fdb462" stroke="transparent" points="310,-10 310,-30 330,-30 330,-10 310,-10"/>
<text text-anchor="start" x="333.67" y="-15.4" font-family="Times-12" font-size="14.00"> &#160;Providers</text>
<polygon fill="#fb8072" stroke="transparent" points="406,-10 406,-30 426,-30 426,-10 406,-10"/>
<text text-anchor="start" x="429.73" y="-15.4" font-family="Times-12" font-size="14.00"> &#160;Exports</text>
<g id="clust1" class="cluster">
<title>cluster_HospitalModule</title>
<polygon fill="none" stroke="black" stroke-dasharray="1,5" points="75,-70 75,-195 421,-195 421,-70 75,-70"/>
</g>
<g id="clust6" class="cluster">
<title>cluster_HospitalModule_providers</title>
<polygon fill="none" stroke="black" points="83,-78 83,-130 413,-130 413,-78 83,-78"/>
</g>
<!-- DatabaseService -->
<g id="node1" class="node">
<title>DatabaseService</title>
<ellipse fill="#fdb462" stroke="black" cx="330" cy="-104" rx="75.26" ry="18"/>
<text text-anchor="middle" x="330" y="-99.8" font-family="Times,serif" font-size="14.00">DatabaseService</text>
</g>
<!-- HospitalModule -->
<g id="node3" class="node">
<title>HospitalModule</title>
<polygon fill="#8dd3c7" stroke="black" points="300.49,-187 297.49,-191 276.49,-191 273.49,-187 193.51,-187 193.51,-151 300.49,-151 300.49,-187"/>
<text text-anchor="middle" x="247" y="-164.8" font-family="Times,serif" font-size="14.00">HospitalModule</text>
</g>
<!-- DatabaseService&#45;&gt;HospitalModule -->
<g id="edge1" class="edge">
<title>DatabaseService&#45;&gt;HospitalModule</title>
<path fill="none" stroke="black" d="M277.56,-117.15C277.56,-117.15 277.56,-140.69 277.56,-140.69"/>
<polygon fill="black" stroke="black" points="274.06,-140.69 277.56,-150.69 281.06,-140.69 274.06,-140.69"/>
</g>
<!-- HospitalService -->
<g id="node2" class="node">
<title>HospitalService</title>
<ellipse fill="#fdb462" stroke="black" cx="164" cy="-104" rx="72.93" ry="18"/>
<text text-anchor="middle" x="164" y="-99.8" font-family="Times,serif" font-size="14.00">HospitalService</text>
</g>
<!-- HospitalService&#45;&gt;HospitalModule -->
<g id="edge2" class="edge">
<title>HospitalService&#45;&gt;HospitalModule</title>
<path fill="none" stroke="black" d="M215.11,-116.84C215.11,-116.84 215.11,-140.52 215.11,-140.52"/>
<polygon fill="black" stroke="black" points="211.61,-140.52 215.11,-150.52 218.61,-140.52 211.61,-140.52"/>
</g>
</g>
</svg>
