<?xml version="1.0" encoding="UTF-8" standalone="no"?>
<!DOCTYPE svg PUBLIC "-//W3C//DTD SVG 1.1//EN"
 "http://www.w3.org/Graphics/SVG/1.1/DTD/svg11.dtd">
<!-- Generated by graphviz version 2.47.0 (20210316.0004)
 -->
<!-- Title: dependencies Pages: 1 -->
<svg width="504pt" height="211pt"
 viewBox="0.00 0.00 504.00 211.00" xmlns="http://www.w3.org/2000/svg" xmlns:xlink="http://www.w3.org/1999/xlink">
<g id="graph0" class="graph" transform="scale(1 1) rotate(0) translate(4 207)">
<title>dependencies</title>
<polygon fill="white" stroke="transparent" points="-4,4 -4,-207 500,-207 500,4 -4,4"/>
<text text-anchor="start" x="227.01" y="-42.4" font-family="Times-12" font-weight="bold" font-size="14.00">Legend</text>
<polygon fill="#ffffb3" stroke="transparent" points="14,-10 14,-30 34,-30 34,-10 14,-10"/>
<text text-anchor="start" x="37.63" y="-15.4" font-family="Times-12" font-size="14.00"> &#160;Declarations</text>
<polygon fill="#8dd3c7" stroke="transparent" points="127,-10 127,-30 147,-30 147,-10 127,-10"/>
<text text-anchor="start" x="150.73" y="-15.4" font-family="Times-12" font-size="14.00"> &#160;Module</text>
<polygon fill="#80b1d3" stroke="transparent" points="213,-10 213,-30 233,-30 233,-10 213,-10"/>
<text text-anchor="start" x="236.78" y="-15.4" font-family="Times-12" font-size="14.00"> &#160;Bootstrap</text>
<polygon fill="#fdb462" stroke="transparent" points="310,-10 310,-30 330,-30 330,-10 310,-10"/>
<text text-anchor="start" x="333.67" y="-15.4" font-family="Times-12" font-size="14.00"> &#160;Providers</text>
<polygon fill="#fb8072" stroke="transparent" points="406,-10 406,-30 426,-30 426,-10 406,-10"/>
<text text-anchor="start" x="429.73" y="-15.4" font-family="Times-12" font-size="14.00"> &#160;Exports</text>
<g id="clust1" class="cluster">
<title>cluster_StandardModule</title>
<polygon fill="none" stroke="black" stroke-dasharray="1,5" points="13.5,-70 13.5,-195 482.5,-195 482.5,-70 13.5,-70"/>
</g>
<g id="clust3" class="cluster">
<title>cluster_StandardModule_imports</title>
<polygon fill="none" stroke="black" points="362.5,-78 362.5,-130 474.5,-130 474.5,-78 362.5,-78"/>
</g>
<g id="clust6" class="cluster">
<title>cluster_StandardModule_providers</title>
<polygon fill="none" stroke="black" points="21.5,-78 21.5,-130 354.5,-130 354.5,-78 21.5,-78"/>
</g>
<!-- MetricModule -->
<g id="node1" class="node">
<title>MetricModule</title>
<polygon fill="#8dd3c7" stroke="black" points="466.87,-122 463.87,-126 442.87,-126 439.87,-122 370.13,-122 370.13,-86 466.87,-86 466.87,-122"/>
<text text-anchor="middle" x="418.5" y="-99.8" font-family="Times,serif" font-size="14.00">MetricModule</text>
</g>
<!-- StandardModule -->
<g id="node2" class="node">
<title>StandardModule</title>
<polygon fill="#8dd3c7" stroke="black" points="326.31,-187 323.31,-191 302.31,-191 299.31,-187 216.69,-187 216.69,-151 326.31,-151 326.31,-187"/>
<text text-anchor="middle" x="271.5" y="-164.8" font-family="Times,serif" font-size="14.00">StandardModule</text>
</g>
<!-- MetricModule&#45;&gt;StandardModule -->
<g id="edge1" class="edge">
<title>MetricModule&#45;&gt;StandardModule</title>
<path fill="none" stroke="black" d="M418.5,-122.11C418.5,-141.34 418.5,-169 418.5,-169 418.5,-169 336.24,-169 336.24,-169"/>
<polygon fill="black" stroke="black" points="336.24,-165.5 326.24,-169 336.24,-172.5 336.24,-165.5"/>
</g>
<!-- DatabaseService -->
<g id="node3" class="node">
<title>DatabaseService</title>
<ellipse fill="#fdb462" stroke="black" cx="271.5" cy="-104" rx="75.26" ry="18"/>
<text text-anchor="middle" x="271.5" y="-99.8" font-family="Times,serif" font-size="14.00">DatabaseService</text>
</g>
<!-- DatabaseService&#45;&gt;StandardModule -->
<g id="edge2" class="edge">
<title>DatabaseService&#45;&gt;StandardModule</title>
<path fill="none" stroke="black" d="M271.5,-122.11C271.5,-122.11 271.5,-140.99 271.5,-140.99"/>
<polygon fill="black" stroke="black" points="268,-140.99 271.5,-150.99 275,-140.99 268,-140.99"/>
</g>
<!-- StandardService -->
<g id="node4" class="node">
<title>StandardService</title>
<ellipse fill="#fdb462" stroke="black" cx="103.5" cy="-104" rx="74.14" ry="18"/>
<text text-anchor="middle" x="103.5" y="-99.8" font-family="Times,serif" font-size="14.00">StandardService</text>
</g>
<!-- StandardService&#45;&gt;StandardModule -->
<g id="edge3" class="edge">
<title>StandardService&#45;&gt;StandardModule</title>
<path fill="none" stroke="black" d="M103.5,-122.11C103.5,-141.34 103.5,-169 103.5,-169 103.5,-169 206.49,-169 206.49,-169"/>
<polygon fill="black" stroke="black" points="206.49,-172.5 216.49,-169 206.49,-165.5 206.49,-172.5"/>
</g>
</g>
</svg>
