<?xml version="1.0" encoding="UTF-8" standalone="no"?>
<!DOCTYPE svg PUBLIC "-//W3C//DTD SVG 1.1//EN"
 "http://www.w3.org/Graphics/SVG/1.1/DTD/svg11.dtd">
<!-- Generated by graphviz version 2.47.0 (20210316.0004)
 -->
<!-- Title: dependencies Pages: 1 -->
<svg width="504pt" height="211pt"
 viewBox="0.00 0.00 504.00 211.00" xmlns="http://www.w3.org/2000/svg" xmlns:xlink="http://www.w3.org/1999/xlink">
<g id="graph0" class="graph" transform="scale(1 1) rotate(0) translate(4 207)">
<title>dependencies</title>
<polygon fill="white" stroke="transparent" points="-4,4 -4,-207 500,-207 500,4 -4,4"/>
<text text-anchor="start" x="227.01" y="-42.4" font-family="Times-12" font-weight="bold" font-size="14.00">Legend</text>
<polygon fill="#ffffb3" stroke="transparent" points="14,-10 14,-30 34,-30 34,-10 14,-10"/>
<text text-anchor="start" x="37.63" y="-15.4" font-family="Times-12" font-size="14.00"> &#160;Declarations</text>
<polygon fill="#8dd3c7" stroke="transparent" points="127,-10 127,-30 147,-30 147,-10 127,-10"/>
<text text-anchor="start" x="150.73" y="-15.4" font-family="Times-12" font-size="14.00"> &#160;Module</text>
<polygon fill="#80b1d3" stroke="transparent" points="213,-10 213,-30 233,-30 233,-10 213,-10"/>
<text text-anchor="start" x="236.78" y="-15.4" font-family="Times-12" font-size="14.00"> &#160;Bootstrap</text>
<polygon fill="#fdb462" stroke="transparent" points="310,-10 310,-30 330,-30 330,-10 310,-10"/>
<text text-anchor="start" x="333.67" y="-15.4" font-family="Times-12" font-size="14.00"> &#160;Providers</text>
<polygon fill="#fb8072" stroke="transparent" points="406,-10 406,-30 426,-30 426,-10 406,-10"/>
<text text-anchor="start" x="429.73" y="-15.4" font-family="Times-12" font-size="14.00"> &#160;Exports</text>
<g id="clust1" class="cluster">
<title>cluster_BlogsModule</title>
<polygon fill="none" stroke="black" stroke-dasharray="1,5" points="85,-70 85,-195 411,-195 411,-70 85,-70"/>
</g>
<g id="clust6" class="cluster">
<title>cluster_BlogsModule_providers</title>
<polygon fill="none" stroke="black" points="93,-78 93,-130 403,-130 403,-78 93,-78"/>
</g>
<!-- BlogsService -->
<g id="node1" class="node">
<title>BlogsService</title>
<ellipse fill="#fdb462" stroke="black" cx="332" cy="-104" rx="62.56" ry="18"/>
<text text-anchor="middle" x="332" y="-99.8" font-family="Times,serif" font-size="14.00">BlogsService</text>
</g>
<!-- BlogsModule -->
<g id="node3" class="node">
<title>BlogsModule</title>
<polygon fill="#8dd3c7" stroke="black" points="300.22,-187 297.22,-191 276.22,-191 273.22,-187 207.78,-187 207.78,-151 300.22,-151 300.22,-187"/>
<text text-anchor="middle" x="254" y="-164.8" font-family="Times,serif" font-size="14.00">BlogsModule</text>
</g>
<!-- BlogsService&#45;&gt;BlogsModule -->
<g id="edge1" class="edge">
<title>BlogsService&#45;&gt;BlogsModule</title>
<path fill="none" stroke="black" d="M284.79,-115.92C284.79,-115.92 284.79,-140.77 284.79,-140.77"/>
<polygon fill="black" stroke="black" points="281.29,-140.77 284.79,-150.77 288.29,-140.77 281.29,-140.77"/>
</g>
<!-- DatabaseService -->
<g id="node2" class="node">
<title>DatabaseService</title>
<ellipse fill="#fdb462" stroke="black" cx="176" cy="-104" rx="75.26" ry="18"/>
<text text-anchor="middle" x="176" y="-99.8" font-family="Times,serif" font-size="14.00">DatabaseService</text>
</g>
<!-- DatabaseService&#45;&gt;BlogsModule -->
<g id="edge2" class="edge">
<title>DatabaseService&#45;&gt;BlogsModule</title>
<path fill="none" stroke="black" d="M229.63,-116.84C229.63,-116.84 229.63,-140.52 229.63,-140.52"/>
<polygon fill="black" stroke="black" points="226.13,-140.52 229.63,-150.52 233.13,-140.52 226.13,-140.52"/>
</g>
</g>
</svg>
