<svg version="1.2" xmlns="http://www.w3.org/2000/svg" viewBox="0 0 534 534" width="534" height="534">
	<title>misc-15</title>
	<style>
		.s0 { fill: #577590 } 
	</style>
	<path class="s0" d="m329.3 365.8c-7-7.2-13.4-14.3-20.1-21.2-1.1-1.2-3.7-2-5-1.5-4.6 1.8-9.7 0.9-14.3 3.8-4.7 3.1-10.5 4.3-15.9 6.4-0.7 0.2-1.4 0.4-2.1 0.7-9.6 4.9-19.1 10.1-28.8 14.7-4.2 2-8.8 3-13.3 4.1-1.3 0.3-2.9-0.4-4.3-0.7 0.4-1.5 0.4-3.3 1.3-4.6 7.5-12.1 13.6-24.9 17.6-38.6 3.7-13 7.6-25.8 11.4-38.8 1.4-4.4 2.2-9.1 3.8-13.4 1.1-3.1 0.4-5.5-1.3-8-1.8-2.8-3.5-5.8-5.1-8.8-4.2-8.2-9.1-16.2-12.2-24.8-4.4-11.8-9.6-23-16.1-33.7-0.4-0.6-1.1-1.3-1.1-2-0.2-1.5-0.3-3.1 0.2-4.4 0.2-0.5 2.5-0.6 3.5-0.2 9.4 4.3 19 8.4 28.1 13.4 7.8 4.4 14.5 10.7 22.4 14.8 8.1 4.2 15.9 9.5 25 11.5 1.9 0.4 4 0.5 5.9 0.4 0.8 0 2.1-0.7 2.3-1.4 5.9-16.9 12.7-33.3 20.2-49.5 5.5-12 10.4-24.3 15.6-36.5 0.6-1.3 1.2-2.7 2.2-3.7 0.6-0.6 2.5-1 2.7-0.7 1.6 2.5 4.2 5.1 4.3 7.7 0.7 13.6 0.5 27.2 2 40.7 0.9 8.8-1.3 17.3-2.4 26-0.6 5.4-1.5 10.8-1.5 16.3 0.1 6.8 2.7 8.8 9.6 10.3 3.9 0.8 7.6 2.7 11.4 4.1 4.3 1.5 8.6 3 12.9 4.6 6.6 2.5 13.2 5.2 19.8 7.5 3.5 1.3 7.1 2.1 10.6 2.9 1.5 0.3 4-1.2 4.1 1.5 0 2.3-0.6 4.9-1.9 6.8-1.1 1.6-3.4 2.4-5.3 3.2-3 1.3-6.3 1.9-9 3.5-8.6 5-17.5 9-27 12-5 1.6-9.6 4.4-14.6 6.4-3.4 1.4-4.6 4.3-4.5 7.4 0.2 8.6 0.4 17.1-1.2 25.8-1.8 9.8-2.3 19.8-3.5 29.7-0.7 5.9-2 11.9-2.3 17.9-0.1 2.2 1.8 4.5 2.4 6.9 0.4 1.4 0.1 2.9 0.1 4.4-1.1-0.3-2.3-0.5-3.4-0.9-0.8-0.2-1.7-1-2.4-0.9-2.8 0.5-2.9-0.9-4-3.1-1.5-3.1-5.1-5-7.6-7.7-3-3.3-5.8-6.8-9.2-10.3zm-78.4-31.4c-3.6 7.9-5.8 16.4-10.8 23.7-0.7 1-0.2 2.9-0.2 4.3 1-0.7 1.9-1.5 3-2.2 1-0.8 2-1.6 3.2-2.1 6.5-2.6 13-5 19.4-7.7 9.5-4.1 18.9-8.6 28.4-12.6 3.1-1.3 6.6-1.6 9.9-2.2 3.7-0.7 6 0.7 8.3 3.9 3.7 5.2 8 10 12.5 14.6 6.4 6.7 13.1 13 19.7 19.6 2.3 2.2 3.8 2.1 4.4-1q0.5-2.7 0.9-5.4 0.5-2.7 1-5.4 0.4-2.7 0.8-5.4 0.4-2.7 0.8-5.5c1.4-10.6 3.1-21.3 3.8-32 0.5-6.7-0.2-13.5-0.6-20.3-0.3-4.1 1-7.8 5-8.1 3.1-0.3 5-2.3 7.7-2.9 6.9-1.5 12.5-5.9 19.3-8 7.5-2.2 14.3-6.7 21.4-10.2 0.6-0.3 0.9-1.1 1.3-1.7l-1.5-0.4c-1.5-0.4-3.1-0.6-4.5-1.2-14.1-6.1-28.2-11.9-43.2-15-3.6-0.8-7.8-0.8-10.6-2.7-3.8-2.7-0.9-7.5-1.2-11.3-0.5-8.4-0.7-16.8 1.1-25.1 1-5 0.7-10.3 0.8-15.4 0.2-6.1 0.3-12.3 0.2-18.4-0.1-4.3-0.5-8.7-1-13-0.2-1.3-1.3-2.5-2-3.7-0.9 1-2.2 1.9-2.7 3.1-2.7 5.9-5.4 11.8-7.9 17.7-3.5 8.6-6.5 17.5-10.5 25.8-4.4 9.3-7.3 19.1-9.9 29-0.4 1.5 2 5.3-2.8 3.8-2.3-0.7-1.6 3.8-5.2 2.4-7.7-3-16.3-3.7-22.8-9.8-1.3-1.3-3.5-1.7-5.2-2.6-9.2-5-18.9-9.4-26.7-16.5-4.8-4.3-10.5-6.3-16.2-8.7-1.5-0.7-3.4-0.2-2.3 2.1 4.8 10.6 9.4 21.4 14.7 31.7 4.9 9.5 10.6 18.6 16 27.9 2.8 4.8 2.7 4.8 0.4 10.7q-0.2 0.5-0.3 0.9-0.2 0.5-0.3 1-0.1 0.5-0.2 0.9-0.1 0.5-0.2 1c-0.5 3-0.3 6.2-1.4 8.9-3.5 9.1-7 18.2-8.6 28-0.9 4.9-3.2 9.6-5.2 15.5zm-82.8-57.8c-8.9 1.4-14.6 6.4-19.1 13.3-1 1.4-10.5 7.4-12.4 8.2-1.9 0.8-3.6 2.1-5.5 2.9-3.4 1.6-7 4.2-10.3 4-4.8-0.3-6.8 0.9-7.3 5.4-0.1 0.6-1.4 1.1-2.1 1.6 0-0.7 0-1.3 0-1.9-0.1-1.5-0.6-3-0.3-4.3 0.5-2.4 0.4-5.2 4-5.5 14.9-1.2 25.9-9.2 35.4-20.1 5.7-6.5 13.5-9.6 22.1-9.2 11.7 0.5 23 0.3 33.5-5.8 1.2-0.7 3.1 0.1 4.6 0.2-0.7 1.2-1.2 2.9-2.3 3.7-9.2 6.8-20.1 7.4-31 7.7-2.9 0-5.9-0.1-9.3-0.2zm-32.7 61.9c11.3-6.5 22-12.5 32.6-18.9 4.8-2.9 9.9-4.1 15.5-4.5 7.7-0.5 15.4-1.4 21.9-6.1 2.4-1.8 4.5-3.9 6.8-5.7 0.5-0.4 1.4-0.4 2.1-0.5-0.1 0.7-0.2 1.4-0.3 2.1-1.8 7.6-8.2 10.3-14.4 12.1-6.7 2-13.8 2.5-20.7 3.7-1.9 0.3-4.1 0.5-5.6 1.5-6.6 4.4-14.3 6.9-20 12.9-2.7 2.9-7.8 3.2-11.5 5.3-3 1.7-7 2.4-8.4 6.4-0.1 0.4-2.3 0.1-3.5-0.1-0.2 0-0.1-1.6-0.1-2.4 0-3.3 2.7-4.1 5.6-5.8zm36.2 28.1c-7.6 9.2-15.2 16.7-26.7 19.2-2.9 0.6-5.5 3-8.2 4.5-0.6 0.3-1.4 0.2-2 0.2 0.2-0.7 0.2-2 0.6-2.1 3.8-1.4 4.7-5.9 9.7-7.1 7.1-1.7 13.9-6.4 18.5-12.7 6-8.4 14.5-11.9 24.2-13 4.6-0.5 9.1-0.2 13.7-2 2.1-0.8 3.6-0.9 5.2-3.1 1.5-2.1 4.6-3.3 7.1-4.5 1.1-0.5 2.5-0.2 3.8-0.3-0.4 1.4-0.4 3.1-1.2 4.1-6.4 8-15.7 10.1-25.1 10.7-6.9 0.5-13.1 2.2-19.6 6.1z"/>
</svg>