<svg version="1.2" xmlns="http://www.w3.org/2000/svg" viewBox="0 0 534 534" width="534" height="534">
	<title>misc-18</title>
	<style>
		.s0 { fill: #f94144 } 
	</style>
	<path class="s0" d="m300.6 282.3c0.5-1.5 0.3-2.9 0.9-3.7 5.7-6.8 11.8-13.5 20-17 5.3-2.3 11.1-5.7 17.4-2 0.3 0.2 2.1-1.3 2-1.7-3.3-9.6-5.4-19.6-9.8-28.9q-2.3-5.1-4.5-10.2-2.2-5.2-4.2-10.5-2-5.3-3.8-10.6-1.9-5.3-3.5-10.7c-1.6-5.4-4.3-10.4-8.7-14.3q-2-1.8-4-3.6-2-1.8-3.9-3.7-1.9-1.8-3.8-3.7-1.9-1.9-3.7-3.9c-5.3-5.5-8.9-12.3-11.6-19.5-0.4-1.1-1.5-2-2.3-3-0.6 1.1-1.5 2.2-1.9 3.5-1.7 5.8-5.6 10.2-9.3 14.7-8.2 10.1-19.1 16.8-31.2 21.2-7.1 2.6-14.7 3.8-21.7 6.3-13.5 5-26.4 11-37.5 20.2-6.6 5.6-13.4 11.3-19 17.8-7.3 8.5-13.3 17.8-17.8 28.4-4.5 10.3-6.5 21.6-12.2 31.5q-0.1 0.1-0.1 0.3-0.1 0.1-0.1 0.3-0.1 0.2-0.1 0.3 0 0.2 0.1 0.4c0.2 0.8 0.5 1.6 0.8 2.5 0.6-0.5 1.4-0.8 2-1.3 4.8-4.6 9.2-9.9 14.6-13.7 5.1-3.7 11.2-6.3 17.1-8.7 7.1-3 14.6-5.1 21.8-7.9 8.9-3.5 18.1-5.3 27.6-4.1 10.3 1.2 20.2 3.9 27.9 12 3.2 3.4 4.1 7.4 5.5 11.4 1.8 5 3.3 10.1 5.1 15.1 1.4 3.9 2.4 7.8 2.2 12-0.3 5.5 0.1 11-0.1 16.5-0.5 12.4-3.2 24.5-8.6 35.8-4.8 10.2-9.3 20.6-15.8 30-3.7 5.4-7.5 10.8-12 15.7-8.6 9.7-17.7 19-26.7 28.4-11.2 11.5-25.4 18.4-40.1 24.2-9.4 3.7-19.3 4.5-29.3 3.5-11.6-1.2-22.4-5.6-33.4-9-5.2-1.6-9-5-13.1-8.2-6.8-5.1-13.6-10.4-18.2-17.7-2.3-3.6-3.2-8.2-4.7-12.4-1.7-5.2-3.4-10.5-5.1-15.7-0.2-0.9-0.5-1.8-0.6-2.7-1-10.5-1.9-21.1-2.9-31.7-0.4-4.7-1.6-9.4-1.2-14 0.5-6.7 1.9-13.4 3.2-20.1 1.9-9.7 6.5-18.2 10.8-27 3.4-6.9 8.2-11.9 15.3-14.9 4.5-1.9 9-3.7 13.2-6.1 6.4-3.7 12.6-2.3 18.9-0.1 4.1 1.4 8.2 3.3 12.2 5 4.4 1.9 5.2 1.9 6.3-2.3 2.5-9.5 6.4-18.3 9.9-27.4 2.7-7.5 6.4-14.3 11.1-20.5 5.9-7.7 11.5-15.8 19.1-22.2 8.1-6.9 16-14.2 25.9-18.7 7-3.3 13.4-8.3 20.7-10.3 8.4-2.3 16.6-5.1 24.8-7.8 21.5-7 34.9-21.9 40.6-44 1.2-4.8 2-9.1-1-12.8-2.2-2.7-4.1-5.2-5.5-8.4-3.2-7.1 2-18 12.4-20.5 3.1-0.7 8.4 2.4 9.3 4.9 1.5 4.2 2.3 8.6 3.2 13 1 5.1-1.3 8.8-5.8 10.7-3.3 1.4-3.5 4.1-2.7 6.3 4 11 8.2 22.1 14.7 31.9 3.5 5.2 8.7 9.4 13.7 13.3 5.3 4.3 12.5 15.4 14.6 22.1 2.8 9.8 5.9 19.5 10 28.8 4.7 10.4 8.5 20.9 11.4 31.8 1 3.7 3.5 6.9 2.8 11 0 0.2 0.8 0.8 0.8 0.8 0.6-0.5 1.4-0.9 1.5-1.5 1-5 4.3-8.4 7.6-11.9 10.6-11.4 23.9-18.4 38.2-23.7 14.5-5.4 29.9-5.9 44.7-3.9 22.6 3.1 37.9 16.5 44.7 38.8 1.9 6.1 4.3 12.1 6.3 18.1 1 2.8 1.6 5.6 2.2 8.4 2 10.3 2.2 20.7 1.2 30.9-0.7 7.4-2.6 14.9-6.7 21.5-1.8 3-2.7 6.5-4.1 9.8-5.1 11.7-13.2 21.5-21.3 31.2-4.5 5.4-9.4 10.5-14.2 15.6-4.2 4.6-9.3 7.9-14.8 10.8-3.6 1.8-6.6 4.8-10.3 6.4-9.2 4.1-18.7 7.7-28.1 11.5-0.4 0.2-1 0-1.5 0-11.4 0.5-22.9 1.5-34.4 1.3-7.6-0.1-14.9-2.4-22.2-5-12.5-4.5-23.3-11.8-32.9-20.6-4.2-3.8-7.2-9.3-9.6-14.6-8.3-18.7-8-38.7-7.1-58.5 0.3-6.6 2.8-13.1 4.5-19.6 1.7-6.6 4-13.1 7.9-19.4zm-167.9 3.2c-0.7 0.7-1.3 1.7-2.1 2-4.3 1.2-4.8 4.4-4.3 8.1 0.4 4.1 0.8 8.2 1.6 12.2 1.5 8.3 4 16.3 1.4 24.9-0.6 2.2-1.4 3.5-3 3.5-1.4-0.1-2.9-1.4-4-2.5-0.5-0.5 0-1.8-0.4-2.6-1.5-3.5 0.6-6.9 0.1-10.3-0.6-3.6-1.3-7.2-1.4-10.9-0.4-7.1-1.7-8.8-8.5-10.1-0.4-0.1-0.9-1-0.8-1.4 0.5-1.6 0.8-3.9 2-4.8 2.3-1.6 0.4-2.8 0-3.8-0.7-1.4-1.8-2.9-3.1-3.7-8.9-5.8-18.6-8.6-28.9-4.8-10.7 4-20.4 9.5-24.5 21.3-0.5 1.5-1.5 2.7-2.1 4.2-4 9.3-6.8 18.9-7.3 29.2 0 2-0.9 3.9-1.1 5.9-0.3 1.9-0.8 4-0.1 5.6 2.6 6.4 1.8 13.2 2.4 19.7 0.9 10.9 2.3 21.6 6.1 31.9 3.2 8.6 6.4 17.4 13.5 23.7 7.7 7 16.7 11.8 26.5 15.3 9.9 3.5 19.6 7.3 30.3 6.4 3.2-0.3 6.3-0.9 9.4-1.4 7.3-1.3 15.2-0.1 21.3-5.7 14.3-3.6 24-14.2 34.6-23.5 4.5-3.9 8.4-8.7 12.2-13.5 5.8-7.3 11.5-14.7 16.7-22.4 4.7-6.8 8.8-14 12.9-21.1 1.4-2.5 2.1-5.4 3-8.1 1-3.2 1.2-6.8 3-9.5 2.8-4.2 2.7-8.6 2.8-13.2 0-2.2 1-4.4 1-6.7 0-8.4 0.5-17-0.6-25.3-1-7.1-3.8-14.1-6.3-20.9-1.3-3.5-3-7.8-5.8-9.6-5-3.1-10.8-5.8-16.5-6.5-10.3-1.2-20.7-0.3-30.7 3.3-7.1 2.6-13.7 6.3-20.6 9-10.2 3.9-19.3 9.1-28.7 16.1zm92.3-30.8l-1.3-0.1c0.5 0.3 0.9 0.6 1.3 1.5 1 0.3 2 0.5 2.9 1.5l1.3 0.1c-0.4-0.3-0.9-0.6-1.3-1.6-0.9-0.2-1.9-0.4-2.9-1.4zm224.1-27.9c-3.4-1-6.8-2.7-10.2-2.8-13.9-0.4-28-1.2-41.2 4.3-16 6.7-31.8 14.2-40.8 30.5-4 7.4-4.1 4.5 0 11.8 2 3.5 4 7 5.5 10.7 0.4 1.1-0.3 3.1-1.1 4.2-1.5 1.8-3.6 0.6-5.1-0.1-1.1-0.5-1.5-2.2-2.3-3.2-2.6-3.3-4.8-7.1-8-9.5-8.5-6.4-13-8.6-24.3-1.3-2 1.2-3.6 2.8-5.6 4-6 3.6-9.1 9.6-12.2 15.5-3.9 7.4-5.2 15.6-7 23.6-1.6 7.3-2.7 14.9-2.4 22.2 0.3 8.6 2.2 17.1 3.7 25.6 2.7 14.7 9.9 26.2 22.1 35.3 8.3 6.2 17.5 9.8 26.8 13.2 5.8 2.1 11.8 4.1 18.5 3.9 14.7-0.6 29-2.4 42.7-7.9 5.3-2.2 11-3.5 15.9-6.3 5.9-3.3 11.2-7.7 16.4-11.9 4.6-3.7 9.4-7.3 13-11.7 6.4-8 12.1-16.4 17.8-24.8 5.9-8.7 10.5-17.9 13.2-28.3 1.5-6.1 1.1-12.5 3-18.1 2.3-7-0.4-13.2-1-19.6-0.7-8-3.9-15.8-6.7-23.6-5.4-15.4-13.3-29-30.7-35.7zm-148.2-65.2l1.4 0.1c-0.5-0.3-0.9-0.5-1.4-1.5l-2.3-2c-0.2 0.4-0.5 1.1-0.5 1.1 0.9 0.6 1.9 1.1 2.8 2.3zm163.3 68.8l1.3 0.1c-0.5-0.3-0.9-0.6-1.3-1.6-1.2-0.7-2.3-1.4-3.4-2.1-0.1 0-0.5 0.6-0.8 0.8 1.4 0.7 2.8 1.4 4.2 2.8zm-143.2-41.6l-1.3-0.1c0.4 0.3 0.8 0.6 1.3 1.6l2 6.3c0.1-0.1 0.5-0.2 0.5-0.3-0.4-2.1-0.8-4.2-1.4-6.2 0-0.3-0.7-0.4-1.1-1.3zm157.5 60.2l0.4 1.8 0.9-0.3c-0.4-0.7-0.9-1.5-1.3-2.9l-0.4-1.9-0.9 0.3c0.4 0.8 0.8 1.5 1.3 3zm-244.9 11.4l-1.3-0.1c0.4 0.3 0.9 0.6 1.3 1.6 0.5 0.2 1 0.5 1.5 1.4 1.4 3.1 2.8 6.2 4.3 10 0 0.7-0.1 1.4 0 2.1 0.1 0.5 0.5 0.9 0.8 1.4 0.2-0.4 0.6-0.8 0.6-1.1-0.4-1.1-1-2.1-1.4-3.8 0.1-3.8-0.5-7.3-4.3-10-0.5-0.3-1-0.5-1.5-1.5zm72.3-93.8c1.2 1.2 2.3 2.4 3.5 3.4 0.3 0.3 1 0.2 1.5 0.3 0-0.2 0.1-0.6 0-0.7-1.6-1.7-1.7-5.6-5-3zm-25-39.4c-0.4-0.1-0.7-0.3-1-0.4-0.1 0-0.5 0.4-0.4 0.5 0.4 1 0.9 2 1.4 3 0.3 0.5 0.8 1 1.1 1.5 0.1-0.7 0.4-1.4 0.3-2-0.1-0.6-0.5-1.2-1.4-2.6zm43.7 73.8c-0.3 0.6-0.9 1.4-0.7 1.8 0.6 1.3 1.5 2.5 2.2 3.8 1.2-1.9 0.9-3.5-1.5-5.6zm-6.5-16.5c0.2 0.2 0.3 0.4 0.5 0.5 0.1 0.1 0.5 0 0.5 0q0-1.9 0-3.8l-2.4 0.4c0.5 0.5 0.9 1 1.4 2.9zm13.6 35.1c1.9-1.9-0.1-2.8-1.1-3.9-0.1-0.1-0.6 0.2-1 0.3 0.5 1 0.9 1.9 2.1 3.6zm124.6 4.3l-1.9 0.5c0.9 0.8 1.8 1.6 2.8 2.3 0.2 0.2 0.8-0.3 1.2-0.6q-0.3-0.2-0.6-0.5-0.2-0.3-0.5-0.6-0.2-0.3-0.5-0.5-0.2-0.3-0.5-0.6zm-337.9 61.6l1.9-0.5c-0.9-0.8-1.9-1.6-2.9-2.3-0.1-0.1-0.7 0.4-1.1 0.6 0.5 0.5 0.9 1 2.1 2.2zm125.3 0.7l0.9 3.3c0.6-0.6 1.8-1.4 1.7-1.9-0.2-0.8-1.3-1.4-2.6-1.4zm30-177.6h2.9c-1-0.5-1.9-0.9-2.9 0zm55.9 101.7q-0.3-0.2-0.6-0.5-0.3-0.2-0.6-0.5-0.3-0.2-0.6-0.5-0.3-0.2-0.6-0.4c-0.1 0.3-0.5 0.9-0.5 1 0.7 0.6 1.4 1.1 2.9 0.9zm-41.6-63c0.8 0.2 1.6 0.4 2.3 0.5 0 0 0.2-0.5 0.3-0.9-0.6-0.1-1.2-0.2-2.6 0.4zm-12.8-31.5l1.4-0.7c-0.5-0.3-1-0.5-1.4 0.7zm207.6 144.6l0.4 1.9c0.3-0.1 0.8-0.3 0.8-0.3-0.1-0.8-0.3-1.5-1.2-1.6zm-9.3-20.7l0.5-0.9c-0.4 0.1-0.8 0.1-0.5 0.9zm-186.9-98.1l-0.8-0.6c0 0.4 0 0.8 0.8 0.6z"/>
	<path class="s0" d="m445.2 273.9c-2.3 0-4-0.2-5.7 0-3 0.5-5.3-2.1-5.4-3.5-0.4-5 0.2-10.1 0.7-15.2 0.1-1.3 0.7-3.5 2.9-2.5 1.3 0.5 2.7 1.8 3.1 3 0.5 1.7-0.2 3.8 0.2 5.6 0.4 1.9-1.9 4.9 2 5.5 5.2 0.7 8-0.7 9.4-4.6 2.6-7.9 1.6-9.8-6.2-11-1.3-0.2-3.1 0.5-4.1-0.2-1.2-0.6-2.4-2.4-2.4-3.6 0.1-1.1 1.6-3.1 2.7-3.2 5.8-0.8 11.2 0.9 16.5 2.9 0.9 0.4 1.9 1.7 1.9 2.7 0.2 4.5 0.3 9 0.1 13.4-0.1 2-0.7 4-1.5 5.8-0.5 1.3-1.6 3.1-2.7 3.3-3.5 0.9-7.2 1.1-11.5 1.6zm-258.7 18.3c2.8-4.7 7-2.9 10.4-2.8 2.7 0.1 5.4 1.9 8.1 2.7 6.1 2 7.2 4.4 4.8 10.4q-0.8 2.1-1.6 4.1-0.8 2-1.6 4-0.7 2.1-1.5 4.1-0.8 2.1-1.5 4.1c-1.1 3-2.9 3.7-6.2 2.9-4.4-1-8.7-3.3-13.6-0.5-2.9 1.5-5.5-2.5-4.6-6.3 1.2-5.1 2-10.3 3-15.5 0.2-1.3-0.5-3.3 1.8-2.8 1.4 0.4 3.6 1.4 3.7 2.4 0.2 2.2-0.5 4.5-1 6.7-0.4 2.4-0.8 4.8 1.5 6.4 1.8 1.3 8.2 0.6 9-1.2 1.5-3.2 3.2-6.7 3.2-10.1 0.1-2.9-3.5-3.9-6.2-4.2-3.1-0.2-5.6-1.6-7.7-4.4z"/>
</svg>