<svg version="1.2" xmlns="http://www.w3.org/2000/svg" viewBox="0 0 534 534" width="534" height="534">
	<title>misc-19</title>
	<style>
		.s0 { fill: #f94144 } 
	</style>
	<path class="s0" d="m80.3 264.6c-5.8-5.7-10.7-11.3-15-17.8-5.2-7.8-6.6-16.2-5.4-25 0.2-1.7 0.2-2.3-0.7-3.4-5.2-6.7-11-13-15.4-20.3-6.6-11-8.8-22.8-3.2-35.3 6.7-14.9 18.5-22.5 33.8-26.6 13.4-3.5 25.8-0.7 38 3.9 4.2 1.6 7.5 0.9 10.6-0.7 5-2.7 9.2-7 14.3-9.1 6.9-2.9 14.4-4.6 21.7-6.4 2.4-0.6 6 1 7.6-0.3 2.8-2.3 4.3 1.3 6.8 0.4 2.3-0.8 5.2-0.5 7.8-0.1 7.7 1.3 15.4 3.3 23.2 4.3 5.7 0.7 11.2 1.2 16.7 3.3 16.3 6.2 33.1 11 48.9 18.4 9.8 4.6 19.9 8.7 29.8 13.2 1.8 0.8 3.6 1.7 5 3 2.2 1.9 4 3.2 7.3 3.5 3.1 0.3 6 3 8.9 4.7 11.9 6.7 23.9 13.2 35.6 20.2 4 2.5 7.2 6.5 11.1 9.1 11.7 7.8 23.2 15.8 35.4 22.6 7.5 4.2 14.5 9.1 21.7 13.8 1.7 1 3.3 2.2 4.8 3.6 8.7 8.7 17.7 17.1 25.9 26.2 8.1 8.7 15.6 17.9 22.8 27.4 6.3 8.4 9.7 18.4 12.6 28.5 0.5 1.8-0.5 4.4-1.5 6.3-2.5 4.4-2.9 10.9-9.9 11.6-0.4 0-1 1.7-0.8 2.3 0.3 0.9 1.3 1.6 2.1 2.3 6 5.2 10.1 11.4 12.9 19 4.1 11.1 2.6 21.9-1.6 32.1-2.7 6.7-10.4 8.5-16.9 10-13.7 3.1-27.3 2.3-40.8-2.2-10.4-3.4-21.1-5.8-31.7-8.7-0.5-0.1-1.3 0.2-1.5 0-4.8-4.6-10.4-3.3-15.3-1.4-8.9 3.5-18 3.9-27 2.8-18-2.2-35.9-5-52.3-13.8-6.3-3.4-13.6-5-20.1-8.1-12.6-5.7-25.1-11.5-37.3-18-30.2-15.9-60.6-31.5-91-47.2-6.3-3.2-12.7-6-18.8-9.4-14-7.9-28.1-15.8-41.7-24.3-6.2-3.8-11.4-9.3-17.4-14.4zm73.3-53.7l2.6 0.6 0.2-1c-0.9-0.1-1.8-0.2-2.8-1.2-0.7-0.7-1.4-2.1-2.2-2.1-5.2 0-8.2-3.4-11.3-6.8-4-4.3-7.7-8.8-11.6-13.2-5.9-6.9-12.8-12.1-22.6-11.6-5.2 0.2-10.5-0.5-15.4 2.6-1.4 0.9-3.3 1.8-4.6-1.5-0.9-2.3-0.5-2.9 0.9-4 1.3-1.2 2.5-2.7 4.1-3.3 9.1-3.9 20.1-3.1 30 0.8 10.9 4.3 17 13.4 23.2 22.2 3.5 4.8 7.4 8.7 12.6 11.5 6.8 3.8 14.5 4.1 21.7 6.2 6.6 1.8 13.9 2 19.9 5 16.3 8.2 32.2 17.1 44.3 31.4 6.8 8.1 15.9 10.6 26.1 10.8q4.8 0 9.7 0.9c5.3 1 10.6 2.1 15.8 3.7 0.6 0.1 1.4-0.4 2.1-0.6-0.5-0.6-0.8-1.4-1.4-1.7-1.7-0.9-3.5-1.7-5.3-2.4-3.5-1.5-7.2-2.7-10.7-4.3-7.9-3.7-15.7-7.6-23.6-11.4-2.8-1.3-5.9-2-8.6-3.6-12.6-7-24.7-14.9-37.5-21.4-16.3-8.2-31.9-17.4-46-29-3.9-3.2-7.8-6.5-11.5-10-5.3-5-10.3-10.3-15.5-15.3-1.6-1.6-3.5-2.9-5.4-3.9-3.9-2-8.3-3.2-11.8-5.7-12.9-9.5-27.7-10.7-42.9-9.9-1.1 0.1-2.2 1.1-3.3 1.5-6 2.4-11.4 5.5-16.4 9.9-9.2 7.9-10.2 18.4-8.9 28.8 1.5 11.3 8.8 20.1 16.8 28.2 2.3 2.3 3.9 2.8 6 0 4.3-5.5 9.9-9.6 16-12.6 5.6-2.9 11.3-6.5 18-5.5 3.3 0.4 6.5 2 9.7 3 7.7 2.2 15.1 5.2 22.4 8.3 5.5 2.3 10.6 6.8 17.2 6.6zm228.4 178.1c1.4-1.4 2.8-3 4.3-4.3 0.8-0.6 2-1.3 2.7-1.1 7.9 2.6 13.6-1.9 18.7-6.5 5.8-5.1 6.4-10 2.8-15.9-2.2-3.6-5.1-6.9-8.3-9.8-9-8.6-21.2-12.1-31.4-18.9-0.1-0.1-0.5 0.1-0.7 0-9.8-4.8-19.9-9-29.2-14.7-8.8-5.3-17.4-10.8-26.7-15.3-8.4-4.2-17.2-7.7-25.5-12.2-11.9-6.3-23.8-12.4-34.9-19.9-7.1-4.8-14.4-9.2-22-13.1-12.9-6.6-26.1-12.7-39.3-18.9-3.7-1.8-7.6-3.1-11.3-4.8-9.3-4-18.9-7.6-27.9-12.2-16.3-8.3-33.5-14-51-19-1.6-0.5-3.9 0.4-5.6 1.2-6.1 3.2-12.1 6.4-17.8 10.1-1.8 1.2-2.8 4-3.6 6.2-0.6 1.6 0 2.8 2.3 2.9 5.3 0.2 10.5 0.9 15.8 1.5 0.7 0 1.4 0.4 2.1 0.6-0.7 0.8-1.2 1.9-2 2.2-1.5 0.4-3.1 0.3-4.6 0.3-5.3 0-10.5-0.1-15.7 0.1-0.9 0-2.6 1-2.6 1.6-0.3 4.8-0.5 9.4 3.2 13.5 5.5 6 10.2 12.6 15.7 18.6 3.4 3.7 7.4 7 11.5 10.1 16.2 12.3 35 20 52.7 29.9 7.6 4.3 15.7 7.4 23.6 11.1 7.3 3.4 13.8 8.3 20.9 12.1 4 2.1 9.3 2.5 12.7 5.3 6.9 5.7 14.7 9.4 22.8 13.2 14.2 6.7 27.6 15.1 42 21.8 15.3 7.1 30.7 14 46.8 19.6 9.8 3.4 20.1 5.2 30.3 6 9.1 0.8 18.5 1.3 29.2-1.3zm-222.1-255c-8.5 2.7-16.9 5.7-24.8 10.1-2.8 1.5-2.2 2.2-0.6 3.7 2.7 2.7 5.4 5.5 8.2 8.2 13.1 12.9 25.3 26.9 41.3 36.6 3.3 2 7.1 3.3 10.2 5.6 12.6 9.3 27.2 15.1 40.7 23 10.1 6 21.3 10.3 31.9 15.7 5.6 2.8 10.8 6.5 16.5 9.2 6.6 3.1 13.9 4.7 20.2 8.1 15.3 8.4 31.5 14.8 47.3 22.1q3.9 1.8 7.9 3.6 4 1.7 8 3.4 4 1.6 8.1 3.2 4 1.6 8.1 3.1c11.1 4.1 22.2 8.4 33 13.2 8.1 3.7 16.4 7.6 23.7 12.7 6.7 4.6 15.1 6.4 20.4 13.3 2.1 2.7 5.3 4.6 8.2 6.7 1.1 0.8 2.7 1.8 4 1.6 5.9-0.6 10.9-7 9.3-12.5-2.8-9.2-5.6-18.8-11.7-26.4-10.8-13.3-22.3-25.9-33.8-38.6-3.5-3.9-7.9-7.2-12-10.5-2.7-2.2-5.6-4.1-8.5-6-20.7-13.2-41.4-26.3-62-39.5-5.4-3.5-10.2-8.4-16.1-10.5-9.7-3.5-18-9.5-27.2-13.9-12.2-5.8-24.2-12.1-36.6-17.6-7.9-3.5-16.5-5.5-24.4-9.1-19.3-8.8-39.4-14.5-60.2-17.6-9.3-1.3-18.8-1.1-29.1-0.9zm215.8 162.4c-0.5 0-1.2 0.2-1.6 0-11.1-6.4-23.1-11.1-34.8-16.3-7.9-3.5-16.8-5.4-23.4-11.8-1.1-1.1-3.1-1.3-4.8-1.6-0.6-0.2-1.3 0.4-2 0.6 0.6 0.3 1.2 0.5 1.8 0.9 2.6 1.9 5.6 3.5 7.7 5.8 8 8.7 15.5 17.7 23.4 26.4 4.4 4.8 9.8 7.4 16.7 7.1 8.6-0.4 17.3-0.1 25.9-0.1 1.8 0 3.8-0.4 5.4 0.3 8.4 3.5 17 7 25.1 11.1 3.8 2 7.5 4.9 9.8 8.3 5.2 7.5 10.3 14.8 16.7 21.4 5 5 9.4 9.8 17.4 9.3 1.7-0.1 3.5 1.9 5.3 2.9q-2.1 0.9-4.2 1.9c-0.8 0.4-1.8 0.7-2.5 1.3-4.7 3.9-9.9 1.5-13.2-0.8-5.6-4.1-10-9.8-14.6-15-6.5-7.5-11.2-16.8-20-22.1-6-3.6-12.4-6.7-19-9-4.4-1.6-9.7 1.3-14.2-1.7-4.7 2.8-10 1-15 1.6-0.8 0.1-1.6 0.7-2.4 1.1 0.6 0.7 1 1.6 1.7 1.9q2.9 1.5 5.8 3 2.9 1.5 5.8 2.9 3 1.5 5.9 3 2.9 1.4 5.9 2.9c3.9 1.9 8 3.3 11.7 5.6 4.2 2.6 8.3 5.6 12 8.8 4.6 4 8.8 8.5 11.1 14.2 1.2 3 3.6 6.9 2.6 8.9-3.4 6.5-5.1 14.3-11.9 18.6-1.3 0.8-2.6 1.5-3.8 2.3-0.4 0.3-0.7 0.7-1.1 1.1 0.5 0.3 1 0.8 1.6 0.9q2.1 0.6 4.2 1.2 2.1 0.6 4.2 1.2 2.1 0.6 4.2 1.2 2.2 0.6 4.3 1.1c5.8 1.6 11.9 2.8 17.6 4.9 5.7 2 11.5 3.4 17.5 3 4.3-0.4 8.5-1.1 12.7-1.6 9.8-1.1 16.4-7.7 16.6-16.8 0.2-4.2 0.2-8.3 0-12.5 0-1.4-0.7-2.8-1.3-4.2-3.3-8.2-9.8-14.2-15-21.2-0.8-1-2.6-1.1-3.9-1.8-1.7-0.9-4.3-1.6-4.7-2.9-1.5-5.7-6-8.1-10.3-11.3-11.4-8.6-25-13.1-37.2-20.2-2.2-1.4-4.8-2.2-7.3-3.2-10.3-4.2-20.6-8.4-32.4-12.6zm-96.5-29c-5.7-0.8-11.3-1.6-17-2.3-0.6 0-1.2 1.1-1.9 1.7 0.5 0.5 0.9 1.3 1.5 1.3 8.2 1.1 14.7 6 21.7 9.9 8.2 4.6 16.2 9.7 24.9 13.5 4.3 1.8 8.5 3.1 12.3 6.2 2.5 2.1 5.9 3.1 9 4.5 0.7 0.3 1.8-0.1 2.7-0.1-0.3-0.9-0.3-2.2-0.9-2.5-4.4-2.2-7.7-5.7-10.8-9.5-3.4-4.1-6.2-9.3-10.6-11.8-9.3-5.2-18.6-11.1-30.9-10.9zm-53.4-22l4.7-0.1c-0.9-0.9-1.7-1.9-2.7-2.6-3.4-2.4-6.8-5-10.3-7.1-6.5-3.9-12.7-8.6-19.6-11.1-11.2-4-22.9-6.6-34.3-9.6-0.6-0.2-1.4 0.4-2.1 0.7 0.4 0.8 0.6 2.1 1.2 2.3 5.6 2.2 11.3 4.2 16.9 6.3 8.3 3.2 16.8 6 24.9 9.6 7.1 3.1 13.7 7.2 21.3 11.6zm116.1 61.2c-0.7-0.7-1.2-1.6-2.1-2-0.7-0.3-1.6 0.2-2.5 0.4 0.5 0.8 1 1.8 1.7 2.3 0.5 0.4 1.4 0.1 2.9-0.7zm-127.1-171l-0.9-0.6c0.1 0.4 0.1 0.9 0.9 0.6z"/>
</svg>