<svg version="1.2" xmlns="http://www.w3.org/2000/svg" viewBox="0 0 534 534" width="534" height="534">
	<title>misc-20</title>
	<style>
		.s0 { fill: #f8961e } 
		.s1 { fill: #f9844a } 
	</style>
	<path class="s0" d="m160.2 256.6c-6.7 9.3-13.3 18-19.2 27.2-6.3 9.8-12.3 19.9-17.7 30.3-4.2 8.1-7.2 16.9-10.5 25.4-0.9 2.1 0.4 3.7 2.8 3 2.8-0.8 5.4-2.4 8.2-3.1 11.6-2.7 23.3-5.6 35.1-7.8 8.7-1.5 17.6-1.5 26.1-3.4 7.5-1.7 14.9-0.5 22.2-1.6 4-0.5 8.1-0.5 12.2-1 4.8-0.6 10-1.3 15.1 1 2.7 1.2 6.5-0.1 9.8-0.4 1.7-0.2 3.7-1.3 5.1-0.8 7 2.6 13.8-0.5 20.7-0.2 7 0.3 14.1 0 21.2 0.1 3.7 0.1 7.5-0.8 11.2 1.4 1.3 0.8 3.8 0.7 5.3 0 7.4-3.2 14 0.3 20.9 1.6 5.2 1 10.5 1.3 15.8 1.7 19.8 1.4 38.7 6.6 57.7 12.2 12.5 3.6 22.9 10.5 33.8 16.9 0.7 0.5 1 1.7 1.5 2.5-1 0.4-2 1.2-3 1.3-6 0.2-11.2-2.4-15.7-5.6-9.8-7-21.1-9.9-32.3-13.1-8.9-2.6-18-4.5-27.2-6.3-5.4-1-11.1-0.6-16.5-1.8-6.9-1.5-14.1-0.3-20.8-2.9-1.8-0.7-4.1-0.1-6.2-0.1-25.1 0-50.2 0.1-75.3-0.1-5.5 0-11.3 1.6-16.6-1.5-5 3.3-10.6 0.9-15.8 1.6-8.8 1.1-17.6 1-26.2 3-5.2 1.2-10.6 0.8-15.8 1.8-9.9 1.9-19.6 4.4-29.4 6.5-6.8 1.5-13.5 2.8-20.2 4.5-4.5 1.1-6.4-2.3-9.1-4.6-3.5-2.9-2.5-5.6-1.1-9.4 3.4-9.6 7.4-18.9 11.5-28.1 5.7-12.6 14.4-23.3 21-35.3 5.5-9.8 13.3-17.6 20.3-26 4.2-5.1 10.4-8.6 15.8-12.8 3.9-3.1 8.1-5.8 11.9-9.1 5.4-4.8 11.6-8.1 18-11.4 5.9-2.9 11.4-6.5 17.2-9.6 16.4-8.7 33.8-14.4 51.9-18.8 11.6-2.8 23.1-5.3 35-4.3 4.8 0.4 6.5-2.6 7.6-5.7 1.3-3.7 1.1-7.9 1.8-11.8 1-6.1 2-12.2 3.1-18.3 1-5.9 2.6-11.7 3-17.6 0.5-6.7 1.5-13.3 3.2-19.9 1.1-4.6 1.1-9.4 1.6-14.2 0.6-5 1.1-10 1.6-15 0.5-4.2 3.8-6.3 8.5-6 9.1 0.7 18.3 1.1 27.5 1.6 1.3 0.1 3-0.5 3.9 0.1 1.9 1.3 3.6 3 4.8 4.9 0.3 0.6-1.3 3-2.5 3.7-9.6 5.7-20.2 9.3-30.6 13.2-0.4 0.2-2.2-1.7-2.1-2 2-4.5 4.9-8 10.1-8.9 1.1-0.1 2.3 0.4 3.1-0.1 2-1 3.7-2.5 5.5-3.8-2.1 0-4.2 0-6.3 0.1-2 0.1-4 0.9-5.9 0.6-4.6-0.8-6.7 1.9-7.8 5.4-1.1 3.3-1.1 6.8-1.9 10.2-2.2 8.9-0.5 18-1.9 26.8-1.2 7.9-0.5 15.8-1.4 23.7-1 8.6-2.9 17-4.3 25.6-0.3 1.7-0.1 3.6-0.3 5.4-0.3 2.7 0.7 3 3.3 3.6 12.9 2.7 26 4.8 37.9 10.8 8.8 4.5 16.8 10.3 24.6 16.3 12.7 9.7 23.5 21.3 32.4 34.4 6.5 9.5 11.5 20 15.2 31.3 3.5 10.9 4.9 22 7.6 32.9 1.7 6.7 1 13.2 1.5 19.8 0.2 2.9 1.4 5.9 1.4 8.8-0.1 2.4-1.2 4.5-0.2 7.4 1 2.8-0.5 6.4-0.9 9.6-0.4 2.5-1.8 5.6-0.8 7.3 1.8 3.3 5.4 5 9.6 4.8 5.5-0.1 11-0.3 16.4 0.1 2.6 0.2 5.4 1.2 7.5 2.6 1.8 1.2 5.2 2.9 1.5 5.9-0.1 0.1-0.1 0.5 0 0.7 2.7 7.2-3 10.2-6.9 13.9-4.5 4.4-10.6 4.6-16.5 1.4-2.3-1.3-5-1.9-7.6-2.6-0.5-0.1-1.7 0.3-1.9 0.8-0.2 0.5 0.1 1.4 0.5 2 1.8 3.2 3.9 6.3 5.6 9.5 1.1 2 3 4.6 2.4 6.2-1.2 3.3-3.3 6.8-6 9.2-4.6 4-10 7.2-15.1 10.6-0.8 0.5-1.9 0.9-2.8 0.8-4 0-6 2.2-6.7 5.9-0.4 2.1-0.8 4.2-1.2 6.3q2.2-2.6 4.4-5.1c0.7-0.8 1.4-1.5 2.1-2.3 0.3 1.1 1.3 2.7 0.9 3.3-1.5 2.1-1 3.5-0.2 5.9 1.2 3.2 0.1 6.7-2.1 9.9-4.9 7.2-10 13.3-20 12.4-6-0.6-12.2 0.9-18-0.3-12.6-2.6-25.2-0.9-37.8-1.3-4.8-0.1-9.6 1.7-14.3 1.3-11.6-0.7-23.2 0.5-34.8 0.3-7.6-0.1-15.2 1.4-22.9 1.3-15.7-0.1-31.5 0.1-47.1-1.8-10.6-1.2-21.1-0.6-31.6-1.2-6-0.4-12.1-1-18.2-1.6-6-0.5-12.2-0.3-18.1-1.7-15.9-3.6-32-4.9-48.3-4.5-1.9 0.1-3.8 1.4-5.7 1.3-4.9-0.4-9.8-1.2-14.7-1.9-2.3-0.3-4.9-1.6-6.6-0.8-4.5 2.2-8.6-0.2-12.9-0.3-3.5 0-5.5-2.3-5.9-5.7-0.2-2.8-0.8-6 0.2-8.5 1.1-2.8 1.1-3.4-1.9-3-0.1 0-0.7-1.4-0.5-1.6 1.6-1.8 3.7-3.2 4.9-5.2 0.8-1.4 1.7-3.5-1.9-4.3-11.7-2.4-20.7-10.4-31.1-15.6-0.6-0.3-1-1.7-0.9-2.4 0.3-2 0.6-4 1.4-5.7 3.1-5.8 1.7-14.2 10-17.1 1.1-0.3 2-2.2 2.5-3.5 2.3-7.5 8.2-12.4 13.9-16.8 3.5-2.7 5.6-6 8.1-9.3 1.1-1.3 1.9-3 3.3-4 3-2.3 5.5-1 6.1 2.7 0.2 0.9 0.5 1.8 0.8 2.8 0.5-0.6 1.2-1 1.6-1.6 3.1-4.8 7.9-2.7 12.1-3 0.1 0 0.8 2.6 0.5 2.7-3.2 1.7-5.4 4.7-9.6 5.3-6.3 0.9-13.8 0.1-16.9 8.5-0.7 2-5.1 2.3-7.5 3.9-1.3 0.8-2 2.6-2.9 3.9 1.4 0.1 3.5 0.9 4.1 0.2 3.5-3.5 7.6 2.8 11-1 1.2-1.3 4.2-1.1 5.1-2.5 2.7-4.2 7.5-4.8 11.2-5.1 5.6-0.5 9.4-3 13.1-6.5 2.8-2.5 5.9-3.7 9.6-3.2 1 0.1 2.2 0.5 2.6 1.2 4.2 6.7 10.2 3.3 15.4 2.5 4.7-0.7 9.3-2.8 13.9-4.3 0.4-0.1 0.7-0.9 1.1-0.9 4.7-0.1 9.8 1 14-0.5 4-1.4 7-5.7 10.6-8.5 2.2-1.6 4.5-1.9 6.6 0.8 2 2.6 3.8 3.8 8.2 2.2 7.4-2.5 15.8-2.3 23.7-3.5 10.2-1.6 20.7-1.9 30.8-3.6 7.1-1.2 13.9-0.2 20.9-0.9 7.7-0.8 15.6-0.2 23.5-0.2 7.6 0 15.2-0.1 22.7 0.1 1 0 1.9 0.9 2.9 1.4-0.9 0.6-1.8 1.5-2.8 1.6-7.6 0.1-15.1 0-22.7 0-1.8 0-3.7 0-5.4 0.4-0.7 0.2-1.3 1.4-1.9 2.1 0.7 0.2 1.4 0.6 2.1 0.6 8.6 0.1 17.5 1.2 25.8-0.2 9.8-1.8 19.5-1.4 29.2-1.1 8.5 0.2 16.9 2 25.3 3.2 2.5 0.3 4.9 1.4 7.3 1.2 8-0.7 15.3 2.5 23 3.3 1.1 0.1 2.2 1.3 3 2.2 0.3 0.3 0.1 1.4-0.2 2-0.1 0.3-1.1 0.6-1.3 0.4-5.7-4.7-13.2-1.5-19.3-4.5-0.9-0.4-2-0.1-3.1-0.2-5.3-0.2-10.5-0.3-15.9-1.1-3.6-0.6-7.9-0.2-11.9-0.5-3.8-0.3-7.5-1.3-11.3 0.1-3.4 1.2-7-2.1-10.4 0-9.9-3.5-20-0.7-30-1.6-0.9 0-1.9 0.4-2.9 0.6 0.8 0.3 1.6 0.7 2.4 1 10.2 2.8 20.5 1.5 30.8 1.3 4 0 7.7 1.8 12.1 0.6 3.5-0.9 7.9 1.8 11.9 2.8 0.8 0.1 1.7 0.2 2.4-0.1 11.6-4.4 22.6 3.5 34.1 1.6 7.4 3.9 16.2 2.5 23.7 7.6 4.6 3.1 11.5 3.2 17.5 0.9 0.7-0.2 1.5-0.6 2.1-0.5 0.9 0.1 1.7 0.6 2.5 1-0.5 0.7-0.9 1.8-1.6 2-2.9 0.7-5.8 1.1-8.7 1.6-0.7 0.1-1.4 0.4-2.1 0.7 0.5 0.5 0.8 1.2 1.4 1.6 2.7 1.7 5.4 3.4 8.1 5 3.8 2 7.3 0.2 7.6-4 0.6-7.4 0.2-14.9 1.8-22 2.2-9.8 1.4-19.6 1.2-29.3-0.3-8.4-1.7-16.9-3.4-25.2-1.4-7.1-3.5-14.2-5.9-21-3.6-9.9-8.8-18.9-14.2-27.9-5.7-9.6-13.9-16.5-21.5-24-7.9-7.8-17.5-13.7-27-19.7-13.2-8.4-28.3-10.1-42.7-14.5-3.4-1-7.8-1-10.4 3.3-0.3 0.6-3.1 0.7-3.5 0.2-6.8-9-16.3-5.3-24.5-4.7-9.4 0.7-18.8 3.3-28.1 5.9-7.6 2.1-15.1 5.1-22.4 8.4-9.2 4.1-18.6 8.3-27.2 13.6-11.2 6.8-22.8 13-32.5 22.2-6.8 6.5-14.2 12.3-21.7 18.8zm17.6 103.2l-0.1 1.4c0.3-0.4 0.6-0.9 1.7-1.4l0.1-1.5c-0.3 0.5-0.6 1-1.7 1.5zm-9.4 12.5l-0.1 1.5c0.3-0.5 0.6-1 1.7-1.5l0.1-1.4c-0.3 0.5-0.6 1-1.7 1.4zm-63.5 18.1l-1.5-0.1c0.5 0.3 1 0.6 1.5 1.7l1.4 0.1c-0.5-0.3-1-0.6-1.4-1.7zm299.7-23.6l-1.5-0.1c0.5 0.3 1 0.6 1.5 1.7l0.4 2 1-0.3c-0.5-0.8-1-1.6-1.4-3.3zm-40.8 9.5l2.5 0.6 0.2-1c-0.9-0.2-1.8-0.3-2.7-1.2l-4.6-0.1q1.9 0.4 3.8 0.9c0.3 0 0.5 0 0.8 0.8zm-163.2-6.3l-1.5-0.1c0.5 0.3 1 0.6 1.5 1.7 1.5 0.7 3.1 1.5 4.7 3.1-2.4 3.6-6.1 1.9-9.2 2.4-1.1 0.2-2.1 1.3-3.1 2 1 0.4 2 1.1 2.9 1 1.9-0.3 3.7-1.1 5.6-1.5 2.9-0.6 6.4-2.3 8.6-1.3 4.9 2.2 9.6 0.9 14.4 1.2 1.4 0.1 4.2-1.3 4.1-1.4-1-3.8-2.2 1.9-3.6 0-0.3-0.4-1.3-0.3-2.1-0.5-5.9-0.9-11.7-1.8-17.6-3.5-1.6-0.8-3.2-1.5-4.7-3.1zm240 31.4l1.5 0.1c-0.5-0.3-1-0.6-1.5-1.7-0.8-0.3-1.7-0.7-2.5-1-0.7-0.2-1.4-0.4-2.1-0.6 0.6 0.8 1 1.9 1.7 2.3 0.8 0.4 2 0.1 2.9 0.9zm-64.3-25.1l-1.4-0.2c0.4 0.3 0.9 0.6 1.4 1.7 1.4 0.3 2.8 0.7 4.2 0.8 0.6 0 1.3-0.4 2-0.7-0.8-0.3-1.6-0.7-2.4-0.8-1.3-0.2-2.5-0.1-3.8-0.8zm-132.6-11.8l-3.7 2.2c0.2 0.3 0.7 0.9 0.8 0.9 1.1-0.5 2.2-1.1 3.1-1.8 0.4-0.2 0.4-0.9 1.4-1.3l0.1-1.5c-0.3 0.5-0.6 1-1.7 1.5zm-32.9-14.1c0.8 0.8 1.5 2.2 2.7 0.4 0.3-0.5 0.8-0.8 1.1-1.1-0.8-0.3-1.8-0.9-2.6-0.8-0.7 0.1-1.3 0.9-2.8 1.5l-2 0.4 0.3 1c0.8-0.5 1.7-0.9 3.3-1.4zm-114.6 42.3c-1 0-2-0.1-3 0.1-0.8 0.1-1.5 0.6-2.3 0.9 0.6 0.2 1.4 0.7 1.9 0.5 1.5-0.3 2.8-0.9 5-1.5l0.6-2.5-1-0.2c-0.1 0.9-0.3 1.8-1.2 2.7zm127.9 5.5l1.5 0.1c-0.5-0.3-1-0.6-1.5-1.6-1.5-0.8-3-1.7-4.5-2.4-0.3-0.1-0.9 0.3-1.4 0.4 0.4 0.4 0.7 1 1.1 1.1 1.6 0.7 3.2 1.1 4.8 2.4zm-119.2 6.3l1.4 0.1c-0.5-0.3-1-0.6-1.4-1.7l2.4-3.8c-1.9 0.3-4 0.3-5.7 1-0.7 0.3-0.8 2-1.2 3.1 1.5 0.2 3 0.3 4.5 1.3zm113.7-43.1c-4.2 0-8.3-0.2-12.5 0.1-0.8 0-1.5 1.3-2.2 2 0.8 0.4 1.6 0.9 2.4 0.9 4.6 0.1 9.4 0.7 13.9-3l2-0.5-0.3-1c-0.9 0.5-1.7 1-3.3 1.5zm47.9 32.1l1.4 0.1c-0.5-0.3-0.9-0.6-1.4-1.6q-7.3-0.4-14.5-0.8-1.7-0.1-3.4-0.2-1.7 0-3.3 0-1.7 0-3.4 0.1-1.7 0-3.4 0.1c-0.6 0.1-1.2 1.1-1.8 1.7 0.7 0.5 1.5 1.4 2.1 1.3 5.1-0.6 10.1-0.2 15.1 0 4.2 0.1 8.4-0.9 12.6-0.7zm72.2 7.9l1.4 0.1c-0.5-0.3-1-0.6-1.4-1.7-10.1-0.8-20.3-1.6-30.4-2.3-0.8 0-1.7 1.1-2.6 1.7 1 0.4 2 1.3 3 1.3 7.3 0.5 14.7-0.7 22.1 1.5 2.2 0.6 5.2-0.9 7.9-0.6zm2.3 41.5c8-0.3 16-1.1 23.8-3 1.7-0.5 3.7-0.1 5.5-0.1 0.4 0.1 0.8 0.5 1.3 0.7-0.4 0.4-0.7 0.9-1.1 1.1-0.8 0.5-1.6 1.1-2.6 1.3-4.5 1.1-9 2.1-13.5 3.3-0.7 0.1-1.1 1.2-1.6 1.9 0.5 0.4 1.1 0.9 1.7 1.1 0.7 0.2 1.5 0.1 2.3 0 9.3-1.5 18.6-3.2 27.9-4.6 5.2-0.8 10.6-0.7 15.7-1.8 5.1-1.1 10.1 0.6 15.5-1.1 6.4-2 6.4-1 9.2-8.3 1.4-3.6 1.8-5.5-2.6-6.2-1.9-0.4-3.7-1.3-5.6-1.5-9-0.8-17.7-4.6-26.9-3.2-0.2 0.1-0.5-0.2-0.7-0.3-13.3-3-25.6-9.4-39.3-11.1-3.4-0.4-6.7-1.5-10.1-2.2-6.2-1.2-12.5-3.1-18.8-3.5-12.4-0.7-24.8 0.7-37-1.7-3.7-0.7-7.4-1-11.1-1.6-3-0.4-5.9-1.5-8.8-1.4-12.6 0.3-25.2 0.9-37.7 1.5-7.4 0.3-14.7 0.3-22.2 1.1-10.7 1.3-21.6 1.9-32.4 3.5-9.1 1.4-18.5 1.9-27.6 3.3-11.5 1.7-22.9 4-34.3 6.2-4.8 0.9-9.6 2-14.4 3.1-4.5 1.1-7.1 4.1-8 8.5-0.6 3.7-1.1 7.4-1.6 11.1-0.6 5.5 1.3 7 6.4 4.6 3.5-1.6 6.8-3.6 10.3-5.3 2.6-1.3 5.3-2.4 8-3.5q0.8-0.4 1.7-0.8c0.1 0.7 0.3 1.4 0.3 2.2-0.1 0.7-0.6 1.3-0.7 2-0.3 0.9-0.4 1.8-0.6 2.7 0.8-0.4 1.5-0.9 2.3-1.1 7.2-1.6 14.4-3.2 21.6-4.6 1.7-0.4 4.3-0.5 5.2 0.4 4.3 4.8 10.2 3.4 14.5 2.3 6.8-1.9 12.6-0.8 18.9 1 4.5 1.3 9.3 1.7 13.9 2.5 1.7 0.3 4.1 0 5 1.1 2.1 2.5 4.5 1.9 7.1 2 6.3 0.4 12.7-1.1 18.9 1.5 2.6 1.1 5 2.7 8.3 0.3 1.7-1.3 5-0.5 6.4 2.4 0.4 0.7 1 2 1.5 2 7.3 0 14.6 0.5 21.7-0.6 8.8-1.3 17.6-3.5 26.4-2.1 4.1 0.6 7 1.5 9.7-2.2 0.6-0.8 2.2-1.2 3.4-1.2q4.3-0.3 8.6-0.5 4.4-0.2 8.7-0.4 4.3-0.2 8.7-0.4 4.3-0.2 8.6-0.3c2.9-0.2 5.8-0.1 10.2-0.1zm107.5-60.4c6.4-2.1 12.4-2.6 18.7 1.3 5.6 3.3 11.5-0.4 12.7-6.9 0.9-5.1 0.1-6.1-5.3-6.1-2 0-4.6-0.8-6.1 0.1-3.8 2.2-7 1.7-10.5-0.1-2.3-1.2-5.4-3.5-7.1-2.8-2.4 1.1-3.8 4.4-5.6 6.8-2.6 3.2-2.3 4.1 3.2 7.7zm-251.8 71.4c2.9 0.4 6.3 1.8 8.8 0.9 3.1-1.2 5.3 1.1 8 0.7 1.9-0.3 3.9-0.5 5.9-0.8-1.8-1.3-3.5-2.8-5.5-3.7-1.3-0.6-3-0.1-4.6-0.2-3.9-0.4-8 0.9-11.9-1.4-1.3-0.9-4.6-0.9-5.2 0-2.5 3.6-5-1.5-6.6 0.1-3.7 3.7-4.5-1.5-6.7-1.9-1.2-0.2-2.2-1.3-3.3-1.5-10.5-1.7-21-2.7-31.5 0-0.5 0.1-0.9 0.4-1.4 0.6 0.5 0.3 1 0.9 1.5 0.9q11 0.9 22 1.6c1.8 0.1 4-0.5 5.4 0.2 6.1 3.4 12.6 2.9 19.1 3 1.7 0 3.5 0.5 6 1.5zm169.4 1.6c17.2 0 34.4 0 51.6 0 2-0.1 4.5 0 5.8-1.1 2.9-2.5 5.2-5.6 7.7-8.5 0.3-0.4 0-1.5-0.1-2.3-0.7 0.3-1.7 0.4-2.1 0.9-4.3 5.3-9.1 9.1-16.5 6.3-0.5-0.2-1.2-0.2-1.5 0-4.3 2.7-9 1.4-13.5 1.5-11.2 0.2-22.4 0-33.6 0.1-1.4 0-3.6-0.8-3.1 1.8 0.1 0.7 2.4 0.9 5.3 1.3zm-243.2-80c2.7-3.2 6.3-1.1 9.5-1.5 1.2-0.2 2.4 0.3 3.7 0.5-0.9 0.9-1.7 1.7-2.5 2.6-0.7 0.7-1.4 1.5-2.1 2.3 1.1 0 2.4 0.3 3.2-0.2 1.9-1 3.8-2.3 5.4-3.8 0.5-0.5 0-2.9-0.1-2.9-4.5-0.3-8.6-3.1-13.8-0.6-8.1 4-17.2 5.9-25.8 1.8-4-1.8-6.5-0.8-9.5 0.8-4.6 2.5-9.6 3.7-14.7 4.1-1.4 0.2-2.8 0.6-4.2 0.9 1.5 0.7 2.9 1.8 4.5 2.2 1.8 0.3 4 0.7 5.4-0.1 4.1-2.2 9.4-1.1 12.9-4.7 2-2.1 3.5-1.2 6-0.3 6.8 2.8 13.9 3.4 22.1-1.1zm213.4 75.3c-1.6-0.5-3.4-1.7-4.8-1.4-9.6 2.5-19.5 3.1-29.3 4.6-1 0.1-1.8 0.5-2.7 0.8 1 0.7 1.9 2 2.9 2.2 2.6 0.3 5.7 0.9 7.8-0.1 4.5-2.2 9-1.3 13.5-1.3 8.6-0.2 17.2 0 25.8-0.2 2.1-0.1 5.1 1.8 6.4-1.7-2-0.5-4.1-1-6.2-1.3-3.9-0.7-8.2 1.5-13.4-1.6zm-59.6-103.6c1.8 0 3.6 0.1 5.4 0 0.6-0.1 1.1-0.8 1.6-1.2-0.5-0.6-1-1.8-1.6-1.8-7-0.1-14.3-1.2-21 0.2-7.1 1.5-14.4 0.9-21.4 2.8-1.2 0.3-3.3 0.5-3.8-0.1-3.2-4-6 1-9 0.2-0.3-0.1-0.8 0.4-1.2 0.7 0.4 0.3 0.8 0.7 1.2 0.8 5.5 0.5 11 1.3 16.5 1.5 2.6 0.1 5.2-1.1 7.9-1.5 3.5-0.4 6.8-0.1 10.4-1.2 2.9-1 7.1-1.9 10.3 1 0.3 0.3 2-0.9 4.7-1.4zm72.9 41.6c1 0.3 1.9 0.8 2.8 0.7 1.2 0 2.3-0.5 3.4-0.8-0.9-0.2-1.9-0.5-2.8-0.7-4.1-0.5-8.1-1-12.1-1.6-3-0.4-5.9-1.2-8.8-1.5-4.7-0.4-9.5 0.6-14.3-1.4-2.2-1-5.1-0.2-7.7-0.1-0.5 0-1.2 1-1.2 1.5 0 0.5 0.7 1.5 1.2 1.5 6.8 0.6 13.7 1 20.5 1.7 2.9 0.3 5.8-0.5 8.9 1.1 2.4 1.2 6.6 2 10.1-0.4zm-71.4-3.9c5.3 0 10.5 0 15.7 0 0.7 0 1.4-0.4 2.2-0.6-0.8-0.3-1.5-0.7-2.3-1.1-1.1-0.5-2.2-1.4-3.3-1.4-5.7-0.1-11.8 1-17.1-0.3-5.7-1.5-10.8 0.9-16.1 0.3-0.5-0.1-1.1 0.6-1.7 0.9q1.1 0.3 2.1 0.6c1.9 0.6 3.7 1.4 5.6 1.5 4.5 0.2 8.9 0.1 14.9 0.1zm108.3 6.3c6.5 1.2 13 2.6 19.5 3.7 0.9 0.2 1.9-0.6 2.8-0.9-0.6-0.4-1.2-0.8-1.6-1.3-3.7-4-9-2.1-13.3-3.7-5.8-2.2-11.7-2.8-17.7-2.5-1 0-1.9 0.4-2.9 0.6 0.9 0.8 1.6 2.2 2.6 2.4 3.2 0.5 6.6 0.6 10.6 1.7zm-91-17.3c-5-2.4-10.6-1.4-15.9-2.8-7.1-1.8-14.7-1.4-22.1-1.9-0.7 0-1.3 0.5-2 0.8 0.7 0.3 1.3 0.6 2 0.7 7.1 1.1 14.2 2.1 21.3 3.2 5.8 1 11.6 2.3 17.4 3 2.4 0.3 2-1.5-0.7-3zm-28.2 83.2h22.7c1.3 0 2.6 0 3.9-0.1 0.3 0 0.8-0.8 0.8-1.1-0.1-0.7-0.4-1.7-0.9-1.9-0.9-0.3-2.1 0.1-3.1-0.1-5.2-0.7-10.8 1.8-15.8-1.5-2.1 2.8-7.2-0.7-7.6 4.7zm59.6-86.3c2.2 2.8 5.2 1.1 7.9 1.5 2.4 0.4 5.3 0.1 7.2 1.3 3.8 2.2 7.7 1.8 11.7 1.8 0.7 0.1 1.4-0.3 2.1-0.6-0.7-0.7-1.2-1.9-1.9-2.1-3.1-0.8-6.3-1.1-9.3-2-6.2-1.8-12.3-2.3-17.7 0.1zm65.9 36.1c4 0.3 8.1-0.9 11.9 1.4 1 0.6 2.9-0.1 4.4-0.5 0.6-0.2 1.1-1.1 1.6-1.6-0.6-0.3-1.1-0.8-1.7-0.9-2.4-0.1-4.7 0.1-7-0.2-6.1-0.9-12.2-2-18.3-2.9-0.7-0.1-1.6-0.1-2.2 0.3-0.7 0.5-1.3 1.4-1.9 2.2 0.7 0.2 1.4 0.4 2.1 0.6 3.2 0.6 6.8-1.6 11.1 1.6zm-209.5-11.8c-2.8 0.8-5.6 1.6-8.3 2.3-2.1 0.6-4.3 1-6.4 1.7-0.4 0.1-1.1 1.5-0.9 1.6 0.6 0.7 1.5 1.5 2.1 1.4 5-1.1 9.9-2.5 14.9-3.6 1.1-0.3 2.5 0.3 3.7 0 1-0.2 1.8-1.2 2.8-1.8-1.3-1.3-2.5-2.9-4-3.8-0.6-0.3-2 0.9-3.9 2.2zm196.9-27.5l-3.7-0.9c0.5 0.8 0.9 2 1.6 2.4 3.8 2.2 7.5 4.6 11.5 6.2 4 1.5 8.4 2.3 12.7 3.3 0.6 0.1 1.3-0.4 2-0.6q-1.1-0.5-2.2-1.1c-6.8-3.1-13.5-6.2-21.9-9.3zm51.8 15.7l3.8 1c-0.6-0.9-0.9-2-1.7-2.5-3.6-2.2-7.6-3.3-11.9-3.2-2.7 0-5.5-0.6-8.2-0.7-2.1-0.2-4.2 0-6.2 0 2 0.8 3.9 1.8 6 2.2 5.5 1.2 11.1 2.2 18.2 3.2zm-87.1-3.9c-8.4-3.9-17.4-1.9-26.1-2.3-0.7-0.1-1.4 0.4-2.1 0.7 0.7 0.3 1.3 0.7 1.9 0.8 6.3 0.6 12.6 0.6 18.7 1.8 2.6 0.5 4.9 2.2 7.6-1zm-35.3-19.6c1.3 0.2 2.7 0 3.7 0.6 1.4 0.8 2.6 2.1 3.3-0.4 0-0.4-1.6-1.3-2.5-1.8-5-2.7-10.5-1.2-15.8-1.5-1.2-0.1-2.4 0.5-3.6 0.7 1.3 0.7 2.5 2 3.8 2.1 1.9 0.2 3.8-0.6 5.8-0.6 1.2 0 2.5 0.6 5.3 0.9zm103.6 26.7c-2.1 0-4.2-0.1-6.2 0.1-0.3 0-0.9 2.1-0.5 2.4 2.4 2.3 12.5 2.6 15.6 0.6 0.4-0.3 0.8-0.5 1.2-0.7-0.6-0.3-1.2-0.8-1.9-0.8-2.4-0.4-4.9-0.6-8.2-1.6zm-142-27.5c0.9-0.4 1.8-0.7 2.6-1.1 0.1-0.1 0-1-0.1-1-5.5-0.7-10.9-1.3-16.4-1.8-0.5 0-1.1 0.6-1.7 0.9 0.6 0.6 1.1 1.5 1.7 1.6 4.3 0.8 8.7 1.5 13.9 1.4zm-180.5 29.8c2.5-0.2 5-0.5 7.5-0.8 0.7-0.1 1.3-0.5 1.9-0.8-0.7-0.3-1.4-0.6-2.1-0.7-4.5-0.6-9 0.7-13.5 0-1-0.1-2.9 0.6-3 1.1-0.6 2.7 1.6 1.9 3 2 1.8 0 3.6 0 6.2-0.8zm106-22.7l2.3-3.7c-1.1 0.4-2.1 1.1-3.2 1.3-2.4 0.4-5 0.5-7.4 0.8-1.2 0.2-2.3 0.6-3.4 0.9 1.2 0.7 2.5 2.1 3.7 2.1 2.1 0 4.3-0.9 8-1.4zm250.2 38.4c-0.1 2.9 1.2 3.2 3.2 1.5 1.6-1.4 2.9-3.9 5.4-0.9 0.2 0.3 1.3-0.1 2-0.2-0.3-0.5-0.7-1.1-0.8-1.6-0.4-3.3-2.4-3.3-4.7-2.2-1.5 0.7-2.9 1.7-5.1 3.4zm-247.9-7.8c0 0.7-3.2 1.7-0.2 2.2 3.1 0.5 6.3 0.2 9.4 0.1 0.5 0 1.1-0.6 1.6-0.9-0.5-0.6-1-1.5-1.6-1.6-2.8-0.4-5.6-0.4-9.2 0.2zm80.8-40.1c-1.3 0.4-3.6 0.6-3.7 1.3-0.7 2.5 1.5 1.8 2.9 1.9q0.8 0 1.6 0 3.7-0.2 7.5-0.5c-2.2-0.9-4.5-1.8-8.3-2.7zm-211.8 29.9l2.3-1.2c-0.5-0.7-1.1-1.9-1.5-1.9-1.4 0.3-2.8 0.8-4 1.6-1.9 1.3-3.2 3.2-2 5.7q2-1.4 3.9-2.9c0.2-0.2 0.3-0.4 1.3-1.3zm19.6 21.1l4.5-3.3c-1.5-0.2-2.9-0.5-4.4-0.6q-0.6 0-1.2 0-0.6 0-1.1 0-0.6 0-1.2 0-0.6 0-1.2 0.1c-0.5 0-1 0.6-1.5 0.9q0.7 0.3 1.3 0.6c1.3 0.5 2.7 1 4.8 2.3zm327.2-36.8l-3.7 1c2.2 1.2 4.5 2.6 6.8 3.6 0.6 0.2 1.6-0.7 2.3-1.1-0.5-0.6-0.9-1.4-1.5-1.9-0.7-0.7-1.6-1.1-3.9-1.6zm-227.6 18.8c0.8 0 1.7 0.2 2.4 0 1.5-0.6 3-1.5 4.6-2.2-1.4 0.2-2.8 0.5-4.2 0.6-0.8 0.1-2 0.4-2.3 0-2.1-2.7-3.9 1-5.9 0.1-0.2-0.1-0.9 0.6-1.4 0.9 0.7 0.2 1.4 0.5 2.1 0.6 1.1 0.1 2.1 0 4.7 0zm-120.8 18.8l2.1-0.5c-0.2-0.3-0.4-1-0.6-1-1.5-0.1-3.1-0.2-4.6 0-1.9 0.2-3.7 0.7-5.5 1.1 0 0.1 0.2 1.4 0.2 1.4q3.2-0.2 6.3-0.4c0.2-0.1 0.4-0.4 2.1-0.6zm160.1-40.8l6.7-2.6q-3.8-0.3-7.5-0.5c-0.8 0-1.7-0.3-2.3 0.1-0.5 0.2-1 1.6-0.8 1.8 0.6 0.6 1.5 0.8 3.9 1.2zm7.8-9.4c0 1.1 0 3 0.1 3 1.8 0.2 3.6 0.2 5.4 0.1 0.5 0 1-0.8 1.6-1.2-0.6-0.6-1-1.6-1.7-1.8-1.2-0.3-2.5-0.1-5.4-0.1zm183.6 53.4c0.5 0 1 0 1.5 0 1.3-0.2 2.5-0.4 3.7-0.6-1.1-0.7-2.1-1.5-3.2-2.1-1.3-0.8-2.5-1.5-3.9-2-0.5-0.2-1.3 0.4-2 0.7 0.4 0.8 0.6 1.7 1.2 2.4 0.4 0.4 1.2 0.5 2.7 1.6zm-288.7-4.7c-2.4-2.4-4.9-2.2-7.5-0.4-0.4 0.3-0.7 0.7-1.1 1.1 2.2 0.3 4.4 0.7 6.6 0.8 0.9 0 1.8-0.5 2-1.5zm158.5-12.6c-0.6 0-1.1-0.2-1.6 0-1.2 0.7-2.4 1.4-3.7 2.1 1.2 0.4 2.4 0.8 3.7 1 1 0.2 2 0.2 3 0 0.8-0.1 1.5-0.6 2.3-0.9-0.7-0.8-1.5-1.5-3.7-2.2zm-148.3-0.8c-0.3 4.6 1.9 0.9 2.8 0.7 1.2-0.2 2.3-1 3.5-1.5-1.2-0.5-2.4-1.2-3.6-1.5-0.8-0.1-1.8 0.5-2.7 2.3zm-18.9-29.8c-1.1 0.3-2.4 0.4-3.5 0.8-0.3 0.2-0.6 1.3-0.5 1.3 2.1 1.5 6.4-0.3 7.1-3.1 0.1-0.2-0.8-0.8-1.2-0.8-0.4 0-0.7 0.7-1.9 1.8zm132.6 18.1c0.2-0.2 0.4-0.4 0.6-0.6 0-0.1 0-0.5-0.1-0.5-1.9-0.4-4.3-0.1-5.6-1.2-1.8-1.5-1.9 0.3-2.8 0.7 0.6 0.6 1.2 1.4 1.8 1.5 1.5 0.2 3 0.1 6.1 0.1zm-91 10.9c0.3 0 0.5 0.1 0.8 0 2.1-0.3 4.2-0.6 6.3-1 0 0-0.1-0.9-0.1-1.4-1.9 0.3-3.9 0.5-5.8 0.9-0.7 0.1-1.3 0.5-1.2 1.5zm150.7-25.1c1.3 1.6 2.6 2.6 4.3 0.4 0.3-0.4 0.7-0.7 1.1-1.1-1.4-0.3-2.8-0.7-4.2-0.8-0.7 0-1.3 0.5-1.2 1.5zm-100.5 28.3c1.3-0.4 2.7-0.7 3.9-1.2 0.1 0-0.1-0.9-0.1-1.4-1.3 0.3-2.6 0.5-3.7 1-0.7 0.3-1.1 1-0.1 1.6zm26.7-15.7c0.2-0.2 0.4-0.4 0.5-0.6 0.1-0.1 0.1-0.4 0-0.5-0.9-0.3-1.7-1-2.6-1-1.4 0-2.8 0.3-4.2 0.6-0.2 0.1-0.3 0.7-0.4 1q1.8 0.3 3.6 0.5c0.5 0 1 0 3.1 0zm72.2-4.7l-2.4 1.9 1.5 1.2c0.8-1 1.7-2.1 0.9-3.1zm-14.1-7.9l5.3-2.2c-0.3-0.3-0.7-0.9-0.8-0.9-1.8 0.8-3.6 1.6-4.5 3.1zm-169.5 75.3l-2.1 0.5 3.7 2.7c0-1.1 0-2.1-1.6-3.2zm-54.1-52.5c-0.2-0.2-0.4-0.4-0.6-0.5-0.1-0.1-0.4-0.1-0.5 0q-0.3 0.5-0.5 0.9-0.2 0.5-0.5 1-0.2 0.4-0.4 0.9-0.3 0.5-0.5 1c0 0 1.1 0.7 1.2 0.6 0.9-1 1.7-2.1 1.8-3.9zm236.1 0.8l-6.9 0.9q3.6 0.2 7.2 0.4c0.1 0 0.3-0.4-0.3-1.3zm-183.6 0l-2 2.6 3.6 0.5c0-1 0-2.1-1.6-3.1zm-14.1-7.9l-5.3 0.9c1.8 0.2 3.7 0.3 5.6 0.4 0.1 0 0.3-0.3-0.3-1.3zm68.3-8.6c-2.1-2.1-3.1 0.1-4.3 1.2-0.1 0.1 0.2 0.7 0.3 1.1 1-0.5 2.1-1 4-2.3zm185.9 10.2c-0.5-0.5-1.5-1.5-1.6-1.4-2.1 2.1 0.4 2.9 1.3 4.2 0.4-0.7 0.7-1.3 0.3-2.8zm25.1-23.5l-2.3 1.8 1.3 1.3c0.6-0.8 1.2-1.6 1-3.1zm22.8 57.2c1 0 2.1 0 3.1-0.1 0 0 0-1.4 0-1.4-1 0-2.1 0-3.1 1.5zm20.4-12.5c-0.2-0.2-0.4-0.4-0.6-0.5-0.1-0.1-0.5 0-0.5 0q0 2 0 4.1l2.6-0.4c-0.5-0.6-1-1.1-1.5-3.2zm-13.4-0.8l5.4-0.9c-1.9-0.2-3.7-0.3-5.6-0.4-0.2 0-0.4 0.3 0.2 1.3zm-26.6-7.9l-2.1 0.6h5.7c-0.7-0.2-1.4-0.4-3.6-0.6zm-298.2-15.6c0.8 0 1.6 0.1 2.3-0.1 0.5-0.1 0.9-0.6 1.4-1-1-1.1-3.7-0.6-3.7 1.1zm277.8 20.4l-2.1 0.5h5.7c-0.7-0.2-1.4-0.4-3.6-0.5zm-201.7-19.7c1.1 0 2.1 0 3.2 0 0-0.1 0-1.4 0-1.4-1.1-0.1-2.1-0.1-3.2 1.4zm244.8 14.2l-0.4-2-2.4 2.3c0.7 0.2 1.4 0.3 2.8-0.3zm13.3-0.8c-0.1 0.1-0.3 0.3-0.5 0.5 0 0.1 0 0.3 0 0.5l2.9-0.4c-0.5-0.5-1-0.9-2.4-0.6zm-282.4-130.3l2-0.4c-0.1-0.3-0.3-1-0.3-0.9-0.8 0.1-1.6 0.3-1.7 1.3zm38.5 82.4c-0.9-0.2-1.7-0.4-2.5-0.6-0.1 0-0.2 0.6-0.3 1 0.6 0.1 1.3 0.3 2.8-0.4zm10.9 4.7c0.9 0.2 1.7 0.5 2.5 0.6 0.1 0 0.2-0.6 0.3-0.9-0.7-0.2-1.3-0.3-2.8 0.3zm51.8 3.2c-0.8-0.3-1.6-0.5-2.5-0.6 0 0-0.2 0.6-0.3 0.9 0.7 0.2 1.4 0.3 2.8-0.3zm22.8 7l-2 0.4c0.1 0.4 0.2 1 0.3 1 0.8-0.2 1.6-0.4 1.7-1.4zm30.6 11.8c-0.9-0.2-1.7-0.4-2.5-0.6-0.1 0-0.2 0.6-0.3 1 0.7 0.1 1.3 0.2 2.8-0.4zm-41.6 2.3l-2 0.5c0.1 0.3 0.2 0.9 0.3 0.9 0.8-0.1 1.6-0.4 1.7-1.4zm182 37.7l-0.8-1.6c-0.2 0.6-0.5 1.1 0.8 1.6zm-48.6-32.9l0.7 1.5c0.3-0.5 0.6-1-0.7-1.5zm-259.7 11.7c-0.9-0.2-1.7-0.4-2.5-0.6-0.1 0-0.2 0.7-0.3 1 0.7 0.1 1.3 0.3 2.8-0.4zm294.2-7c-0.2 0.8-0.5 1.6-0.6 2.5 0 0 0.6 0.1 0.9 0.2 0.2-0.6 0.3-1.3-0.3-2.7zm-371.1-0.8c0.8 0.2 1.6 0.4 2.5 0.6 0 0 0.2-0.7 0.3-1-0.7-0.1-1.4-0.3-2.8 0.4zm83.1 59.6l-0.9-0.6c0.1 0.4 0.1 0.9 0.9 0.6zm223.6-41.6l0.7-0.9c-0.5 0-1 0.1-0.7 0.9zm-228.3-0.8l-0.9-0.6c0.1 0.5 0.1 0.9 0.9 0.6zm186.8-9.4l0.9 0.6c0-0.4-0.1-0.9-0.9-0.6zm-146 0l1 0.6c-0.1-0.4-0.1-0.9-1-0.6zm-6.2-6.3l0.9 0.7c-0.1-0.5-0.1-1-0.9-0.7zm47-1.5l-0.9-0.7c0 0.5 0.1 1 0.9 0.7zm-56.5 0l-0.9-0.7c0.1 0.5 0.1 1 0.9 0.7zm263.7-1.6l-1-0.6c0.1 0.4 0.1 0.9 1 0.6zm-295 0l-1-0.6c0.1 0.4 0.1 0.9 1 0.6zm75.3-1.6l0.9 0.7c0-0.5-0.1-1-0.9-0.7zm50.2-6.2l0.9 0.6c0-0.5-0.1-1-0.9-0.6zm65.9-7.9l-0.9-0.6c0 0.5 0.1 0.9 0.9 0.6zm-178.9 0l1 0.6c-0.1-0.4-0.1-0.9-1-0.6zm68.3-13.3l-0.7 0.9c0.5 0 1-0.1 0.7-0.9zm-8.7 0.8l1 0.6c-0.1-0.5-0.1-1-1-0.6zm83.2-3.2l0.9 0.7c0-0.5-0.1-1-0.9-0.7zm-104.3-0.8l-0.7 1c0.5-0.1 1-0.1 0.7-1z"/>
	<path class="s1" d="m414 312.7c0.2 6.5-4.5 8.2-8.3 10.4-0.8 0.4-3.6-1.3-4.1-2.5-1.1-2.4-1.9-5.3-1.6-7.9 0.6-5.3 2-10.5 3-15.8 0.6-3.9 2.6-5.5 6.2-4.6 2.7 0.7 4.4 3.7 3.8 6.5-0.3 1.7-1.2 4.2-0.4 5.1 2.4 2.5 0.9 5.4 1.4 8.8zm-6.3 0.8c-0.4-1.3-0.6-3.7-1.2-3.8-3.3-0.4-1.7 2.3-1.9 3.8-0.3 2.7 0.9 3.2 3.1 0zm-135.3-68.7c0.4-0.9 0.1-1.7 0.4-1.8 3.6-2.4 6 0.5 8.4 2.2 1.6 1.1 3.9 2.4 1.4 5.5-1.1 1.3-0.4 4.4-0.1 6.6 0.5 3.1-0.6 6.9-2.1 8.4-3.1 3.2-6.4 0.3-8.5-0.7-2.4-1.1-5-4.1-2.5-8.4 1.8-3.2 1.8-7.5 3-11.8zm1.9 12.2l0.5 3.6c2.2-0.6 3-2.2 2.6-4.4-0.4-2.4-1.7-1.8-3.1 0.8zm120.8-14.9c6.3 4.3 9.3 13.5 7.4 20.1-0.4 1.2-0.9 2.3-1 3.5-0.3 1.4 0.5 3.1-2.1 3.1-2.5 0.1-5.3-0.2-5.7-2.6-0.9-7-1.3-14.1-1.6-21.2 0-0.9 1.5-1.9 3-2.9zm-48.6-28.2c-0.5 1.8-1.4 2.9-1.5 4-0.2 2.1 0.4 4.4-0.2 6.2-0.7 2-2.2 4.2-4 5.2-0.8 0.4-3.8-1.6-4.6-3.2-4.1-7.7-1.9-17.5 3.8-19.3 2.9-0.9 4.6-1.4 5.4 2 0.3 1.4 0.7 2.9 1.1 5.1zm-117.3 40.4c1.7 2.9 3.4 5.4 4.2 8.1 0.6 2.1 0.7 5.3-2 5.9-2.5 0.6-6 0.4-7.7-1.1-2.7-2.3-6.4-5.3-3-10.1 0.6-0.8 0.3-2.4 0.2-3.7-0.1-2.6 0.5-4.7 3.5-5 3.9-0.3 4.6 2.3 4.8 5.9zm139.3 17.6c-0.1 2.7 0.8 5.1-2.8 4.8-2.7-0.3-6 0.6-6.6-3.3-0.4-3 0-5.7 2.4-8.4 1.3-1.4-0.9-5.5-0.4-8.2 0.2-1.4 3.7-3.8 4.2-3.5 2 1.2 4.4 3.4 4.5 5.3 0.3 4.1-0.8 8.4-1.3 13.3zm-29.8-4.7c1.4 0.2 2.8 0.4 2.8 0.5 0.1 5.8 1.3 11.6-1.2 17.2-1.7 3.9-3.2 5.2-6.5 4.3-2.4-0.7-4.7-4.9-4-7.6 0.2-0.7 1-1.3 1-1.9-0.4-3.4 0-6.1 3.7-7.8 1.5-0.7 2.3-3.1 4.2-4.7zm-92.2 28.6c5.4-2.5 7.5-1.8 7.3 2.7-0.1 3.4 1.8 7.3-1.4 10.3-1.5 1.4-2.8 3.2-4.5 4.3-1.7 1.1-4.9-0.6-4.9-2.5-0.2-5-0.4-10.1 3.5-14.8zm40.4-11.3c1.3 0.5 1.9 1 2.5 1.5 1.8 1.9 5.4 4.7 5 5.4-1.9 3.5 0.1 8.4-4.1 10.9-2.5 1.5-5.2 1.2-6.5-1.3-1.7-3.1-0.4-12.7 3.1-16.5zm-47.5-74.2c1.6-1.7 2.8-3 4-4.3 0.9 1.4 2.4 2.7 2.6 4.2 0.3 4.2 0.7 8.6-1.7 12.3-0.8 1.2-3.2 2.5-4.3 2.1-1.4-0.5-2.8-2.5-3.2-4.1-0.9-3.5 0.2-6.8 2.6-10.2zm-46.7 91.4c-3.6-4.1-4.1-10.1-1.4-13 1-1.1 3.1-1.9 4.6-1.7 1.7 0.2 4 0.8 3.2 3.8-0.8 3 2.4 6.6-0.9 9.2-1.2 1-3.1 1.2-5.5 1.7zm108.3-100.4c0.9 1.4 1.2 2.8 1.2 4.2 0 2.3-1 5-0.1 6.9 1.3 2.6-0.7 4-1.7 4.2-1.7 0.2-4.1-0.5-5.2-1.7-1.8-2-0.2-11.8 1.9-13.5 0.7-0.5 2.1-0.1 3.9-0.1z"/>
</svg>