<svg version="1.2" xmlns="http://www.w3.org/2000/svg" viewBox="0 0 534 534" width="534" height="534">
	<title>misc-21</title>
	<style>
		.s0 { fill: #90be6d } 
		.s1 { fill: #577590 } 
	</style>
	<path class="s0" d="m489.1 307.3c-4.9 2.8-9.8 4.3-15.1 4.9-4.8 0.5-5.4 1.7-6.6 6.7-2.1 9-7.2 15.9-15.2 20.7-3.5 2.1-7 3.7-11 4-0.9 0.1-2.2 0.6-2.2-1.2 0-1.1 0.1-1.8 1.6-1.9 1-0.1 1.8-1.5 2.8-1.6 8.2-1.1 12.4-7.5 17.5-12.7 1.2-1.2 2-3.3 2.1-5.1 0.6-4.8 3-9.5 0.6-14.4-0.1-0.3-0.2-1.1 0-1.3 3.1-2.1 1.5-5.2 1.8-7.9 0.4-3.2-4.3-5.3-2-9-1.8-2.6-3.7-5.2-5.6-7.8-0.4-0.6-0.7-1.2-1.8-0.4-1.7 1.3-3.1 0.5-2.6-1.3 0.6-2.2 0.7-4.1-1.1-5.9-2.5-2.5-5.6-4.2-9.2-4.6-2.5-0.3-5.1-0.1-7.6 0-4.4 0.1-8.8 0.4-12.7-2.5-0.6-0.4-1.5-0.6-2.3-0.5-2.1 0-4 0-5.3-2-0.2-0.5-0.8-1.1-1-1.1-4.4 1.3-5.4-2.5-7.8-4.6-1.3-1.2-3.2-1.8-5-2.5-1.3-0.5-2.9-0.4-4.1-1.1-3-1.9-6-2.8-9.4-1-0.7 0.3-2.1-0.1-2.7-0.6-2.1-2-3.9-1.5-6.3-0.8-2.9 0.9-6.1 1.5-9.1 1.3-2-0.2-4.1-1.8-5.7-3.3-4.5-4.2-4.6-4.6-9.8-1.5-2.4 1.4-4.8 1.5-7.3 2-5.4 1-10.3 0.4-15.1-2.1-0.8-0.4-2-0.2-3 0-5 0.8-9.2-1.1-13.4-3.3-4.3-2.2-8.6-4.5-13-6.8-0.5-0.2-1.3-0.1-1.9-0.1-2.3-0.2-4.5 0.1-6.8-0.9-2.5-1-4.7 1.5-7 2.4-1 0.4-2.1 1.6-2.9 1.4-4.8-1.1-8.6 1.3-12.8 2.9-1.2 0.4-2.7 1.4-4.6 0.4-1.8-0.9-3.7 0.5-5.3 1.6-4 2.7-4 2.5-8.9 2.4-2 0-4 1-6 1.3-1.7 0.2-3.5 0.3-5.2 0.3-1.9-0.1-3.9-0.8-5.8-0.4-5 0.9-9.7 2.8-15 0.9-2.3-0.8-5-0.4-7.5-0.4-2.3 0-4.6 0-6.9 0.4-1.4 0.3-3 1.1-4.1 2.1-4.7 4.7-11.2 5.8-16.8 8.6-4.3-2.1-7.2 1.7-10.9 2.4-1.3 0.2-3 0.5-4-0.1-4.2-2.5-6.7 0.5-9.3 2.7-4.3 3.5-9.1 6.3-14.4 8.2-0.4 0.1-1 0.5-1.3 0.3-4.3-2.5-8.6 0.5-12.9 0.1-3.9-0.3-7.9 0.5-11.4-1.9-0.3-0.2-0.9 0-1.4 0.1 0.1 0.5-0.1 1.2 0.2 1.7 0.8 1.5 1.8 2.9 2.5 4.5 0.2 0.5-0.4 1.5-0.9 2.1-0.2 0.1-1.3-0.3-1.7-0.7-1.2-1.1-2.3-2.1-2.6-4-0.3-2.3-2.4-2.7-4.6-1.6-7.7 4-15.6 7.9-22.3 13.4-4.4 3.6-8.1 8-11.5 12.5-3.6 4.6-6.7 9.7-9.7 14.7-1.4 2.3-2.2 4.9-3.3 7.3-2.8 5.7-2.9 5.7 3.1 5.7 0.3 0 0.7 0.1 1 0 1.6-0.2 3.7 0.2 3.6 1.6-0.1 1.3-2.1 2.5-3.4 3.4-0.8 0.6-2.7-0.7-2.4 1.5 0.2 1.2 0.5 3.1 1.3 3.4 6.6 2.6 12.7 6.2 19.8 7.5 6.5 1.1 13 1.5 19.5 2.2 4.9 0.5 9.8 0.7 14.8 0.7 3.7 0 7.5-0.7 11.2-1 3.6-0.3 7.3 0.8 10.8-1 0.3-0.1 0.7 0 1 0 9 1.2 18.1-0.4 27.1-0.1 9.1 0.4 18.3 0.2 27.4 0.1 6.3-0.2 12.6-0.3 18.9-1.1 7.3-0.9 14.6-1.7 22-2 9.5-0.4 19.1-0.9 28.6-2.1 6.3-0.8 12.6-1.3 18.9-2.1 5-0.7 10 0 14.8-1 6-1.1 12-0.3 17.9-0.9 19.3-2.1 38.7-0.5 58-0.9 12.7-0.3 25.4-0.2 38.1 0 5.3 0.1 10.1-1.6 15-3.1 0.7-0.3 1.3-0.9 2.1-1 0.4 0 1 0.5 1.4 0.9 0 0.1-0.4 0.9-0.7 1.1-6.3 3.4-12.9 6.2-20.3 6.1-13.5-0.1-27.1 0.1-40.6 0-2.1-0.1-4.1-0.7-6.2-1-0.8-0.1-1.8-0.2-2.5 0-5.9 2-11.9 0.8-17.9 1-6.6 0.2-13.2-0.1-19.8 0-6.1 0.2-12.3 0.1-18.3 1.2-4.2 0.8-8.2 0.5-12.3 0.8-8.9 0.7-17.8 1-26.6 2.2-7.3 1-14.6 1.8-22 2-3.1 0-6.2 0.6-9.2 0.9-3 0.3-5.8-0.1-8.8 0.9-3.4 1-7.1 1-10.7 1.1-17.1 0.4-34.3 0.7-51.4 1.1-3.4 0.1-6.8-0.3-10.3 0.8-2.1 0.7-4.7-0.5-7.2-0.7-1.8-0.2-3.7-0.4-5.5-0.1-8.5 1.5-17 1.9-25.6 2.2-2.8 0.1-5.5-0.4-8.3-0.2-3 0.1-6.1 0.3-9.1-0.1-10.8-1.2-21.4-3.3-31.5-7.1-4.9-1.8-9.5-4.6-9-11.2 0-0.3-0.5-0.8-0.8-0.8-0.4-0.1-1 0.3-1.1 0.6-0.8 1.7-1.3 3.5-2.2 5.2-0.4 0.9-1.4 1.5-2.2 2.2-0.6-1-1.2-2-1.7-3.1-0.2-0.4-0.1-1 0-1.5 0.6-1.8 1.2-3.5 1.8-5.2-2-0.1-4-0.5-6-0.3-5.3 0.5-9.9-1.8-13.8-4.6-3.8-2.8-7.4-6.1-8.9-11.4-2.2-7.8-1.8-14.5 2.6-21.5 4.4-6.8 9.2-12.7 16.1-17.1 3.2-2 5.5-5.4 9.2-7.2 2-0.9 2.8-3.3 3.1-5.7 0.4-3.7 1.2-7.3 2-10.9 0.9-4.5 2.7-8.7 5.7-12.3 0.3-0.3 0.2-0.9 0.4-1.4 3.8-9.9 12-15.9 20.8-20.3q2.2-1.1 4.4-2.1 2.3-1.1 4.6-2 2.2-0.9 4.5-1.8 2.4-0.8 4.7-1.6c9.5-3.1 19.1-6.2 28.6-9.3 6.3-2 12.6-3.6 19.2-4 4.5-0.3 8.9-1.3 13.3-2.1 4.9-0.9 9.7-1.9 14.6-2.9 3.1-0.6 6.2-1.5 9.3-2 4.4-0.8 8.9-1.3 13.4-2.1 6-1 12-2.2 18-3 4.6-0.6 9.2-0.6 13.8-1.1 5.5-0.5 11-0.4 16.4-1.9 0.5-0.2 1 0 1.5-0.1 11.4-0.3 22.8-0.3 34.1-1.1 14.6-1 29.2-1.3 43.8-0.7 7.8 0.3 15.7 0.3 23.4 1 6.7 0.6 13.1 3 19.7 3.7 5.8 0.6 11.3 2.2 17 3.2 8 1.4 16.2 1.7 23.5 5.9 7.3 0.2 13.4 4.3 20.2 6.3 9.1 2.7 17.8 6.3 25.8 11.2 7.6 4.7 14.9 9.7 17 19.2 0.6 2.7 0.7 5.6 0.6 8.4-0.1 2.7 0.6 4.4 3.3 5.7 2.7 1.3 5.1 3.4 7.4 5.4 2.8 2.4 5.1 5.3 7.9 7.7 6.7 5.9 9.6 13.7 10.7 22 0.6 4.4-1.6 9.3-4.4 12.7-4.2 4.9-9.4 9-14.4 13.6zm-419.7-35.3c-0.4 0.4-0.8 0.7-1.1 1.1-0.3 0.6-0.6 1.4-0.9 2 0.6-0.2 1.2-0.6 1.8-0.8 2.1-0.9 4.2-1.9 6.3-2.3-0.5 0.8-0.9 2.2-1.5 2.4-1.5 0.3-2.6 0.3-3.2 2.1-0.3 1-2 2.1-3.1 2-2.1-0.1-2.9 1.3-4.1 2.3-1 0.9-2.2 1.4-3.2 2.2q-1.2 1-2.4 1.9-1.2 0.9-2.4 1.9-1.1 0.9-2.3 1.9-1.2 0.9-2.4 1.9c-0.3 0.2-0.4 0.7-0.6 1 0.5 0 1.1 0.3 1.4 0.1 3.8-2.3 7.6-4.7 11.2-7.2 2.2-1.4 4-4.4 6.1-4.6 5.5-0.4 8.9-4.2 13.1-6.6 3-1.6 5-5.2 9.1-4.9 0.4 0 0.8-0.6 1.1-1 0.5-0.8 1-1.6 1.4-2.5-0.9-0.1-1.9-0.5-2.7-0.2-4.1 1.8-8.9 2.9-11.8 6.7-1.4 1.9-2.5 0.8-3.7-0.4 0.3-0.3 0.7-0.7 1-1q2.4-2.2 4.8-4.3c-2.2 0.6-4.4 1.2-6.5 2-0.9 0.4-1.4 1.5-2.2 2.1-0.6 0.4-1.5 0.5-2.2 0.2-2.8-2.2-4.6 0.6-6.5 1.6-7.6 4.3-14.1 10-20.8 15.6-0.5 0.5-0.6 1.6-0.9 2.4 0.7-0.2 1.5-0.3 2.1-0.6 7.6-3.9 14.5-8.7 20.7-14.6 1.3-1.2 2-3.3 4.4-2.4zm335.1-73.1l1 2.1c-0.6 0-1.4 0.4-1.7 0.1-1.2-0.9-2.7-1.9-3.1-3.2-0.7-1.9-1.6-2.3-3.5-2.6-6.7-1.2-13.4-2.8-20.2-4-8.9-1.5-17.8-3-26.7-4-6.1-0.7-12.3-1.1-18.4-1q-11.2 0-22.4 0.7c-14.7 0.8-29.5-0.1-44.3 1.2-5.1 0.4-5.1 0-3.5 5 0.2 0.6 0.1 1.4 0.2 2.1-0.8-0.1-1.7 0.1-2.4-0.3-1.8-1-1.3-2.9-1.2-4.5 0.1-1.7-0.2-2.6-2.1-2.3-2.8 0.4-5.5 1-8.2 1-6.8-0.1-13.4 0.7-20 2.1-7 1.4-14.2 1.2-21.1 2.9-7.6 1.9-15.4 3-23.2 4.1-5.7 0.9-11.2 2.9-17 3.3-5.1 0.3-10 2.5-15 2.7-6.2 0.3-11.9 2.3-17.7 4.2-10.1 3.3-20 7.1-30 10.7-7.6 2.7-15.2 5-21.7 10.2-7.3 5.7-11.9 12.9-14.9 21.3-1.3 3.5-2.2 7.2-3.1 10.9-0.5 2.3 1.4 2.1 2.5 1.7 2.9-0.9 5.6-2 8.4-3.2 3.9-1.6 7.7-3.6 11.7-4.8 8.9-2.5 17.5-5.8 26-9.6 3.7-1.6 7-4.5 10.8-5.5 9.3-2.6 17.8-7.2 27.2-9.4 4.8-1.1 9.5-3.1 14.2-4.8 9.6-3.3 19-6.9 29.4-6.3 3.8 0.2 7.2-1.1 10.7-2.3 4.9-1.6 9.3-4.9 14.8-4.9 2.2 0 4.4-0.8 6.6-1.2 5.7-0.9 11.4-1.8 17.1-2.8q0.6-0.1 1.2-0.2 0.6-0.1 1.2-0.2 0.6-0.1 1.2-0.2 0.5-0.1 1.1-0.2c0.5-0.1 12.8-0.3 13.4-0.3 4.6 0.4 9.1 1 13.7 1.1 3.3 0 6.5-0.9 9.8-0.9 16.1-0.1 32.3-0.5 48.4 1.9 7.1 1 14.3 1.4 21.5 2.1 2.7 0.3 5.7 0.1 8.1 1.1 4.8 1.9 9.8 1 14.7 2.6 7.8 2.6 16.3 3.9 24.6 4.2 7.5 0.2 14 3.3 21 4.8 6.6 1.3 13.1 2.8 19.6 5.3 5.2 2 10.6 3.8 15.9 5.6 4.5 1.6 8.8 3.3 13.3 4.8 1.6 0.5 2.7-0.2 2.2-2.1q-0.2-0.7-0.4-1.3-0.2-0.7-0.5-1.4-0.2-0.6-0.4-1.3-0.3-0.7-0.6-1.3c-1.5-3.6-2.5-7.7-7.6-7.9-0.6 0-1.5-1-1.6-1.7-0.7-4.4-4.7-5.8-7.8-7.2-5.1-2.3-9.7-5.6-15.5-6.8-4.2-0.8-8.3-2.7-12.2-4.6-7.5-3.4-16-3.8-23.1-8-0.2-0.2-0.6 0-1 0 0.2 0.5 0.4 1 0.6 2.5zm-192.9 35.5c0.5 0.1 1.2 0.5 1.7 0.3 4.5-2 9.1-3 14-2.8 2.6 0.1 5.2 0.5 7.6-0.1 6.1-1.5 12.4-1.1 18.5-1.9 6.3-0.7 12.6-0.4 18.9-0.7 10.6-0.6 21.4-1.5 32 0.6 1.1 0.3 2.3-0.1 3.5-0.2 1.7-0.2 3.8-1.2 5.2-0.6 2.6 1.2 5.2 0.7 7.8 0.9 1.1 0 2.4-0.2 3.5 0 5.6 1.2 11.2 2 16.9 2.1 3.6 0 7.2 0.4 10.8 1 5 0.8 10 3 14.9 2.7 6.8-0.3 12.7 2.5 19 3.6 5.8 1.1 11.1 3.6 17.2 4 2.8 0.2 5.8 0.7 8.7 0.8 1.1 0 1.3 0.4 2 1.4 3.2 4.6 8.1 4.9 12.1 1.2 1.5-1.4 3.3-2.5 5.1-3.6 0.5-0.3 1.2-0.3 1.8-0.4-0.5-0.5-1-1.2-1.6-1.6-4.1-3.2-9.3-2-14-2.9-4.3-0.8-8.4-2-11.9-4.3-3.4-2.3-7.1-2.8-10.3-1.8-5.3 1.7-10.2 1.1-14.4-1.5-3.8-2.5-7.9-0.7-11.4-2.4-4.9 2-8.6-0.3-12.5-2.9-3.9-2.5-8.8-4-13.2-3.3-5.7 0.8-11.2 1.9-17 1.8-2.9 0-5.8 0-8.7 0.8-2.2 0.6-4.8 0.7-7.3-0.6-1.5-0.9-4.4-0.9-5.9-0.1-2.5 1.5-3.3 0.6-3.6-1.6-0.3-2.1-1.5-2.7-3.4-2.6-4.1 0.3-8.2 1-12.3 1-6.8-0.2-12.9 1.4-18.7 5-2.1 1.3-4.8 2-7.3 2-6.9 0-13.9-0.5-20.9-0.9-0.5 0-1.1-0.7-1.7-0.7-5.2-0.1-10.4-1.6-15.3 1.7-3.1 2.1-6.6 3.8-9.8 6.6zm278.7 51.3c2.8-1 5.6-1.7 8.1-3.8 3.7-3 4.4-4.8 1.7-8.8-1.7-2.5-3.6-4.9-5.4-7.3-1.3-1.8-2-1.7-3.1 0.4-5.2 10.4-11 20.3-18 29.5-0.7 0.9-1.6 1.7-1.9 2.7-0.2 0.7 0.4 1.7 0.6 2.6 0.4-0.5 0.8-1 1.3-1.5 0.8-0.9 1.6-1.8 2.5-2.5 3.1-2.6 6.3-5 9.5-7.5 1.4-1.1 2.8-2.2 4.7-3.8zm-19.3 11.2c0.8-1.4 1.4-2.8 2.2-4.1 3.4-5.2 7.1-10.3 10.3-15.6 2.2-3.6 3.6-7.6 5.5-11.4 2.1-4.3 2.1-4.5-0.9-7.7-0.8-0.8-1.4-1.5-2.2-2.2-0.7-0.6-1.6-1.1-2.4-1.6-0.6 1-1.7 2-1.7 3.1-0.1 3.1-1.8 5.4-3.4 7.8-2.2 3.4-4.3 7-6.4 10.5-0.3 0.4-0.1 1.1-0.1 1.7 0.5-0.3 1.3-0.4 1.7-0.8 2.2-3.3 4.2-6.8 6.5-10 0.9-1.2 2.3-1.9 3.5-2.8-0.4 1.5-0.5 3.2-1.2 4.4-2.9 4.5-6 8.8-9 13.1-0.8 1.2-1.4 2.7-2.5 3.5-2.4 1.8-2.8 4.1-2.4 6.7 0.4 1.8 1 3.6 2.5 5.4zm-394-7.1c-0.5 0.1-1 0.1-1.4 0.4-3.9 3.3-7.9 6.4-12.5 8.8-3.1 1.7-5.9 4-8.6 6.3-1.3 1.2-2 3.2-2.9 4.8-1.8-1.3-3.5-0.7-5.3 0-1.8 0.8-3.6 1.9-5.5 2.6-0.8 0.3-1.8 0.1-2.7 0.2 0.3-0.9 0.5-1.7 0.8-2.6 1.1-2.7 3.7-3.8 6-5.3 1.6-1.1 2.8-3 4.2-4.5-1.8 0.7-3.6 1.4-5.3 2.2-1 0.5-1.9 1.1-2.8 1.8-0.6 0.4-1.2 0.9-1.8 1.4-0.1-1-0.4-2-0.2-2.9 0.1-0.7 0.8-1.5 1.4-1.9 2.3-1.5 4.6-2.8 6.9-4.2 0.4-0.3 0.5-1 0.7-1.5-0.6-0.1-1.3-0.5-1.7-0.2-2.7 1.8-5 4.1-7.9 5.6-1.9 1-2.4 2.3-2.5 4-0.1 2.5-0.3 5.1 0 7.6 0.3 1.7 1 3.7 2.2 4.7 2.3 2 3.9 1.7 6.6-1.2 1.7-1.9 3.9-3.1 6.1-3.6 5.4-1.3 9.4-4.7 13.5-7.9 5.4-4.2 10.5-9 15.6-13.6 0.8-0.9 1.7-3.2 1.4-3.6-1.6-1.4-2.1 0.8-3.1 1.4-0.3 0.2-0.5 0.5-1.2 1.2zm19.8-20.8c0.2 3.4-3.1 5.1-4.2 7.9-0.4 1.2-2.6 2.8-3.1 2.6-2.3-1.2 0-2.7 0.2-4.1 0-0.2-0.1-0.3 0-0.5q0.4-1.5 0.8-3.1c-1.1 0.3-2.3 0.5-3.5 0.9-0.7 0.2-1.4 0.6-2 1.1-0.3 0.2-0.3 0.8-0.4 1.3 0.4 0 0.7-0.1 1.1-0.1 0.7 0.1 1.3 0.2 2 0.3-0.3 0.5-0.5 1.2-0.9 1.6-0.6 0.5-1.4 0.8-2.1 1.1-6 2.8-10.8 7.2-16.5 10.5-1.6 0.9-3.2 2.2-4.6 3.6-0.7 0.7-1 1.9-1.3 3-0.1 0.5 0.3 1.2 0.4 1.8 0.6-0.2 1.3-0.3 1.7-0.7 4-3.2 7.8-6.6 11.8-9.6 1.5-1 3.1-3.1 5.6-1.2 1.2 0.9 2.2 0.1 3.5-0.7 4.5-3.2 8.9-6.6 14-9 4.9-2.5 4.6-2.3 2-6.5-1.5-2.3-2.3-2.4-4.5-0.2zm-41.1 57.4c1.4 0.3 3-0.1 3.3-1.5 1.7-5.9 4.6-11.2 7.6-16.5 0.2-0.4 0.3-0.8 0.4-1.1-0.4 0-0.9-0.2-1.3 0-0.8 0.2-1.5 0.5-2.1 1-6.4 5.5-13.9 9.3-21.8 12-0.6 0.2-1.3 0.7-1.5 1.2-0.2 0.5 0.1 1.7 0.5 1.8 4.5 1.3 8.9 3.6 14.9 3.1zm388.4-68.6l-5 2.7c1.6 0.8 3.3 1.5 4.9 2.3 0.8 0.4 1.6 1.2 2.5 1.3 2.2 0.3 5.2 1.5 6.3-1 1.8-3.8 5.3-6.8 5.6-11.3 0.1-0.7 1.7-1-0.4-1.7-3.6-1.3-5.9-0.8-9.1 2.9-1.3 1.6-2.8 2.9-4.8 4.8zm16.8 18.8c1.4 2.1 3.1 4.1 4.2 6.4 0.8 1.6 1.6 2.4 3.1 1.4 1.4-0.8 2.3-2.5 0.7-3.7-2-1.5-0.6-2.8 0-3.9 2.8-5.1 6.1-9.9 8.6-15.1 0.7-1.6 3.3-3 1.6-5.4-1.5 1.4-3.1 2.6-4.5 4.2-3.1 3.5-6.1 7.1-9.3 10.6-1.5 1.8-3.3 3.4-4.4 5.5zm24.9 18.8c-1.7 2-4 3.8-4.9 6.1-0.9 2-1.8 2.1-2.5 0.6-1.3-2.6-2.3-2.7-4-0.5-0.4 0.6-1.3 0.9-1.9 1.4-0.4 0.5-0.9 1.3-0.8 1.9 0 0.5 1 1.1 1.5 1.1 4.4 0 9.2 1.1 12-3.9 0.3-0.5 1.1-0.7 1.6-1.1 4.3-3.3 8.1-7.1 10.5-12.1 0.3-0.6 0.2-1.3 0.2-2-0.5 0.1-1.1 0.3-1.7 0.5-3.8 1.7-6.7 4.6-10 8zm-341.8-40.1c2-0.3 2.7-1.2 0.4-2-3.1-1-6.4-1.6-9.7-2-1-0.1-2.4 0.7-3.3 1.5-3.4 2.8-6.7 5.9-10 8.8-0.4 0.4-0.7 1-1.1 1.5 0.8 0.1 1.8 0.5 2.4 0.2 1.8-0.8 3.4-2.2 5.3-2.9 5-1.8 10-3.4 16-5.1zm304.7-6.1c0.2-1.7-0.8-2-2.2-2.1-1.2-0.1-2.5-0.7-3.7-0.8-1.8-0.1-3.1-0.8-4.3-2.1-0.3-0.3-1.5 0.3-2.4 0.5 2 3.2 0.3 6.6 1 9.8 0.4 2 3 2.9 4.7 1.5 2.3-1.9 4.3-4.2 6.9-6.8zm-275.2-9.2c-2.8 1.5-5.6 2.8-8.3 4.4-0.7 0.4-0.9 1.5-1.3 2.4 1 0 2.1 0.3 2.8 0 5.8-3.2 11.8-5.8 18.4-6.8 2.8-0.5 5.4-1.6 8.1-2.5 0.4-0.1 0.7-0.6 1.1-1-0.4-0.2-0.9-0.5-1.3-0.5-6.5-0.1-12.9 0-19.5 4zm36-10.6c2.4-1.2 4.8-2.3 7.1-3.6 0.9-0.5 1.4-1.6 2.1-2.4-1-0.1-2.1-0.3-3-0.1-0.8 0.1-1.5 0.6-2.1 1-3.3 2.2-6.7 4-10.7 3.5-3-0.4-5.1 1.5-7.6 2.6-0.4 0.2-0.6 0.7-0.9 1.1 0.4 0.1 0.8 0.4 1.3 0.4 4.6 0.3 9.1 0 13.8-2.5zm261.5 16.7c-1.5 0-3 0.1-4.5 0-1.5-0.1-2.8 0.5-2.9 1.9-0.1 0.6 1.2 1.6 2.1 2.2 0.6 0.4 1.7 0.3 2.1 0.9 2.1 3.1 5.3 2.1 8.2 2 0.9 0 1.8-1 2.7-1.6-0.7-0.8-1.3-1.7-2.2-2.3-1.5-1-3.3-1.7-5.5-3.1zm-16.2 19.3c-1.3 1.1-2.2 2.2 0.2 2.9 2.8 0.8 5.4-0.3 6.9-2.9 1.4-2.6 2.4-5.4 3.5-8.1 0.2-0.5-0.2-1.2-0.3-1.9-0.5 0.2-1.3 0.1-1.7 0.4-2.8 2.9-6.3 5.3-8.6 9.6zm-33.5-33.5c-4.3-0.3-8.8-0.1-12.5-3-0.8-0.6-2-0.8-3.1-1-0.3-0.1-1 0.3-1.1 0.6-0.1 0.4 0.1 1.1 0.4 1.3 4.6 2.9 9.8 4.2 15.1 5.1 1.1 0.1 2.7-0.5 3.4-1.3 0.9-1 0.2-1.8-2.2-1.7zm-233.6 23.4q4-1.4 7.9-2.9c0.3-0.1 0.5-0.5 0.7-0.7-0.3-0.2-0.5-0.4-0.8-0.5-0.8 0-1.7-0.2-2.5 0q-2.1 0.7-4.2 1.3-2 0.6-4.1 1.2-2.1 0.7-4.2 1.3-2 0.7-4.1 1.3c-0.9 0.3-1.6 1-2.4 1.5 0.9 0.2 1.9 0.5 2.8 0.5 0.6-0.1 1.1-0.7 1.7-0.9 2.7-0.7 5.4-1.4 9.2-2.1zm278.8 6.6c-1 1.6-2 3.2-2.8 4.8-0.3 0.7-0.1 1.6-0.2 2.4 0.6-0.3 1.4-0.5 1.8-1q1-1.2 2-2.4 0.9-1.2 1.9-2.5 1-1.2 1.9-2.4 1-1.3 2-2.5c0.3-0.4 0.2-1.1 0.3-1.7-0.6-0.1-1.3-0.4-1.9-0.3-2.4 0.7-3.9 2.5-5 5.6zm-411.9 33c4.8-3.1 9.6-6.2 14.4-9.4 0.3-0.1 0.2-0.8 0.4-1.3-0.4 0-0.8 0-1.1 0.1-5.3 3.2-10.5 6.4-15.7 9.7-0.3 0.2-0.2 1.1-0.2 1.7 0.6-0.1 1.2-0.2 2.2-0.8zm104.1-52.3c-0.5-0.1-1.2-0.5-1.7-0.3q-1.1 0.6-2.2 1.2-1.2 0.6-2.3 1.2-1.1 0.6-2.2 1.3-1.2 0.6-2.3 1.3c-0.5 0.3-1.2 1.4-1 1.6 0.6 0.9 1.1 1.7 2.7 0.8 3.2-1.8 6.7-3 9-7.1zm270.2 5.1l-3 2.6c1.1 0.3 2.2 0.5 3.3 0.9 0.7 0.3 1.4 0.9 2.1 0.9 0.5 0.1 1.6-0.8 1.6-0.9-0.7-1.9 1.6-3.8-0.1-5.6-0.1-0.2-0.7 0-1 0.2-0.8 0.4-1.6 0.9-2.9 1.9zm-372.2 49.2c-1.8 1.4-3.6 2.7-5.2 4.3-0.7 0.7-1 1.9-1.4 2.9 0 0.2 1.2 1 1.3 0.9 2.6-2.1 5.3-4.2 7.7-6.6 0.4-0.4 1.1-3.6-2.4-1.5zm307.7-72.1l5.6-1.9c-1.4-2.6-3.9-0.4-5.7-1.3-0.6-0.2-1.1-0.8-1.7-0.8-1.2 0-2.5 0.3-3.8 0.5 1 0.9 1.9 1.9 2.9 2.8 0.4 0.3 1.1 0.5 2.7 0.7zm-239.7 22.3c-0.3 0.4-0.8 0.7-1 1.1-0.3 0.4-0.3 0.9-0.5 1.3 0.4 0 0.9 0 1.3-0.1 2.8-1.1 5.6-2.1 8.2-3.4 0.7-0.3 1-1.7 1.5-2.6-0.8 0.2-1.7 0.4-2.5 0.7-2.1 0.8-4.3 1.7-7 3zm-17.2 10.2q4-2.5 8-5c0.4-0.3 1.1-0.9 1.1-1-0.6-1.4-1.3-0.6-2.2-0.1-2.9 1.4-5.9 2.7-8.9 4.1-0.6 0.3-1.1 0.8-1.6 1.2 0.8 0.3 1.7 0.5 3.6 0.8zm146.2-17.3c-1.7 0-3.3 0-5 0.1-0.2 0-0.5 0.7-0.5 1.2-0.1 0.2 0.3 0.7 0.4 0.7 2.8 0 5.6-0.1 8.4-0.3 0.4 0 0.7-0.9 1.1-1.3-0.5-0.1-0.9-0.3-1.4-0.4-0.6 0-1.3 0-3 0zm-44.7 1c2.2-0.1 4.6 0.7 6.6-1 0.4-0.3 0.7-0.8 1-1.2-0.5-0.3-1-0.8-1.4-0.8-2 0.3-4.1 0.6-6 1.1-0.6 0.1-0.8 1.3-0.2 1.9zm110.2-25.9c-2.7-0.1-5.5-0.3-8.2-0.4-0.3 0-0.8 0.5-0.9 0.8 0 0.4 0.4 1.1 0.6 1.1 2.6-0.4 5.6 1.2 8.5-1.5zm-120.3 29c1-0.7 3.2 1.5 3.4-1.3 0-0.2-2.2-0.5-3.4-0.7-0.7-0.1-1.4-0.2-2 0-0.3 0.1-0.6 1.1-0.5 1.2 0.4 0.4 0.9 0.5 2.5 0.8zm197.5-16.8c-1.4 0-2.8 0-4.1 0.1-0.7 0.1-1.3 0.7-1.9 1.1 0.6 0.1 1.3 0.4 1.9 0.3 1.5-0.4 3.4 1.1 4.1-1.5zm-139.6-3.5c0.8-0.3 2.5 0.9 2.4-1.2 0-0.1-1.4-0.1-2.1-0.2-0.8-0.2-1.6-0.6-2.4-0.6-0.8-0.1-1.5 0.2-2.3 0.3 0.6 0.5 1.2 1.2 1.9 1.6 0.3 0.3 0.9 0.1 2.5 0.1zm27.4 11.2c-1.1 0.1-2.3 0-3.4 0.3-0.4 0.1-0.7 0.9-1 1.4 0.4 0.1 0.9 0.3 1.3 0.3 1.8-0.4 3.6-0.9 5.4-1.4-0.1-0.2-0.1-0.5-0.3-0.6-0.3-0.1-0.7 0-2 0zm-47.8-14.3l1.4-0.6c-1-0.5-1.9-1.2-2.9-1.3-0.6 0-1.2 1-1.8 1.6 0.8 0.1 1.5 0.2 3.3 0.3zm79.8 18.8c0.4 0.5 0.8 1.1 1.3 1.3 0.5 0.2 1.1-0.1 1.7-0.2-0.4-0.5-0.6-1.2-1.1-1.5-0.3-0.3-0.9-0.1-1.9 0.4zm101.5 15.3c-0.9-0.5-1.9-1.1-2.9-1.5-0.2-0.1-0.6 0.1-0.9 0.2 0.3 0.2 0.4 0.6 0.7 0.7 0.9 0.4 1.8 0.7 3.1 0.6zm-141.6-16.8l1.5-1.2-0.9-0.8c-0.4 0.5-0.8 1-0.6 2zm-134.1 30.5c-0.1 0.1-0.3 0.2-0.3 0.3-0.1 0.1-0.1 0.4 0 0.4 0.7 0.1 1.5 0.2 2.3 0.3 0.1 0 0.2-0.5 0.3-0.7-0.4-0.1-0.8-0.2-2.3-0.3zm-38.1-3.6q0.8 0.2 1.6 0.4c0 0 0.1-0.4 0.2-0.6-0.4-0.1-0.9-0.2-1.8 0.2zm262.5-21.8l-1.2 0.2c0 0.3 0.1 0.7 0.1 0.7 0.6-0.1 1.1-0.3 1.1-0.9zm-115.7-10.2l-0.4 0.6c0.3 0 0.6 0 0.4-0.6z"/>
	<path class="s1" d="m166 292c-4.2-3.9-4-5.2 0.7-7.3 1.2-0.5 3.1-1 4-0.4 0.9 0.5 1.6 2.7 1.2 3.7-0.6 1.6-0.8 4-3.4 4-0.7 0-1.3 0-2.5 0zm90-24.5c-1.3 1-2.6 1.6-3.5 2.6-1.4 1.6-2.2 0.8-3.2-0.4-0.9-1-2-1.6-0.7-3.4 1-1.3 1.1-3.5 1.4-5.3 0.3-1.8 1.6-2.6 3-1.4 1.2 1 2.6 2.1 2.3 4.3-0.1 1.1 0.6 2.2 0.7 3.6zm-26.1 33.6c-1.3 1.7-2.4 3.4-4.7 2.8-1.6-0.4-2.8-2.3-1.9-3.3 1.2-1.3 2.8-2.3 4.3-3.2 0.7-0.4 2-0.6 2.5-0.2 1.4 1.1 1 2.3-0.2 3.9zm96-26.1c1.6 1.5 3 2.8 3.9 4.5 0.4 0.8 0.2 2.3-0.4 3.1-0.3 0.5-1.8 0.5-2.7 0.2-2.7-0.8-2.5-3.7-3.7-5.6-0.1-0.2 1.5-1.4 2.9-2.2zm91.5 13.7c-0.3-0.4-0.3-0.6-0.3-0.8 0.5-1.3-1.1-3.3 1.2-3.9 1.5-0.3 5.7 2.4 5.7 3.6 0 0.8-0.9 2.2-1.4 2.2-1.7 0-3.6 0.9-5.2-1.1zm-35.2-24.1c-0.6-2.2-1.1-4.1-1.2-6-0.1-0.8 0.5-1.8 1.1-2.5 0.3-0.3 1.8 0 1.9 0.2 0.4 2.9 1.2 5.8 0.9 8.7-0.2 2-1.6 0.5-2.7-0.4zm-89.2-3.8c0.1 2.2 0 3.4-2.2 3.2-1.5-0.2-1.9-0.6-1.7-2.1 0-0.3-0.1-0.7 0-1 0.1-1.8-0.8-4.5 1.2-4.9 1.9-0.3 2.1 2.5 2.7 4.8zm25 25c0.8-2.2 0.9-2.2 1.9-0.9 0.7 0.9 1.6 1.5 2.2 2.4 0.5 0.7 1.1 1.7 0.9 2.3-0.6 1.7-2.2 1.5-3.4 1.2-0.5-0.1-0.7-1.3-0.9-2.1-0.2-0.9-0.3-1.8-0.7-2.9zm129 4.1c0.4-2.1 0.7-3.8 1.1-5.5 0.1-0.5 0.5-0.9 0.8-1.4 0.4 0.4 0.9 0.7 1.2 1.2 1.6 2.8 1.1 5.9-1.4 7.5-1.1 0.8-1.8 0.1-1.7-1.8zm-3.3 18.9c1.3 2.4 2.4 4.6-0.7 6.2-0.4 0.1-1.8-0.5-1.9-0.9-0.2-2-0.1-4 0-6.1 0-0.9-0.6-2.3 1.4-1.9 0.5 0.1 0.6 1.6 1.2 2.7zm-89.7-16.9c-2.3 0.5-3.8-0.5-4-2.6-0.1-0.7 0.1-2.1 0.4-2.2 0.8-0.2 2-0.1 2.6 0.3 1.4 1.1 3.1 2.3 1 4.5zm-13.2 11c0.5-0.9 1-1.4 1.6-1.9 0.2 0.4 0.5 0.7 0.6 1.1 0.4 1.5 1.1 3.1 1 4.6-0.1 0.8-1.8 1.5-2.7 2.3-0.7-0.8-2.2-1.2-0.6-2.6 0.6-0.5 0.1-1.9 0.1-3.5zm78.9 1.1c0.3-1 0.6-1.5 0.9-2 1.2 1.1 2.8 2.1 3.4 3.4 0.2 0.5-1.6 1.9-2.7 2.6-0.3 0.2-2-0.6-2.2-1.1-0.3-0.7 0.3-1.6 0.6-2.9zm-209.4-45.9c1.7 2.7-0.1 3.2-1.4 3.8-1.4 0.6-1.6-0.9-2.3-1.9-0.9-1.5-0.8-2.2 0.3-3.3 1.7-1.8 2.2 0.4 3.4 1.4zm83.7 47.1c-0.5 4-1.4 4.6-3.3 2.9-0.5-0.5-2.8-0.9-1-2.4 1.2-1 2.2-3 4.3-0.5zm111.6-32.8c-0.4-1.2-0.6-2.2-0.6-3.1 0-0.5 0.5-1 0.8-1.3 0.1-0.1 0.6 0.5 0.8 0.8 0.4 0.6 0.8 1.3 1 2 0.2 1 0.3 2.1 0.4 3.2-0.7-0.4-1.5-0.9-2.4-1.6zm-50 10.6c-1.2 0-2.5 0.1-3-0.6-0.6-0.9-0.6-2.3-0.6-3.5 0-0.3 1.3-1.1 1.7-0.9 1.1 0.5 2.8 0.6 2.1 2.9-0.1 0.6 0 1.2-0.2 2.1zm-153.3 32c-0.2-0.8-0.4-1.5-0.2-2 0.4-0.8 1-1.8 1.7-2 0.8-0.2 2.7 3 2.1 3.5-0.9 0.5-2.2 0.5-3.6 0.5zm10.5-48.1c1.4-0.8 2.6-1.6 3.2 0.2 0.3 0.9-1.8 4.2-2.4 3.9-1.5-0.9-2.3-2.1-0.8-4.1zm190.2 26.7c-1.1 0.4-2.9 0.6-3.3 0.1-0.6-0.9-1-3-0.4-3.4 1.4-0.9 2.1 0.4 2.7 1.5 0.2 0.5 0.7 0.9 1 1.8zm-106.8-37.4c2.6-0.7 2.9 0.6 2.8 2.5-0.1 1.6-1.3 1.4-2.1 1.1-1.6-0.6-3-1.6-0.7-3.6zm80.9 13.6c2.6-2.3 2.6 1.1 3.9 1.3-0.3 0.8-0.5 1.6-1 2.2-1.3 1.5-2.1 0.2-2.7-0.7-0.4-0.6-0.3-1.7-0.2-2.8zm-93.9 44.5c-0.2-1.3-0.2-2.3-0.2-3.3 1.3 0.1 2.5 0.2 3.7 0.5 0.3 0.1 0.4 1.4 0.1 1.8-0.7 1-1.4 2.7-3.6 1zm93.8-4.3c-2.9 0.1-3.6-1.2-2.5-3.8 0.4-1 1.1-2 1.8-0.2 0.4 1.1 0.6 2.4 0.7 4zm11.9-24.8c0.1 0.7 0.2 1.3-0.1 1.5-0.6 0.8-1.3 2.1-2.3 0.6-0.4-0.5-0.7-1.7-0.4-2.2 0.7-1.4 1.7-1.5 2.8 0.1zm-80.2-2.2c-0.8-0.4-1.7-1.1-1.7-1.7 0.1-1.1 0.7-2.2 1.3-3.1 0.1-0.3 1.3-0.2 1.3-0.1 0.2 0.9 0.5 2 0.4 3-0.1 0.5-0.7 1.1-1.3 1.9zm-98.7 7c-1.1-0.1-2.2-0.2-2.9-0.8-0.3-0.2 0.2-1.4 0.3-2.2 0.5 0.2 1.2 0.2 1.5 0.5 0.6 0.7 0.9 1.5 1.1 2.5zm61 8c-0.8-0.3-1.4-0.7-2-1.2l0.8-0.8c0.5 0.6 0.9 1.2 1.2 2zm85-96c-2.6 2.6-4.4-0.5-6.3-1.6-1.1-0.6-1.4-3.2-1.7-4.9-0.2-1.6 0.9-2 1.9-0.9 2 2.3 3.9 4.7 6.1 7.4zm-204 7.4c-1.3 0.5-2.4 0.9-3.4 1-1.5 0.3-3.1 0.4-4.6 0.6 0.7-1 1.4-2 2.3-2.8 1.5-1.5 3.4-1.5 5.2-0.4 0.4 0.3 0.5 0.9 0.5 1.6zm223.3-7.4c0.8 0.3 1.1 0.7 1.5 1 0.7 0.5 1.5 1 2.2 1.5-0.8 0.5-1.7 1.6-2.5 1.5-1.3-0.1-3-0.6-3.8-1.6-0.8-1-0.5-2.9-0.7-4.4 1 0.7 1.9 1.3 3.3 2zm-57.3-11c1.6 0.7 3.4 1.7 4.8 3 0.4 0.3 0 1.3 0 2-0.9-0.1-2.4 0.2-2.6-0.2-1-1.4-1.5-2.9-2.2-4.8zm122.3 24c0.7 0.2 0.9 0.4 1.1 0.7l2.6 2.9c-1.3 0.1-2.7 0.4-4 0.4-3.3-0.1-1.5-2.9-1.5-4.2 0.1-1.9 0.8 0.1 1.8 0.2zm-268.3-2.7c-0.1 0.5-0.4 0.9-0.8 1.2-0.9 0.7-1.5 2.4-3.2 0.9-1.3-1.2-1.4-2.3-0.1-3.6 1.8-1.9 2.4 0.2 3.5 0.9 0.1 0.1 0.2 0.2 0.6 0.6zm243.6-2.5c-0.2-1-0.7-1.6-0.6-1.9 0.2-0.5 1.2-1 1.5-0.9 0.7 0.4 1.3 1.2 2 1.8 1.1 1 2.3 2 3.5 2.9-2.3 0.3-4.7 1-6.4-1.9zm-224.6-5c-0.9 0.2-1.9 0.4-2.1-0.1-0.5-1.1-0.6-2.4-0.9-3.6 1 0 2.2-0.3 3 0.2 1.3 0.7 1.4 2.1 0 3.5zm44.4-11.1c1.2 1.2 2.7 2.1 0.5 3.1-1.6 0.8-4.9-1.1-4.9-2.8 0-0.4 0.5-1 0.8-1 1.1 0.1 2.2 0.3 3.6 0.7zm59.6 0.7c0.6-0.6 1.3-1.2 2.2-1.4 0.9-0.1 1.9 0.3 2.8 0.5-0.4 0.8-0.6 1.8-1.2 2.4-0.3 0.3-1.6-0.1-2.4-0.4-0.5-0.1-0.8-0.5-1.4-1.1zm-27.2 7.8c0.5 0.8 0.9 1.4 1.2 1.9-0.9 0.3-2 1.1-2.8 0.9-0.8-0.3-1.5-1.4-2.2-2.1 0.6-0.7 1.2-1.4 2-1.9 0.2-0.1 1 0.6 1.8 1.2zm-54.3 10.3c-2.7 1.3-3.5 0-3.5-2.1 0-0.5 0.9-1.4 1.4-1.4 2.1 0 3.4 0.8 2.1 3.5zm1.6-8.7c0.8 1.2 1.4 2.2 1.9 3.2-1.3-0.2-3.1 0-3.7-0.6-0.6-0.8-0.1-2.2-0.1-3.4 0.5 0.2 1 0.4 1.9 0.8zm255.9 33.2c-0.4-0.2-0.7-0.6-1-1l0.5-1c0.2 0.6 0.4 1.1 0.5 2z"/>
</svg>