<svg version="1.2" xmlns="http://www.w3.org/2000/svg" viewBox="0 0 534 534" width="534" height="534">
	<title>misc-22</title>
	<style>
		.s0 { fill: #43aa8b } 
		.s1 { fill: #f9c74f } 
	</style>
	<path class="s0" d="m207.3 222.4c0.4-1.4 0.1-2.6 0.5-3.5 5.7-13.7 13-26.6 20.6-39.3 3.7-6.2 8.7-11.8 13.8-17 10.2-10.8 20.8-21.2 31.5-31.6 3.8-3.7 8.2-6.1 14.1-5.6 8.6 0.8 16.8-1.2 24.7-4.8 2.6-1.2 6-1.8 8.8-1.2 9.5 1.8 14.4 1.4 23.8 0 8.6-1.3 17 0.5 24.3 5.5 1.8 1.3 3.1 2.5 5.4 2.2 0.9 0 2.1 0.4 2.6 1.1 6.1 7.5 13.4 14.4 12.4 25.5-0.5 5.7 0.1 11.5-0.1 17.2-0.4 8.8-0.3 17.7-1.8 26.3-1.2 7.1-4.3 13.8-6.6 20.7-3.9 11.7-8.2 23.4-11.5 35.2-2 6.9-2.6 14.2-3.6 21.3-0.7 5-1.2 10-1.5 15.1 0 1.5 0.7 4.3 1.6 4.6 4.2 1 3.2 4.2 3 6.6-0.8 6.9-1.8 13.8-3.2 20.7-1.7 8.3-2.8 16.9-6.4 24.7-5 10.6-2.7 8.3-13.1 18.1-4.5 4.2-7.9 9.7-11.7 14.7-3.2 4.3-10.4 9.8-15.2 12.1-4.9 2.3-9.4 5.1-14.2 7.5-3.7 1.8-7.5 3.6-11.4 4.6-3.9 1-7.2 2.9-10.7 4.6-5.2 2.5-11.1 3.8-16.8 4.8-6.2 1.1-12.6 1.8-18.9 1.6-13.8-0.4-27.3-2.4-40.6-6.2-7.4-2.1-14.8-4.6-22.4-6.6-6.7-1.8-13.3-5.3-17.9-11.5-2.2-3.1-5.1-6-8.3-8.1-5-3.4-11.8-13.6-12-19.3-0.1-5.6-0.4-11.1-1.2-16.7-0.9-6.1 0.4-12.6 1.6-18.8 2.6-14.7 8.8-28.2 15.4-41.4 3.2-6.6 6.1-14 11.2-18.7 5.2-4.8 7.5-11.8 14-15.4 5.3-2.9 6.1-9.4 9.2-14.2 1.7-2.5 2-5.6 5.7-7.1 2.1-1 3.1-4.8 4.9-7.7zm150.3-85.9c-5.6-1.1-11.2-3.1-16.8-2.9-7.1 0.2-14.2 1.9-21.2 3.3-5.3 1.1-10.5 5.6-15.7-0.3-0.5-0.6-2.1-0.3-3.1-0.1-3.1 0.6-6.3 0.9-9.4 1.9-15.7 4.9-28 15.2-38.9 26.7-7.8 8.2-13.5 18.4-20.2 27.6-7 9.7-11.7 20.6-13.2 32.1-1.2 9.2-5.2 17.3-7.3 26.1-2 8.1-9.2 11.9-15 16.2-11.6 8.7-20.7 19.3-28 31.6-2.8 4.7-4.6 10.1-6.5 15.3-3.8 10-3.2 20.4-3.3 30.8 0 4.9 0.6 9.2 4.1 13.3 4 4.9 6.2 11.3 10.3 16 7 8 14.6 15.5 24.5 20.1 7.7 3.5 16 4.9 24.2 5.8 4.7 0.5 9.5 0.3 14.4-1.2 2.4-0.7 5.8 2.6 8.8 2.7 9.9 0.4 20 0.9 29.6-2 10.2-3.1 20.2-6.8 30.2-10.5 2.2-0.8 4.5-2.2 6.1-3.9 6.7-7.4 12.8-15.2 19.6-22.4 8.9-9.7 14.2-21.3 16.4-34 1.5-8.8 1.5-17.8 1.7-26.8 0.2-14.3 0-28.7 0-43.1 0-12.1 3.1-23.3 8.3-34.2 3.2-6.6 7.9-12.2 10.7-19.1 4.4-10.9 8.6-21.6 7.7-33.6-0.4-4.8-1-9.5-1.6-14.3-0.6-5.8-2.5-11.1-7.2-15-2.5-2.1-5.1-4.1-9.2-6.1zm22.7 2.3c-0.2-0.1-0.3-0.4-0.5-0.5-0.2-0.1-0.4 0-0.6 0.1 0.4 2 0.6 4.1 1.2 6.1 0.4 1.6-1.8 4.8 2.1 4.3 0.5-0.1 0.9-3.6 0.7-5.4-0.2-1.3-1.4-2.5-2.9-4.6zm-23.5 124c0.4 1.8 0.5 5.1 1.2 5.2 4 0.7 0.3-4.1 3-4.8 0.3-0.1 0.6-1 0.5-1.3-0.7-1.6-1.5-3-2.3-4.5-0.4 1.3-0.7 2.7-1.1 4.1-0.1 0.2-0.3 0.3-1.3 1.3zm-163.2-6.3l0.9 0.6c0-0.4-0.1-0.9-0.9-0.6z"/>
	<path class="s1" d="m256 249.1c5-4.6 8.4-10.3 15.6-11.1 1.5-0.1 3.5-1.4 4.2-2.7 1.3-2.6 3.6-4.8 5.8-4.4 3.4 0.6 7.5 2 9.7 4.4 4.1 4.5 8.4 9.6 10.3 15.2 3.9 11.8 7.2 23.6 6.8 36.5-0.5 14.2-5.3 26.3-12.3 38.1-4.5 7.5-11.3 12.6-18.7 17-2.3 1.4-4.8 3-6.4 5.1-4.4 5.6-16.4 5.7-20.8 1.9-4.3-3.7-8-8.1-12.2-12-4.7-4.6-9.2-9.2-11.5-15.6-2.6-7.2-2.4-14.7-0.6-21.7 1.9-7.2 5.2-14 8.6-20.7 5.5-10.9 12.5-20.9 21.5-30zm20 71l0.6-2.5-1-0.3c-0.1 0.9-0.3 1.9-1.2 2.8l-0.1 1.4c0.3-0.5 0.6-0.9 1.7-1.4zm-29.8-48.7c-1.3 3.1-2.7 6.1-3.9 9.2-0.1 0.4 1 1.3 1.7 1.7 0.1 0.1 1.2-0.7 1.3-1.2 0.9-3.5 1.2-7.2 4.1-9.9 0.5-0.4 0.2-1.7 0.3-2.5-0.9 0.6-1.8 1.3-3.5 2.7zm9.4 0c-1.3 1.3-3 2.4-3.7 3.9-0.5 1 0.5 2.6 0.7 4 1.1-0.6 2.6-0.9 3.1-1.8 1-2.1 1.5-4.5 2.2-6.8-0.5 0-1 0-2.3 0.7zm27.4-21.2c-0.7 0.2-1.9 0.3-2 0.7-0.5 1.8-0.8 3.7-1 5.6-0.1 0.1 0.6 0.4 1 0.5 0.7-1.7 1.3-3.4 2-6.8zm-24.3 95c-0.2 0.2-0.4 0.3-0.5 0.5-0.1 0.2 0 0.6 0.1 0.6q2.1-0.1 4.2-0.2c-1-0.6-2-1.1-3.8-0.9zm-12.5-17.3c-0.2 0.8-0.5 1.7-0.6 2.5 0 0 0.6 0.2 0.9 0.3 0.2-0.7 0.3-1.3-0.3-2.8zm49.4-62l-0.9-0.6c0 0.5 0.1 1 0.9 0.6z"/>
</svg>