<svg version="1.2" xmlns="http://www.w3.org/2000/svg" viewBox="0 0 534 534" width="534" height="534">
	<title>misc-23</title>
	<style>
		.s0 { fill: #f8961e } 
		.s1 { fill: #f94144 } 
	</style>
	<path class="s0" d="m284.4 112.1c-0.4 1.2-0.1 2-0.4 2.7-0.9 2.2-3.2 4.6-2.8 6.5 0.4 1.5 3.9 2.2 5.8 3.6 2.6 1.9 3.3 5.8 1.7 8.9-2.9 5.9-6.4 11.6-11.8 15.4-3.5 2.4-7.9 3.8-12.1 4.7-2.5 0.5-3 1.2-2.7 3.3 0.6 6.1 1.1 12.1 1.7 18.2 0 0.4 1 0.7 1 1.1-0.7 11.4 4.8 22.3 3.6 33.8-1.2 10.3-2.1 20.6-3.2 30.9-0.5 4.2-1.2 8.4-1.5 12.6-0.1 1.4 0.5 3 1.2 4.2 0.4 0.7 1.7 0.8 2.6 1.2 0.3-0.7 0.9-1.4 0.8-2-1.2-4.6 2.3-6.8 4.7-9.9 7.1-8.9 16.7-15 25.6-21.6 7.9-6.1 18.1-8.9 27.1-13.7 7.2-3.7 15.1-3.8 22.6-5.9 4.1-1.1 9.8-0.6 13.2 1.6 6.9 4.3 15.1 6.8 20.4 13.6 5.7 7.1 10.2 14.8 13.7 23.3 4.4 10.6 5.8 21.7 8 32.8 1.2 6.2-0.5 11.4-1.7 17-0.9 4.1-1.4 8.4-1.7 12.6-1 16.5-6.6 31.6-14.5 45.8-5.8 10.3-10.3 21.5-19.8 29.5-6.4 5.4-11.9 11.7-17.8 17.5-0.8 0.9-1.9 2-3 2.1-7.8 0.7-14.2 4.6-21.1 7.8-12.6 5.8-25.6 10.5-39.4 12.8-7.7 1.2-15.2 3.8-22.8 5.6-1.9 0.4-4 0.3-6 0.6-3 0.4-6-1-8.9 1.3-1.3 1-4.3 0.7-6.1 0-7-2.9-13.7-1-20.6 0.4-5.8 1.3-11.8 3-17.6 2.7-5.7-0.3-11.4-2.5-16.9-4.5-8.8-3.4-17.9-6-25.7-11.7-12.7-9.3-22.7-20.4-26.5-36-2.8-11.2-5.3-22.5-1.8-34.1 0.8-2.7-0.2-5.8 0.2-8.6 0.8-6.2 2-12.3 2.8-18.4 0.7-5.4-0.6-11.2 3.4-15.9-1-8.4 3.9-15.2 6.5-22.4 6.7-18.2 17.8-33.2 35.9-42 5.5-2.6 11.2-3.5 17.2-4 7.4-0.5 18.7 0.5 24.7 3.7 7.3 3.9 14.5 8 21.6 12.3 1.2 0.7 1.8 2.8 2.3 4.4 0.4 1.2-0.2 2.7 0.1 3.9 0.8 2.4 2.3 7 2.7 6.9 4-0.9 1.1-4.5 2-6.8 0.7-1.6 1.1-3.2 1.7-4.8 1.8-4.5 3-8.5 1.9-13.9-1.4-6.4-0.4-13.9 1.5-20.3 1.2-4.2 0.9-8 1.1-12 0.4-12.2-0.6-24.3-3.1-36.3 0-0.3 0-0.6 0-0.8-0.5-19.4-1.1-38.8-1.5-58.2 0-3.4 0.9-6.9 1.6-10.3 0.2-0.9 1.3-1.5 2-2.3 0.4 0.7 0.7 1.4 1.1 2.1 2.7 5.6 2.7 5.7 9.1 3.3 1.8-0.6 3.5-1.9 5.4-2.1 6.5-0.9 10.4-2.2 12.5 7.8zm-26.3 167.5q-2.3 0-4.7 0c-12.5 0-17.4-4.4-17.9-16.8-0.2-3.9-1.9-7.1-4.8-9-10.7-6.5-21.8-11.9-35.1-8.8-15.1 3.5-26.4 11.8-35.7 24-4.7 6.2-6.7 13.5-10 20.2-4.2 8.6-6.3 18.1-7.1 27.7-0.5 6.3-1 12.6-1.6 18.9-0.4 4-0.3 8.2-1.7 11.9-2.9 7.6-1.3 15.3-1.1 22.9 0.1 5.4 1.8 11.4 4.6 16 7.7 12.5 16.8 23.6 31 29.6 6.3 2.7 13 4.1 19.4 6.3 7.6 2.6 14.1 2 19.9-3.9 1-1 2.5-1.7 3.8-2.2 0.7-0.2 1.7 0.4 2.6 0.6-0.4 0.7-0.8 1.6-1.4 2.2-0.9 1-2 1.8-3.1 2.6 1.5 0.2 3.1 0.8 4.5 0.5 1.6-0.3 3-1.6 4.6-2.1 2.8-1 5.9-2.9 8.3-2.3 10.9 2.5 21.4 2.1 31.9-1.7 2.5-1 5.3-1.1 7.9-1.7 6-1.3 12.4-1.7 17.9-4.2 5.9-2.7 11.7-5 18.2-5.3 1.8-0.1 4.5-1 5.2-2.3 2.5-5.3 7.3-5.7 11.9-7.1 3.9-1.2 7.5-3.3 11.3-4.9 6.2-2.7 10.1-7.5 14.4-12.5 9.3-10.9 17.1-22.5 23.7-35 6-11.4 12.1-22.8 14.2-35.7 0.1-0.6 0.8-1.3 1.3-1.8 4.4-3.6 4.5-8.8 4.8-13.6 0.4-6.4 0.6-12.7-1.4-19-1.7-5.6-2.2-11.6-4.2-17.1-3.1-8.7-7.3-16.8-12.9-24.5-9.3-12.8-23.4-18-38.4-13.5-8.4 2.6-16.6 5.4-24.2 9.8-4 2.3-8.7 2.9-12.4 6.3-6.6 6-14.2 11.1-21.2 16.8-4.5 3.8-8.5 8.1-7.6 14.9 0.1 1-0.8 2.2-1.3 3.3-2.3 5.5-7 8.2-13.6 10.5zm20.4-142.8c0.8-1.3 1.8-2.4 2.1-3.8 0.2-0.7-1.2-2.4-1.4-2.4-5.2 1.7-10.5 3.3-15.5 5.6-2.5 1.1-2.3 5.5 0 8.6 2.3 3.3 4 1.1 5.9-0.6 2.7-2.3 5.4-4.4 8.9-7.4zm-2.3-22.8c-0.2-0.7-0.2-1.9-0.6-2-3.6-0.9-14.4 5.3-15 8.8-0.2 1.4 1 3.2 2 4.5 0.2 0.4 2.3-0.1 3-0.8 3.4-3.1 6.6-6.4 10.6-10.5zm82.4 267.6c-0.2 0.2-0.4 0.3-0.6 0.5 0 0.2 0.1 0.5 0.1 0.6 3.3 0.1 5.4-2.1 4.3-4.8 0-0.2-1.6-0.1-1.9 0.3-0.6 0.7-0.8 1.7-1.9 3.4zm25.9-38.5l1-3.6c-0.7 0.5-1.6 0.9-2.1 1.6-0.9 1.4-0.8 1.5 1.1 2zm-40.1 52.6c0.8-0.6 1.7-1.1 2.4-1.8 0.1-0.1-0.4-0.7-0.6-1.1-0.8 0.7-1.7 1.4-1.8 2.9z"/>
	<path class="s1" d="m334.2 268.6c-0.5-4.2-1.4-7.6-1.4-11.1-0.1-4.6 1.8-6.1 6-6.2 3.4 0 6.9 0.4 10.2-0.1 3.5-0.4 6.1 1.7 6.8 4 2 6.1 5 12.2 3.4 18.8-0.5 2.1-2.6 4.8-4.5 5.4-5.4 1.6-11 2.6-16.7 3.2-4.8 0.5-5.6-1.3-4.4-6.4 0.6-2.2 0.5-4.5 0.6-7.6zm6.3-8.6c0 3.6-0.3 7.3 0.2 10.9 0.2 1.4 2.1 3.6 3.5 3.8 2.8 0.3 6.3 1.5 8.4-1.8 0.4-0.6 0-1.8-0.2-2.6-0.2-1-0.7-1.9-0.9-2.8-1.1-8.3-1-8.3-9.4-8.3-0.3 0-0.5 0-1.6 0.8z"/>
</svg>