<svg version="1.2" xmlns="http://www.w3.org/2000/svg" viewBox="0 0 534 534" width="534" height="534">
	<title>misc-30</title>
	<style>
		.s0 { fill: #ff00a8 } 
	</style>
	<path class="s0" d="m119.7 267c-2.8-11.9-6.6-20.6-8.3-29.7-6.8-35.9-17.6-71.9-3.5-108.3 10.2-26.4 29.7-45.6 54.3-58.2 20.7-10.5 39.1 2.8 54.6 13.8 12.1 8.6 20.9 22.8 29.2 35.8 11.6 18.3 10.4 17.9 30.7 10.6 28.2-10.2 55.4-20.5 87.9-10 35.6 11.5 67.1 44.3 68.3 83 1.9 58.6-26.9 102.4-71.5 135-37.1 27-78.6 48-117 73.5-17.7 11.7-32.8 27.6-49.1 41.6-2.3 2-4 5.3-6.5 6.1-8 2.4-16.2 3.9-24.4 5.8-0.8-6.7-2.8-13.5-2.3-20.1 4-52.2-15.8-99.2-31.8-147-3.2-9.7-7-19.3-10.6-31.9zm36.2 63.5c1.4 1.4 3.9 2.7 4.1 4.3 3.5 29.5 17.7 57.1 14.5 88-0.6 6.1 6 13 9.3 19.5 4.8-3 9.8-5.7 14.3-9.2 18.9-14.9 36.9-31.4 56.8-44.9 32.7-22.3 66.8-42.5 99.9-64.2 10.5-6.8 22.1-13.8 29.1-23.6 22.8-32 38-67.2 30.7-107.8-2-10.8-5.5-22.8-12.1-31-27-33.3-96.4-38.2-128.4-9.6-5.1 4.6-8.4 13-9.4 20-1.5 10.9 0 22.1-0.7 33.2-0.1 2.6-4 4.9-6.1 7.4-1.9-2.7-5.9-6-5.3-8.1 5.4-19.7-20-35.4-6.9-55.8-7.8-11.9-15.6-23.7-23.4-35.6-22.1-33.9-56.4-37.6-82.4-8-12 13.7-19.6 29.5-20.6 49-1.3 25.2 1.4 49.3 5.7 74.2 5.8 33.9 15.8 65.6 30.9 102.2z"/>
</svg>