<svg version="1.2" xmlns="http://www.w3.org/2000/svg" viewBox="0 0 534 534" width="534" height="534">
	<title>misc-31</title>
	<style>
		.s0 { fill: #577590 } 
	</style>
	<path class="s0" d="m247.4 398.8c-17.1 14.9-31.7 29.9-47 44.3-2.6 2.5-8.1 2-12.3 2.9-0.6-3.6-2.1-7.4-1.7-10.9 2.4-26.4 2.5-52.3-1-78.9-3.2-24.9-16-44.9-23.8-67.3-7.4-21.1-13.7-42.9-18-64.8-3.5-17.8-4.4-36.4-4.6-54.6-0.1-14.4 1.6-29.1 4.5-43.3 4.4-21.6 46.3-44.6 65.1-35 13.2 6.8 19.6 21.3 24.9 34.6 7.3 18.1 12.4 37 18.4 55.7 0.8 2.7 1.1 5.5 1.6 8.3 2.5-2.3 5.5-4.2 7.4-6.9 15.7-22.3 32.4-43 58.9-53.7 32.1-13 44.2-6.1 64 22.8 13.2 19.3 11.3 40.5 7 59.4-9 39.9-32.1 73.9-58.7 104.2-25.7 29.3-54.8 55.6-84.7 83.2zm-90.6-169.8c3.9 21.5 6.9 43.4 18.2 62.6 19.9 33.7 27.3 70.2 27.1 108.8 0 6.6 0.7 13.2 1.1 19.9 5.3-4.6 10.5-9.2 16-13.6 5.6-4.4 12.1-7.9 17.2-12.9 28.4-28 58.2-54.8 84.2-84.9 27.2-31.6 51.4-65.5 60.4-108.4 4.2-19.8-0.7-35.5-9.5-50.6-8.7-14.9-20.2-15.3-38.3-11.7-28.4 5.6-41.8 28.2-58.5 47.1-6.9 7.9-15.5 16.9-16.8 26.2-1.4 10.3 5.4 21.6 7.4 32.6 1.2 6.6 0.8 13.6 0 20.3-0.7 6.3-2.7 12.4-4.4 18.5-0.6 2.3-1.9 4.4-2.8 6.6-2.1-2.2-5.8-4.3-5.9-6.6-0.6-11.2 0.1-22.6-0.4-33.9-0.2-4.8-0.6-12-3.6-14-10.1-6.5-13-12.2-6.5-23.9 3.6-6.4 3.1-16.8 0.8-24.2-8.1-25.3-17.6-50.1-27-74.8-1.2-3.1-4.7-6.9-7.6-7.4-19.1-3.2-46.1 6.3-51.7 26-6.6 23-2.4 45.7-3.6 68.5-0.5 8.3 2.7 16.8 4.2 29.8z"/>
	<path class="s0" d="m356.1 217.7c0 4.5 0.3 6.8 0 9-2.5 16.4-11.3 22.2-25.8 17.2-17.3-6-19.8-9.7-19.5-29.3 0.3-24.3 4.7-31 23.7-36.5 11.5-3.3 15.7 0.1 17.2 12.2 1.1 8.4-4.3 18 4.4 27.4zm-27.2-24.9c-2.9 10.7-6.2 21.3-8 32.2-0.2 1.4 7.9 4.9 12.6 5.9 2.6 0.6 8.6-1.9 8.6-3.1 0.5-11.9 0.1-23.9-0.7-35.7-0.1-0.8-6.7-1.1-12.5 0.7z"/>
</svg>