<svg version="1.2" xmlns="http://www.w3.org/2000/svg" viewBox="0 0 534 534" width="534" height="534">
	<title>arrow-9</title>
	<style>
		.s0 { fill: #f3722c } 
	</style>
	<path class="s0" d="m402.6 185.4c-8.1 0.2-15.5 0.2-22.9 0.6-6.3 0.4-12.6 1.4-18.9 1.8-1.3 0.1-2.6-1.2-4-1.9 1.3-1 2.5-2.9 3.8-3 10.1-0.7 14.3-9 20.3-15 6-5.9 11.8-12.2 18.3-17.6 1.2-1 5.9 0.5 7.9 2.2 9.2 7.8 18 16 26.8 24.1 1.4 1.3 2.1 3.4 3.1 5.1-1.7 0.4-3.3 0.9-5 1.1-9.6 0.9-19.2 1.7-29.4 2.6zm5.7-20.4q-1.6 1.5-3.2 3 2.3 0.3 4.6 0.7c-0.2-1.1-0.5-2.1-1.4-3.7z"/>
	<path class="s0" d="m104.3 344.8c12.9 4.2 25.2 8.6 37.5 12.5 2.7 0.8 5.9-0.1 8.8 0.4 1.6 0.3 3 1.9 4.5 2.9-1.3 0.7-2.5 1.9-3.8 1.9-5.1 0.1-10.4 0.5-15.2-0.8-10.2-2.7-20.2-6.4-30.3-9.7-0.6-0.2-1-0.6-1.6-0.8-2-0.7-4.1-1.3-6.2-1.9 1.9-1.5 3.8-3 6.3-4.5z"/>
	<path class="s0" d="m386 267c0.9-6.9 1.6-13.1 2.7-19.3 0.3-2.1 2.3-3.3 3.4-0.6 1.2 2.7 1.7 5.8 1.9 8.7 0.2 3.5 0.8 7.5-0.5 10.5-3.2 7.4-7.2 14.4-11.2 21.4-0.5 1-2.5 1.2-3.8 1.7-0.2-1.6-1-3.4-0.4-4.7 2.4-5.8 5.2-11.4 7.9-17.7z"/>
	<path class="s0" d="m348.7 339.4c-4.9 4.9-9.5 9.6-14.2 14.2-0.7 0.6-1.7 1.4-2.6 1.3-1.7-0.1-3.4-0.8-5.2-1.2 0.8-1.2 1.5-2.5 2.4-3.6 8-8.9 16.1-17.9 24.3-26.7 1.1-1.2 3.2-1.3 4.8-2-0.2 1.8 0.1 3.8-0.7 5.2-2.6 4.3-5.6 8.3-8.8 12.8z"/>
	<path class="s0" d="m262.4 381.8c-2.3-1.9-1.6-4.6 0.9-5.1 8.6-1.4 17.2-2.8 25.8-3.7 1.9-0.2 4 1.5 5.8 2.7 0.2 0.1-0.8 3.2-1.6 3.4-7.9 1.5-15.8 2.8-23.8 3.9-2.1 0.2-4.3-0.8-7.1-1.2z"/>
	<path class="s0" d="m192.6 377.6c-0.9-0.5-1.5-0.6-1.9-0.9-2-1.6-5.7-3.6-5.5-4.7 0.8-3.6 4.5-2.1 6.8-1.6 7.4 1.4 14.6 3.3 22 5 0.6 0.1 1.5-0.3 1.8 0.1 1.5 1.5 2.7 3.2 4.1 4.8-2.2 0.5-4.4 1.6-6.4 1.4-6.9-1-13.7-2.5-20.9-4.1z"/>
	<path class="s0" d="m405.5 211.8q-3.7 7.4-5.8 1.6c-2.3-6.1-3.6-12.6-4.5-19-0.2-1.5 2.7-3.4 4.1-5.1 1.1 1.2 2.9 2.2 3.2 3.6 1.1 6.2 1.8 12.4 3 18.9z"/>
</svg>