<svg version="1.2" xmlns="http://www.w3.org/2000/svg" viewBox="0 0 534 534" width="534" height="534">
	<title>misc-48</title>
	<style>
		.s0 { fill: #06b5cc } 
	</style>
	<path class="s0" d="m311.8 379.8c-4.7 3.6-8.7 7.2-13.3 10-9.1 5.5-17.9 11.9-28.2 15.1-5 1.5-10.3 3.7-16.8 1.4-5.7-1.9-12.5-1.7-18.6-3.6-16.8-5.4-32.4-13-44.2-26.4-7.8-8.9-14.1-18.9-14.9-31.5-0.4-8.1-2.8-16.2-2.8-24.3 0-6.2 1.8-12.5 3.6-18.5 2.6-8.7 6.1-17.2 8.9-25.9 3.7-11.3 9.4-21.7 17.2-30.4 7.6-8.4 17.6-13.5 29.6-11.2 2.3 0.5 4.3 2.7 6.3 4.1 1.8 1.2 3 1 3-1.4 0.1-4 0.3-8 0-12-0.5-7.1 1.6-14.1-1.3-21.3-2.7-6.4-4.1-13.5-4.9-20.4-1.4-13-10.1-21.7-17.4-31.3-1.5-1.9-3.4-2.6-6-3-4.1-0.5-8.5-1.7-11.9-4-3.4-2.3-2.2-6.6-1-10 1.5-4 3.1-9.1 7.8-9.2 4.4-0.1 7.4 4 8.9 8.1 2.9 7.8 8.8 13.5 13.7 19.9 6.7 8.7 11.6 18.1 13.8 28.8 2.1 10.7 5.2 21.3 4.9 32.5-0.2 5.3 2.3 11 1.1 16-1 4.5-0.9 8.7-1.1 13.1-0.1 0.9 1 1.9 1.5 2.8 0.5-0.7 1.1-1.4 1.6-2.1 1.6-2.8 2.8-5.9 5-8.3 4.4-4.9 8.7-10.2 14-14 11.1-8 23.1-13.8 37.4-14.2 13.3-0.3 24.7 3.7 35.7 10.9 5.7 3.7 6.8 9.6 10.3 14.2 1.8 2.3 2.3 5.5 3.4 8.2 0.4 1.2 1.4 2.2 1.5 3.4 1.2 8.6 2.5 17.2 3.1 25.9 0.3 4.2-0.5 8.7-1.5 12.9-2 8.6-2.7 17.3-5.4 25.8-2.8 9-7 17.4-10.6 26.1-1.6 3.8-2.9 7.9-5 11.5-3.2 5.4-6.7 10.8-10.8 15.5-5 5.8-10.8 11-16.6 16.8zm24.4-155.8c-10.2-5.2-19.9-9.8-32.6-7.7-13.1 2.1-23.7 7.9-33.9 15.1-10.7 7.4-15.6 19.2-21 30.5-0.3 0.6-0.8 1.6-0.6 2.1 3.4 5.4 0.8 11.3 1.5 17 0.1 0.9-0.8 2-1.3 3.1-1.1-1-3.1-1.7-3.3-2.8-0.9-4.3-2.3-8.9-1.5-12.9 1.3-6.2-3.3-10.9-2.4-17.3 0.8-6-8.7-11.7-15-10.2-13.2 3.1-22.9 11.4-29.2 23.2-3 5.7-4.7 12-6.9 18-4.8 12.7-8.8 25.7-9.1 39.4-0.2 6.2 0.8 12.4 1.5 18.6 0.5 3.7 1 7.6 2.3 11.1 4 11.1 9 21.5 19 28.9 8.9 6.6 18.4 12 28.8 15.6 5.1 1.9 11 1.8 16 4 5 2.2 10.2 2.3 14.5 1.1 9.8-2.7 19.3-6.6 27.6-12.7 5.6-4.1 11-8.5 16.2-13 5.8-4.9 11.9-9.7 16.8-15.4 4.4-5.1 7.5-11.2 10.9-17.1 1.3-2.3 1.6-5.2 2.9-7.5 8.5-15.8 14.7-32.4 16.2-50.1 1.3-14.4 1-29.2-4.8-42.8-2.7-6.3-4.3-14.1-12.6-18.2z"/>
	<path class="s0" d="m314.2 238.8c8.3 2.6 11.9 9 15.7 15.4 2.5 4.4 5.2 8.6 4.8 14.1-0.2 2.5-1.1 2.5-3.1 3.1-6.7 2.2-13.1 2.1-19.8 0.4-1.8-0.5-4-0.2-5.9 0.2-3.9 0.9-5.6 0.2-6.5-3.3-0.2-0.7-0.2-1.6 0-2.4 2.2-8.2 1.3-16.6 1.6-24.9 0.2-3.3 4-6 7.4-5.3 1.8 0.3 3.6 1.5 5.8 2.7zm-7.6 5.2c-0.3 4.7-0.7 9.4-0.8 14.1-0.1 6.7 1.2 7.9 8.2 8.3 2.6 0.2 5.3 0 8 0 1.3 0.1 2.7-0.2 3.9 0.2 1.4 0.5 2.6 1.4 3.9 2.2-0.6-1.6-1-3.3-1.8-4.9-1.1-2.4-2.5-4.8-3.9-7.1-3.8-6.7-8.8-12-17.5-12.8z"/>
</svg>