<svg version="1.2" xmlns="http://www.w3.org/2000/svg" viewBox="0 0 534 534" width="534" height="534">
	<title>misc-49</title>
	<style>
		.s0 { fill: #f9c74f } 
	</style>
	<path class="s0" d="m380.6 202.8c5.4-7.4 10.7-14.2 13.4-22.5 0.4-1.3 1.9-2.9 1.6-3.8-2.8-6.4 1.8-10.5 4.5-15 2.9-4.7 6.4-9.2 10.3-13 2.2-2.1 5.9-3.7 8.8-3.5 6.3 0.5 12.4 2.2 18.6 3.4 8.4 1.6 9.1 3.4 4 9.6-3.3 4-3.9 9.1-4 13.8-0.3 14.4-4.3 28-7.4 41.8-0.8 3.6-1.5 7.4-1.8 11.1-0.3 3.5-0.6 6.4-4.7 8.2-2.3 1-3.6 3.9-4.8 6.9-6.6 16.3-9.5 33.8-16.2 49.9-5.9 14.3-12 28.5-22.9 39.9-16.9 17.5-37.4 29.7-59.4 39.1-13.7 5.9-27.3 12.3-42 15.4-7 1.5-14.1 3.2-21.3 3.6-11.8 0.6-23.7-0.3-35.6 0.3-11.9 0.5-22.7-3.8-33.9-6.2-10.6-2.3-20.6-6.4-31.1-8.9-12.5-3.1-22.9-10.9-31.2-21.1-3.5-4.3-8.4-7.9-10.6-12.8-2.2-4.8-1.5-10.9-2.5-16.3-0.9-4.8-4.1-8.3-7.6-11.5-5.9-5.3-9-11.2-4.9-19.4 1.8-3.6-1.2-8.1-5.1-10-1.3-0.6-2.9-1.3-3.5-2.4-3.1-5.6-0.2-19.4 4.6-23.7 2.1-1.8 3.5-2.6 4.2 1 0.1 0.6 1.9 1.5 2.7 1.3 12.6-2.3 22.9 5.2 34.4 7.5 9.5 1.9 18.7 5 28 7.1 9.3 2.2 18.5 4.2 27.9 5.4 9.4 1.3 18.9 1.5 28.4 2 21.9 1.2 42.6-3.8 63.3-10.2 23.8-7.5 45.1-19 63.9-35.2 5.3-4.5 9.9-9.7 14.8-14.7zm-131.9 104.7c3.4-0.6 6.8-1.3 10.2-1.8 8-1.3 16-2.9 24.1-3.6 14.5-1.2 27.7-6.2 40.2-13 11.3-6.1 22.7-11.7 33.2-19.4 9.7-7 17.2-15.8 25.2-24.3 5.9-6.3 10.6-13.8 15.9-20.7 8.4-11.2 12.4-25.1 21.7-35.9 1.7-2 5.5-4.2 3.8-8.3-2.5 1.3-5 2.8-7.6 3.9-2 0.8-4.5 2.5-5.3-1.8-0.3-1.8-1.9-3.3-3-4.9-1.4 1.6-2.9 3.1-4.2 4.7-0.8 0.9-1.3 2-1.8 3-6 12.3-13.3 23.7-23.5 33.2-5.8 5.4-11.8 10.8-17.9 16.1-7.2 6.1-14 12.7-21.8 18-12.4 8.4-25.3 16.3-39.5 21.3-8.8 3.1-17.8 5.5-26.9 7.8-8.3 2.1-16.7 5-25.1 5.3-11.6 0.3-23.3 1.7-35 0.4-4.5-0.6-9.5 1-13.6-0.4-8.8-2.9-18.1-2.8-27-5.1-11.9-3.1-24-5.2-35.9-8.2-7.4-1.8-14.6-4.3-21.9-6.5-6.2-1.9-8 5.4-12.9 6.2 1.8 2.6 3.5 5.3 5.6 7.6 1.6 1.8 3.6 3.1 5.5 4.4 13.3 9.3 28.6 13.5 44.3 16.5 6.7 1.3 13.7 2 20.3 3.8 11.2 3.2 22.8 4.2 34.3 5.2 12.4 1.2 24.6-1.2 38.6-3.5zm143.3-35.7c-4.3 5.6-8 11.8-13 16.5-12.1 11.2-25.2 21.2-39.7 29.4-15.3 8.6-31 16-47.6 21.7-9.8 3.3-20.2 4.2-30.1 6.9-12.6 3.5-25.5 4.6-38.2 6.4-11.6 1.6-23.7-0.7-35.6-1.4-4-0.3-8.2-0.6-12-1.9-13.5-4.7-27-9.7-40.4-14.7-5.1-2-7.5-1.2-7.9 4-0.2 2.7 0.4 6.3 2.1 8.1 4.6 5 9.5 10.3 15.3 13.4 11 5.9 23 9.3 35.2 12.1 17.5 4 34.7 9.6 53.1 8.3 5.4-0.4 10.9 0.2 16.4-0.1 7.3-0.4 14.7-1 22-1.8 3.7-0.5 7.4-1.3 10.8-2.7 14.7-6.2 29.4-12.6 44-19.3 8.1-3.7 16.7-7.2 23.9-12.4 8.6-6.4 16.3-14.1 23.8-21.9 7.5-7.6 13.2-16.8 17.3-26.5 5.2-12.5 8.8-25.6 13-38.4 0.3-0.9-0.4-2-0.7-3-0.8 0.5-2.1 0.8-2.5 1.6-2.9 4.9-5.5 9.9-9.2 15.7zm-152.4 44.8c-5.2 0.6-10.4 1.4-15.7 1.8-18.1 1.3-35.6-3.2-53.3-5.5-4.6-0.6-9.2-1.1-13.6-2.4-13.3-3.8-27-6.3-39.2-13.4-2.9-1.8-5.4-0.4-6.7 2.1-1.8 3.2 0 10.1 3 12.3 9.9 7.2 19.8 14.1 31.4 19 21.7 9.3 44.3 13.4 67.5 15.4 6.8 0.6 13.6-4.2 20.5-0.2 0.8 0.5 2.6-0.8 3.9-1.3 1.8-0.7 3.6-1.8 5.5-2.2 9.5-1.9 19-4.1 28.7-5.4 14-1.9 26.9-7.1 39.2-13.3 17-8.6 34.1-17.1 48.9-29.9 10.1-8.7 19.8-17.5 26.8-29q8.3-13.5 16.4-27c3.1-5.1 6.2-10.2 9.1-15.4 0.5-0.9 0-2.4-0.1-3.5-1.1 0.5-2.5 0.9-3.2 1.8-7.6 10.4-12.9 22.5-22.2 31.8-6.2 6.3-12.4 12.6-19 18.6-8.1 7.3-17.9 12.2-27.1 18-18.3 11.6-38 19.5-59.3 21.9-13.3 1.4-26.4 4.3-41.5 5.8zm176.1-105.1l1.9-0.9c-0.6-0.3-1.3-0.6-1.9 0.9z"/>
</svg>