<svg version="1.2" xmlns="http://www.w3.org/2000/svg" viewBox="0 0 534 534" width="534" height="534">
	<title>misc-50</title>
	<style>
		.s0 { fill: #f94144 } 
		.s1 { fill: #f9c74f } 
	</style>
	<path class="s0" d="m299.4 415.2c-12.5 6.6-24.1 14-37.6 12.6-19.3-1.9-37.6-7.8-52-21.8-12.6-12.2-25.8-24-35-39.2-2.3-4-4.8-8-6.4-12.4-5.2-15-9.5-30.4-15.3-45.3-4.5-11.7-10.2-23-16.3-34-8.7-15.7-11.4-32.7-8.9-49.9 2-14.2 7.8-27.6 16.9-39.1 4-5 8.7-9.5 13.3-14 5.4-5.6 13.1-7 20.1-8.3 4.4-0.8 7.4-2.8 9.3-5.8 4.7-7.6 11.5-12.2 18.8-16.6 2.4-1.4 4.5-3.5 1.2-6.8-1.5-1.4-2.3-4.2-2.2-6.4 0.1-2.5 0.8-6 2.5-7.2 6.9-4.5 15.6-5.7 22.1-11.3 0.4-0.4 1.5-0.3 2.1 0 7.9 4.3 18.1 2.7 24.8 10 3.1 3.4 6.6 6.4 9.7 9.8 4.1 4.5 7.5 5.6 12.4 1.4 6.9-5.8 14.8-8.9 22.7-12.8 12.4-6.1 25.6-11.5 38.7-12 13.6-0.5 28.7 1 39.8 12.2 3.6 3.7 8.1 6.4 11.9 10 5 4.8 6.9 11 8.7 17.9 3.5 13.7 2 27.8 4.4 41.2 3.3 17.6-3.3 32.2-8.5 47.7-3.6 10.7-5.8 21.9-9.3 32.7-6 18.6-11.8 37.3-18.4 55.7-9.8 27.5-23.7 51.7-44.5 71.8-7.5 7.2-16 13.3-25 19.9zm-106.4-245.3c-7.2 1.5-14.9 1.9-21.6 4.8-11.1 4.9-19 13.3-25.2 24.4-10.7 19.2-13.6 38.7-6.6 59 6 17.5 15.2 33.8 21.1 51.5 3.2 9.4 7.8 18.2 10.1 28.1 2.3 9.5 6 19.3 11.5 27.4 5.4 8.1 12.5 15.4 18.7 23.2 13.7 16.8 30.4 30 53.5 31.2 15.1 7.4 26.9-2.8 38.7-8.5 9.7-4.8 17.4-13.6 25.8-20.9 13.6-11.9 22.7-27.6 31.4-42.9 7.2-12.5 10.5-27.1 15.6-40.8 2-5.3 5.5-10.3 6.2-15.7 2.1-17.1 10.1-32.5 13.8-49.2 2.5-11.7 8.7-22.9 9.5-34.5 1.3-16.4-0.1-33.2-2-49.6-0.7-5.8-1.9-12.7-6.9-17.5-4.9-4.6-9.3-9.8-14.4-14.2-10-8.6-22.4-10.8-34.6-9.3-10.5 1.3-20.9 4.7-30.7 8.7-8.6 3.4-16.5 8.8-24.5 13.5-1.2 0.8-2.4 3-2.2 4.3 0.8 4.9-2.5 8.5-5.5 9.3-5.7 1.7-3.1 4.3-2.1 7 1.9 4.9 4.2 9.7 6 14.7 4.3 12.4 2.2 15.3-10.3 15.4-1.4 0-2.8 0-4.3 0-4.2-0.2-6.7 0.7-7.9 6-1.8 8.3-5.3 16.4-8.3 24.4-1.5 3.9-4.6 5.5-8.3 3.1-5.1-3.3-10-6.9-14.9-10.6-6-4.5-6.9-4.5-11.9 0.4-2.8 2.8-5.3 6-8.5 8.3-1.9 1.4-5 2.6-7.1 2.1-1.4-0.3-2.8-3.9-2.9-6-0.5-11.1 3.3-21.4 7.1-31.5 4.1-11.1 4.5-11.1-8.3-15.6zm22.6-24.7c-4.7 3.3-9.6 6.4-14.1 9.9-1.5 1.2-2.1 3.4-3.1 5.1 1.7 0.4 3.3 0.8 5 1.1 9.3 1.8 9.5 4 8.4 13.8-1 10-5.8 18.5-8.6 27.7-0.3 1.1 0.4 2.4 0.6 3.7 0.9-0.3 2.1-0.2 2.8-0.8 1.7-1.4 4.2-2.9 4.4-4.6 0.5-4.9 3.7-3.7 6-2.7 3.7 1.5 7 3.8 10.4 6 4.3 2.7 9.1 8.7 12.4 7.9 6.3-1.5 5.3-10 8-15.3 0.1-0.3 0-0.7 0-1.1 1.4-11.9 4.7-15 16-15.2 8.1-0.2 8.2-0.2 5.4-8.3-0.8-2.4-1.8-5.2-3.5-7-3.3-3.4-3.8-10.7-11.4-8.6-0.4 0.1-2.2-2.4-2.1-3.6 0.6-4.6 3.9-7.3 7.9-9.1q2.4-1.1 4.9-2.2c-1.7-1.4-3.3-3-5.3-4-1.1-0.6-2.8 0-4.1-0.3-4.9-1-4.8-1-2.4-6.5 0.3-0.6 0.1-2-0.3-2.2-8.6-4.6-17.3-10.3-27.6-8.3-9.9 1.9-12.4 7.1-7.2 15.8 2.6 4.3 0.7 5.5-2.5 8.8z"/>
	<path class="s1" d="m179.6 259.7c1.4-10.1 7.5-13.4 13.3-8 1.5 1.4 3.2 4.8 2.6 5.7-2.4 3.5-5.5 6.5-8.8 9.1-0.4 0.3-3.6-2.9-5.5-4.6-0.4-0.4-0.7-1.1-1.6-2.2zm172.9-32.2c-3.7 0.5-6.9 0.7-10 0.4-1.5-0.1-4.3-0.9-4.2-1.4 0-1.9 0.3-4.7 1.6-5.4 4.2-2.4 8.7-4.7 13.4-5.7 2-0.5 5.4 1.9 3.4 5.6-1 2.1-2.4 4-4.2 6.5zm2.7-66.2c8.1 1.4 9.6 3 8.6 8.2-0.8 4.2-5 6.1-8.5 3.7-1.4-1-2.5-2.5-3.8-3.8-3.9-4.2-3.9-4.2 3.7-8.1zm-70.9 165.7c1.3-3.1 2.3-5.3 3.8-6.9 2.8-2.9 7.1-2.1 8.8 1.1 1.5 3-1.4 7.5-5.1 10.3-5.3 4-6.4 0.8-7.5-4.5zm-51.5-43.1c1.3-2.1 2.5-3.8 4-4.1 4.8-1.1 9.4 1.2 8.6 4.5-0.7 3-3.3 5.8-5.6 8.1-0.6 0.5-4-0.8-5.2-2.1-1.2-1.2-1.3-3.5-1.8-6.4zm81.6-118.3c-1.6 2.9-3 5.1-5 6.3-1.2 0.7-4.7 0.1-4.8-0.2-0.4-3.3-1.1-6.9 0-9.8 0.5-1.5 4.5-2.3 6.9-2.2 1 0.1 1.9 3.1 2.9 5.9zm-135.3 49.5c0 2.1-0.1 3.2 0 4.3 0.4 3.3-1.6 6.7-3.9 6.1-2.7-0.8-5.2-4.2-6.5-7-0.5-0.9 2.5-4.3 4.5-5.3 1.4-0.8 3.9 0.5 5.9 1.9zm75.7 27.4c-1.3-1.3-2.5-2-2.6-2.8-0.5-3.9 0.5-7.1 5.1-7.3 1.8-0.1 5.2 0.7 5.3 1.4 0.5 3.7 1.1 8-4.1 9.2-1 0.3-2.1 0.1-3.7-0.5zm51.5-21.5c3.2 6.7-3.7 7.3-5.4 10.9-1.2-1.7-3.3-3.3-3.4-5-0.2-2.5 1-5.1 2-7.5 0.3-0.9 1.6-1.9 2.6-2.1 2.3-0.5 4.3 0 4.2 3.7zm-15 53.8c-3.9-5.4 0.1-6.5 3.2-8.7 3.7-2.7 3.9 0.9 4.8 2.3 3.8 6.3 3.4 6.7-4.3 6.9-1 0.1-2.1 0-3.7-0.5zm-61.2 55.9c2-5.9 4.7-4.7 7.7-1.9 3 2.7-1.1 3-1.7 4.4-0.4 0.9-1.3 1.7-2.2 2.3-1.4 0.8-2.9 1.5-4.3 2.2 0-2.1 0-4.3 0.5-7zm107.9-53.2c-2.1 1-4.3 1-6.4 1 0.2-2.4 0.3-4.8 0.9-7.1 0.1-0.4 3.4-0.8 3.8-0.3 1 1.5 1.2 3.5 1.7 6.4zm-34.9 104.9c-2.7 2.5-4.9 6.9-7.8 1.5-0.5-0.9 1.3-4.2 2.7-4.7 2.1-0.9 5.9-2.5 5.1 3.2zm-107.4-76.4c-0.9-1.8-1.4-3.1-1.5-4.4-0.3-3.6 2.6-2.9 4.3-2.4 1 0.3 2.3 2.9 1.9 3.7-0.8 1.5-2.7 2.4-4.7 3.1zm14 63.5c-3.4-2.2-2.4-4-0.3-4.9 1.7-0.8 3.8-0.4 5.7-0.5-0.2 1.3 0.1 2.9-0.6 3.6-1.1 1.1-2.8 1.6-4.8 1.8zm44 21.5c-1.2 0.5-1.9 0.6-2.7 0.5-1.6-0.2-3.3-0.5-5-0.7 0.8-1.7 1.2-4.3 2.5-4.9 1.1-0.6 3.4 0.8 5 1.7 0.6 0.4 0.5 1.9 0.2 3.4z"/>
</svg>