<svg version="1.2" xmlns="http://www.w3.org/2000/svg" viewBox="0 0 534 534" width="534" height="534">
	<title>misc-51</title>
	<style>
		.s0 { fill: #a0ff59 } 
	</style>
	<path class="s0" d="m310.1 299.5c2.3-0.6 5.3-0.8 5.4-0.4 0.4 2.4 0.1 4.9 0.3 7.4 0 1.1 0.6 2.2 0.9 3.3 1.5-0.5 3.2-0.5 4.2-1.4 8.6-7.5 16.6-15.6 25.5-22.6 13.3-10.5 27.1-20.3 40.8-30.3 0.6-0.4 1.8-0.1 2.2-0.5 2.9-3.4 5.6-6.8 8.3-10.2-3.8-0.6-7.6-1.9-11.4-1.6-15.5 0.9-31 1.6-46.4 4.6-5.9 1.1-12.3-0.1-18.4-0.2-0.3-5.3-0.6-10.6-0.8-15.8-0.1-5.4-0.1-10.8 0-16.1 0.2-15.3-1.9-30.2-4.8-45.1-1.9-9.8-1.8-20-2.7-29.9-0.1-1.4-0.9-2.8-1.3-4.1-0.6 1.4-1 3-1.8 4.2-10.2 13.5-20.7 26.9-30.7 40.6-12.1 16.8-23.9 33.9-35.7 50.9-4.9 7.1-9.7 14.2-14.4 21.4-3.8 5.7-10.1 8.1-16.1 9-29.4 4-56.8 13.9-83.7 25.9-1.4 0.7-3.3 0.3-5 0.4 0.8-1.7 1.1-4.1 2.5-5 12-7.7 24.7-13.7 38.9-17 13-3.1 25.4-8.6 38.1-12.8 2.6-0.9 5.7-0.4 8.2-1.4 3.9-1.5 8.8-2.8 11-5.9 13.8-19.3 26.1-39.8 40.6-58.6 13.7-17.7 25.7-36.3 37.1-55.4 2.3-4 16.6-8.3 20.8-6.3 1.6 0.8 2.9 2.7 3.9 4.4 0.5 0.9 0 2.4 0.1 3.6 0.8 17.5 0.3 35.1 2.8 52.3 2.2 14.6 1.8 29.1 2.1 43.6 0.1 6.7 2.9 6.8 8.6 5.6 4.4-1 9.4 0.9 14.2 1 2.8 0 5.6-1.4 8.5-1.4 17-0.2 33.9-0.2 50.9 0.1 2.4 0 4.8 2.2 7.2 3.4-1.5 2.1-2.5 4.9-4.5 6.2-19.9 13.8-40.5 26.7-59.8 41.2-12.3 9.3-23 20.7-34.2 31.4-7.5 7.1-7.1 17.3-8 26.3-1.7 16.6-1.8 33.2-2.8 49.8-0.2 2.2-1.1 5.5-2.6 6.1-1.7 0.7-5.2-0.2-6.6-1.7-11.5-12.7-26.1-22.4-35.5-37.1-1.8-2.7-4.3-4.9-6.6-7.2-9.7-9.3-10-9.6-19 0.1-12.3 13.3-23.8 27.4-36.2 40.7-4.8 5.3-10.7 9.7-16.4 14-5.1 3.9-8.3 2-8.8-4.6-0.6-7.9 4.4-14 7.1-20.6 5.3-12.7 11.7-24.9 17.9-37.3 2.2-4.5 5.4-8.5 5.1-14.1-0.1-1.5 2-3.1 3.2-4.7 1.3 1.7 3.4 3.2 3.8 5.1 0.5 2.2-0.1 4.9-1.1 6.9-3.9 7.5-8.3 14.7-12.1 22.2-4.9 9.6-9.4 19.3-13.8 29.1-0.4 0.7 0.3 2.6 1.1 3 0.7 0.5 2.5 0.2 3.2-0.5 5.3-5.1 11-10 15.6-15.7 7.2-8.8 12.3-19.8 20.8-26.9 5.5-4.6 8.1-12.7 17.4-14.3 4.2-0.7 6.1-0.9 8.8 1.8 12.5 12.5 25 25 37.6 37.5 1.6 1.5 4 2.4 6 3.5 1.2-2.3 3.5-4.7 3.5-7.1-0.2-12.4 2.2-24.4 5-36.4 0.5-2 2.2-6.2-3.1-6.2-0.6 0-1.9-2.1-1.6-2.6 4.8-8 1.2-16.8 2.5-25 0.2-0.9 2.4-1.4 4.2-2.6z"/>
	<path class="s0" d="m210.7 315.6q1 1 2 2.1 0.9 1 1.9 2.1 0.9 1.1 1.9 2.1 0.9 1.1 1.9 2.2c-4.8 2.7-6.9-2.1-10.3-3.4-13-4.9-26.2-9-40.2-11-15.1-2.3-30.6-1.8-45.2-7.1-0.8-0.3-2 0-2.3-0.4-1.8-2.6-8.6-1.8-5.7-7.1 1-1.7 5.9-3.1 7.9-2.2 11.4 5.1 23.1 6.4 35.4 7.7 17.9 1.8 35.6 6.4 52.7 15zm13.7-143.8c7.1-11.2 13.3-21.9 20-32.3 2-3 5-5.7 8-7.8 1.2-0.8 3.7 0.3 5.7 0.5-0.7 1.3-1.2 2.6-2 3.7-10.1 14.9-20.3 29.7-30.6 44.4-0.2 0.3-2.7-1-4.2-1.5 0.8-2.2 1.6-4.3 3.1-7zm-60.9 197.1c1.3-4.4 2.5-8.4 7.3-6.1 3.5 1.7 4.6 5 2.2 9.2-3.6 6.2-6.3 12.9-9.7 19.3-0.6 1.1-2.5 2.6-3.3 2.3-1.3-0.4-3.2-2.2-3.1-3.3 0.1-3.9 0.7-7.8 1.8-11.5 0.9-3.2 2.8-6.2 4.8-9.9zm192-4.4c-0.2 9.2 1.4 17.4-5 23.9-0.7 0.8-1.3 1.8-1.9 2.7-0.9-0.8-2.2-1.6-2.5-2.6-0.6-1.5-0.7-3.2-0.5-4.7 0.7-7.5 1.4-15 2.6-22.4 0.2-1.5 2.5-2.7 3.8-4 1.2 1.9 2.3 3.9 3.5 7.1zm-4.4-233.7c4.1-8.4 4.9-8.7 9.6-2.7 3 3.9 5.4 8.4 7.8 12.7 0.8 1.4 0.8 3.3 1.2 5-2 0.1-4.3 0.9-5.7 0.1-2.4-1.5-4.2-3.8-6-6-2.2-2.7-4.2-5.6-6.9-9.1z"/>
</svg>