<svg version="1.2" xmlns="http://www.w3.org/2000/svg" viewBox="0 0 534 534" width="534" height="534">
	<title>misc-54</title>
	<style>
		.s0 { fill: #ff2c56 } 
	</style>
	<path class="s0" d="m283.8 157.8c8.6-18.7 20.5-34.2 32.7-49.2 12.2-14.9 28.1-25.6 45.5-33.7 5.2-2.3 9-4.8 11.5-9.9 2.1-4.5 8.5-6.6 11.9-3.6 3.3 2.8 7.2 6.8 7.5 10.5 0.2 2.6-5.1 5.8-8.1 8.4-0.8 0.7-2.8 1-3.7 0.5-7.9-4.6-14.9-0.3-21 3.1-26.8 14.7-46.7 36-60.9 63.3-6.7 13-13.2 25.9-18.7 39.4-4.8 11.8-6.3 24.3-10.1 36.2-1.9 5.6-3.2 11.4-4.5 17.2-0.2 0.9 0.3 2.4 1 2.8 0.6 0.5 2.4 0.2 2.9-0.4 9.5-11.5 23.7-13.1 36.5-14.3 7.7-0.7 15.4-0.8 23.1-2.7 2.7-0.7 6.1 1.1 9.2 1.7 4.5 0.9 9.1 1.5 13.6 2.6 10.3 2.5 18.3 8.9 23.6 17.6 6.7 11.2 14.2 22.4 16.5 35.7 0.5 2.4 1.5 4.8 1.6 7.2 0.7 18.9-2.1 37.2-6.2 55.7-3.8 16.8-8.2 33.1-13.7 49.4-3.8 10.9-10.3 19.8-16.6 29-5.8 8.3-12.1 16.3-19.1 23.5-18.3 19.1-40.2 30-67.5 26.6-3.9-0.5-7.7-2.4-11.5-2.1-13.3 1-25-3.9-36.9-8.7-12.3-4.9-22.5-12.9-33-21-15.8-12.2-25.8-28.7-36.5-44.5-5.5-8.1-8.6-18.4-10.4-28.1-2.2-11.8-2.9-24.1-2.3-36 0.7-15.1 2.6-30.4 10.2-43.9 3.1-5.6 6.9-10.8 11.1-15.6 8.7-10 17.1-20.6 29.1-26.8 11.5-5.8 22.9-12.5 36.9-11.6 7 0.5 13.1 2.7 19.3 5.1 8.4 3.1 10 3.4 11.3-5.3 1.7-11.2 9.1-21 7.7-32.8 7.2-14.2 8.6-30.8 18-45.3zm87.7 102.2c-2.4-9.6-9.4-15-17.6-19.1-14-6.8-29.2-8.1-44.3-6.6-14.5 1.5-28.2 5.9-39.2 16.5-4.1 3.9-6.2 6.8-0.6 11.2 1.6 1.2 2.3 4.2 2.7 6.6 1.6 10.9 3.1 21.9 4.5 32.9 0.3 2.6 0.6 5.4-0.2 7.7-0.5 1.4-2.4 5.5-5.3 1.4-1.2-1.8-3.3-3.6-3.3-5.3 0.4-9.9-3.4-19-4.5-28.5-1.7-15.3-16.5-30.1-31.7-31.5-20.3-1.9-37.1 5.8-51.5 19.2-5.8 5.4-12.4 11.3-15.3 18.3-2.9 6.9-6.6 12.9-10.9 18.9-0.2 0.3-0.7 0.5-0.7 0.8-1.6 8.7-3.4 17.3-4.6 26.1-0.6 4.8 0.4 9.8-0.2 14.6-1.1 9.6 0.3 21.8 3.8 32.5 8.2 24.9 23.1 45.9 42.9 62.8 8.1 7 17.2 12.8 27.5 17.3 18.4 7.9 37.7 9.9 56.9 11.5 14.3 1.2 27.8-4.4 39.1-13.6 8.7-7.2 17-15 25.1-22.9 4.3-4.2 8.9-8.9 11.4-14.3 5.9-12.9 10.9-26.2 15.6-39.5 3.3-9.6 6.2-19.3 7.4-29.6 1.1-10 5.2-19.7 6.2-29.8 0.9-9.8-0.3-19.8-1.1-29.7-0.8-10-7-18-12.1-27.9z"/>
</svg>