<svg version="1.2" xmlns="http://www.w3.org/2000/svg" viewBox="0 0 534 534" width="534" height="534">
	<title>misc-58</title>
	<style>
		.s0 { fill: #1a0005 } 
	</style>
	<path class="s0" d="m232.9 253.6c-4.3 9.4-12 15-19.5 20.7-3.7 2.7-7.8 4.8-11.6 7.4-0.8 0.6-1.6 1.8-1.7 2.8 0 0.6 1.3 1.8 2.1 1.9 8.4 1.3 16.5 4.7 25.3 3.8 3-0.3 4.5-1.1 4.2-4.2-0.4-3.7 1.3-6.3 3.8-8.8 3.1-3.3 6-6.9 9.1-10.2 3.9-4.2 8.1-8 13.1-10.9 3.7-2 7.1-1.6 9.3 1.7 2.9 4.3 2.3 8.8 0 13.1-1.4 2.5-3.3 4.8-5.3 6.9-3.8 4-7.7 7.7-11.5 11.6-0.7 0.7-1.5 2-1.3 2.4 0.6 0.9 1.8 1.9 2.7 1.9 3.8-0.3 7.7-0.9 11.5-1.5 6.3-0.8 11.8-4.1 17.8-5.8 4.2-1.2 5.9-3.6 5.6-8.3-0.3-7.2 4.2-11.8 8.6-16.5 1.6-1.7 3-3.7 6-3.2 3.1 0.5 8.2 5.7 8.7 9.4 0.6 5.4-1.6 9.5-5.9 12.6-2.1 1.6-4.4 3-6.6 4.5-2.8 1.9-2.6 4-1 6.6 2.2 3.5 5.3 4.9 9.4 4.8 3.7-0.1 6.4-1.1 8.4-4.8 2.2-4.2 4.4-8.5 7.9-12 1.7-1.6 2.1-4.4 3.2-6.6 5.5-11.5 10.4-23.2 14.6-35.3 3.6-10.5 6.6-21.2 10.3-31.6 1.4-4.1 3.8-7.8 6.1-11.5 3.8-6.4 6.9-13.1 11.5-19.1 6.5-8.4 14.3-14.6 23.5-19.7 7.4-4 14.9-6.2 23.3-5.6 4.1 0.3 8.2 0.2 12.2 0 3.3-0.2 6.1 0.7 8.6 2.9 2.9 2.5 6.3 4.5 9.3 7 0.9 0.8 1.7 2.3 1.7 3.5-0.2 5.7 0.1 11.6-1.3 17.1-1.8 6.7-2.5 13.8-5.9 20-0.6 1-0.9 2.3-1.8 2.9-2.9 2-6 4-9.2 5.6-2.4 1.2-4.6 1-7.1-0.8-9.9-7.1-19.2-2.7-24.7 5-4.1 5.8-5.8 12.6-8.4 19.1-4.7 11.6-9 23.4-13.5 35.2-3.2 8.2-8.4 15.6-12 23.6-3.8 8.8-8.5 17.5-8.7 27.4-0.1 6.5 5.6 10.3 12 9 4.2-0.9 8.4-1.6 12.9 0 3.4 1.2 7.4 0.7 10.9 1.6 6 1.5 8.2 6 6.5 11.8-2 6.7-3.8 13.5-5.7 20.2-0.1 0.4 0.1 0.9-0.1 1.2-3 4-5.9 8.2-9.5 11.8-1.1 1.2-4.2 1.3-5.9 0.7-3.2-1.2-5.3-0.9-8.1 1.2-7.4 5.6-16.1 7.9-25.4 7.8-5.9-0.1-11.8 0.4-17.6-0.1-7.1-0.6-14.2-1.7-20.1-6.1-4.5-3.3-7.9-7.3-7.4-13.7 0.3-3.4 1.2-7.1-1.1-10.4 1.7-5.6 0.1-11.5 1.8-17.1 0.7-2.6 1.8-5.2 1.8-7.8 0-6.5 3-12.1 5-18 0.9-2.5 0.8-4-1.9-4.9-1.8-0.5-3.4-1.5-5.2-2.3-4-1.7-6.9-4.7-8.7-8.5-1.3-2.8-2.5-2.4-5-1.3-7 3.1-14.3 5.6-21.3 8.7-3.6 1.6-6.6 1.2-10.1 0-5.5-1.8-11.5-2.1-16.9-4.9-1.1-0.6-3-0.5-4.2 0-5 2.3-9.9 1.1-14.8-0.1-4.8-1.1-9.7-2-14.3-3.7-4.1-1.5-7.8-3.9-11.6-5.9-0.8-0.5-1.7-1.2-2.5-1.3q-8.3-0.7-16.6-1.2c-5.6-0.4-11-1.6-15.7-4.9-0.6-0.4-1.6-0.7-1.8-1.3-2.3-6.2-7.3-6.4-12.7-6-11.1 0.7-21.7-1.5-31.6-6.3-3-1.5-5.4-4.9-7.5-7.8-1.1-1.6-1.5-4.1-1.2-6.1 0.7-4.4-1.9-5.5-5.2-6.2-2.9-0.6-5.7-1.5-8.5-1.5-6.9 0-12.4-2.8-17.2-7.2-4.2-3.7-8-7.9-12-11.9-0.3-0.3-0.8-0.6-0.9-0.9-1-7.8-7.9-11-12.5-16-3.9-4.3-7-8.9-8.8-14.6-1-3.1-1.3-6.1-0.7-8.7 1.2-6.1 2.2-12.3 6.3-17.5 2.1-2.8 3-6.5 4.5-9.7 1.6-3.3 5-4.1 8-4.7 2.2-0.5 5-1.2 7.4 1 1.8 1.9 2.1 3 0 4.8-3.7 3-7.3 6.1-10.7 9.4-5.6 5.5-8.5 17.5-5.9 24.5 2.1 5.6 5.9 10.2 10.8 13.6 3.4 2.4 4.4 1.9 6.5-2 5.3-10.1 13.7-16.5 24.2-20.5 6.3-2.4 12.4-2.5 17.8 2.1 4.6 3.9 5.4 7.7 2.5 14-2 4.5-4.1 9-7.1 12.9-2.6 3.4-6.5 6.2-10.9 6.8-6.1 0.8-12.3 3.1-18.6 0.2-0.8-0.4-2.2 0.4-3.3 0.6 0.5 0.8 0.9 1.7 1.4 2.5 3.5 6.1 9.2 9.1 15.7 11.7 5.4 2.2 10.5 4 16.3 3.3 0.7 0 2-1 1.9-1.3-1.2-5.6 2.7-9.5 5.6-12.9 6.1-7.2 12.7-14.3 20.2-20.1 7.3-5.6 13.9-4.9 18.3 5.8 1.8 4.8 0.8 8.2-2.3 12.2-5.5 6.8-11.3 13.1-19 17.4-3.4 1.9-7.2 3.3-10.8 4.8-4.8 1.8-5.9 4.3-3.7 9.1 2.6 5.8 7.8 8.5 13.2 10.5 3.9 1.5 8.3 2.8 12.3 2.3 3.5-0.4 7.1-0.4 10.5-1.1 1.3-0.2 3.3-2.5 3.2-3.7-0.7-6.7 3.3-11.4 6.5-16.3 4.7-7.1 10-13.8 15.5-20.3 3.1-3.8 7.8-5.6 12.3-6.8 1.4-0.4 3.7 0.5 4.7 1.6 2.5 2.9 4.7 6.5 3.8 10.5-2.6 10.5-7.5 19.6-16.8 25.9-3.2 2.2-6 5.1-9 7.7-1.6 1.3-3.2 3.1-5.1 3.7-3.2 1.1-2.7 2.8-1 4.2 2.2 1.9 4.6 3.7 7.3 4.5 5.5 1.7 11.2 3.3 17.2 2.6 1.1-0.2 2.5 0.6 2.6-1.5 0.2-6.3 4.2-10.9 7.4-15.8 5.2-7.8 11.7-14.5 20.5-18.6 3.7-1.7 7.5-2.2 11.5-1.8 5.9 0.5 9.3 6.2 6.9 12.1zm153.7-84.6c-5.6 2.9-8.7 8.2-12 13.2-4.2 6.5-9.1 12.8-12.2 19.9-4.1 9.4-6.5 19.6-10 29.3-4.7 12.9-9.5 25.7-14.7 38.4-2.5 6.2-6.2 12-9.1 18.1-1.5 3-3.5 5.5-5.6 8.1-3.5 4.1-7.1 8.3-9.4 13.1-4.6 9.4-7.9 19.3-8.6 29.8-0.5 6.9-0.4 13.8 0 20.7 0.3 8.1 2.8 10.9 10.6 13.3 2.2 0.6 4.6 1.3 6.8 1.1 5.2-0.2 10.5-0.2 15.4 0.5 4.4 0.7 8.4 0.7 12.5-0.4 4.6-1.3 9.5-2.7 12.2-7.1 1.9-3.2 3.2-6.8 4.6-10.2 2.3-5.6 4.5-11.2 6.7-16.7q0.5-1.3 1.1-2.6c-1-0.2-2-0.5-3-0.4-1.3 0-2.7 0.6-4 0.5-3.1-0.3-6.1-1.1-9.2-1.1-5.1 0-9.3-1.8-12.3-5.7-2.9-3.9-3.7-9.1-3.2-13.5 0.9-7.4 4.1-14.4 7.5-21.2 9.5-18.5 18.9-37.1 24.5-57.3 3-10.9 8.1-20.7 13.8-30.3 4.7-7.9 11.4-12.9 20.7-13.7 2.7-0.3 5.5 0.4 8.3 0.3 1.2 0 2.9-0.6 3.5-1.5 1.3-1.8 2.5-3.9 2.8-6.1 1.3-7.1 3.3-13.9 5.9-20.7 1.7-4.6-0.5-7.5-5.4-8.2-2.2-0.3-4.5-1.1-6.8-1.1-2.4 0-4.9 0.7-7.4 1.2-2.6 0.4-5.5 0.5-7.8 1.6-5.3 2.4-10.4 5.4-16.2 8.7zm-287.9 30.4c0-1 0.1-2 0-3-0.1-4.4-1.7-5.8-6-6.2-4.2-0.3-7.2 2.2-10.7 3.7-8.1 3.4-12.4 10.2-15.9 17.6-0.2 0.4 0.6 1.7 1.1 1.9 4.4 1 13.3 1 17.2 0 1.8-0.5 3.9-1.1 5-2.4 3.2-3.4 5.9-7.3 9.3-11.6zm75.1 31.1c-3.9 5.5-7.9 10.9-11.6 16.5-2 2.9-4.1 6-5.5 9.2-0.7 1.6-0.2 3.8-0.2 5.7 1.2-0.7 2.5-1.4 3.8-2.1 0.3-0.2 0.9 0.1 1.1-0.1 8.2-6.4 16.4-13 20.6-22.9 1.1-2.6 1.8-5.5 2-8.3 0.2-2.5-2.4-3.8-4.5-2.5-1.8 1.2-3.4 2.6-5.7 4.5zm21.9 38.9c-0.2 1.4-0.6 2.7-0.5 4 0.2 3.1 1.7 3.9 4.5 2.1 5.2-3.5 10.6-7 15.5-11 3.7-3 7-6.7 10.3-10.2 0.8-0.9 1.6-2.9 1.2-3.6-0.9-1.4-2.6-2.7-4.1-3-1.5-0.3-3.4 0.4-4.9 1.1-9.7 3.9-15.9 11.6-22 20.6zm-59.1-60.2c-2.8-1-4.9-0.7-7.6 1.2-7 4.8-12 11.3-16.8 18-1.5 2.2-2.7 4.6-3.6 7-0.7 1.6 0.3 3 2.1 2.3q1.3-0.5 2.6-1 1.3-0.5 2.6-1.1 1.3-0.6 2.6-1.2 1.3-0.6 2.5-1.2c5.5-2.8 9.4-7.5 13.1-12.1 2.3-2.8 5.9-6.2 2.5-11.9zm105.5 76.1c3.6 0 5.2-3.2 7.7-4.8 5.2-3.4 7.1-8.7 9.9-13.5 0.6-1 0.8-2.1 1.2-3.1-1.3-0.2-2.7-0.7-4-0.5-1.2 0.3-2.5 1.1-3.4 2-4.5 4.8-9 9.5-13.2 14.6-1 1.2-2.6 3.8 1.8 5.3zm52.4-6.1c0.9-0.9 1.8-1.7 2.6-2.6 1.3-1.6 2.8-3.2 3.7-5.1 0.5-1.2 0-2.9-0.1-4.4-1.3 0.1-3.7-0.2-3.8 0.2-1.1 4-5.9 6.9-2.4 11.9zm204.3-127.8c2.1 1.8 1 3.1-0.2 4.5-3.9 4.7-9.4 6.5-14.6 8.8-2.7 1.2-5.5 2.4-8.4 3-1.9 0.5-4.4 0.7-6.1-0.1-3.4-1.8-2.9-6.7 0.9-8.9 1.4-0.8 3.2-1 4.8-1.4 5-1.2 10-2.3 14.9-3.5 2.8-0.7 5.4-1.6 8.7-2.4zm-30.5 49.9c8-0.1 14.1 3.6 20 7.3 3.3 2 3.5 5.8 3.2 9.5-0.2 1.8-1 1.7-2.3 0.9-1.5-0.8-3.4-1.1-4.5-2.2-4.4-4.4-10.4-4.5-15.9-5.8-1.8-0.4-3.7-0.6-5.5-1.3-2.7-0.9-3.2-3.4-1-5.4 1.6-1.3 3.6-2 6-3zm14.7-12.2c-4.2 0.8-7.7 1.7-11.2 2.4-1.9 0.4-4 0-4.5-1.9-0.3-1.1 0.7-2.9 1.6-4 2.9-3.5 7-4.8 11.3-5 4.5-0.1 8.9-0.4 13.1-2.3 1.5-0.6 3.5 0.1 5.3 0.2-0.9 1.8-1.2 4.1-2.6 5.3-3.5 3.1-7.7 4.8-13 5.3z"/>
</svg>