<svg version="1.2" xmlns="http://www.w3.org/2000/svg" viewBox="0 0 534 534" width="534" height="534">
	<title>arrow-17</title>
	<style>
		.s0 { fill: #f8961e } 
	</style>
	<path class="s0" d="m276.3 155.1c4.4 3.8 9.4 6.7 12.4 11.1 4.5 6.5 4.6 12.6-6 22.1-9.1 8.2-19.5 14.7-31.5 18.2-8.2 2.4-23.9 1.2-29.7-9.4-1.4-2.6-2.7-2.1-3.6 0.7-2.4 7.6-6.1 15-7 22.7-1 8.4 0.3 17.2 1 25.8 0.2 2.1 1.8 4.1 2.7 6.2 1.7-1.2 3.8-2 5.1-3.5 10.5-12.1 23.9-18 39.5-18.1 7.8-0.1 14.2 4.5 17.4 11.7 0.9 2-0.7 6.4-2.6 8.2-9 8.2-18.8 15-30.5 19.2-10 3.6-18.5 2.9-26.1-4.9-0.4-0.5-1.1-0.7-1.7-1-0.5 1.4-1.4 2.8-1.4 4.3 0 6.6-1 13.1 1 19.9 2.8 9.5 4.4 19.3 10.1 27.7 2.5 3.6 3.3 3.8 6 0.4 8.8-11.1 19.1-20.3 32.4-25.7 7.1-2.9 13.4-0.2 17.7 7.1 7.1 12.1 6.3 14.5-3.3 25.2-7.4 8.3-17 12.2-26.9 15.1-7.7 2.3-15-1.3-20.9-6.4-2.8-2.4-3.3-1.8-4 1.3-1 5-2.7 10-3.5 15q-1.3 7.8 3.6 14.4c4.6 6.2 8.7 12.7 13.1 19 3.5 5 9.4 6.5 15.3 3.8 5.1-2.4 10-5.3 15.2-7.6 2.3-0.9 5.1-1.5 7.4-1 1.4 0.3 3.6 3.5 3.3 4.5-4 10.6-8.5 21-12.7 31.5-3.5 8.8-7.4 17.3-14.4 24-4.9 4.8-7.6 4.6-11.3-1.1-3.3-5.1-6.3-10.5-9.7-15.5-4.7-7.1-9.8-13.9-14.6-21-0.7-1.1-1.1-3.5-0.4-4.4 0.8-0.9 2.9-0.9 4.5-1.1 1-0.2 2.1 0.2 3-0.1 3.3-0.9 6.6-1.9 9.8-3-1.4-3-2.2-6.7-4.4-9.1-6.8-7.3-11.7-16-13.7-25.5-1.3-6.3-0.1-13.8 2.2-20 2.9-8 2.7-14.6-2.4-21.4-5.9-8-6.6-17.7-8.6-27-1.8-8.5-1.9-16.6 1.1-24.9 0.6-1.7-0.2-4.3-1.1-6.1-7-13.6-5.5-27.6-2.9-41.9 1.9-10.6 8-19.1 12.4-28.5 3.9-8.3 5.4-17.8 9-26.3 8.8-20.2 24.1-34.9 43.3-45 12.6-6.6 26.2-11.4 39.6-16.5 4.8-1.8 10-2.8 15.1-3.2 2.1-0.2 4.3 2.2 6.4 3.5 0.1 0.1-0.7 2.3-1.2 2.3-16.2 0.4-31.2 6.2-45.5 12.7-11.4 5.2-21.4 13.5-31.8 20.8-12.1 8.6-16.7 22.5-23.6 34.7-0.8 1.5-0.4 3.6-0.5 5.3 1-0.9 1.9-2 2.9-2.9 10.9-9.1 22.8-16.4 37.3-17.8 2.4-0.2 5 0.8 7.7 1.5zm-37 45c3.5 0.2 7.1 1.3 10.3 0.5 10.5-2.7 19.6-8.5 27.7-15.5 2.9-2.6 5.5-6.4 6.5-10.1 2.4-8.6-9.9-18.2-20.2-15-13.3 4.1-25.2 11.3-35.4 20.8-1.6 1.5-2.6 4.3-2.8 6.7-0.5 6.3 4.3 10.8 13.9 12.6zm25.7 126c3.2-2.7 6.5-5.3 9.4-8.2 6.4-6.4 6.3-12.8-0.3-19.2-1.6-1.6-4.7-3.4-6.5-2.9-4.4 1.4-8.9 3.4-12.6 6.3-6.1 4.8-11.6 10.4-17.2 15.8-2.4 2.4-6.6 4.4-4.8 8.7 0.2 0.6 5.4-0.9 8.3-1.1 1.1-0.1 2.4 0.5 3.3 1.2 0.5 0.3 0.7 1.4 0.6 2.1-0.2 1.1-0.7 2.2-1.1 3.4 1.4-0.1 2.8 0.1 4.1-0.3 5.4-1.6 10.8-3.4 16.8-5.8zm-38.5-75.2c-1.7 1.7-3.7 3.2-5.1 5.2-0.6 1-0.8 3.4-0.1 4 3.9 3.8 8.8 8.2 14.3 5.8 10.7-4.7 21-10.5 31.1-16.3 3.9-2.2 3.7-7.1-0.1-9.8-2.4-1.7-5.7-3-8.5-2.9-11.9 0.5-22.7 4.1-31.6 14zm17.1 171.3q1.7 0.8 3.4 1.6c-0.7-2.1-1.2-4.3-2-6.3-0.4-0.7-1.4-1.2-2.1-1.9 0.2 1.8 0.5 3.6 0.7 6.6z"/>
</svg>