<svg version="1.2" xmlns="http://www.w3.org/2000/svg" viewBox="0 0 534 534" width="534" height="534">
	<title>box-2</title>
	<defs>
		<filter x="-50%" y="-50%" width="200%" height="200%" id="f1"> <feGaussianBlur stdDeviation="1"/> </filter>
	</defs>
	<style>
		.s0 { filter: url(#f1);fill: #f9844a;stroke: #000000;stroke-linecap: round;stroke-width: 7 } 
	</style>
	<path class="s0" d="m52.2 118.1c23.1 0 46.3-0.5 69.4 1 12.9 0.8 25.2 2 38.2 2 17 0 33.9-0.9 50.9-1 44.8-0.3 89.3 5.2 134 5.9 27.9 0.5 54.9-0.8 82.5-3.9 8-0.9 16.2-0.5 24.2-1.5 3.6-0.5 7.1-0.5 10.7-0.5h0.2c5.4 0 6.2 0 5.6 5.6-3.6 36.3-10.7 71.4-10.7 108 0 22.1 0.9 44.3 0.9 66.4 0 20-3 40.4-4.7 60.4-0.5 5.7-0.2 11.5-0.2 17.2 0 9.3-1.2 19.3 0.7 28.4 1.1 5-7.1 2-10.5 2-7.6-0.2-15-2.3-22.3-3.6-15.3-2.8-30.7-5.1-46.1-6.8-29.9-3.5-60.5-4.1-90.5-5.4-22.6-1-45.2 0.4-67.8-0.7-26.9-1.3-53.4-3.6-80.3-6-29.4-2.6-58.9-7.5-88.5-7.5-2 0-7 0.9-8.2-1.1-1-1.7-0.5-4.2-0.5-6.1 0-6.8-1.2-13.5-2-20.3-1.7-14.1-1.4-28.5-2.3-42.8-1.4-23.9-4.5-47.9-7.1-71.7-1.5-13.9 0-27.9-1.1-41.8-1.5-17.3-0.6-35.3 3.5-52.2 2.7-11.3 6.4-22.1 10.5-33 0.8-2.3 1.5-8.2 1.5-3m30 22c23.1 0 46.3-0.5 69.4 1 12.9 0.8 25.2 2 38.2 2 17 0 33.9-0.9 50.9-1 44.8-0.3 89.3 5.2 134 5.9 27.9 0.5 54.9-0.8 82.5-3.9 8-0.9 16.2-0.5 24.2-1.5 3.6-0.5 7.1-0.5 10.7-0.5h0.2c5.4 0 6.2 0 5.6 5.6-3.6 36.3-10.7 71.4-10.7 108 0 22.1 0.9 44.3 0.9 66.4 0 20-3 40.4-4.7 60.4-0.5 5.7-0.2 11.5-0.2 17.2 0 9.3-1.2 19.3 0.7 28.4 1.1 5-7.1 2-10.5 2-7.6-0.2-15-2.3-22.3-3.6-15.3-2.8-30.7-5.1-46.1-6.8-29.9-3.5-60.5-4.1-90.5-5.4-22.6-1-45.2 0.4-67.8-0.7-26.9-1.3-53.4-3.6-80.3-6-29.4-2.6-58.9-7.5-88.5-7.5-2 0-7 0.9-8.2-1.1-1-1.7-0.5-4.2-0.5-6.1 0-6.8-1.2-13.5-2-20.3-1.7-14.1-1.4-28.5-2.3-42.8-1.4-23.9-4.5-47.9-7.1-71.7-1.5-13.9 0-27.9-1.1-41.8-1.5-17.3-0.6-35.3 3.5-52.2 2.7-11.3 6.4-22.1 10.5-33 0.8-2.3 1.5-8.2 1.5-3m30 22c23.1 0 46.3-0.5 69.4 1 12.9 0.8 25.2 2 38.2 2 17 0 33.9-0.9 50.9-1 44.8-0.3 89.3 5.2 134 5.9 27.9 0.5 54.9-0.8 82.5-3.9 8-0.9 16.2-0.5 24.2-1.5 3.6-0.5 7.1-0.5 10.7-0.5h0.2c5.4 0 6.2 0 5.6 5.6-3.6 36.3-10.7 71.4-10.7 108 0 22.1 0.9 44.3 0.9 66.4 0 20-3 40.4-4.7 60.4-0.5 5.7-0.2 11.5-0.2 17.2 0 9.3-1.2 19.3 0.7 28.4 1.1 5-7.1 2-10.5 2-7.6-0.2-15-2.3-22.3-3.6-15.3-2.8-30.7-5.1-46.1-6.8-29.9-3.5-60.5-4.1-90.5-5.4-22.6-1-45.2 0.4-67.8-0.7-26.9-1.3-53.4-3.6-80.3-6-29.4-2.6-58.9-7.5-88.5-7.5-2 0-7 0.9-8.2-1.1-1-1.7-0.5-4.2-0.5-6.1 0-6.8-1.2-13.5-2-20.3-1.7-14.1-1.4-28.5-2.3-42.8-1.4-23.9-4.5-47.9-7.1-71.7-1.5-13.9 0-27.9-1.1-41.8-1.5-17.3-0.6-35.3 3.5-52.2 2.7-11.3 6.4-22.1 10.5-33 0.8-2.3 1.5-8.2 1.5-3"/>
</svg>