<svg version="1.2" xmlns="http://www.w3.org/2000/svg" viewBox="0 0 534 534" width="534" height="534">
	<title>misc-2</title>
	<style>
		.s0 { fill: #f9c74f } 
	</style>
	<path class="s0" d="m209.8 388.4c-11.5-3.9-21.1-9.4-30.2-16.1-16.3-11.9-25.5-27.3-29.1-47-1.4-7.6-1.6-15-1.5-22.4 0.2-11.4 3.3-22.2 7.2-33 7.5-20.3 19.6-37.9 32.6-54.6 9.3-12.1 20.6-23 33.5-31.8 7.9-5.4 15.5-11.4 23.6-16.6 10.6-6.7 21.9-12 35-11 13.9 1 25.1 7.1 34.1 17.6 11.4 13.4 16.8 30 23.1 45.8 2.9 7.2 8.6 14.4 6.4 23.2 4.1 6.1 2.8 13.3 3.9 19.9 1.2 7.4 2 15 1.4 22.4-1.5 18.6-5.1 36.4-15.6 52.6-6.4 9.8-13.9 17.6-23 24.4-6.2 4.6-13.7 5.9-20.7 7.9-6.8 1.9-14.2 1.2-21.3 2.2-10.4 1.5-19.7-3.1-29.6-4.5-13.3-1.9-26.2-6.3-38.1-12.5-13-6.8-27.2-12.9-34.7-27.1-5.5-10.3-5.5-20.9-3.6-32.4 2.9-17.6 10.9-32.5 20.9-46.7 5.2-7.4 9.8-15.3 18.3-20.1 4.5-2.6 8.2-6.8 12.3-10.3 10.8-9.1 22.9-15.3 36.7-18.3 19.3-4.2 40.9-2.7 50.8 16 7.8 4.3 10.8 12.5 15.6 19.2 4.3 6 6 12.9 8.4 19.6 2.7 7.4 4.5 14.8 6 22.4 3.4 17.9 1.5 34.2-11.8 47.6-13.3 13.4-29.8 20.4-47.8 25-14.8 3.9-29.7 3.6-44.6 3.5-3.5-0.1-6.9-1.3-10.3-1.7-0.7-0.1-1.6 1.2-2.4 1.8 0.5 0.6 0.9 1.6 1.6 1.7 5.3 1.4 11.1 1.6 15.8 4 7 3.6 14.7 3.2 21.9 5.1 14.6 4 29.2 3.4 43.5-2.3 9.3-3.6 16.9-9 23.3-17.2 6.9-8.8 13.4-17.6 16.6-28.3 5-16.9 8.7-34.3 6.1-51.7-2.4-16.7-6.1-33.3-14-48.6-3.7-7.3-6-15.4-9.7-22.7-4.4-8.5-10.2-15.9-18.6-21-0.8-0.4-1.4-1-2.2-1.4-22.9-11.6-22.7-8.6-46.8-1.6-5.8 1.7-11 6.3-16 10.3-13.7 10.9-27 22.2-38.9 35.1-13.9 15.1-24.3 32.2-33 50.9-5.4 11.6-6.4 23.8-10.4 35.4 4.1 10.3 0.3 21.6 4.5 32.3 7.3 18 19.4 30.7 36 40.5 13.1 7.8 27 12.2 41.9 14.7 11.5 1.9 22.9 4.4 34.4 3.4 20.9-1.9 41.5-6.5 58.2-19.6 14.9-11.7 27.5-26.4 35.2-44.2 5.8-13.7 10.7-27.6 13.3-42.6 1.9-10.6 2-21.2 1-31.5-0.7-7.1 0.9-15.6-5-21.8 1.4-7-2.6-13.1-3.7-19.6-0.2-1.2-0.5-2.3-1-3.3-6.5-12.7-11.9-26.1-19.9-37.8-4.9-7.1-10.3-16.3-21.6-15.8-0.7 0-1.7-0.7-2.2-1.4-3.6-4.4-8.6-5.4-13.9-6.6-11.5-2.8-21.5-3.4-31.7-0.4-21 6.3-40.1 15.8-56.5 30.6-4.1 3.7-8.9 6.6-13.5 9.8-0.5 0.4-1.2 0.3-1.9 0.5 0.1-0.9 0-1.9 0.4-2.5q0.7-0.7 1.4-1.5 0.7-0.8 1.5-1.5 0.7-0.7 1.4-1.5 0.8-0.7 1.5-1.4c15.6-14.3 32.5-26.2 51.7-35.5 14.7-7.1 29.8-8.6 45-6.5 8.5 1.2 17.2 6.5 24.3 12 8.5 6.6 16.4 14.3 22.2 23.7 1.6 2.6 2.4 5.7 3.6 8.6 0.5 1.3 0.8 3 1.7 3.9 9.1 7.8 11.1 19.4 14.5 29.8 1.7 5.6 5.3 11.1 4.9 17.4-0.3 6.1 4.4 11.7 1.3 18.5-1.2 2.6 1.4 6.7 1.5 10.2 0.4 20.4-4 39.6-12 58.6-7.4 18-17.6 33.6-31.2 47-8 7.9-17.6 14.6-27.5 20.1-6.8 3.7-15.5 4.1-23.2 6.3-15.7 4.6-31.5 5.3-47.5 1.9-7.1-1.6-14.4-2.4-21.5-3.9-3.9-0.8-7.6-2.3-12.3-3.6zm92.2-220.6l1.7 0.2c-0.5-0.4-1.1-0.7-1.7-2l-1.7-0.2c0.6 0.4 1.2 0.8 1.7 2zm-13.8 82.2c-2.2-7.7-8.4-12.1-14.9-14.5-6.7-2.4-13.8-5.7-21.4-3.9-12.3 2.9-23.6 8.2-34.3 15-13 8.3-23.3 19.3-33.4 30.3-5.6 6-10 14-11 22.1-2.2 18.9 6.5 33.5 24.9 41.4 9.9 4.2 20.6 6 31.1 7.1 15.7 1.7 31.4 0.2 46.5-5.2 6.5-2.3 12.8-4.8 19.3-6.8 15.5-4.8 25.8-15.1 29.9-30.3 2.1-8 0.6-17 1.2-25.4 0.5-8.2-2.3-15.7-5.3-22.8-5-11.5-10.7-22.7-17.9-33.2-8.1-12.1-19.9-16.2-32.9-18-18.5-2.6-34.4 5.5-48.7 15.5-19.3 13.5-33.7 31.8-46.3 51.6-0.3 0.6 0.1 1.6 0.2 2.5 0.7-0.4 1.4-0.7 2-1.1 1-0.7 2.3-1.3 3.1-2.3 3.3-4.1 6.2-8.6 9.9-12.4 8.7-9.2 18.8-16.7 30-23.1 12.9-7.4 26-13 41-12.3 14.1 0.7 25.1 7.5 32.1 19.9 7.9 13.9 7.5 18 7.1 33.4-0.3 9.9-2.6 18.8-7.5 27.4-10.3 18.2-25.8 27.2-46.4 28.2-8.6 0.5-15.8-3.5-23.6-5.3-9.3-2.2-16.1-7.2-22-13.9-5.1-5.8-10.2-12.6-7.4-20.7 2.8-8.5 6.5-17.3 11.8-24.4 8.5-11.2 19.5-19.6 34.2-21.9 9.8-1.5 18.7-0.6 26.3 6.5 6.1 5.7 10.3 12.2 12.5 20.6 3.6 14.2-0.8 25.3-14 31.4-2.6 1.2-5 2.6-7.7 3.6-8.4 3.4-17.2 4.5-26.1 3.7-6.1-0.6-13.1-5.8-13.2-10-0.2-7-0.4-13.9 3.4-20.7 5.1-8.9 11.5-12.9 20.6-9.7 2.2 0.8 3.6 4.2 5.3 6.4-2.1 0.9-4.4 2.8-6.2 2.5-10.5-1.9-10.5-2.1-14.6 7.3-0.6 1.3-0.9 2.7-1.2 4.1-0.4 1.8-1.5 3.9-0.8 5.2 0.8 1.7 2.9 3.1 4.7 3.8 12.8 4.6 29.7 1.5 39.1-8.8 3.1-3.4 4.9-7 5-11.8 0.4-9.9-5-16.9-11.6-22.7-3.8-3.4-9.9-6.4-14.7-6-7.7 0.7-15.9 3.6-22 8.5-6.9 5.7-12.8 12.9-18.4 20-6 7.7-4.7 20.7 2.3 27.5 14 13.6 30.6 20.1 50 15.3 9.3-2.2 18.3-6.5 24.3-14.6 3.9-5.2 7.1-11.1 9.7-17.1 1.7-3.9 1.8-8.5 2.4-12.9 1.5-10-2.1-19-6.4-29zm41.5-98.8c-0.7-0.9-1.3-1.9-2.1-2.7-0.1-0.1-0.9 0.4-1.3 0.6 0.8 1 1.6 2 3.4 2.1zm-12.9-5.5c1 0.2 1.9 0.5 2.9 0.7 0.1 0 0.2-0.8 0.4-1.2-0.8-0.1-1.6-0.3-3.3 0.5zm-3.7-1.9l1.1 0.8c0-0.6-0.1-1.1-1.1-0.8z"/>
</svg>