<svg version="1.2" xmlns="http://www.w3.org/2000/svg" viewBox="0 0 534 534" width="534" height="534">
	<title>misc-4</title>
	<style>
		.s0 { fill: #90be6d } 
	</style>
	<path class="s0" d="m237.4 109c-3-0.1-3.3-0.6-2.7-3.7 0.2-1.4 0-2.9 0-4.3 0.1-1.2-0.4-2.5 1-3.3 0.1-0.1 0.3-0.4 0.3-0.4-1.8-2.8 0.4-5.5 0.1-8.2-0.1-2.1 1.1-2.6 2.9-1.6 0.5 0.3 1.1 0.8 1.6 0.8 2.7-0.3 4.9 0.9 7.2 2 4.7 2.5 9.5 4.8 14.3 7.4 2.5 1.3 4.9 3.2 7.5 4.4 3.3 1.5 6.1 3.5 9 5.6 5.7 4 10.3 9.2 15.9 13.2 2 1.5 3.8 3.7 6.6 4.1 0.3 0.1 0.6 0.6 0.9 0.9 2.4 2.5 5.1 3.3 8.9 3.3 2.4-0.1 4.8 0.3 7.3 0.4 2.8 0.2 5.5-0.2 8.1-1.2 0.6-0.3 1.3-0.1 2-0.1 3.1-0.2 6.3-0.3 9.4-0.7 1.7-0.3 3.3-1.1 5-1.6 0.5-0.2 1-0.4 1.5-0.3 3.7 0.7 7.2-0.9 10.7-1.5 3.2-0.5 6.4-1.1 9.6-1.9 0.4-0.1 1 0.1 1.2-0.1 2.3-1.8 5-1.5 7.6-2 3.9-0.9 7.8-1 11.8-1.3 2.4-0.2 3.7 1.9 5.7 2.1 0.1 0 0.1 0.6 0 0.8-1.7 3.3-3.7 6.3-6.6 8.6-0.6 0.5-1.4 0.8-2.1 1.2-0.5 0.3-1.3 0.6-1.3 0.9 0 2.4-2.1 3.3-3.4 4.6-3.3 3.5-6.8 6.8-9.3 10.8-1.3 2-2.4 4.1-4.3 5.6-0.9 4.4-5.4 6.7-6.5 11-1.7 1.1-1.7 3.3-2.7 4.8-1 1.6-2.3 3.1-3.3 4.7-1.8 3-3.8 5.9-5.1 9.2-0.6 1.4 0.1 2.4 1.9 2.4 3 0.1 6-0.3 8.8 1.3 1.9-1 3.6-0.7 5.1 0.7 1.8-1.3 3.9-0.1 5.7-0.7 2.7-1 5.4-1.4 8.2-1.3 1 0.1 2 0.5 3 0.6 0.9 0.1 1.8 0.2 2.7 0.1 1.1-0.2 2.2-0.6 3.4-0.6 2.6-0.1 5.2-0.6 7.6-1.7 0.5-0.2 1-0.4 1.5-0.4 3 0.1 5.9-0.5 8.9-1.2 1.5-0.3 3.3 0.5 5 0.5 3.1 0.2 6.1-0.3 9.1-1.2 1.8-0.6 3.8-0.6 5.7-0.7 1.8-0.1 3.5 0 5.3 0 1.8 0 3.6-0.1 5.4 0 1.6 0 3.4 0.4 4.7-0.2 2.3-1.1 4.1 0.3 6.1 0.2 2.3-0.1 4.5 0 6.7 0q0.7 0 1.3 0c1.8-0.1 2.8 0.4 4.2 1.4 0.7 0.5 1.8 0.4 2.7 0.6 0.5 0.1 1.2 0.2 1.4 0.5 0.1 0.4 0 1.1-0.3 1.4-4.4 4.3-9.1 8.3-13.2 12.8-2.4 2.5-5.5 4.2-7.3 7.5-1 1.9-3.9 2.9-5 4.8-1.2 2.1-3.4 3.2-4.5 5.1-1.1 1.9-2.3 3.5-4.2 4.9-1.7 1.2-2.9 3.2-4.3 4.8-0.4 0.4-0.9 0.6-1.3 0.8-0.5 0.2-1.1 0.3-1.4 0.6q-3.3 3.8-6.4 7.7c-0.6 0.7-1 1.6-1.7 2.3-0.9 0.9-2.2 1.4-2.4 2.9-0.1 0.5-0.9 1.2-1.4 1.1-1.5-0.1-1.1 0.9-1.2 1.7-0.2 0.9-0.2 2.2-0.7 2.7-2.7 2.3-3.3 5.8-5.2 8.5-0.7 1.2-1.3 2.4-2.1 3.5-1 1.4-1 2.5 0.3 3.6 4.5 3.8 9.4 7 15 8.8 0.7 0.2 1.3 0.6 2 0.9 8 3.1 15.5 7.4 23.6 10.4 3.1 1.2 5.8 3.2 8.8 4.6 3.5 1.7 7.3 2.9 10.6 4.9 3.2 2 6.7 3.2 10.1 4.6 3 1.2 6 2.2 9 3.2 1.6 0.5 3.2 0.9 4.8 1.3q-0.2 0.6-0.4 1.2-0.2 0.5-0.5 1.1c0.4-0.1 0.8-0.3 1.1-0.2 1 0.1 1.8 0.4 2.8 0.6 1 0.2 1 0.6 0.4 1.3-1.6 1.9-3 3.9-6.2 3.5-2.3-0.3-4.7 0.3-7 0.6-0.4 0-1 0.2-1.1 0.4-0.2 1.4-1.2 1.4-2.3 1.6-0.7 0.1-1.2 1-1.7 1.5-0.6 0.8-1.1 1.4-1.8 0.3-0.6-0.9-1.1-0.2-1.2 0.2-0.4 1.3-1.4 1.7-2.7 2.2-1 0.3-1.6 1.9-2.4 2.8-0.2 0.2-0.6 0.3-0.9 0.2-2.8-0.1-3.3 0.1-4.4 2.1-0.1 0.3-0.9 0.6-1.1 0.4-1.1-0.9-1.8 0-2.8 0.4-1.8 0.8-3.1 2.7-5.3 2.5-0.4 0-0.9 0.6-1.3 0.9-1.3 1.1-2.1 2.9-4.3 2.5-0.3-0.1-0.7 0.5-1 0.8-2.5 3-5.8 4.8-9.1 6.6-2.8 1.5-5 3.9-7.8 5.5-3.7 2.2-6.2 5.8-9.6 8.1-2.6 1.8-4.2 4.3-6.8 6-2 1.3-3.2 3.9-3.4 6.4-0.2 3.1-1.5 6.2-0.2 9.5 0.5 1.5 0.7 3.6-0.5 5.4-0.3 0.5-0.2 1.5 0 2.3 1 3.5 0.2 7.4 1.7 10.9 0.7 1.6 0.6 3.5 0.9 5.3 0.7 4 0.9 8.1 2.5 12 0.5 1.4 0.7 3.1 0.8 4.6 0.1 1.9 1.1 3.4 2.1 4.8 1.7 2.7 1.2 5.6 1.2 8.5 0 0.2-0.5 0.5-0.9 0.5-3.3 0.8-5.2-1.7-6.2-3.8-1.5-3.3-3.9-5.6-6.3-8-0.5-0.5-1.2-0.7-0.7-2 0.6-1.2-1-1-1.6-0.6-0.9 0.6-1 0.8-1.6-0.4-0.9-1.6-2.5-2.7-4.5-3.2-1.5-0.4-2.9-1-4.2-2.2-2-1.9-4.5-3.4-6.9-5-0.2-0.2-0.6 0-0.9-0.1-2.2-0.3-4.3-0.4-6.1-2.2-0.9-0.8-2.6-0.8-3.9-1.1-0.4-0.1-1 0.1-1.2-0.2-2.3-2.5-6-2.5-8.4-4.8-0.7-0.7-2.2-0.6-3.3-0.8-1.9-0.3-3.8-0.5-5.6-0.9-2.4-0.6-4.9-1.2-7.2-2-2.5-0.9-2.9-0.7-3.1 1.9-0.2 4.3-0.2 8.5-0.7 12.8-0.3 2.5-1.1 4.9-0.1 7.5-1.3 1.2-1.2 2.8-1.2 4.4 0.1 2.5 0.1 5.1 0 7.6 0 6.1-1.4 11.9-3.4 17.6-0.3 0.9-1.5 2-2.3 2.1-1.1 0-2.7-0.6-3.3-1.4-1.8-2.5-3.8-4.4-6.5-6-2-1.1-3.6-2.9-5.8-3.8-0.3-0.2-0.5-0.6-0.6-0.9-0.8-1.4-1.8-2.3-3.6-2.5-3.7-0.3-6.8-1.7-8.4-5.4-0.4-0.8-1-1.4-2-1.2-1.7 0.4-2.4-0.7-3.3-1.7-0.5-0.4-0.9-1.1-1.4-1.3-4.8-1.7-8.3-5.4-12.3-8.3-1-0.7-2-1.5-3-2.4-1.2-1-2.4-2.1-2.1-4.1 0.3-1.5-0.5-0.3-1-0.2-1 0.1-2.1 0.1-2.9-1-1.1-1.4-3.1-2.2-2.8-4.5 0.1-0.6-0.7-1.7-1.7-0.4-0.1 0.2-0.9 0.1-1.1-0.1-2.2-1.9-4.5-3.8-6.6-5.9-0.7-0.7-1.1-0.7-1.7 0.1-0.1 0.2-0.6 0.4-0.6 0.7-0.3 3.5-2.4 6.6-2.9 10.1-0.4 2.4-1.4 4.8-2.4 7-1 2.3-2.4 4.4-3.8 6.5-0.3 0.5-0.4 2.6-2 0.9-0.6 0.7-1.2 1.4-1.7 2.1-0.4 0.5-0.5 1.2-0.7 1.7-0.1 0.3-0.3 0.5-0.4 0.7-0.1-0.3-0.2-0.6-0.3-0.9q-0.2-0.4-0.4-0.9c-0.1 0.3-0.2 0.6-0.2 0.9 0 0.5 0 1.1 0.3 1.5 0.1 0.3 0.9 0.5 1 0.4 0.9-1 2.3-1.5 2-3.2 0-0.3 0.6-0.6 0.9-1 0.1 0.5 0.5 1 0.4 1.4-0.2 0.9-0.5 1.8-1 2.5-2.5 3.9-5 7.7-7.5 11.6-2 3.1-4.6 5.9-6.2 9.4-0.7 1.5-2.1 2.7-3.2 4-0.3 0.3-0.6 0.6-0.7 1-1.4 3.2-3.9 3.7-6.4 1.3-1.1-1-2.2-2.1-3.2-3.2q-0.2-0.3-0.4-0.5-0.2-0.3-0.3-0.6-0.1-0.3-0.2-0.6-0.1-0.2-0.2-0.6c-0.2-1.5-0.1-1.5-1.6-1.2-0.8 0.2-1.6 0.5-1.9-0.9-0.1-0.7-1.5-1.1-2.2-1.7-3-2.5-5.6-5.5-8-8.6-1.7-2.2-4.3-3.7-5.6-6.3-1.8-3.8-5.3-6.4-7.2-10-1.6-3.2-4.3-5.5-5.6-8.7-0.2-0.7-1-1.1-1.6-1.7-1.4-1.4-2.8-2.8-4.2-4.2-2-2.2-2.8-2.3-5-0.5-1.9 1.6-3.7 3.2-6.2 3.6-0.4 0-0.8 0.2-1.1 0.5-3.3 3-7.4 4-11.5 5.4-4.1 1.3-8.2 3.2-12.1 5.3-2.9 1.6-5.5 3.8-8.3 5.7-0.4 0.3-0.8 0.8-1.3 0.9-3.4 0.6-5.9 2.9-8.8 4.5q-0.3 0.2-0.6 0.4-0.4 0.2-0.7 0.4-0.3 0.2-0.7 0.3-0.3 0.2-0.7 0.4c-2.1 1-2.1 1-3-1.3-0.1-0.1-0.1-0.5-0.2-0.5-2.4-1.5-1.6-3.8-1.9-6-0.4-3.9 0.8-7.5 2-11.1 1.5-4.5 3.9-8.5 6.3-12.4 0.6-1 1.2-2 1.7-3 0.7-1.5 1.5-2.8 3.3-3 0.2-0.1 0.5-0.1 0.6-0.3 1.2-2.7 4.1-4.6 4.2-7.9 0-0.6 0-1.3 0.3-1.8 1-1.6 2.2-3.2 3.3-4.7 2-2.8 2.8-6.2 3.7-9.5 0.3-1.4 0.9-2.7 1.2-4.1 0.6-2.2-0.9-4.2-3.1-4.4-3.9-0.3-7.8-0.5-11.7-0.6-1.6-0.1-3.2-0.6-5 0.4-1.4 0.9-3.6 0.2-5.4 0.6-1.7 0.3-3.4 0.4-5.1 1.4-1.2 0.9-3.2 0.6-4.9 0.9-1.9 0.2-3.8 0.5-5.7 0.6-2.3 0.2-4.5-0.4-6.9 0.5-2 0.8-4.8 0.1-7-0.6-2.8-0.8-5.6-0.4-8.4-0.5-3.1-0.1-3.8-0.9-4-4-0.5-5.3 0.9-9.9 4-14 0.9-1.2 1.6-2.5 3.4-2.8 1.1-0.2 2-1.1 2-2.6 0-0.1 0.7-0.3 1.1-0.5 0.5 1.9 1.2 0.8 1.4 0 0.4-1.3 1.4-1.9 2.3-2.7 1.6-1.7 3.1-3.6 4.7-5.4 0.4-0.4 0.7-0.9 1.2-1.1 4.3-1.5 5.5-6 8.6-8.7 0.6-0.6 1.1-1.5 1.9-1.8 1.6-0.5 1.7-3.1 3.9-2.6-0.1-0.4-0.1-1.1-0.4-1.3-2.2-1.2-3.8-3.9-7-3.2-0.2 0-0.6 0.1-0.6 0-1.8-2.6-5-2-7.4-3.1-4.1-1.9-8.5-3.1-12.4-5.5-1.2-0.8-2.5-1.6-4.1-1.4-0.5 0-1.2-0.4-1.7-0.7-3.5-1.8-6.6-4-9.8-6.3-3.2-2.4-5.9-5.3-9-7.8-2.6-2.1-5.6-3.7-8.6-5.1-2-1-3.5-2.5-5-4-0.2-0.2-0.4-1.1-0.2-1.3 0.9-1.1 1.9-2 3-3 0.3-0.4 0.7-0.7 1.1-1 0 0.4-0.1 0.9-0.2 1.3 0 0.2 0.3 0.6 0.4 0.6 0.6 0 1.4 0 1.9-0.2 2-1 3.8-2.1 5.8-3 1.2-0.6 2.6-1.7 4.1-0.2 0.2 0.2 1.3-0.4 2-0.6 3.5-1.4 6.9-3 10.9-2.8 1.4 0.1 2.8-1.1 4.2-1.7 1.2-0.6 2.4-1.2 3.7-1.7q1-0.4 2.1-0.8 1.1-0.4 2.2-0.8 1-0.4 2.1-0.8 1.1-0.5 2.2-0.9c0.8-0.2 1.7-0.2 2.4-0.5 1.6-0.8 3.3-0.8 4.9-1.9 2.7-1.7 5.9-2.6 9.2-2.8 0.6 0 1.1-0.3 1.7-0.5-0.4-0.5-0.7-1-1.1-1.5-0.2-0.4-0.6-0.7-0.9-1-2.4-2.4-4.9-4.7-7.2-7.3-1.6-1.7-2.7-3.7-4.2-5.6-0.7-1-1.6-2-2.6-2.7-2.7-2.1-4.9-4.6-6.7-7.6-0.8-1.3-1.7-2.5-2.7-3.5-3.4-3.5-6.1-7.4-8.6-11.5-1.4-2.2-3.1-4.3-4.6-6.4q-4.5-6.2-9-12.3c-0.3-0.5-0.7-1-0.9-1.6-0.4-1.3 0.8-3 1.9-2.4 2.2 1.2 4.5 0.5 6.8 0.6 4.1 0.1 7.7 1.9 11.3 3.3 2 0.7 4 1.3 5.5 3.1 0.4 0.6 1.9 0.5 3 0.6 3.7 0.1 7.1 2 11 1.7 3-0.2 6 0.5 9 0.6 1.5 0 3.1 0.6 4.4-0.6 0.2-0.2 0.7-0.2 1 0 2.3 1.3 4.9 1 7.4 1.4 3.1 0.4 6.1 1.2 9.2 1.2 0.7 0 1.5-0.1 2.3 0 1.8 0.4 1.4 0.4 1.4-1.4 0-3.2-2.7-5.2-3.1-8.1 0-0.2-0.2-0.4-0.3-0.5-2.8-2-4.2-4.9-5.1-7.9-0.9-2.8-3.1-5.3-2.6-8.6 0.2-1 0.4-2.3-1.2-2.4-0.9-3-2.9-5.6-2.8-8.9 0.1-1.5-0.1-3.1 0.1-4.7 0.1-1.3-0.1-2.7-0.1-4.1 0-1.3 0.2-2.5-1-3.6-0.7-0.5-0.8-1.9-0.9-2.9-0.3-2-0.5-4-0.7-6 0-0.4-0.1-0.7 0-1 1-3.3-0.4-6.5-0.1-9.8 0.1-1.1-0.8-2.4-0.5-3.4 0.7-2.2 0.1-3.9-0.7-5.9-0.3-0.9 0-2.3 0.4-3.4 0.7-2.1 0.8-2 2.5-0.8 0.7 0.5 1.6 0.5 2.4 0.8 1.1 0.3 2.4 0.3 3.2 0.9 4.2 3.5 9.1 6 13.5 9.2 3.1 2.2 6.5 3.9 9.7 5.8 4.1 2.3 7.4 5.8 11.7 7.9 2.3 1.1 4.5 2.5 6.7 3.7 2.1 1.1 4.1 2.5 6.2 3.8 4.1 2.5 8.2 5 12 8 0.5 0.4 1.3 0.4 2 0.6-0.1-0.7-0.1-1.5-0.4-2.3-0.3-0.9-1.1-1.8-1.3-2.8-0.2-1.9 1.3-3.8 0-5.7-0.1-0.1-0.1-0.3 0-0.4 1.7-1.7 0.3-3.4 0-5.2-0.2-1.4-1.1-2.8-0.1-4.5 0.4-0.6 0-1.9-0.1-2.9-0.1-1.8-0.9-3.8-0.4-5.4 1.6-5.5 2-11.1 3.3-16.6 0.2-1.1 0.7-2.1 2-2.5 0.7-0.3 1-0.6 1.3 0.4 0.3 1 1 1.5 2 1.3 4.4-0.8 7.6 1.9 11.1 3.6 3 1.4 5.7 3.6 8.6 5 3.2 1.5 6 3.4 8.8 5.5 3.6 2.8 7.5 5.4 11.3 8.1 0.9 0.6 1.5 1.5 2.4 2.3 0.1 0.1 0.6 0.2 0.8 0.1 0.2-0.2 0.4-0.7 0.3-0.9-1.2-2.4-1.7-4.9-2.2-7.5-0.9-4.5-0.6-9 0.2-13.4 0.1-0.3 0.8-0.5 1.1-0.8 0.3-0.3 0.6-0.7 1.1-1.2 0.1-0.3 0.2-0.5 0.2-0.7zm-85.3 292.2c3.3-1.4 6.7-2.7 9.9-4.3 4.4-2.3 9.1-4.2 12.8-7.7 1.1-0.9 2.5-1.6 4-0.3 0.7 0.5 1.6 1.2 2.6 0.4 0.7-0.6 1.5-1.2 2.3-1.7 0.5 0.7 1 1.5 1.6 2.2 1.1 1.2 2.3 2.2 3.3 3.3 2.2 2.4 4.6 4.5 6.3 7.1 2.7 3.9 4.8 8.1 7.8 11.8 1.5 2 2.4 4.4 4.3 6.2 1 1.1 1.7 2.6 2.4 4 0.7 1.7 4 5.8 5.5 6.7 1.2 0.8 2.4 1.8 3.5 2.7 2.6 2.1 5.1 4.3 7.8 6.3 0.3 0.3 1.5 0.4 1.7 0.1 1.3-1.8 2.3-3.7 3.6-5.5 2-2.8 4.2-5.6 6.3-8.4 0.2-0.2 0.5-0.2 0.7-0.4 0.1 0.3 0.3 0.7 0.2 0.9-0.7 1.2-1.3 2.4-2.2 3.4-0.7 0.8-0.1 1 0.2 1.2 0.4 0.2 1.3 0.1 1.3-0.1 0.6-2.3 3.2-4.3 1.5-7.2-0.2-0.2 0.1-0.7 0.3-1.1 2.6-4 4.7-8.2 6.6-12.6 0.8-2 1.8-3.9 2.2-6 0.3-1.3 0.6-2.4 1.3-3.5 0.3-0.5 0.7-1.1 0.8-1.7q0.4-3 0.7-6c0.2-3.9 0.5-7.8 0.6-11.8 0.1-1.3 0.6-2.4 1.5-3.3 0.4-0.5 1-0.7 1.6-1 0.1 0.5 0.1 1.1 0.3 1.6 0.2 0.6-0.6 1.7 0.7 1.7 0.7 0 1.7 0.7 2-0.9 0.3-1.1 1.5-1.6 2.5-0.2 0.9 1.3 1.9 2.6 3 3.7 2.7 2.6 5.5 5 8.2 7.5 2.4 2.2 4.8 4.3 7.1 6.6 2.1 1.9 4.1 4 6.1 6 1.2 1.2 2.2 2.7 3.6 3.4 2 1 3.6 2 4.6 4.1 0.1 0.3 1 0.5 1 0.5 0.8-1.1 1.2-0.1 1.8 0.3 1.4 1 2.9 2.8 4.4 2.9 2.6 0 3.5 1.9 5 3.2 1.3 1.3 3.8 0.7 4.4 2.9 0 0.1 0.5 0 0.7 0 1.1 0.5 2.3 0.9 3.3 1.6 1.9 1.1 3.5 2.8 5.5 3.7 2.2 0.9 4.3 2 6.3 3.3 1.7 1.1 2.8 0.8 3-1.1 0.6-4.6 1.1-9.1 1.3-13.8 0.1-2.5-0.5-5.2-0.6-7.8 0-1.9 0-3.8 0-5.8 0-4.1 0.1-8.2 0-12.3 0-2.8-0.1-5.6 1.4-8.1q0.2-0.5 0.5-1c0.3 0.4 0.6 0.7 0.8 1.1 0.8 2 1.4 2.1 2.8 0.4 0.8-0.9 1.4-1.1 2.3-0.1 0.7 0.8 1.7 1.4 2.9 0.7 0.4-0.2 1.2 0.3 1.7 0.6 1.7 1.1 3.4 1.6 5.5 1.3 0.5 0 1.2 0.3 1.7 0.6 6.7 3.4 14.2 4.9 20.7 8.7 0.2 0.1 0.5 0 0.7 0 3.6-0.1 6.6 1.8 9.7 3.2 5.7 2.6 11.1 5.9 16.6 8.8 0.6 0.3 1.2 0.5 1.7 0.7 0.1-0.7 0.4-1.3 0.3-1.9-0.4-3-0.5-6.2-1.4-9.1-1.5-4.8-1.4-9.8-2.6-14.6-0.2-1.1 0.6-2.4-0.6-3.4 2.2-2.9-1.6-6.2 0.6-9.2 0.2-0.1 0-0.6-0.1-0.9-1.8-5.1 0.2-9.3 3.4-13.1 2.5-3 5.6-5.4 8.8-7.6 3.4-2.4 6.6-5.1 9.8-7.8 0.8-0.6 1.3-0.8 1.5 0.5 0 0.2 0.5 0.4 0.7 0.4 0.9 0.2 4.2-3.1 4.2-4 0-0.4 0-1.1 0.2-1.2 1.9-1.5 3.9-2.9 6-4.2 2.6-1.6 4.7-4.3 8.3-3.9 0.3 0 0.9-0.5 1-0.8 0.3-2.6 2.6-3 4.3-3.8 2.5-1.2 5.2-2.1 7.6-3.5 2.3-1.3 4.5-3.1 6.7-4.6 4.3-2.9 8.5-6 13.4-8.1 0.7-0.3 1.5-0.8 2.2-1.2-0.9-0.5-1.7-1-2.6-1.5-0.3-0.2-0.7-0.4-1.1-0.5-3.4-0.2-6.3-1.9-9.2-3.4-4.6-2.3-9.1-4.8-14-6.6-0.8-0.3-2-0.5-2.5-1.1-2.4-3.1-6.1-3.5-9.3-4.9-3.2-1.4-6.5-2.5-9.5-4.4-1.4-0.8-2.8-2-4.7-2.4-2.4-0.4-4.6-2.1-6.9-2.4-2-0.2-3-1.6-4.5-2.1-3.5-1.1-6.4-3.3-9.8-4.5-1.3-0.5-2.6-0.9-3.6-1.7-0.9-0.7-1.7-1.4-2.9-1.1-2.5 0.4-2.5-2.3-4-3.1 0.4-1.1 0.6-2.5 1.5-3.3 2.4-2.3 4.5-5 5.6-8 0.6-1.4 1.3-2.8 2.2-3.8 1.8-2 3.2-4.4 4.6-6.8 0.4-0.6 0.7-1.2 1.2-1.8 1.1-1.4 2.4-2.8 3.5-4.2 1.4-1.8 2.7-3.9 4.3-5.5 2.8-2.9 6-5.5 8.8-8.4 2.3-2.3 4.1-5.2 6.5-7.6 3.8-3.8 6.9-8.4 11.1-12 4.3-3.8 7.9-8.3 11.9-12.4q0.1-0.1 0.2-0.2c1-0.8 0-1.1-0.3-1.4-0.3-0.2-0.9-0.2-1.3-0.2-3.5 0-7 0.1-10.2-1.9-0.5-0.3-1.5-0.4-1.9 0-1.3 1.1-2.3-0.7-3.5-0.2-1.1 0.5-2.5 0.6-3.6 0.4-5.2-1.2-10.3 0.5-15.4 1.1-1.3 0.1-2.5 1.2-3.8 1.2-1.7 0-3.7 0.9-5.3-0.8-0.2-0.1-0.8-0.1-0.9 0-1.1 1.7-3.2 0.1-4.3 1.4-3.8-1-7.5 0.5-11 1.1-3.1 0.5-6.5 0.9-9.5 1.9-2.1 0.7-3.9-0.2-5.9 0.3-3.1 0.8-6.5 0.7-9.7 0.8-2.2 0.1-4.4 0-6.7 0.1-1 0-2.4 0.9-2.9 0.5-2-1.5-3.7 0.1-5.6 0.1-0.4 0.1-1 0.8-1.3 0.6-1.9-1-3.7 0.2-5.4 0.3-2.6 0.1-3.5-0.4-3.6-2.8 0-1.4 0-2.8 1.3-3.8 0.7-0.5 1.2-1.3 1.4-2.1 0.9-4.4 4.2-7.5 5.8-11.5 1.2-2.9 3.2-5.4 5.2-7.9 1.9-2.5 2.8-5.6 5-8 0.8-0.9 1.3-2.1 2-3.1 2-2.9 3.7-6.1 5.7-8.9 3.3-4.5 7.2-8.4 11-12.5 2.1-2.2 4.4-4.4 6.5-6.6 0.4-0.3 0.5-0.9 0.8-1.3-0.5-0.2-1-0.3-1.5-0.4-3-0.3-6.2 0.7-9.1-0.6-0.2-0.1-0.6 0.2-0.7 0.4-1.1 2.6-2.9 2.8-5.2 1.6-0.4-0.2-1.2 0-1.5 0.3-1.9 2-4.7 1.5-7 2.8-1.1 0.6-3 0.2-4.4-0.3-1.4-0.5-2.6-0.6-3.7 0.5-0.3 0.3-0.7 0.6-1.1 0.6-2.3 0.3-4.7 0.6-7 0.7-1.7 0.1-3.6-0.3-4.7 1.5-0.2 0.3-0.9 0.2-1.4 0.2-0.4 0.1-0.9-0.1-1.3 0-1.9 0.2-3.6 1.3-5.3 1.5-4.5 0.6-9 0.6-13.4 0.8-3 0.2-6.1-0.3-9.1 0.6-1.4 0.4-3.1 0.5-4.7-0.5-0.8-0.4-2-0.5-3.1-0.2-2.4 0.7-4.6-0.4-6.6-1.7-0.5-0.3-1.1-0.7-1.6-0.8-1.1-0.3-1.9-0.7-3.2-0.4-1.4 0.4-3.3-1.2-5-2 0 0 0.3-0.9 0.4-0.9 0.7 0 1.5 0.1 2.2 0.2 1.5 0.3 3.2 1.1 4.5 0.8 2-0.6 3.8-0.9 5.7 0.2 0.4 0.3 0.9 0.5 1.4 0.6 0.3 0 0.7-0.2 1.1-0.3-0.2-0.3-0.3-0.8-0.6-0.9-1.5-0.7-3-1.3-4.5-2.1-3.4-2-6.1-5.1-9.1-7.7-3.3-2.7-6-6.2-9.9-8.2-0.5-0.3-1.1-0.6-1.2-1.1-1-3.1-4.2-3-6.3-4.1-2.5-1.2-5.2-2-7.3-4-0.4-0.4-0.9-0.6-1.4-0.8-3.3-1.1-6.6-2.2-9.9-3.4-0.5-0.2-0.8-1.1-1.1-1.7-0.3-0.5-0.5-1.1-0.7-1.6q-0.3 0.8-0.7 1.5c-0.2 0.6-0.5 1.2-0.6 1.8-0.3 2.8-0.7 5.6-0.6 8.5 0.1 3.4-0.7 6.9-0.1 10.4 0 0.5-0.6 1.1-0.8 1.7-0.2 0.3-0.6 0.9-0.5 1.1 1.5 1.9 0.3 4.4 1.8 6.6 1.5 2.4 1.7 5.6 1.5 8.7 0 0.7-0.1 1.9 0.2 2.2 2.1 1.3 1.7 3.3 1.8 5.2 0.1 0.8 0.3 1.7 0.5 2.5 0.3 1.3-0.8 3.7-2 4.3-0.9 0.5-3.6 0.2-4.3-0.6-1.2-1.5-2.3-3.1-3.5-4.5-2.7-3.1-5.1-6.4-8.1-9-3.9-3.3-8.3-6.1-12.7-8.6-1.7-1-3.2-2.4-5-3.1q-0.8-0.4-1.6-0.7-0.8-0.4-1.5-0.7-0.8-0.4-1.6-0.8-0.7-0.4-1.4-0.8c-2.3-1.2-4.5-2.7-6.7-3.9-1.7-0.9-2.4-0.5-2.7 1.3-0.6 3-1.8 5.9-1.4 9.1 0.1 0.3 0 0.7-0.1 0.9-1.1 2.4-1.3 4.9-1.2 7.5 0.2 5.3 0.4 10.5 0.7 15.8 0.1 3.3 0.4 6.7 0.6 10 0.1 0.3 0.2 0.6 0.3 0.9 1 1.7-0.1 2.9-1.1 3.8-1.2 1.1-2.7 1.3-4 0.2-0.8-0.6-1.4-1.3-2.2-2-2.6-2.2-5.2-4.5-8-6.6-1.6-1.2-3.6-1.9-4.6-3.9-0.2-0.5-1.1-0.6-1.7-0.8-0.6-0.1-1.4 0.1-1.8-0.2-2.8-1.8-5.6-3.4-8.1-5.5-1.8-1.6-3.8-2.5-6.1-3-0.5-0.1-1-0.2-1.5-0.5-4-2.5-8.1-4.8-12.3-7.1-5.4-2.9-10.5-6.4-15.7-9.7-0.2-0.2-0.3-0.7-0.5-1-0.1-0.3-0.1-0.6-0.2-0.9-0.2 0.2-0.3 0.4-0.4 0.7-0.3 0.6-0.6 1.1-0.7 1.7-0.5 4.6 0.4 13.6 1.5 18.1 0.3 1.5 0 3.2 0 4.9 0 0.9-0.4 2.6-0.1 2.8 2.3 1.3 1.4 3.5 1.8 5.2 0.6 2.3 0.3 4.6 1.3 6.9 0.9 1.9 0.2 4.4 1.5 6.5 0.5 0.7 1.3 1.6 1.3 2.4-0.2 4.2 3.7 6.7 4.3 10.6 0 0.3 0.6 0.6 0.9 0.9 1.6 2.8 3.4 5.5 4.8 8.4 0.8 1.6 0.8 3.7 1.6 5.3 0.7 1.2 1.2 1.8 0.6 3.3-0.5 1.2-0.6 2.4-1.6 3.4-0.7 0.6-1.1 0.9-2.2 0.4-1.6-0.8-3.5-0.7-5.3-0.9-0.8-0.2-1.7-0.3-2.5-0.4-3.2-0.8-6.5-0.8-9.7-0.7-2 0.1-3.5-0.2-5-1.4-0.9-0.8-1.9-2.8-2.6 0.2-0.1 0.2-1.1 0.4-1.5 0.2-0.7-0.2-1.3-0.7-1.9-1.1-1.4-0.8-2.5-1.4-4.4-1-2.4 0.5-5.2 0.9-7.5-1.1-0.7-0.6-2-0.6-3-0.7-3.4-0.3-6.7-0.5-10.1-0.7-0.3 0-0.5-0.2-0.8-0.3-2-0.7-3.7-2.6-6.1-1.1-0.1 0.1-0.5-0.3-0.8-0.4-0.8-0.3-1.7-0.7-2.6-0.8-0.7-0.2-1.5 0-2.3 0 0.4 0.6 0.8 1.1 1.1 1.7 0.8 1.2 1.1 2.9 3 3 0.1 0 0.2 0.5 0.3 0.8 1.6 4.2 5.5 6.9 7.1 11.1 0.5 1.2 1.2 2.5 2.1 3.4 2.2 2.1 3.9 4.6 5.6 7 1.9 2.5 4.5 4.3 6.1 7.2 1.5 2.8 4.5 4.8 6.8 7.1 3.9 3.9 7.7 7.7 11.5 11.5q0.3 0.3 0.5 0.6 0.3 0.3 0.5 0.6 0.3 0.4 0.5 0.7 0.2 0.3 0.4 0.7c0.2 0.5 0.2 1.5-0.1 1.7-1.2 1-2 2.3-3.7 3-3 1.3-6.1 2-9.3 2.5-0.9 0.2-1.8 0.7-2.7 0.6-0.8-0.1-1.4-0.8-2.1-1.3-0.4 0.8-0.5 1.7-1.1 2.1-1 0.7-2.2 1-3.3 1.5-3.1 1.3-6.1 2.6-9.5 1.4-0.1 0-0.5 0.3-0.6 0.5-1.1 1.5-2.4 3.1-4.4 2.3-1.1-0.5-1.4 0-2.1 0.4-2.1 1-4.1 2.8-6.7 1.2-0.5-0.3-1.2-0.3-1.6 0.9-0.3 1.2-1.7 1.7-2.9 0.4-0.4-0.4-0.8-1.2-1.1 0.2 0 0.5-1.1 0.9-1.7 1.1-1.3 0.5-2.7 1.2-4.1 1.3-1.6 0.1-2.9 0.5-4 1.7 1.1 0.7 2.2 1.5 3.3 2.1 4.6 2.4 7.9 6.3 11.5 9.8 1.6 1.5 3.2 2.9 5 4 1.4 0.9 2.7 1.8 4.1 2.4 2.6 1.3 4.7 4.5 8.3 2.7 0.2-0.1 0.6 0.1 0.9 0.2 3.5 2.2 7.5 3.3 11.4 4.7 2.8 1 5.5 2.5 8.4 3 2 0.4 3.6 1 5 2.4 0.8 0.8 1.9 1.2 3 1.7 0.7 0.3 1.6 0.4 2.3 0.7 1.5 0.5 1.7 1.2 0.7 2.3-1.4 1.7-2.8 3.3-4.2 4.9-3.5 3.8-7 7.6-10.6 11.2-1.7 1.7-3.7 3.1-5.3 4.8-1.3 1.4-3.6 1.4-4.4 2.7-1 1.5-2.1 3-3.3 4.2-0.2 0.3-0.6 0.3-0.8 0.6-3.6 3.3-7.6 6.1-8.3 11.7-0.3 1.8 0.1 2.1 1.4 2.2 2.2 0.3 4.5 0.5 6.8 0.7 6.2 0.5 12.3-0.4 18.4-1.3 3.5-0.6 7-1.4 10.5-2q0.6-0.1 1.2-0.1 0.6-0.1 1.1-0.1 0.6 0 1.2 0.1 0.6 0 1.2 0.1c1.5 0.3 2.9-0.7 4.5-0.1 1.3 0.6 3.1 0.2 4.3-0.2 3.5-1 6.9 0.2 10.2-0.4 0.3 0 0.7 0.3 0.7 0.5 0.3 2.9 2.4 2.9 4.5 2.8 1.6 0 2.6 0.8 2.8 2.2 0.2 1-0.2 2.2-0.5 3.4-0.2 0.9-0.6 1.8-0.7 2.7-1.2 6-2.5 11.9-7.5 16.2-1 0.9-2 1.9-2.2 3.4-0.2 1.5-1 2.8-2.3 3.8-0.5 0.4-1 1.1-1.4 1.7-1.5 2.8-2.8 5.6-5.3 7.7-0.4 0.4-0.5 1.2-0.7 1.7-0.6 1.9-1.2 3.8-2.6 5.3-0.5 0.4-1.1 0.8-1.7 1.2 0.3 0.5 0.9 0.9 0.9 1.3 0 0.4-0.4 0.9-0.8 1.3-0.7 0.7-1.2 1.4-1.2 2.5 0.1 0.9-0.3 1.9-0.7 2.7-1.5 3.4-2 6.9-1.8 10.5 0 0.6 0.5 1.1 0.8 1.7 0.2-0.6 0.5-1.1 0.4-1.6-0.1-2.5 0.5-4.4 2.9-5.5q0.6-0.3 1.3-0.7 0.6-0.3 1.3-0.7 0.6-0.4 1.2-0.8 0.6-0.4 1.2-0.9c4.6-3.4 9.9-5.5 15.5-8.1zm92.3-258.9v-0.6c-0.1 0.2-0.2 0.4-0.7 0.6v0.6c0.1-0.2 0.2-0.4 0.7-0.6zm163.2 94.6l0.3-1-0.4-0.1c-0.1 0.4-0.1 0.7-0.5 1.1l-0.1 0.6c0.1-0.2 0.3-0.4 0.7-0.6zm-24.3 160.3c-0.2-0.1-0.4-0.2-0.7-0.6l-1.9-0.1q0.8 0.2 1.6 0.4c0.1 0 0.2 0 0.3 0.3 0.3 0.2 0.5 0.3 0.7 0.7l1.1 0.3 0.1-0.5c-0.4 0-0.8-0.1-1.2-0.5zm-15.7-253.6l-0.2 1.1 0.4 0.1c0.1-0.4 0.1-0.8 0.5-1.2l0.1-0.6c-0.2 0.2-0.3 0.4-0.8 0.6zm-289.8 59.3l-0.1 2q0.2-0.8 0.4-1.6c0-0.1 0-0.3 0.4-0.4v-0.6c-0.1 0.2-0.3 0.4-0.7 0.6zm162.9-59.6l-0.6-0.1c0.2 0.2 0.4 0.3 0.6 0.7q0.8 0.6 1.6 1c0 0 0.2-0.2 0.3-0.4-0.6-0.3-1.2-0.6-1.9-1.2zm-52 253.9h-0.6c0.2 0.1 0.4 0.2 0.6 0.7l0.3 1.6c0.2-0.2 0.7-0.4 0.6-0.5-0.1-0.5-0.3-1-0.5-1.4-0.1-0.1-0.3 0-0.4-0.4zm206.6 6h-0.6c0.2 0.1 0.4 0.2 0.6 0.7 0.7 0.3 1.3 0.7 2 1.3l0.6 0.1c-0.2-0.1-0.4-0.3-0.6-0.7-0.7-0.4-1.3-0.7-2-1.4zm-80 19.4l-1-0.3-0.1 0.4c0.4 0.1 0.8 0.1 1.1 0.5 0 0.5 0 0.9 0.1 1.3 0 0.4 0.2 0.7 0.3 1 0.1-0.3 0.3-0.6 0.3-0.8-0.2-0.6-0.4-1.2-0.7-2.1zm-191.2-264h-0.6c0.2 0.1 0.4 0.2 0.6 0.7l-0.6 1.3 1.5 0.3c-0.1-0.4-0.1-1-0.3-1.4 0-0.2-0.4-0.4-0.6-0.9zm15.3 42c-0.2 0.4-0.5 0.7-0.6 1.1-0.1 0.3 0.1 0.8 0.2 1.2 0.3-0.3 0.9-0.6 0.9-0.8 0-0.6-0.3-1.2-0.5-2.2 0.1-1.5-1-1-1.7-0.9-0.3 0.1-0.6 0.6-0.9 0.9 0.6 0.1 1.1 0.3 1.7 0.4 0.3 0 0.6 0 0.9 0.3zm234.9-64.3c-0.4 0.1-0.8 0.2-1.1 0.5-0.4 0.3-0.7 0.9-1 1.3 0.6-0.1 1.4-0.1 2-0.4 0.3-0.2 0.3-0.9 0.8-1.4l0.9-1.1c-0.2-0.1-0.5-0.3-0.5-0.2-0.3 0.4-0.5 0.8-1.1 1.3zm-120.6 263.9q0.5-2.2 1-4.5c0-0.2-0.1-0.4-0.2-0.6-0.1 0.1-0.3 0.3-0.5 0.4-1 1.5-0.5 3.2-1 4.7v0.7c0.1-0.2 0.2-0.5 0.7-0.7zm151.6 12.4l-0.9-2.3c-0.2 0.1-0.4 0.2-0.4 0.4-0.1 1 0.1 1.9 1.3 2.5 0.6 1.1 1.2 2.1 1.8 3.2 0.1 0.2 0.5 0.2 0.7 0.3 0-0.3 0.2-0.7 0.1-0.8-0.8-1.1-1.7-2-2.6-3.3zm-164.9-280.3c0.1-1.3 0.2-2.6 0.3-3.9 0-0.2-0.2-0.5-0.4-0.8-0.1 0.3-0.1 0.7-0.3 0.9-1.5 1.3 0.6 2.5-0.3 3.8v0.6c0.1-0.2 0.2-0.4 0.7-0.6zm158.2 234.9l0.7 0.1c-0.3-0.1-0.5-0.3-0.7-0.7 0-0.9 0.1-1.8 0-2.7 0-0.5-0.3-1-0.4-1.5-0.3 0.5-0.9 1.1-0.8 1.6 0.2 1 0.8 1.9 1.2 3.2zm-160.6-261.9c-0.4 1.6 1.5 2.2 1.6 3.6 0.2-0.1 0.4-0.3 0.4-0.4q-0.1-0.4-0.3-0.8-0.2-0.4-0.4-0.8-0.2-0.5-0.3-0.9-0.2-0.4-0.4-0.8c-0.1-0.1-0.4-0.2-0.6-0.6 0.5-1.4 1-2.9 1.4-4.4 0-0.3-0.2-0.8-0.3-1.2-0.2 0.4-0.5 0.8-0.7 1.2-0.5 1.2-1.1 2.4-1.6 3.6-0.5 1.3 0.5 1.1 1.2 1.5zm113.7 61q-1.1 1.3-2.1 2.7c-0.8 1.1 0.2 1.6 0.9 1.9 0.3 0.1 1-0.6 1.5-1-1.7-1.2 0.9-2.4 0.3-3.6l0.3-1.1-0.4-0.1c-0.1 0.4-0.2 0.8-0.5 1.2zm46.9 209.6l0.2 0.9 0.5-0.2c-0.3-0.3-0.5-0.7-0.7-1.4 1.8-1.7-0.6-3.9 0.7-5.7-0.3-0.2-0.8-0.6-0.9-0.6-0.4 0.5-0.9 1-1.1 1.5-0.2 0.6 0.7 3.8 1.3 5.5zm-64.9 16.3c-1 0.7-1.1 1.6-1 2.6 0 2.1-0.1 4.2 0 6.3 0 0.6 0.5 1.1 0.8 1.6 0.2-0.4 0.5-0.9 0.5-1.4 0-3-0.5-6 0.3-9.1l0.1-2.6-0.9 0.1c0.2 0.9 0.3 1.7 0.2 2.5zm-139 13.7l0.6 0.1c-0.2-0.2-0.4-0.3-0.6-0.8h-0.6c0.2 0.1 0.4 0.2 0.6 0.7zm139.6-1c-0.3 0.1-0.8 0.1-0.8 0.2q-0.5 3.9-0.8 7.7c0 0.4 0.2 0.9 0.3 1.4 0.4-0.4 0.9-0.8 1-1.3 0.3-2.5 0.4-5.1 0.3-8zm-144.9-288.3c0.2 0.1 0.4 0.3 0.5 0.2 0.6-0.4 1.2-0.8 1.8-1.2-0.1 0.6-0.2 1.2-0.2 1.8q0.3 2.4 0.6 4.7c0 0.3 0.2 0.6 0.3 0.8 0.1-0.3 0.3-0.5 0.3-0.8q-0.3-4.5-0.6-9c-0.1-0.3-0.3-0.5-0.4-0.8-0.2 0.2-0.5 0.4-0.7 0.7q-0.2 0.4-0.5 0.9-0.2 0.4-0.4 0.9-0.2 0.4-0.4 0.9-0.1 0.4-0.3 0.9zm77 269.6l-1.4-1.3c0.1 0.6 0.1 1.2 0.3 1.6 0.4 0.8 1 1.4 1.4 2.1q0.7 1 1.3 2.1 0.3 0.4 0.7 0.9c0.2-0.4 0.6-0.8 0.6-1.2 0.3-2-1.8-2.5-2.9-4.2zm88.3-224.3c0.1 0.4-0.2 1.5 0.6 0.6 1.5-1.6 2.7-3.4 4-5.2 0.1-0.2 0-0.7-0.2-0.9-0.2-0.1-0.8-0.1-0.8 0-0.6 2.1-3.3 2.8-3.6 5.5zm-9.4 15.4c-0.2 0.5-0.5 1.1-0.6 1.7-0.1 0.4 0.1 0.8 0.2 1.2 0.3-0.3 0.8-0.5 0.9-0.8 0.6-2.1 2.6-3.7 2.2-6.1-0.1-0.3 1.4-0.5 0.1-1-0.1 0-0.6 0.4-0.8 0.7-0.6 1.3-1.1 2.6-2 4.3zm17.4-27.4c-0.9 1.3-1.9 2.6-2.7 3.9-0.1 0.2 0.2 0.7 0.3 1.1 0.3-0.2 0.6-0.4 0.7-0.7 0.2-0.5 0.1-1 0.3-1.5 0.3-0.4 0.7-0.8 1.1-0.9 0.4-0.1 0.9 0.2 1.4 0.4-0.2-0.5-0.4-0.9-0.4-1.3-0.1-0.2 0.3-0.4 0.5-0.6 0.3-0.4 0.5-0.7 0.7-1.1q-0.3 0.1-0.5 0.1-0.3 0.1-0.5 0.2-0.3 0.1-0.5 0.2-0.2 0.1-0.4 0.2zm-71-27.6c0.5 0.5 1.1 1.1 1.6 1.6 0.2 0.1 0.5 0 0.7 0 0-0.2 0.1-0.5 0-0.6-1.5-2-3.6-3.3-6.1-3.7-0.1 0-0.5 0.4-0.5 0.6 0 0.2 0.2 0.7 0.4 0.7 1.2 0.4 2.4 0.7 3.9 1.4zm41.6 260.9c-0.1 0.6-0.5 1.3-0.4 1.8 0.1 0.9 0.5 1.7 0.7 2.6 0.2-0.6 0.2-1.3 0.4-1.9 0.2-0.6 0.5-1.1 0.6-1.7q0-0.4 0-0.7 0-0.4 0-0.8 0-0.3-0.1-0.7 0-0.3 0-0.7c-0.1-0.3-0.6-0.5-0.9-0.8-0.1 0.3-0.2 0.6-0.3 0.9 0 0.5 0 0.9 0 2zm-2.6 40c0.1 0.4 0.2 0.9 0.4 1.1 1 0.8 1 1.2-0.3 1.5-0.1 0-0.1 0.8-0.1 0.8 0.8 0.1 1.5 0.3 2.2 0.3 0.2 0 0.5-0.7 0.4-0.7-1-1-0.1-3.2-2.6-3zm2-4.6c-0.2 0.5-0.5 1.5-0.4 1.5 0.9 0.4 1-0.2 1.1-0.9 0.1-0.5 0.7-1.2 0.5-1.4-0.5-0.7-1.3-1.4-2-2-0.1-0.1-0.3 0-0.5 0q0.5 1 1 1.9c0.1 0.1 0.2 0.1 0.3 0.9zm103.9-213.3v-0.7c-0.7 0-1.6-0.3-1.9 0.1-0.7 0.6-1 1.5-1.4 2.3 0 0.1 0.3 0.3 0.5 0.4-0.1-1.8 2.1-0.6 2.8-2.1zm-198.6-88c-0.1-1-0.2-2.1-0.4-3.1 0-0.2-0.3-0.4-0.5-0.5-0.1 0-0.4 0.2-0.4 0.3q0.1 2.1 0.2 4.2c0.4-0.1 0.8-0.2 1.1-0.9zm176.6 108.6l-0.4 0.5c0.2 0.2 0.5 0.6 0.6 0.5 0.7-0.4 1.4-0.8 2.1-1.3q0.8-0.5 1.6-1.1c-0.7-0.1-1.5-0.3-2.1-0.2-0.6 0.2-1 0.9-1.8 1.6zm-17.3 23.4c-0.2 0.9-0.5 1.8-0.6 2.7-0.1 0.3 0.3 0.6 0.5 0.9 0.2-0.2 0.7-0.4 0.7-0.7 0.3-1.1 0.5-2.2 0.7-3.4 0-0.1-0.3-0.3-0.5-0.3-0.2 0-0.3 0.3-0.8 0.8zm2 133.9l0.2 0.9c0.2-0.1 0.5-0.2 0.4-0.2q-0.3-2.7-0.7-5.4c0-0.1-0.5-0.2-0.8-0.2-0.1 0-0.4 0.2-0.3 0.4 0.2 1.4 0.6 2.8 1.2 4.5zm-308.9-162.9c-0.1-0.2-0.3-0.3-0.4-0.5q-0.5-0.7-1-1.5 0.1 1.1 0.2 2.1c0.1 0.3 0.1 0.6 0.3 0.8 0.3 0.4 1 0.9 1.1 0.9 0.5-0.5 1.4-0.9-0.2-1.8zm320.9 11l-0.2-0.9c-0.6 0.7-1.2 1.5-1.8 2.2-0.1 0.2 0.1 0.7 0.2 0.9 0.2 0.1 0.8 0.1 0.9 0 0.3-0.5 0.6-1 0.9-2.2zm-10.7 123.3c0.3-0.5 0.8-1.1 0.6-1.4-0.4-0.8 2-1.5 0.1-2.2-0.2 0-1 1.3-1.3 2.1-0.2 0.5 0.2 1.2 0.6 1.5zm-76.6 73.3c-0.6-0.4-1.2-0.8-1.8-1.1-0.3-0.2-0.6-0.1-0.9-0.1 0.2 0.5 0.3 1.2 0.7 1.5 1.1 0.9 1.3 0.8 2-0.3zm45.6-287c1.1 0.2 2-0.1 2.4-1.2 0-0.2-0.3-0.7-0.5-0.7-1.2-0.2-2.1 0.2-1.9 1.9zm33.4 265.3l0.4 0.5c0.2-0.2 0.6-0.6 0.5-0.7q-0.2-0.3-0.5-0.5-0.2-0.3-0.5-0.6-0.2-0.3-0.5-0.5-0.2-0.3-0.5-0.5c-0.3-0.3-0.8-0.5-1.2-0.8 0.2 0.5 0.3 1 0.5 1.4 0.4 0.5 1 0.9 1.8 1.7zm-59.7-223.6l0.7-1.4c-0.4 0.2-1 0.3-1.2 0.6-0.2 0.5-0.2 1.1-0.3 1.6q0 0.8-0.1 1.5h1.3c-0.1-0.6-0.2-1.1-0.4-2.3zm-14.6 246c0.4 0.4 0.9 0.9 1.4 1.3 0.3 0.3 0.7 0.5 1.1 0.8-0.1-0.6 0.1-1.4-0.2-1.7-0.5-0.5-1.3-0.5-2.3-0.4zm-132.6-18c0.1 0.7 0.1 1.7 0.6 2.2 0.3 0.4 1.1-1.5 0.7-2.9 0-0.1-0.2-0.2-0.2-0.2-0.4 0-0.8 0.1-1.1 0.9zm35.9 26.6l0.3 1.6c0.2-0.4 0.5-0.7 0.6-1.1q0.4-1.3 0.5-2.5c0-0.3-0.3-0.5-0.5-0.8-0.2 0.4-0.4 0.7-0.5 1.1-0.1 0.5 0 0.9-0.4 1.7zm30.7-53.3c0.1 0.1 0.1 0.2 0.2 0.2 0.1 0.1 0.2 0 0.3 0 0.2-1.1-0.6-2.8-1.7-3.2-0.2 0-0.4 0.1-0.6 0.2q0.6 1.1 1.2 2.2c0.1 0.1 0.2 0.2 0.6 0.6zm140.6-140l0.4-1.6c-0.4 0.2-0.9 0.4-1.3 0.6-0.3 0.1-0.6 0.4-0.7 0.7-0.1 0.4-0.1 0.9-0.1 1.3q0.2-0.1 0.5-0.2 0.2-0.1 0.4-0.2 0.2-0.2 0.4-0.3 0.2-0.1 0.4-0.3zm-164.3-121.6c0.2-1 0.3-1.9 0.4-2.9 0-0.1-0.3-0.3-0.4-0.4-0.1 0.1-0.2 0.3-0.3 0.5-0.1 0.5-0.1 1-0.4 1.4-0.5 0.8-0.6 0.8 0.7 1.4zm39.4 275.3c0.5 0.7 1 1.5 1.6 2.2 0.2 0.3 0.7 0.3 1.1 0.4-0.1-0.3-0.2-0.6-0.4-0.9-0.5-0.8-1-1.6-1.6-2.2-0.1-0.2-0.7 0.1-0.7 0.5zm123.2 10l-1 0.5c0.7 0.5 1.4 1 2.1 1.5 0.1 0 0.4-0.2 0.5-0.3-0.1-0.2-0.2-0.3-0.3-0.5-0.3-0.3-0.6-0.6-1.3-1.2zm-313.5-53.7l0.2 0.9c1.1-0.4 1.3-1.2 1.1-2.2 0-0.2-0.7-0.4-0.8-0.3-0.2 0.2-0.3 0.6-0.5 1.6zm150.6-259.9c0-0.4 1.4-0.7 0.1-1-1.7-0.5-1.4 0.8-1.4 1.7 0 0.3 0.3 0.5 0.5 0.7 0.2-0.4 0.3-0.7 0.8-1.4zm-127.6 224.9q1.2-1.1 2.3-2.2c0 0-0.1-0.2-0.1-0.3q-1.2 1-2.3 2c-0.1 0-0.2 0.1 0.1 0.5zm-29.6 27.7l-0.5 1.6 1.4-0.6c-0.2-0.4-0.4-0.9-0.9-1zm348.5-136c-0.5 0.5-1 0.9-1.4 1.4-0.1 0.1 0 0.4 0.1 0.6 0 0.1 0.4 0.2 0.4 0.2 0.4-0.9 2.2-1 0.9-2.2zm-124 209.3c0.2-0.4 0.5-0.9 0.7-1.3q0-0.1 0-0.2 0-0.1 0-0.2 0 0 0-0.1 0-0.1 0-0.2c-0.1-0.1-0.3-0.2-0.5-0.2-1 0.3-1.1 1.8-0.2 2.2zm6.7 1.3c-0.2-0.1-0.3-0.3-0.5-0.4q-0.2-0.1-0.4-0.2-0.3 0-0.5-0.1-0.2-0.1-0.4-0.1-0.2-0.1-0.5-0.1c-0.1-0.1-0.2 0.2-0.3 0.3q0.9 0.5 1.9 1c0.1 0 0.2 0 0.7-0.4zm-37.3-26.6l-0.9-1c-0.1 0.4-0.5 0.9-0.4 1.3 0.1 1 0.7 0.8 1.3-0.3zm-32.7-300.6c-0.6-0.5-1.2-0.7-1.3 0.3 0 0.4 0.3 0.9 0.5 1.3 0.3-0.3 0.5-0.6 0.8-1.6zm156.6 152.6c0.4 0.5 1 1.5 1.1 1.5 1-0.6-1.1-1.6 0.2-2.2-0.4 0-0.9 0-1.3 0.7zm-276.5-102.7c-0.1 0-0.2-0.1-0.3-0.2 0 0-0.2 0-0.2 0 0 0.6 0 1.3 0.1 1.8 0.1 0.3 0.6 0.4 0.9 0.6 0-0.3 0.1-0.7 0.1-1 0-0.3-0.2-0.5-0.6-1.2zm-0.4-4.3l-0.5-1.8c-0.1 0-0.3 0-0.4 0.1-0.3 0.3 0.1 1.5 0.9 1.7zm-6.3 172.3l0.2 0.9c0.2-0.6 0.4-1.2 0.4-1.8 0-0.3-0.4-0.5-0.7-0.7-0.1-0.1-0.4 0.2-0.5 0.3 0.2 0.2 0.4 0.4 0.6 1.3zm72-180.6l0.2 0.9 1.1-1.6c-0.4 0-0.9 0-1.3 0.7zm110.6-4c-0.4 0.1-0.9 0.2-1.1 0.5-0.2 0.2-0.1 0.9 0 1 0.8 0.4 1.2 0 1.1-1.5zm84.6-1.4l0.2 0.9 1.1-1.5c-0.4 0-0.8 0-1.3 0.6zm-18.3 20.4c-0.1 0.3-0.3 0.8-0.2 1.1 0.1 0.3 0.6 0.6 0.9 0.9 0.1-0.4 0.2-0.8 0.3-1.2 0-0.3-0.2-0.5-1-0.8zm115.3 156.6l-1 0.8 0.6 0.6c0.3-0.5 0.7-0.9 0.4-1.4zm-100.7 92.7c-0.8-1.4-0.8-1.4-1.6-1.3-0.2 0-0.4 0.2-0.6 0.4 0.3 0.1 0.6 0.1 0.9 0.2 0.2 0.2 0.4 0.5 1.3 0.7zm-251.2-224.7c-0.1 0.7-0.2 1.3-0.3 1.9 0 0.2 0.4 0.4 0.6 0.5 0.2-0.3 0.5-0.6 0.5-0.9 0-0.4-0.3-0.7-0.8-1.5zm264.2 231.7l1.2 0.2c-0.5-0.4-1-0.9-1.5-1.2 0 0-0.4 0.4-0.7 0.6 0.3 0 0.5 0 1 0.4zm-268.8 1.6l-0.3 1.8c0.2 0 0.4 0.1 0.5 0 0.4-0.5 1.3-0.9-0.2-1.8zm111.6 27c-0.1 0-0.2-0.1-0.3-0.2 0 0-0.2 0-0.2 0-0.1 0.6-0.2 1.1-0.2 1.6 0 0.3 0.2 0.6 0.3 0.9 0.1-0.3 0.3-0.7 0.4-1 0.2-0.3 0.2-0.6 0-1.3zm-88-69.3l0.5 0.9c0.3-0.5 0.7-0.9 0.8-1.3 0.1-0.3-0.3-0.7-0.5-1.1-0.1 0.4-0.3 0.8-0.8 1.5zm178.6 68l0.8 1 0.5-0.6c-0.3-0.2-0.6-0.5-1.3-0.4zm-114.6-1.3c-0.2-0.3-0.4-0.6-0.7-0.7-0.2-0.1-0.6 0.1-0.6 0.1q0.1 0.8 0.3 1.5c0.2-0.2 0.4-0.4 1-0.9zm74-22.7l1.1-0.4-0.7-1.2c-0.2 0.3-0.3 0.6-0.4 1.6zm-140.6-273.3c0.4 0.1 0.9 0.3 1.4 0.3 0.2 0 0.4-0.5 0.6-0.8q-0.6 0.1-1.1 0.2c-0.2 0-0.4 0-0.9 0.3zm23.9 264l-0.2-0.9c-0.4 0.4-0.7 0.8-1.1 1.3 0 0.1 0.2 0.4 0.3 0.5 0.2-0.2 0.5-0.4 1-0.9zm-36.9-7.7c-0.3 0.2-0.6 0.4-0.7 0.7-0.2 0.4-0.1 0.8-0.2 1.1 0.3-0.2 0.7-0.3 0.9-0.6 0.2-0.2 0.2-0.6 0-1.2zm-5.4-232.6l-0.2 1.1c0.4-0.2 0.9-0.4 1.2-0.8 0.1-0.1-0.1-0.6-0.2-0.9-0.1 0.1-0.3 0.2-0.8 0.6zm15.4 192.6c-1.3-0.2-1 0.7-1 1.4 0 0.2 0.1 0.4 0.2 0.5q0.4-0.7 0.9-1.3c0-0.1 0.1-0.2-0.1-0.6zm312.5-164l-0.9 1.2c0.5-0.2 1-0.3 1.5-0.5 0.1 0 0-0.4-0.6-0.7zm-113 3l-0.7-1-0.6 0.6c0.3 0.3 0.7 0.5 1.3 0.4zm89.7 139.7c0-0.1 0.1-0.2 0.2-0.3 0 0 0-0.1-0.1-0.2-0.5 0.2-1 0.4-1.5 0.6-0.1 0-0.1 0.3-0.1 0.4 0.4 0 0.7-0.1 1.5-0.5zm16.9-134.3c0-0.2 0-0.5 0-0.7q0.1-0.5 0.3-1c-0.3 0.2-0.9 0.4-0.9 0.6 0 0.4 0.2 0.9 0.6 1.1zm-331.8 4.6c-0.2-0.2-0.4-0.5-0.7-0.6-0.3-0.2-0.8-0.2-1.1-0.2 0.2 0.3 0.3 0.7 0.6 0.9 0.2 0.2 0.6 0.2 1.2-0.1zm337.8 92.7l1.2 0.2-0.8-1.2c-0.2 0.2-0.5 0.4-0.4 1zm-344.5-38c-0.7-0.1-1.4-0.2-2.1-0.3-0.1 0-0.3 0.1-0.5 0.2 0.3 0.2 0.5 0.4 0.7 0.4 0.5 0.1 1.1 0 1.9-0.3zm-25.6-39.7c-0.1 0.1-0.2 0.2-0.2 0.3-0.1 0 0 0.2 0 0.2q0.7 0.1 1.5 0.2c0.1 0 0.2-0.3 0.2-0.4-0.3-0.1-0.6-0.2-1.5-0.3zm28.6 38.7q-0.1 0.1-0.2 0.2c0 0.1 0 0.2 0 0.2l1.2-0.1c-0.2-0.2-0.4-0.4-1-0.3zm-62.3 19.7l0.7-0.7-1-0.3c0 0.4 0 0.9 0.3 1zm12.7 5.3c0.2 0.3 0.5 0.7 0.7 1 0.1 0 0.4-0.2 0.5-0.3-0.3-0.3-0.6-0.7-1.2-0.7zm20.7 16c-0.3-0.3-0.5-0.7-0.8-1 0 0-0.3 0.2-0.5 0.2 0.3 0.4 0.6 0.8 1.3 0.8zm12.6 5.3l-0.6 0.7 1 0.3c0-0.5 0-0.9-0.4-1zm51.3 72l1.1 0.9c0.1-0.1 0.3-0.4 0.2-0.5-0.3-0.2-0.6-0.5-1.3-0.4zm-21-204.3l0.9-0.2c-0.2-0.2-0.5-0.5-0.5-0.4-0.3 0.2-1.4-0.7-0.4 0.6zm211.9 217.3c0.1-0.5 0.3-0.9 0.3-1.4 0.1-0.2-0.1-0.4-0.2-0.5-0.1 0.2-0.3 0.4-0.4 0.6-0.1 0.3 0 0.7 0.3 1.3zm-148.9-232.3c0.2 0.3 0.5 0.7 0.8 1 0 0 0.3-0.2 0.4-0.2-0.3-0.4-0.6-0.8-1.2-0.8zm-12.7 238.6l-0.6 0.7 1 0.3c0-0.4 0-0.9-0.4-1zm78 1.4c-0.1-0.1-0.1-0.2-0.2-0.2-0.1-0.1-0.2-0.1-0.2 0q-0.2 0.7-0.2 1.5c0 0.1 0.2 0.1 0.4 0.2 0.1-0.3 0.1-0.6 0.2-1.5zm-68.6 3.3c0 0.2-0.1 0.4 0 0.6 0.1 0.4 0.2 0.7 0.4 1 0.1-0.3 0.2-0.5 0.2-0.8 0-0.4-0.2-0.8-0.6-0.8zm111.2-262.6l-0.1-0.9-1 1c0.3 0.1 0.5 0.2 1.1-0.1zm-107.9-4.7c0-0.2 0-0.4 0-0.6-0.1-0.3-0.3-0.7-0.4-1-0.1 0.3-0.3 0.6-0.2 0.8 0 0.4 0.2 0.8 0.6 0.8zm-65.3 284.6l0.2 0.9c0.2-0.2 0.5-0.5 0.4-0.5-0.2-0.3 0.7-1.4-0.6-0.4zm66.3-286.9c0.1-0.5 0.3-1 0.3-1.5 0-0.1-0.2-0.3-0.2-0.5-0.2 0.3-0.4 0.5-0.4 0.7-0.1 0.3 0 0.6 0.3 1.3zm51.6 297.6l0.2 0.9 1-1c-0.3-0.1-0.5-0.2-1.2 0.1zm84 12q0.5 0.1 1.1 0.3c0 0 0-0.3 0.1-0.5-0.3 0-0.6-0.1-1.2 0.2zm-119.3-11.3l0.2 0.8c0.1 0 0.4-0.1 0.4-0.1-0.1-0.4-0.1-0.7-0.6-0.7zm97.3-6.7q-0.5-0.1-1-0.3c-0.1 0-0.1 0.3-0.2 0.5 0.3 0 0.6 0.1 1.2-0.2zm-109.9-7.3q0.5 0.1 1 0.2c0 0 0.1-0.2 0.1-0.4-0.2 0-0.5-0.1-1.1 0.2zm-1.4-6l0.7-0.4c-0.2-0.1-0.4-0.2-0.7 0.4zm208.9-1.7l0.9-0.2c-0.1-0.1-0.1-0.4-0.1-0.4-0.4 0.1-0.7 0.2-0.8 0.6zm-0.6-2.7l0.8-0.1c0-0.2-0.1-0.5-0.1-0.4-0.4 0-0.7 0.1-0.7 0.5zm-29.4-6q-0.1 0.6-0.2 1.1c0 0 0.3 0.1 0.4 0.1 0.1-0.3 0.1-0.5-0.2-1.2zm28.4-1.6l0.1 0.8c0.2 0 0.5-0.1 0.5-0.1-0.1-0.4-0.2-0.7-0.6-0.7zm-254.6-20l-0.2-0.9c-0.1 0.1-0.4 0.1-0.4 0.1 0.1 0.4 0.2 0.8 0.6 0.8zm-61.9-16.7q-0.6-0.1-1.1-0.2c0 0-0.1 0.2-0.1 0.4 0.3 0 0.5 0.1 1.2-0.2zm321.1-6.7l-0.1-0.8c-0.2 0-0.5 0.1-0.5 0.1 0.1 0.4 0.2 0.7 0.6 0.7zm4.7-2.6l0.7-0.4c-0.3-0.1-0.5-0.2-0.7 0.4zm-292.2-38.3l0.3 0.6c0.1-0.2 0.3-0.4-0.3-0.6zm276.2-47q-0.5-0.2-1.1-0.3c0 0 0 0.3-0.1 0.4 0.3 0.1 0.6 0.1 1.2-0.1zm-267.2-58.7l0.7-0.3c-0.3-0.1-0.5-0.3-0.7 0.3zm16-0.7l0.7-0.3c-0.3-0.1-0.5-0.2-0.7 0.3zm49-51l-0.9 0.2c0.1 0.2 0.1 0.4 0.1 0.4 0.4 0 0.7-0.1 0.8-0.6zm-67.3-6.6l0.3 0.6c0.1-0.2 0.2-0.4-0.3-0.6zm116.9-7l-0.7 0.3c0.3 0.1 0.5 0.2 0.7-0.3zm69.3-3.4l0.2 0.9c0.1 0 0.4-0.1 0.4-0.1-0.1-0.4-0.2-0.7-0.6-0.8zm70.6-10.6q0.6 0.1 1.1 0.2c0 0 0.1-0.2 0.1-0.4-0.3 0-0.5-0.1-1.2 0.2zm-167.2-1.4l-0.2-0.8c-0.1 0-0.4 0.1-0.4 0.1 0.1 0.4 0.2 0.7 0.6 0.7zm-10.7-5.3q0.6 0.2 1.1 0.3c0 0 0.1-0.3 0.1-0.4-0.3-0.1-0.6-0.2-1.2 0.1zm77-2.3l0.8-0.2c0-0.1-0.1-0.4-0.1-0.4-0.3 0.1-0.7 0.2-0.7 0.6zm-41.7-22.3l-0.4-0.3c0.1 0.2 0.1 0.4 0.4 0.3zm4 1.3l0.4 0.3c0-0.2 0-0.4-0.4-0.3zm-4.3 5l-0.3 0.4c0.2 0 0.4-0.1 0.3-0.4zm30.3 7l-0.4-0.3c0.1 0.2 0.1 0.4 0.4 0.3zm-77.3 7.3l0.4 0.3c0-0.2 0-0.4-0.4-0.3zm4.7 0l0.4 0.3c0-0.2 0-0.4-0.4-0.3zm12.3 5.7l-0.2 0.4c0.2 0 0.4-0.1 0.2-0.4zm1.7 2.3l0.4 0.3c0-0.2-0.1-0.4-0.4-0.3zm177.2 3.3l-0.4-0.2c0.1 0.2 0.1 0.4 0.4 0.2zm-166.5 2.7l0.4 0.3c-0.1-0.2-0.1-0.4-0.4-0.3zm-98 3.3l-0.4-0.2c0 0.2 0 0.4 0.4 0.2zm69.6 0.4l0.3-0.4c-0.2 0-0.4 0-0.3 0.4zm112.6 2.6l0.3-0.4c-0.2 0.1-0.4 0.1-0.3 0.4zm24.4-0.3l0.4 0.3c-0.1-0.2-0.1-0.4-0.4-0.3zm-179.6 3l0.3-0.4c-0.2 0-0.4 0.1-0.3 0.4zm227.5-0.3l0.4 0.2c0-0.2 0-0.4-0.4-0.2zm-187.9 3.3l-0.4-0.3c0.1 0.2 0.1 0.4 0.4 0.3zm-1.3 23.3l0.4 0.3c0-0.2 0-0.4-0.4-0.3zm-56.6 16l0.4 0.3c-0.1-0.2-0.1-0.4-0.4-0.3zm221.2 12l0.4 0.3c0-0.2-0.1-0.4-0.4-0.3zm-283.2 1.4l-0.4-0.3c0 0.2 0 0.4 0.4 0.3zm358.2 23.6l-0.3 0.4c0.2 0 0.4 0 0.3-0.4zm0 4.7l0.2-0.4c-0.2 0-0.4 0-0.2 0.4zm-7 4.3l-0.4-0.2c0 0.2 0 0.4 0.4 0.2zm-7.7 8.4l0.3-0.4c-0.2 0-0.4 0-0.3 0.4zm-9 9.6l0.4 0.3c0-0.2 0-0.4-0.4-0.3zm-293.2 15.4l-0.4-0.3c0 0.2 0.1 0.4 0.4 0.3zm-11.3 0.6l-0.4-0.2c0 0.2 0 0.4 0.4 0.2zm1.6 0.4l-0.2 0.4c0.2-0.1 0.4-0.1 0.2-0.4zm293.6 1l0.4 0.2c-0.1-0.2-0.1-0.4-0.4-0.2zm2 3.3l-0.4-0.3c0 0.2 0 0.4 0.4 0.3zm50.6 26l-0.4-0.3c0 0.2 0.1 0.4 0.4 0.3zm-367.1 5.3q-0.1 0-0.1 0-0.1-0.1-0.1-0.1-0.1 0-0.1-0.1-0.1 0-0.1 0c0 0.2 0 0.4 0.4 0.2zm391.8 6l0.4 0.3c-0.1-0.2-0.1-0.4-0.4-0.3zm-367.2 3.4l0.4 0.2c0-0.2 0-0.4-0.4-0.2zm7.3 2.6l0.4 0.3c0-0.2 0-0.4-0.4-0.3zm323.2 21.4l0.4 0.2c0-0.2 0-0.4-0.4-0.2zm-30 23.9l-0.4-0.2c0.1 0.2 0.1 0.4 0.4 0.2zm-5.3 8.7q-0.1 0-0.1-0.1-0.1 0-0.1 0-0.1-0.1-0.1-0.1-0.1 0-0.1-0.1c0 0.2 0 0.4 0.4 0.3zm-255.9 14l-0.4-0.3c0 0.2 0.1 0.4 0.4 0.3zm199.3 10.7l0.4 0.2c-0.1-0.2-0.1-0.4-0.4-0.2zm56.6 2.6l0.4 0.3c0-0.2 0-0.4-0.4-0.3zm-68 5.4l-0.4-0.3c0.1 0.2 0.1 0.4 0.4 0.3zm-147.9 1.3l-0.4-0.3c0 0.2 0 0.4 0.4 0.3zm89 0.3l0.2-0.4c-0.2 0.1-0.4 0.1-0.2 0.4zm-110.3 6.4l0.4 0.2c0-0.2-0.1-0.4-0.4-0.2zm223.9 1.3l0.4 0.3c0-0.2-0.1-0.4-0.4-0.3zm-225.6 3l0.3-0.4c-0.2 0-0.4 0.1-0.3 0.4zm89.6 5l0.4 0.3c0-0.2 0-0.4-0.4-0.3zm47.3 4.7l0.4 0.2c0-0.2 0-0.4-0.4-0.2zm-98.2 1.6l0.2-0.4c-0.2 0.1-0.4 0.1-0.2 0.4zm-74.3 1.7l0.4 0.3c-0.1-0.2-0.1-0.4-0.4-0.3zm79.6 3l0.3-0.4c-0.2 0-0.4 0-0.3 0.4zm-79 1.7l-0.4-0.3c0.1 0.2 0.1 0.4 0.4 0.3zm116 4l-0.4-0.3c0 0.2 0 0.4 0.4 0.3zm-33.3 1.3l0.4 0.3c-0.1-0.2-0.1-0.4-0.4-0.3z"/>
	<path class="s0" d="m136.2 293.1c-1.6-2.2-4.1-1.4-6-2.1-1.4-0.5-3-0.4-4.3-0.9-1.3-0.6-2.4-1.2-3.9-1.2-1.4 0-2.7-2-3-4-0.2-1.4 1-2.4 1.7-2.5 3-0.6 5-3 8-3.5 1.1-0.2 2-1.9 3.5-0.7 0.2 0.1 1-0.4 1.3-0.7 1.8-2.2 4.5-2.6 7-3.2 0.6-0.2 1.3-0.1 1.9-0.4 2.7-1.4 5.7-2.5 8.1-4.4 3-2.2 4.1-4.5 2.2-8.1-2.2-4-5.1-7.4-7.5-11.2-3.2-5.1-8.1-8.4-13.2-11.3-1.9-1.1-2.9-3.3-2.3-5.4 0.3-0.9 1-1.3 2-1.2 2.1 0.2 4-0.2 5.8-1.4 0.7-0.5 1.8-0.6 2.7-0.6 2.4-0.1 4.8 0.3 7.2-0.6 2.4-0.8 5.1 0.3 7.8-0.6 1.3-0.5 3.1 0.2 4.7 0.4 0.4 0 1 0.3 1.3 0.1 1.7-1.2 3.6-0.5 5.4-0.6 0.5-0.1 1.2 0.1 1.6-0.1 2.2-1.1 2.7-0.7 1.6 1.5-0.2 0.3 0.2 0.8 0.3 1.2 0.2-0.2 0.6-0.4 0.6-0.7 0.5-2.2 2.5-2.2 4-2.5 1.2-0.3 1.3-1 1-1.5-1.8-3.1-1.7-6.8-3.3-10-2-4-3.3-8.3-6.1-11.8-1.5-1.9-2.1-4.5-3.4-6.6-2-3-3.2-6.3-4.7-9.4q-0.1-0.2-0.2-0.4 0-0.3-0.1-0.5-0.1-0.2-0.1-0.4 0-0.3-0.1-0.5c-0.1-1.7 0.4-2.2 1.8-1.5 1.2 0.5 2.1 0 3.2 0 3.4-0.1 7-0.8 10.4 0.4 1.1 0.5 2.4 0.5 3.8 0.2 1.1-0.3 2.4 0.3 3.7 0.5 0.8 0.2 1.8 0.1 2.5 0.5 1.5 0.7 3 1.3 4.7 0.3 0.5-0.3 1.4-0.3 1.9 0 1.8 1 3.6 0.5 5.4 0.6 2.1 0.1 4.3-0.3 6.3 0.1 2 0.5 3.7-0.4 5.5-0.2 1.6 0.2 3.2-0.5 4.8-0.6 2.5-0.1 5 0.3 7.5 0.7 0.6 0 1.2-0.2 1.8-0.3-0.2-0.6-0.3-1.2-0.6-1.7-1.3-2.9-2.3-5.9-4.9-8-1.2-1.1-1.9-3-2.6-4.6-1.4-2.9-4-5.1-4.5-8.4-0.1-0.6-0.7-1.2-0.6-1.8 0.1-0.6 0.6-1.2 0.9-1.9 0.6 0.3 1.2 0.5 1.6 1 0.3 0.4-0.2 1.2 1 0.5 3-1.7 5.9-0.7 8.8 0.5 1 0.4 2 0.6 3.1 0.7 3.5 0.2 7.1 0.4 10.7 0.7 1.6 0.1 1.5 0.3 0.8 2.2-0.3 0.8 0.5 2 0.8 3.1 0 0 0.5 0.1 0.6-0.1 0.2-0.2 0.3-0.5 0.3-0.8 0.2-0.8-1-1.6 0-2.5 0.6-0.4 1.1-1.2 1.6-1.2 3.4-0.3 6.6 0.2 9.9 1 2.7 0.7 5.6 1.1 8.3 1.6 1.8 0.3 3.7 0.4 5.4 0.7 1.7 0.2 1.6-0.7 1.5-1.8-0.2-1.3-0.6-2.7-0.6-4-0.2-3.8 1.1-7.3 2-10.9 0.2-0.8 0.5-1.8 2-1 1 0.4 2.4 0.3 3.5 0.3 2.7-0.1 5.2 0.7 7.7 1.6 2.8 1 5.8 1.8 8.7 2.4 2.9 0.5 5.7 1.8 8.8 1.4 0.4-0.1 1.2 0.3 1.3 0.6 0.9 1.8 2.4 1.4 3.8 1.3 1.1 0 2.3-0.2 3.4-0.7 1.1-0.4 2 1.2 3.1 0.1 0.3-0.2 1.1 0.1 1.6 0.2 0.5 0.1 1.1 0.6 1.4 0.4 1.9-1.2 4.4-0.7 6.1-2.3 0.6-0.6 1.3-1.2 2.1-1.4 0.6-0.2 2.1-1.8 1.8 0.7-0.1 1.5 1 1.8 2.2 1.7 1 0 2.7-0.1 2.8 0.2 0.4 1.2 0.5 2.6 0.3 3.9-0.3 2.2-1.5 4.4-1.2 6.4 0.5 3 0 5.5-1.4 8-0.3 0.5-0.2 1.4 0 2 1.3 3.9-0.4 7.8-0.1 11.7 0.1 0.9-0.3 1.9-0.6 2.8-0.2 0.9-0.9 2-0.6 2.6 1.2 2.3-0.1 4.7 0.7 6.8 0.9 2.5 0.9 4.7-0.5 7-0.1 0.2-0.2 0.3-0.3 0.5 0 1 0.2 1.3 1.3 1.9 4.9 2.8 9.8 3.7 15.2 2.3 1.7-0.5 3.4-0.4 5.1-0.7 4-0.6 7.9-1.2 11.8-2.1 1.8-0.4 3.3-0.4 5.1-0.2 1.5 0.1 3-1.2 4.6-1.7 1.3-0.4 2.8-0.9 4-0.6 1.6 0.4 2.8-1.1 4.6-0.4 1 0.4 2.6-0.6 4-1 1.7-0.5 2.3 0 2.4 1.8q0.1 1.4 0.3 2.8c0.1 0.3 0.5 0.4 0.7 0.6 0.1-0.3 0.4-0.7 0.3-0.8-0.6-0.6-0.8-1.2 0-1.4 1-0.3 2.2-0.4 3.1-0.1 0.5 0.1 1 1.3 0.8 1.9-0.4 1.5-1 3.1-1.7 4.6q-0.3 0.7-0.6 1.5-0.3 0.7-0.6 1.4-0.4 0.8-0.7 1.5-0.3 0.8-0.7 1.5-0.1 0.2-0.2 0.4-0.1 0.1-0.2 0.3-0.2 0.2-0.3 0.3-0.2 0.2-0.3 0.3c-1.1 0.8-2.1 1.5-2 3.1 0 0.6-0.9 1.1-1.1 1.8-1.4 4.5-4.6 8.1-4.9 13-0.1 1.4-1.2 3.1-2.3 4-1.2 0.8-1.6 1.7-1.6 3-0.1 2.6-0.9 4.9-2.7 6.9-0.9 0.9-1.5 2.3-2 3.5-1.2 2.8-2.4 5.6-5.1 7.5-0.7 0.6-0.2 1.5 0.4 2.3q1 1.1 2.1 2 1 1 2.2 1.9 1.1 0.8 2.4 1.6 1.2 0.7 2.5 1.3c4.1 1.9 8.4 3.4 12.7 4.7 4.8 1.6 9.1 4 13.3 6.8 1.3 0.9 2.9 1.3 4.5 1.9 0.2 0.1 0.6 0 0.6 0.1 0.3 0.8 0.3 2.1 0.8 2.5 0.6 0.5 2.1-0.3 2.6 0.8 0.9 1.7 0.5 3.5-0.4 4.9-2.5 4.1-4.5 8.4-6.8 12.6-1.3 2.4-2.8 5.1-5.6 6.6-0.3 0.2-0.7 0.6-0.8 1-1.1 3.3-3.8 5.5-6.4 7.2-2.9 2-4.3 4.5-5.7 7.3-0.2 0.4-0.6 0.7-0.9 1-3.3 2.2-4.2 6.2-6.8 8.8-0.2 0.2-0.4 0.7-0.3 0.9 1.5 2.4 0.7 5.3 2.3 7.8 0.9 1.4 1.6 3.2 1.6 4.9 0.2 3.6 2.1 7 1.5 10.8-0.1 0.7 0.7 1.7 1.3 2.4 1 1.3 2.6 2.3 0 3.5 0.2 2.7-1.8 2.3-3.3 2.2-0.6 0-1.2-0.3-1.7-0.6-1.7-1.1-3.3-2.3-5-3.3-0.8-0.5-1.6-1.2-2.7-0.4-0.1 0.1-0.6-0.1-0.9-0.2-2.9-0.9-5.9-1.9-8.8-2.8-2.2-0.7-4.4-1.3-6.5-2-0.4-0.1-0.8-0.2-1.2-0.4-1.6-0.8-3-1.6-5-1.8-1.6-0.1-3.5-0.6-4.7-2.4-0.3-0.5-1.5-0.5-2.3-0.7-1.6-0.2-3.6 0.7-4.8-1.2-0.1-0.2-0.7-0.2-1-0.1-2.1 0.4-3.3-0.2-2.8-2.7 0-0.2-0.2-0.4-0.2-0.6-0.2 0.2-0.4 0.5-0.4 0.7-0.1 4.5-0.4 9.1 0.1 13.6 0.2 2.3 1.1 4.4 1.3 6.8 0.2 2.2 0.8 4.3 1.2 6.5 0.3 1.3-0.7 1.9-1.4 2.8-0.8 1.1-1.7 0.4-2.7 0.3-1.9-0.2-3.3-1.2-4.8-2-1-0.5-2.1-0.9-3.1-1.4-0.7-0.4-1.7-0.7-1.9-1.3-1.1-2.2-3.1-2.4-5.1-2.7-1-0.2-2-0.5-2.9-1-2.6-1.5-5.1-3.2-7.7-4.9-0.2-0.1-0.6-0.1-0.8-0.2-4.6-3.5-9.1-7.1-13.8-10.3-2.4-1.6-4.5-3.7-7.5-4.5-1.7-0.4-3.2-1.9-4.6-3.2-1.9-1.6-3.5-3.7-5.5-5.3-1.4-1.1-3.2-1.9-4.8-2.9-1.3-0.8-2.5-1.8-3.9-2.5-1.4-0.7-2.9-1.2-4.3-1.7-1.3-0.4-2.1-1-1.9-2.5 0-0.3-0.3-0.6-0.4-0.9-0.3 0.3-0.8 0.6-0.9 1-0.3 1-0.6 2-0.7 3-0.3 2.9-0.1 5.9-0.8 8.7-1.2 5.3 0.4 10.7-1.8 15.9-0.7 1.7-0.1 4-0.1 6 0 3.3 0.2 6.6-0.6 9.8-0.1 0.3-0.2 0.8 0 1 1.1 1.3 0.6 2.5 0 3.8-0.3 0.8-0.2 1.8 0 2.6 0.3 1.6-0.5 2.4-1.6 2.6-1.3 0.3-2.6 0.5-3.8-1-2.1-2.4-4.8-4.4-6.7-6.9-1.5-1.9-3.9-1.8-5.3-3.5-1.4-1.7-3.2-2.9-4.9-4.3q-2.5-2.3-5.1-4.5c-0.3-0.2-0.4-0.6-0.7-0.7-1.9-0.7-2.6-1.7-1.3-3.6 0.2-0.2-0.1-0.8-0.2-1.2-0.4 0.3-0.9 0.5-1.1 0.9-1 2-0.9 2-2.6 0.8-1.5-1.1-3.2-2-4.8-2.9-1.8-1-2.2-0.8-3.3 1-1.9 3.1-3.6 6.3-5.7 9.3-0.8 1.3-1.5 2.4-1.7 4-0.3 2.6-2.6 3.7-4.7 4.7-1.7 0.8-4.2-1-5.1-3.5-1.4-3.9-2.8-7.9-4.1-11.9-1.8-5.3-3.1-10.8-5.5-15.7-2-3.9-1.8-8.2-3.8-11.8-0.1-0.2 0-0.5-0.1-0.7q-0.2-1.8-0.4-3.7c-1.1 0.5-2.1 1-3.2 1.3-3.6 1-7.2 1.8-10.9 2.7-0.7 0.2-1.3 0.5-2 0.8-1.9 0.8-3.7 0.4-4.8-1.1-1-1.5-0.9-3.6 0.2-4.9 3.3-3.8 5.7-8 6.5-13 0.4-2.2 2.1-4.1 2.7-6.2 0.8-3 1.9-5.7 2-8.9 0.1-3.5-1.8-5.1-4.2-6.7-4.5-3-9.9-4.1-14.9-6-2.1-0.8-4.2-1.5-6.5-2.5zm27.2 39.8c0.3 0 0.7 0.2 1 0 2.6-1.6 5.3-1.7 8.2-0.7 1.3 0.5 3.2 1 4.2 0.5 2.3-1.3 1.4 1.2 2.3 1.4-1.7 2.2 0.2 4 0.7 5.9 0.9 3.5 2.2 7 3.2 10.6 0.6 2 1.7 3.9 1.4 6.1 0 0.5 0 1.2 0.3 1.5 1.6 1.9 1.7 4.2 2.4 6.4q0.3 0.9 0.6 1.8 0.3 0.9 0.7 1.8 0.3 0.9 0.7 1.8 0.3 0.9 0.7 1.8c0.2 0.5 0.9 0.8 1.4 1.1q0.3-0.6 0.5-1.3 3.7-8.3 7.4-16.6c0.1-0.3 0.5-0.5 0.8-0.7 0.2 0.3 0.4 0.6 0.5 1 0.1 0.9-0.4 2.3 0.7 2.6 0.8 0.1 1.7-0.8 2.6-1.2 0.2-0.2 0.6-0.5 0.7-0.7 0.4-2.3 1.1-0.8 1.8-0.2 2.5 2 5.2 3.8 7.4 6.2 2 2 5.1 2.6 6.5 5.4 0.7 1.5 2.5 2.7 4.1 3.4 0.9 0.4 1.7 0.7 2.5 1.4q4.7 4.1 9.6 8.2c0.3 0.3 0.7 0.4 1.1 0.5 0.1-0.3 0.3-0.7 0.3-1.1 0-2.5 0.6-5 0.7-7.5 0.1-5.3 0.4-10.6 0.6-15.8 0.1-3.8 0.4-7.7-0.4-11.6-0.8-3.8 1.1-7.5 2.7-11.1 0.2-0.5 0.7-0.8 1.1-1.1 0.1-0.1 0.7 0.2 0.7 0.3-0.2 2.1 1.4 1.1 2.2 1.2 0.3 0.1 0.8-0.4 1-0.8 0.8-1.4 1.7-0.8 2.9-0.5 5.6 1.2 10.3 4.4 15.1 7 3.3 1.8 6.4 4 8.9 6.8 1.2 1.2 2.6 2.3 4 3.3 3.1 2.1 6.3 4.1 9.4 6.2 0.8 0.5 1.3 1.7 2.1 1.9 1.2 0.3 1.9 0.8 2.8 1.5 4 3.2 8 6.4 12.1 9.3 2.8 1.9 5.9 3.5 8.9 5.1 1 0.4 2.3 0.9 3.2 0.6 1.4-0.5 0.7-2.1 0.7-3.2 0.1-0.4-0.3-0.8-0.3-1.2-0.4-1.9-0.6-3.8-1-5.6-0.4-2.4-0.1-4.8-0.6-7.2-0.3-1.5-0.5-3.1-0.7-4.7 0-0.3 0.1-0.9 0.2-0.9 1.7-0.2 1.1-1.6 1.1-2.5 0-1 0.5-1.2 1.2-1 0.3 0.1 0.7 0.6 0.8 1 0.3 1.4 0.4 2.7 0.7 4.1 0.1 0.3 0.4 0.6 0.6 0.9 0.3-0.3 0.6-0.5 0.7-0.8 0.3-1.2 0.5-2.3 0.7-3.4 0.4-2.1 0.5-2.2 2.4-1.1 3.4 1.8 7.3 2.3 10.5 4.5 1.2 0.7 2.7 1 4.1 1.4q8.2 2.7 16.4 5.4c4.2 1.3 8.3 2.7 12.4 3.9 0.2 0.1 0.8-0.3 0.9-0.6 0.1-2.7-0.1-5.7-1.7-7.9-2.3-3.2-3.5-6.8-4.8-10.4-0.4-1-0.3-2.7 0.3-3.7 3.6-6.1 8.2-11.6 12.9-17 2.3-2.7 5-5.2 7.2-8 2.3-2.9 4.5-5.9 6.4-9 2.1-3.4 4-7 5.9-10.5 0.9-1.5 0.5-3.2-0.8-4.2-3.3-2.4-7-4.1-10.5-6.1-2-1.1-4-2.3-6.3-2.5-3.5-0.3-6.6-1.6-9.6-3.4-1.3-0.8-2.6-1.3-4.1-1.3-0.8 0-1.8-0.2-2.4-0.6-3.8-2.2-6.9-5.3-9.9-8.4-1-1-0.9-2.1-0.1-3.2q0.5-0.6 1-1.1 0.4-0.6 0.9-1.1 0.5-0.6 0.9-1.1 0.5-0.6 1-1.1c2.2-2.5 3.9-5.3 4.9-8.3q0.5-1.4 1.1-2.8 0.5-1.4 1.1-2.8 0.5-1.4 1.1-2.8 0.7-1.4 1.3-2.7c2.6-5.3 4.2-10.9 6.8-16.2 0.5-1 0.5-2.4 1.2-3.2 2.2-2.3 2.4-5.7 4.2-8.3 0.5-0.8 0.8-1.8 1.3-2.7q-2.4 0.1-4.8 0.2c-0.3 0-0.6 0.1-0.9 0.2-0.6 0.2-1.4 0.7-2 0.6-2.2-0.2-4.3 1-6.5 0.1-0.4-0.2-1.1-0.1-1.6 0.1-3.3 1.6-6.7 3.2-10.6 2.6-0.3-0.1-0.8 0.3-1.1 0.5-2.2 1.3-4.5 2.1-7.1 2.2-2.1 0.1-4.1 0.3-6.2-0.1-0.9-0.1-2-0.2-2.9 0.1-2.9 1-5.6 1-8.4-0.4-0.5-0.3-1.2-0.3-1.8-0.4-1.5-0.2-3-0.2-4.4-0.7-1.5-0.4-2.5-2.8-2.4-4.7 0.1-3 0.3-6.1-0.1-9-0.3-2.7 0.8-5.2 0.2-7.9-0.3-1.7 1-3.9 0.3-5.4-1.5-3.5 0.4-6.8 0.1-10.2-0.5-5.2 0.6-10.6 0.8-15.9 0.1-1.7-0.2-1.8-1.8-1.3-2.2 0.7-4.4 1.4-6.6 1.9-0.8 0.2-1.7-0.2-2.5 0-0.9 0.2-1.6 1.1-2.5 1.2-2.7 0.1-5.5 0.1-8.3 0-0.5 0-1.5-0.6-1.5-0.9-0.1-3.3-2.8-3.1-4.8-3.7-4.9-1.5-10-2.6-14.8-4.5-0.5-0.2-1.7 0.2-1.7 0.4-0.6 2.7-1.5 5.5-1.3 8.1 0.2 1.7 0.3 3.4 0.5 5.1 0.1 1.1-0.2 1.9-1.4 2.3-0.5 0.1-1 0.7-1.5 1.1-0.7 0.8-1.4 0.6-2.5 0.6-3.5-0.3-6.7-2.9-10.4-1.8-0.5 0.1-1.2-0.4-1.8-0.6-0.8-0.1-1.7-0.2-2.5-0.3-1.6-0.2-3.3-0.2-4.9-0.5-0.9-0.2-1.2-2.2-2.6-0.7-0.8 0.9-1.9-1.2-2.7 0.1-2.6-0.5-5.5 1.2-8-1.1-0.3-0.3-1.4 0.3-2.2 0.4-0.7 0.2-1.5 1.2-2.1-0.1-0.1-0.3-0.7-0.5-1.1-0.5q-3.2-0.4-6.4-0.7c-0.6 0-1.2 0.2-1.9 0.3 0.3 0.5 0.5 1.1 0.9 1.6 0.5 0.7 1.3 1.2 1.7 2 3.2 5.1 5.9 10.3 7.4 16.2 0.8 2.9 0.6 3.9-1.9 5.2-1.5 0.9-3.1 0.9-4.9 0.4-2-0.6-4.2-0.7-6.3-1-1.8-0.3-3.9 1.7-5.5-0.7 0 0-0.4 0.1-0.6 0.2-1.3 0.1-2.9 0.8-3.8 0.3-1.7-1-3 0.5-4.5 0.3-4.8-0.5-9.6-0.5-14.4-0.8-0.7-0.1-1.3-0.6-2-0.8-0.3-0.1-0.8-0.2-0.9 0-0.8 1-1.4 1-2.4 0.2-0.8-0.6-1.8-1.2-2.8-1.3-1.1-0.1-2.3 0.4-3.4 0.6-0.3 0-0.8 0.1-1-0.1-1.3-1.3-2.9-0.5-4.4-0.5-1.7-0.1-2 0.6-1.2 2.3 0.3 0.7 0.7 1.5 0.9 2.3 1.1 2.9 3.6 4.9 4.9 7.6 2 4.1 4.6 7.9 4.8 12.7 2.5 3.3 2.5 7.4 3.8 11.1 0.9 2.9 0.1 5.5-1.9 7-1.4 1.1-3.2 1.3-4.6 0.8-1.9-0.7-3.4-0.4-5.2 0-3.2 0.5-6.5 0.3-9.7 0.1-3.9-0.3-4.2-0.4-7.9 1.2-0.5 0.2-1.1 0.1-1.6 0-0.8-0.1-1.6-0.5-2.4-0.5-2.4 0.1-4.8 0.4-7.1 0.7-0.3 0-0.5 0.3-0.7 0.4 0.2 0.3 0.4 0.6 0.7 0.9 1.5 1.2 3.3 2.4 4.7 3.8 4.3 4.2 7.5 9.2 10.6 14.3 1 1.6 2.2 3.3 2.8 5.1 0.5 1.8 1.5 3.4 0.8 5.7-1.2 3.8-4 5.8-6.9 8.1-2.9 2.3-6.6 2.8-9.9 4.3-3.6 1.8-7.4 2.9-11.3 4-0.7 0.2-1.2 0.8-1.8 1.3 0 0.1 0.2 0.7 0.2 0.7 2.6-0.2 4.7 1.2 6.9 1.9 3.4 1.2 6.7 2.7 10.1 4 1.7 0.6 3.9 0.5 5.3 1.5 3.5 2.7 7.6 3.7 11.5 5.4 1.2 0.6 2.1 2.2 2.9 3.4 0.6 0.8 0.9 1.9 1.4 2.8 1 1.9 1.2 4.2 0.5 6-2.4 6.2-3.5 12.9-7.1 18.7-0.6 1-0.5 2.4-1.1 3.6l-1.6 1c0.1 0.1 0.3 0.4 0.4 0.4q0.7-0.4 1.3-0.8c0.2-0.1 0.2-0.4 0.6-0.6zm19.3 29.4l0.1-0.6c-0.1 0.2-0.3 0.4-0.7 0.6l-0.1 0.6c0.1-0.2 0.3-0.4 0.7-0.6zm148.1-144.7l0.1-0.6c-0.2 0.2-0.3 0.4-0.8 0.6v0.6c0.1-0.2 0.2-0.4 0.7-0.6zm-174.7 14.7l-0.3 1 0.4 0.1c0.1-0.3 0.1-0.7 0.5-1.1l0.1-0.6c-0.2 0.2-0.3 0.4-0.7 0.6zm-18.1 7.3q0.2-0.1 0.4-0.2 0.1-0.1 0.3-0.2 0.2-0.1 0.3-0.1 0.2-0.1 0.4-0.2l0.8-0.1-0.1-0.5q-0.2 0.1-0.3 0.2-0.2 0.1-0.4 0.2-0.2 0.1-0.3 0.1-0.2 0.1-0.4 0.1c-0.3 0.3-0.7 0.5-1.3 0.7l-0.1 0.6c0.2-0.2 0.3-0.4 0.7-0.6zm222.8 17.3l-0.2 1.1 0.4 0.1c0-0.4 0.1-0.8 0.5-1.2 0.1-0.4 0.2-0.8 0.7-1.3 0.2-0.6 2.1-1.2 0.2-1.9-0.5-0.2-1.3 0.1-1.9 0.2 0.5 0.4 0.9 0.7 1.3 1.1 0.1 0.1 0 0.4-0.3 0.6-0.1 0.5-0.2 0.9-0.7 1.3zm-200.1 66l0.3-1-0.4-0.1c-0.1 0.4-0.2 0.8-0.5 1.1l-0.1 0.7c0.1-0.2 0.3-0.4 0.7-0.7zm-12.7-74.6c0.4-0.3 0.7-0.5 1-0.8 0.1 0-0.1-0.3-0.2-0.5-0.3 0.3-0.6 0.5-0.9 0.8-0.1 0.1-0.1 0.3-0.5 0.5l-0.1 0.6c0.2-0.2 0.3-0.4 0.7-0.6zm36.4 121l0.2 0.8 0.4-0.1c-0.2-0.4-0.4-0.7-0.6-1.4l-0.9-1.6c-0.2 0.1-0.4 0.3-0.4 0.4q0.3 0.7 0.7 1.3c0.1 0.1 0.4 0.2 0.6 0.6zm57.4-18.7c0.2 0.3 0.4 0.7 0.7 1 0.1 0 0.3-0.2 0.5-0.2-0.2-0.3-0.4-0.6-0.7-0.9-0.1-0.1-0.4-0.2-0.5-0.6 0.2-0.5 0.4-1.1 0.6-1.7 0-0.1-0.3-0.3-0.5-0.4-0.2 0.5-0.6 1.1-0.8 1.6 0 0.3 0.4 0.6 0.7 1.2zm119.4 14h-0.7c0.2 0.1 0.4 0.2 0.7 0.7 0.2 0.2 0.4 0.6 0.7 0.7 0.5 0.1 1.2 0.1 1.8 0.1-0.5-0.4-1-0.8-1.6-1.1-0.2-0.2-0.6-0.1-0.9-0.4zm9.3 4l0.6 0.1c-0.2-0.2-0.4-0.3-0.6-0.8 0.1-1.4-1.5-0.8-1.9-1.6-0.3 0.1-0.7 0.2-0.7 0.4-0.1 0.3 0.1 0.8 0.2 0.8 0.8 0.4 1.6 0.5 2.4 1.1zm-206.4-57c0.6-0.2 0-2 1.6-1.1 0.7 0.3 1.9-0.1 2.8-0.2 0.2-0.1 0.4-0.2 0.5-0.3-0.1-0.2-0.3-0.3-0.4-0.4-1.5-0.2-2.9-0.5-4.4-0.5-0.1 0-0.3 1.6-0.8 2.5-0.1 0.3-0.3 0.6-0.3 0.9 0 0.3 0.2 0.7 0.3 1.1 0.3-0.4 0.6-0.8 0.8-1.2 0-0.2-0.3-0.5-0.1-0.8zm191.7 52.3l0.6 0.1c-0.2-0.1-0.4-0.3-0.6-0.7l-0.6-0.1c0.2 0.2 0.4 0.3 0.6 0.7zm-113-23l-1 1c1.2 0.8 0.1 1.6 0.1 2.4 0 0.7 0.8 1.5 1.2 2.3q0.2 0.4 0.4 0.9c0.1-0.3 0.3-0.6 0.2-0.9-0.1-1.8-0.4-3.5-0.9-5.7zm75.3-136.6c0.4-0.3 1-0.6 1-0.9 0-1.6 0-3.3-0.1-4.9 0-0.1-0.1-0.1-0.2-0.2-0.1 0.3-0.3 0.6-0.3 0.8-0.3 1.6-0.5 3.2-0.4 5.2zm-19.3 164q1.7 1.3 3.5 2.6c0.1 0.1 0.4 0 0.6-0.1 0 0 0.1-0.3 0-0.4q-0.6-0.4-1.1-0.8-0.6-0.4-1.2-0.8-0.5-0.4-1.1-0.8-0.6-0.4-1.1-0.8c-0.1-0.1-0.6 0.2-0.6 0.2 0.1 0.3 0.2 0.6 1 0.9zm-13-7.7l1.6 1.7c0.6-0.8 0.6-1.5-0.1-2.3-0.5-0.5-0.8-1.1-1.3-1.7-0.1-0.1-0.4 0-0.6 0q0.1 0.4 0.1 0.7c0.1 0.3 0.2 0.6 0.3 1.6zm-106.1-3.3q0.6 0.9 1.2 1.8 0.3 0.5 0.7 1c0-0.5 0.3-1 0.1-1.3-0.8-1.3-2.1-2.4-2-4.2 0 0-0.4-0.2-0.4-0.2-0.3 0.3-0.8 0.7-0.8 0.9 0.2 0.6 0.6 1.1 1.2 2zm183.8-17q0.1 2 0.3 4.1c0.1 0.2 0.2 0.4 0.3 0.5q0.2-0.2 0.4-0.4c1.2-1.5 0.6-2.9-1-4.2zm3.7-1.7q-0.2-0.1-0.3-0.2c-0.4-0.5-1.1-1.5-1.3-1.4-1.2 0.7-0.1 1.1 0.3 1.7 0.2 0.3 0.1 0.7 0.3 0.9 0.3 0.4 0.7 0.8 1.1 1.2 0.1 0 0.5-0.4 0.5-0.5-0.2-0.3-0.4-0.7-0.6-1.7zm-11-125.7q0.8-0.2 1.6-0.5c0 0 0-0.5-0.1-0.6-1-0.7-3.1-0.1-3.2 1.1 0 1 0.7 0.9 1.7 0zm-34.1 163.4c-0.6-0.7-0.4-2.2-2-2q0.5 1.1 1 2.3c0.1 0.3 0.1 0.6 0.2 0.9 0.3 0.2 0.6 0.4 1 0.7 0-0.6 0.1-1.1-0.2-1.9zm53.7-157c-1.4-0.2-1.4 0.8-1.3 1.7 0.1 0.7 0.3 1.8 0.5 1.9 1.4 0.1 0.7-1 0.8-1.6 0.1-0.5 0-0.9 0-2zm-20 50.6q-0.3-0.7-0.7-1.3c-0.1-0.4-0.3-0.7-0.5-1-0.5 0.3-1 0.5-1.3 0.9-0.1 0.2 0 0.9 0.2 1.1 0.7 0.4 1.5 0.7 2.3 0.3zm-162.7 108c0-0.9 0-1.9-0.1-2.9 0-0.3-0.5-0.5-0.7-0.7-0.2 0.3-0.6 0.9-0.5 0.9 1.1 1 0.4 2.3 0.6 3.4 0 0 0.4 0 0.7-0.7zm126-10.6l0.5 1c0.3-0.2 0.8-0.5 0.8-0.7 0-0.5-0.2-1-0.4-1.4-0.2-0.4-0.4-0.8-0.7-1.1 0 0.5-0.1 1-0.2 2.2zm-146.4-133.7c0.7-0.8 0.1-2.4 1.8-2.7 0.1 0 0.2-0.3 0.4-0.5-0.2 0-0.4-0.1-0.6-0.1-2.3 0-1.9 1.6-1.6 3.3zm106.4 121c-0.1-1-0.5-1.9-1.7-1.5-0.1 0.1 0.2 1.5 0.4 2.2 0.1 0.1 0.9 0 1.3-0.7zm-122.4-85v2l0.9-0.2c-0.2-0.7 1-1.7-0.9-1.8zm223.5 49.3c-0.1 0.4-0.4 0.8-0.3 1.2 0 0.5 0.1 1 0.2 1.5 0.4-0.5 0.8-1 1-1.5 0.1-0.3-0.2-0.8-0.9-1.2zm-44.4 39.7c0.1 0.1 0.1 0.2 0.2 0.2 0.1 0.1 0.2 0 0.3 0 0-0.4 0.3-0.8 0.1-1.2-0.2-0.7-0.7-1.3-1.1-2 0 0-0.4 0.1-0.6 0.1 0.4 0.5 0.8 1.1 1.1 1.6 0.1 0.2 0 0.4 0 1.3zm-173.4-42c0 0.2 0 0.5 0 0.7q-0.3 1-0.6 2c0.1 0.1 0.4 0.2 0.4 0.1 0.3-0.6 0.7-1.3 0.8-1.9 0.1-0.4-0.2-0.8-0.6-0.9zm4.7-2c0.8-0.6 0.8-1.3 0.4-2.2 0-0.1-0.5-0.1-0.5-0.1-0.2 0.6-0.5 1.2-0.6 1.8 0 0.3 0.2 0.6 0.7 0.5zm138.4-154.3c-0.5 0.6-0.7 1.2 0.3 1.3 0.6 0 1.3-0.3 1.9-0.4-0.5-0.3-1.1-0.6-2.2-0.9zm-63.7 209.6c-0.8-0.6 1.3-1 0.1-1.6-0.3-0.1-1 0.6-1.5 1 0.5 0.4 0.9 0.9 1.4 0.6zm26.6-197.3c0.1 0.1 0.2 0.2 0.3 0.2 0 0.1 0.2 0 0.2 0 0.1-0.6 0.2-1.2 0.2-1.8-0.1-0.2-0.5-0.5-0.7-0.7-0.2 0.3-0.6 0.5-0.6 0.9 0 0.3 0.2 0.7 0.6 1.4zm70.7 186l1.4 0.6c0.1-0.4 0.3-0.9 0.1-1.1-0.7-0.7-0.8-0.7-1.5 0.5zm-174.7-166c0.1 0.1 0.1 0.2 0.2 0.2 0.1 0.1 0.2 0.1 0.2 0 0.8-1-0.3-1.2-0.7-1.8l-1.7 1.4c0.2 0 0.5 0.1 0.8 0.1 0.3 0 0.6-0.1 1.2 0.1zm153.7 1.7c-0.9-0.1-1.3 0.3-0.8 1.1 0.3 0.4 1 0.5 1.6 0.8q-0.1-0.2-0.2-0.5 0-0.2-0.1-0.5-0.1-0.2-0.2-0.5-0.1-0.2-0.3-0.4zm51.7 139c0.2 0.6-0.5 1.6 0.8 1.6 0.2 0 0.4-1 0.5-1.5 0.1-0.3 0-0.6 0-0.9-0.3 0.2-0.6 0.3-1.3 0.8zm-127.7 25.6h-0.6q0.5 1 1.1 1.8c0 0.1 0.3 0 0.4 0-0.1-0.6-0.2-1.2-0.9-1.8zm-67.4-144l-0.2 1.8q0.7-0.4 1.3-0.9c0.2-0.1 0.3-0.3 0.5-0.4-0.3-0.2-0.6-0.3-1.6-0.5zm159.8 1c-0.2 1.3 0.7 1.1 1.4 1 0.2 0 0.4-0.5 0.6-0.8-0.6-0.2-1.1-0.3-2-0.2zm-15.4 146.7l-0.2-0.9c-0.4 0.4-1 0.8-1 1.2 0 0.4 0.6 0.9 1 1.3 0.1-0.3 0.2-0.6 0.2-1.6zm-120.4-171.7c-0.9 0-1.3 0.4-0.8 1.1 0.3 0.5 1 0.6 1.6 0.9-0.2-0.6-0.3-1.1-0.8-2zm-70 96.7c-0.4 0.6-0.7 1.2 0.3 1.3 0.2 0 0.6-0.9 0.7-1.4 0.1-0.9 0-0.9-0.7-0.8 0 0 0 0.4-0.3 0.9zm164.8 76.7c-0.2-0.3-0.2-0.7-0.4-0.9-0.3-0.2-0.7-0.3-1-0.4-0.1 0.4-0.3 0.9-0.1 1.1 0.4 0.5 0.9 1.4 1.5 0.2zm1.3 3.3c0.4-0.4 0.7-0.8 1.1-1.1 1-0.7 0-1-0.3-1.4-0.2 0.4-0.3 0.8-0.5 1.1-0.2 0.4-0.4 0.7-0.3 1.4zm25-189.7c0-0.5 0-1 0-1.6 0-0.2-0.3-0.4-0.4-0.6-0.3 0.7-0.7 1.5-0.8 2.2-0.1 0.2 0.8 0.5 1.2 0zm-142.1 169.4l-0.2-1.6c-0.1 0.4-0.3 0.8-0.4 1.3q0 0.1-0.1 0.3 0 0.1 0 0.3 0 0.2 0 0.3 0.1 0.2 0.1 0.4c0.1 0.4 0.3 0.8 0.4 1.2 0.1-0.5 0.2-1 0.2-2.2zm192.1-111.4c-0.1-0.3-0.2-0.7-0.4-1-0.2-0.3-0.5-0.4-0.7-0.5-0.1 0.2-0.2 0.4-0.2 0.5-0.1 0.8 0 0.9 1.3 1zm-12.3 23c-0.1 0.1-0.2 0.2-0.2 0.3-0.1 0.3-0.1 0.6-0.3 0.8-0.4 1.1 0 2.1 0.4 1.6 0.4-0.6 0.3-1.5 0.1-2.7zm11-19l-0.2-1.5-1.7 1.7c0.5 0 1 0.1 1.9-0.2zm-60.4 134.4c0.2 0.4 0.2 0.9 0.5 1.1 0.2 0.2 1 0.1 1.1-0.1 0.3-0.7 0-1.1-1.6-1zm5.7 3.6c0 0.1 0 0.3 0 0.3q0.5 0.4 1.1 0.7l-0.1-2zm-150.4-62.3v-1.3l-1.5 0.2c0.2 0.4 0.5 0.7 1.5 1.1zm225.8-5.7c-0.3 0.4-0.6 0.7-0.7 1.1 0 0.4 0.2 0.8 0.3 1.2 0.1-0.3 0.3-0.6 0.4-1 0.2-0.5 0.2-1.1 0-1.3zm-76.7-148c1.3 0.2 1.3-0.7 1.3-1.6 0-0.2-0.3-0.4-0.4-0.6-0.1 0.3-0.1 0.6-0.3 0.9-0.1 0.3-0.4 0.5-0.6 1.3zm-47.1 3.7c1 0.2 1.8-0.1 2.3-0.9 0-0.1-0.1-0.2-0.1-0.2q-1 0.2-2 0.5c-0.2 0-0.3 0.2-0.2 0.6zm-51.7 3h1.4l-0.4-1c-0.4 0.4-1.5-0.7-1 1zm-57.3 96.7c0 0.4-0.1 0.9 0 1.3 0.1 0.3 0.3 0.6 0.4 0.9 0.2-0.4 0.6-0.8 0.6-1.2-0.1-0.5-0.4-0.9-1-1zm214.4 99.6q-0.4-0.4-0.9-0.9-0.2-0.2-0.5-0.3c-0.1 0.2-0.3 0.4-0.2 0.5 0.4 0.8 0.6 2 1.6 0.7zm-1.6-5c-0.1 0-0.2-0.1-0.3-0.2 0 0-0.2 0-0.2 0-0.1 0.5-0.2 1-0.2 1.5 0 0.4 0.3 0.7 0.4 1 0.2-0.2 0.3-0.3 0.5-0.4 0.8-0.6 0-0.8-0.2-1.9zm-129.4 27.4l-0.5-1.6c-0.3 0.4-0.8 0.7-0.7 1 0 0.3 0.5 0.6 1.2 0.6zm-1.4-3.4q-0.6 0-1.3 0.1c0 0 0 0.6 0 0.6 0.4 0 0.9 0 1.3-0.7zm64.1-220.6l-0.8-1-0.6 0.5c0.4 0.3 0.7 0.6 1.4 0.5zm-37.4 5.3l0.2 0.9v-2.4c0 0.3-0.1 0.6-0.2 1.5zm-22 170.7q0.7 0 1.3-0.1c0 0 0-0.5 0-0.6-0.4 0-0.9 0-1.3 0.7zm75.4-156.7q0.6 0 1.3 0c0 0 0-0.6 0-0.6-0.4-0.1-0.9 0-1.3 0.6zm-110.4 7.7c-0.3 0.1-0.7 0.1-0.9 0.2-0.3 0.3-0.4 0.6-0.6 0.9 0.4 0 0.8 0 1.1-0.1 0.3-0.1 0.5-0.5 0.4-1zm163.1 19.6c-0.3-0.1-0.6-0.3-0.9-0.3-0.4 0.1-0.7 0.3-1.1 0.4 0.1 0.1 0.3 0.3 0.4 0.4 0.6 0.8 0.9 0.2 1.6-0.5zm-3.7 33q0-0.6 0-1.3c0 0-0.6 0-0.6 0-0.1 0.5-0.1 0.9 0.6 1.3zm-190.1-18.6l-0.2 1.1 1.2-0.8c-0.2-0.2-0.5-0.4-1-0.3zm3.3 7.3c-0.1 0.3-0.4 0.6-0.3 0.8 0.2 0.5-1.4 0.8 0 1.2 0.1 0 0.5-0.7 0.7-1 0-0.2 0-0.4-0.4-1zm-32.3 1c-0.5-0.1-1-0.2-1.5-0.3-0.1 0-0.3 0.2-0.5 0.3 0.3 0.1 0.5 0.3 0.7 0.3 0.3 0.1 0.6 0 1.3-0.3zm229.4-14.7c0 0.3 0 0.5 0 0.7 0.1 0.3 0.3 0.6 0.4 1 0.1-0.3 0.3-0.6 0.3-0.9-0.1-0.3-0.2-0.7-0.7-0.8zm-50 0l1.3-0.6c-0.4 0-0.9 0-1.3 0.6zm37 27.7c0.1-0.5 0.3-0.9 0.3-1.4 0.1-0.2-0.1-0.4-0.2-0.5-0.2 0.2-0.3 0.4-0.4 0.6-0.1 0.3 0 0.7 0.3 1.3zm-24-28.7c0.1 0 0.2-0.1 0.2-0.2 0.1 0 0-0.2 0-0.2q-0.7-0.1-1.5-0.2c-0.1 0-0.2 0.3-0.2 0.4 0.3 0.1 0.5 0.2 1.5 0.2zm24 32l0.9-1c-0.1-0.1-0.4-0.3-0.5-0.3-0.2 0.3-0.5 0.7-0.4 1.3zm-1.3 2v-1.2l-1 0.3zm-214.1 0.6l-0.7-1.3c0 0.4 0 0.9 0.7 1.3zm169.7-40.3c0-0.1-0.1-0.2-0.2-0.2 0-0.1-0.2 0-0.2 0q-0.1 0.8-0.2 1.5c0 0.1 0.3 0.2 0.4 0.2 0.1-0.3 0.2-0.5 0.2-1.5zm78.8 84c0 0.1 0.1 0.2 0.2 0.2 0 0 0.2 0 0.2 0q0.1-0.8 0.2-1.5c0-0.1-0.3-0.2-0.4-0.3-0.1 0.3-0.2 0.6-0.2 1.6zm-174.8-102.7l1.1 0.9c0.1-0.1 0.3-0.4 0.2-0.5-0.3-0.2-0.6-0.5-1.3-0.4zm0.3-8.3c-0.3 0.2-0.6 0.5-1 0.7 0 0.1 0.2 0.4 0.3 0.5 0.3-0.3 0.7-0.6 0.7-1.2zm145.8 152.3c-0.3-0.3-0.5-0.7-0.8-1 0 0-0.3 0.2-0.5 0.3 0.3 0.3 0.6 0.7 1.3 0.7zm-105.4-165.3l-1.3-0.1 0.3 1.1zm-49.4 0.6l-0.2-0.8c-0.1 0.1-0.4 0.5-0.4 0.5 0.3 0.3-0.7 1.4 0.6 0.3zm-56 167.4l-1.3-0.1 0.3 1.1zm59.4 29.3l-1.1-0.9c-0.1 0.2-0.3 0.4-0.2 0.5 0.3 0.3 0.6 0.5 1.3 0.4zm77.7-203.7c0.3-0.2 0.7-0.4 1-0.7 0-0.1-0.2-0.3-0.2-0.5-0.4 0.3-0.8 0.6-0.8 1.2zm9.3 206.7l0.4 0.7c0.1-0.3 0.2-0.5-0.4-0.7zm-118.7 0.7q0.2-0.6 0.3-1.1c0 0-0.3-0.1-0.4-0.1-0.1 0.3-0.2 0.5 0.1 1.2zm172.4-7l-0.6 0.3c0.2 0.1 0.4 0.2 0.6-0.3zm-25.7-7.7q-0.1 0.5-0.2 1.1c0 0 0.3 0 0.4 0.1 0.1-0.3 0.1-0.6-0.2-1.2zm-3-0.3q0.6 0.1 1.1 0.2c0 0 0.1-0.3 0.1-0.4-0.3-0.1-0.5-0.1-1.2 0.2zm-6.3-4.4q0.2-0.5 0.3-1c0 0-0.3-0.1-0.4-0.1-0.1 0.2-0.2 0.5 0.1 1.1zm-144.1 0q0.2-0.5 0.3-1c0 0-0.3-0.1-0.4-0.1-0.1 0.2-0.1 0.5 0.1 1.1zm-2.3-1.6l-0.2-0.9c-0.1 0.1-0.4 0.1-0.4 0.1 0.1 0.4 0.2 0.7 0.6 0.8zm89.4-6l0.6-0.4c-0.2-0.1-0.4-0.2-0.6 0.4zm-13-5q-0.2 0.5-0.3 1c0 0 0.3 0.1 0.4 0.1 0.1-0.2 0.2-0.5-0.1-1.1zm2-1.4q0.1-0.5 0.2-1c0 0-0.2-0.1-0.4-0.1 0 0.2-0.1 0.5 0.2 1.1zm117-9.6l0.2 0.8c0.2 0 0.4-0.1 0.4-0.1 0-0.4-0.1-0.7-0.6-0.7zm2.7-2.7l-0.7 0.3c0.3 0.1 0.5 0.3 0.7-0.3zm2-1.3l-0.2-0.9c-0.1 0.1-0.4 0.1-0.4 0.1 0.1 0.4 0.2 0.7 0.6 0.8zm-209.4-18.7l-0.2-0.8c-0.2 0-0.4 0.1-0.4 0.1 0 0.3 0.1 0.7 0.6 0.7zm228.7-15.3l-0.1-0.9c-0.2 0.1-0.4 0.1-0.4 0.1 0 0.4 0.1 0.7 0.5 0.8zm-266.8-10.7q0.6 0.1 1.1 0.3c0 0 0.1-0.3 0.1-0.5-0.3 0-0.5-0.1-1.2 0.2zm18.1-4.7l0.6-0.3c-0.2-0.1-0.4-0.2-0.6 0.3zm3.6-23.6q-0.1 0.5-0.2 1c0 0 0.2 0.1 0.4 0.1 0-0.2 0.1-0.5-0.2-1.1zm169.4-38q-0.1 0.5-0.2 1c0 0 0.3 0.1 0.4 0.1 0.1-0.2 0.1-0.5-0.2-1.1zm-137-23l0.6-0.4c-0.2-0.1-0.4-0.2-0.6 0.4zm136-21.4l0.2 0.9c0.2-0.1 0.4-0.1 0.4-0.1 0-0.4-0.1-0.7-0.6-0.8zm1.4-2l-0.2-0.8c-0.1 0-0.4 0.1-0.4 0.1 0.1 0.4 0.2 0.7 0.6 0.7zm-48.7-11.3l0.4 0.3c0-0.2-0.1-0.4-0.4-0.3zm-7.4 0.7l0.4 0.2c0-0.2 0-0.4-0.4-0.2zm57.1 2.3l-0.3 0.4c0.2 0 0.4 0 0.3-0.4zm-5.7 1.7l-0.4-0.3c0 0.2 0.1 0.4 0.4 0.3zm-6 1.3l-0.4-0.3c0 0.2 0 0.4 0.4 0.3zm-10 1.3l-0.4-0.2c0 0.2 0 0.4 0.4 0.2zm-85.7 1l-0.3 0.4c0.2 0 0.4 0 0.3-0.4zm5.3 1.4l-0.2 0.4c0.2-0.1 0.4-0.1 0.2-0.4zm26.4 3.6l0.4 0.3c0-0.2-0.1-0.4-0.4-0.3zm71.3 3.4l0.4 0.2c0-0.2 0-0.4-0.4-0.2zm1.4 12.6l0.4 0.3c0-0.2-0.1-0.4-0.4-0.3zm-101.1 4.4l0.3-0.4c-0.2 0-0.4 0-0.3 0.4zm-15 0.3l0.4 0.3c0-0.2 0-0.4-0.4-0.3zm12 0l0.4 0.3c0-0.2 0-0.4-0.4-0.3zm104.4 1.7l0.3-0.4c-0.2 0-0.4 0-0.3 0.4zm-154.7 4.6l-0.3 0.4c0.2 0 0.4 0 0.3-0.4zm4.3 5l0.4 0.3c0-0.2 0-0.4-0.4-0.3zm149.4 8l0.4 0.3c0-0.2 0-0.4-0.4-0.3zm55 1l0.3-0.4c-0.2 0.1-0.4 0.1-0.3 0.4zm-198.1 1.4q0 0 0 0.1-0.1 0-0.1 0.1 0 0-0.1 0.1 0 0 0 0.1c0.2-0.1 0.4-0.1 0.2-0.4zm167.8 3.6l0.4 0.3c0-0.2-0.1-0.4-0.4-0.3zm-184.4 17l0.2-0.4c-0.2 0.1-0.4 0.1-0.2 0.4zm-24 5.4l0.2-0.4c-0.2 0-0.4 0-0.2 0.4zm224.4 22.3l0.4 0.3c0-0.2 0-0.4-0.4-0.3zm-204.8 8l-0.4-0.3c0 0.2 0.1 0.4 0.4 0.3zm-19.3 10l0.4 0.3c0-0.2-0.1-0.4-0.4-0.3zm-10 4.7l-0.4-0.3c0 0.2 0 0.4 0.4 0.3zm41 33.6l-0.3 0.4c0.2 0 0.4 0 0.3-0.4zm207.8 15l-0.4-0.2c0 0.2 0 0.4 0.4 0.2zm-200.8 4.7l0.4 0.3c0-0.2 0-0.4-0.4-0.3zm-19.3 0.7l0.4 0.2c-0.1-0.2-0.1-0.4-0.4-0.2zm103.7 2.3l-0.3 0.4c0.2 0 0.4 0 0.3-0.4zm107.7 8.3l0.4 0.3c0-0.2 0-0.4-0.4-0.3zm-90 2.7l-0.4-0.3c0 0.2 0 0.4 0.4 0.3zm93.3 5.3l-0.4-0.2c0.1 0.2 0.1 0.4 0.4 0.2zm-85.7 3.7l0.3-0.4c-0.2 0-0.4 0-0.3 0.4zm60.1 0l0.2-0.4c-0.2 0-0.4 0-0.2 0.4zm-135.8 0.3l-0.4-0.2c0 0.2 0.1 0.4 0.4 0.2zm138.1 0l-0.4-0.2c0 0.2 0 0.4 0.4 0.2zm-50 8.7l-0.4-0.3c0 0.2 0 0.4 0.4 0.3zm25.3 0.7l0.4 0.2c0-0.2 0-0.4-0.4-0.2zm-78.4 4.3l-0.2 0.4c0.2 0 0.4 0 0.2-0.4zm-14.6 4l0.2-0.4c-0.2 0-0.4 0-0.2 0.4zm89.7 0.3l0.4 0.3c0-0.2-0.1-0.4-0.4-0.3zm2 0.7l0.4 0.3c0-0.2-0.1-0.4-0.4-0.3zm-76.1 8l-0.4-0.3c0.1 0.2 0.1 0.4 0.4 0.3zm-2 2.7l-0.4-0.3c0.1 0.2 0.1 0.4 0.4 0.3z"/>
</svg>