<svg version="1.2" xmlns="http://www.w3.org/2000/svg" viewBox="0 0 534 534" width="534" height="534">
	<title>misc-9</title>
	<style>
		.s0 { fill: #f9c74f } 
	</style>
	<path class="s0" d="m292.6 117.2c3.2-3.1 5.6-6.4 8.8-8.5 5.2-3.4 10.8-6.6 16.7-8.8 4.3-1.6 9-5 13.9-1.1 1.4 1.1 2.7 2.6 3.4 4.2 3.3 8.1 4.9 16.2 1.7 24.8-0.8 2.2 2 4.5 4.2 3.5 5.6-2.6 11.8-3.1 17.5-5.1 5.2-1.9 9.3 1.1 13.8 1.6 2.8 0.3 6.2 4.3 5.3 9.2-1.3 7.7-3.6 15.2-7.7 21.9-3.1 5.3-6.9 10.2-10.4 15.3-0.2 0.3-0.3 0.7-0.4 1.1 0.7 0.1 1.4 0.4 2.1 0.3 3.3-0.8 9.2 0.4 11.3 2.1 5.9 4.6 3.6 10.9 2.9 16.4-0.6 3.7-3.2 7.2-5.4 10.3-5 6.9-11.5 12.4-18.8 16.7-2.3 1.4-3.2 2.5-3.6 5.1-0.7 4.6-4.1 8.4-7.5 10.5-7.4 4.6-15.8 7.5-23.3 11.8-4.3 2.5-8.4 6.1-11.4 10.1-9.7 13.1-22.4 12.3-32.9 4.2-3.8-3-4.6-8.4-5-13.5-0.3-3.7-1.5-7.2-2.4-10.8-0.1-0.6-1-0.9-1.6-1.3-0.2 0.7-0.8 1.6-0.5 2 2.1 4.4 1.8 9 1.4 13.5-0.5 5.5-1.9 10.8-2.7 16.2-0.4 2.2-0.1 4.6-0.4 6.9-0.3 3-1 5.9-1.2 8.9-0.1 1 0.4 2.4 1.2 3.1 0.4 0.4 2.1 0 2.7-0.6q1.2-1 2.4-1.9 1.2-1 2.3-2 1.2-1 2.3-2.1 1.2-1 2.3-2c3.9-3.6 13.5-4.3 17.5-0.8 1.1 1 1.8 3 1.9 4.6 0.3 8-3.6 14.4-8.7 20-4.7 5.2-9.6 10.4-15 14.9-4.5 3.7-9.5 7.1-16 4.3-2.6-1.2-3.4 1-4.3 2.9-2.5 5.8-4.1 11.8-7.1 17.5-3.5 7-7.1 13.9-11.7 20.3-8.7 12.2-17.2 24.6-27.4 35.7-1.5 1.6-3.5 2.8-5.4 3.9-0.9 0.5-2.2 0.2-3.2 0.3 0.1-1.3-0.2-3.1 0.4-3.6 5.8-4.8 7.1-13.1 13.8-17.1 0.5-7.1 8.4-9.4 10.3-16.1 1.3-5 5-9.8 8.7-13.6 5.9-6 7.9-14.1 12.2-20.9 1.4-2.3 2.2-4.9 3.2-7.4 4.2-11.4 6.7-23.4 9.5-35.3 2.9-12.3 5.1-24.6 4.7-37.3-0.1-6.1 1-12.1 1.4-18.2 0.1-0.8-0.6-1.6-0.9-2.4-0.7 0.7-2 1.4-2.1 2.2-0.2 2.6 0.1 5.3-0.1 7.9-1.2 14-15 26.2-26.9 25.9-7.1-0.2-11.9-3.8-15.4-9.4-1-1.6-2.6-3.1-0.3-5.9 1.8-2.1 1-6.3 1.9-9.3 1-3.5 1.7-7.3 5-9.8 0.7-0.4 0.8-1.7 1.2-2.6-0.9-0.2-1.9-0.7-2.8-0.7-7.7-0.6-15.1-4.9-15.9-10.3-1-6.8-0.3-13.7 4.9-19.1 2.4-2.7 6.4-5 7.1-8 0.5-2.5-2.9-5.8-4.3-8.9-3.4-7.7-6.9-15.2-3.3-24.2 3.2-7.8 8.2-15 15.6-17 8.8-2.4 12.3-8.5 15.7-14.9 3.2-6 7.3-10.9 12-15.4 8.2-8 28.7-7.4 33.8 7.8 0.4 1.1 0.9 2.1 1.3 3.1 0.7-0.8 1.2-1.9 2-2.4 1.7-0.9 3.6-1.5 5.7-2.7zm-45.1 42c2.9-5.8 6.2-10.2 13.5-12.3 12-3.4 12.2-4.2 13.9-12.1 0.9-4 1.1-8.8-0.3-12.6-3.6-9.9-14.1-9.8-21.6-4.2-3.4 2.4-5.4 7-7.9 10.7-3.1 4.5-3.1 9.1-0.3 13.8 1.2 1.9 2.2 3.9 2.6 6 0.5 2.5 0.5 5.5-2.3 6.7-2.6 1.2-4.1-1.1-5.9-2.6-2.5-2.1-3.9-5-8.1-5.4-6.9-0.6-10.1 4.9-15 7.5-3.3 1.8-1.1 5.7-1.6 8.6-0.2 1.3-0.2 2.7 0 3.9 1.1 7.5 3.9 14 10.5 18.3 4.9 3.1 8.7 1.5 10-3.8 0.9-4 1.9-8.1 3.6-11.8 1.7-4 4.5-7.4 8.9-10.7zm80.1-23.5c1.3-5 2.5-10.1 3.7-15.1 1.2-4.9-0.6-7.9-2.1-11.5-1.7-4-3.9-5-7.4-3.7-13.6 5.2-23.8 14.8-33.2 25.4-1.6 1.8-2.7 4.2-3.3 6.5-0.5 1.7-0.9 4.1 2.7 4 6.1-0.2 11.6 2.6 16.3 5.9 6.2 4.5 12 9.8 17.1 15.5 7 7.9 8.4 17.6 4.9 27.4-2.3 6.6-5.9 12.8-9.3 18.9-1.9 3.2-4.2 6.7-7.3 8.7-11.3 7.3-23.8 12.1-37.1 14.4-4.4 0.8-3.4 2.3-2.3 5 0.9 1.9 2.4 4.1 2.2 6-0.7 5.9 2.8 9.6 6.2 13.2 4.5 4.8 13.8 4.5 18.2-0.4 1.2-1.4 1.7-2.6-0.8-3.3-0.9-0.2-1.7-1-2.4-1.6-2.4-2.3-4.6-4.7 0.4-6.5 0.7-0.3 1.2-1.1 1.7-1.7 4.1-5 4.1-4.8 10.2-3.2 2 0.5 3.9 2 6.5 0.8 4.8-2.1 10-3.5 14.9-5.7 2.8-1.2 5.3-3.2 7.9-4.9-2.7-0.2-5.5-0.6-8.3-0.6-2.8 0-5.4-0.1-5.6-3.6-0.2-2.9 2.9-5.8 5.6-5.9 4.4-0.2 9.2 0.6 13-0.9 9.6-3.8 18-10 24.6-18.2 2.2-2.7 3.7-6.2 5-9.6 1.5-4-3-9.8-6.8-8.8-4.4 1.2-8.6 3.3-13 4.4-3.6 1-7.4 1.2-11.1 1.7-0.5 0-0.9-0.3-1.4-0.5 0.5-0.4 1-0.7 1.3-1.1 0.6-0.6 1.6-1.4 1.5-2.1-0.5-3.8 1.8-5 4.7-6.6 4-2.2 7.5-4.7 10.7-8.4 4-4.7 5.9-10.4 9.7-15 3.6-4.4 5.4-9.4 4.9-15.3-0.4-3.8-1.7-5.7-5.7-5.9-5.8-0.5-11.3 1-16.8 2.7-6.3 2-12 5.1-16.2 10.1-2.4 2.8-5.3 3.6-8.3 2.7-3.6-1.2-0.7-1 0.5-1.6 0.5-0.2 1.1-2.1 0.8-2.5-3.8-4.7 1.6-5.3 3.2-9.1zm-25.1 22c-3.1-1.5-6.1-3-9.2-4.5-8.4-3.8-11.5-4.3-18.7-2.6-4.3 1-8.5 2.3-12.7 3.7-2.8 0.9-6.1 1.7-5.1 6.2 0.3 1.3-0.2 3-0.9 4.3-0.3 0.7-1.6 1-2.4 1.5-0.4-0.8-1.2-1.5-1.2-2.3-0.1-2.1-0.1-2.9-2.3-1.1-4.7 3.9-6.7 9-8.4 14.6-2.5 8.6-4.1 17.1-3.6 26 0.3 5.2 2.4 10 6.1 12.9 9.6 7.5 20.3 10.5 32.8 6.7 6.3-1.9 12.5-4.1 18.6-6.2 14-4.7 21.8-14.1 25.8-27.5 0.5-1.6 1.9-3.6 1.4-4.8-4.2-10.3-7.5-21.5-20.2-26.9zm-66-14.2l1.5 0.1c-0.5-0.3-1-0.6-1.5-1.6l-1.5-0.2c0.5 0.3 1 0.6 1.5 1.7zm3.1 110c7.1-4.8 6.6-12.1 6.3-19.3 0-0.6-0.6-1.2-0.9-1.8-0.3 0.3-0.8 0.6-1 1.1-1.2 2.1-2.2 4.3-3.4 6.4-0.4 0.6-1.5 1.3-2.2 1.3-0.5 0-1.1-1-1.6-1.6 3.3-2.8-1.8-9.8 5.4-10.8 0.6 0 1.3-0.9 1.6-1.6 0.4-0.6 0.3-1.4 0.5-2.1-0.9-0.1-2.1-0.6-2.7-0.2-2.6 1.8-4.9 5-7.8 5.6-5.2 1-9.4 3.5-11.2 7.8-1.7 4.3-1.6 9.4-1.7 14.1-0.1 2.9 4.2 7.1 6.5 6.4 3.9-1.2 8.7-0.4 12.2-5.3zm-9.4-50.3c0-1.5-0.1-3.1 0-4.7 0.3-2.4-1.1-2.6-2.8-2.3-11.4 2.1-16.9 6-16.1 17.1 0.3 3.7 2.2 5.8 5.4 6.3 5.4 0.9 11 1.2 16.5 1.7 3.2 0.2 4.4-0.3 2.1-3.8-2.4-3.8-5.3-7.7-5.1-14.3zm41.6 102.9c2.4-2.4 4.7-5 7.3-7.1 3-2.5 3.5-5.9 4.4-9.2 0.4-1.7-0.4-5.4-0.9-5.4-2.4-0.2-4.9 0.5-7.3 1-0.4 0.1-0.7 0.7-1.1 1.1-5.2 4.3-8.6 10.7-15.8 12.9-1.4 0.4-2.3 3-3 4.8-0.8 2.1-1.2 4.3-1.6 6.4-0.4 2.1-0.7 4.1-1.1 6.2 1.6-0.9 3.2-2 4.8-2.8 4.5-2.4 9-4.8 14.3-7.9zm66-81.7l-2.1 1 2.1 2.1c0.5-1 1-2 0-3.1zm-88 4.7l5.4-0.9c-1.9-0.1-3.7-0.3-5.6-0.4-0.2 0-0.4 0.4 0.2 1.3zm11 64.4c0.2-0.1 0.4-0.3 0.5-0.5 0.1-0.1 0.1-0.3 0.1-0.5l-2.9 0.4c0.5 0.5 1 1 2.3 0.6zm37-143.7l2.5 2.2c0.2-0.4 0.7-1.1 0.6-1.2-0.8-0.7-1.6-1.2-3.1-1zm30.6 76.2l2-0.4c-0.1-0.4-0.3-1-0.3-1-0.8 0.2-1.7 0.4-1.7 1.4zm-29.1 22.8l-0.9-0.7c0 0.5 0.1 1 0.9 0.7zm-143.3 186.5c0.3 1 0.1 1.7 0 2.4-0.4-0.1-1-0.3-1-0.3 0.2-0.8 0.4-1.7 1-2.1z"/>
</svg>