<svg version="1.2" xmlns="http://www.w3.org/2000/svg" viewBox="0 0 534 534" width="534" height="534">
	<title>misc-14</title>
	<style>
		.s0 { fill: #f9844a } 
	</style>
	<path class="s0" d="m268.7 352c-10.5 1.2-20.2-1.2-29.7-1.4-12.2-0.4-21-6.5-30.5-11.6-9.3-5-12.1-15.5-15.5-25.1-5.1-14.7-6.4-29.6-5.2-45.3 2.1-26.1 15.6-44.2 34.9-60.1 9.1-7.5 18-8.8 28.9-6.8 5 1 10.9-0.4 15.9-2.1 7.3-2.5 13.9-0.9 20.7 1.5 9.7 3.6 19.7 6.6 29.4 10.2 3.5 1.3 7.4 3 9.9 5.7 9.6 9.9 19.1 20.1 27.9 30.7 5.4 6.6 5.8 15.5 4.5 23.1-1.7 9.4-5.8 18.4-9.6 27.2-2.3 5.5-6.1 10.4-9.2 15.6-9.3 15.6-24 24-40.3 29.8-10.2 3.7-20.4 7.8-32.1 8.6zm16-145.3c-3.2-0.4-6.4-0.8-9.7-1.1-10.5-1.1-18.9 4.3-27.6 9.1-4.3 2.4-9 4.2-13.5 6.1-0.9 0.4-2.1 0.2-3.1 0.2 0.3-1 0.2-2.3 0.8-2.9 2.2-2.3 4.8-4.3 6.9-6.7 0.9-1 0.9-2.7 1.2-4-1.2 0.2-2.8-0.1-3.7 0.6-6.4 4.6-12.9 9.1-18.9 14.2-11.6 10.1-19.2 23.2-22.1 38-2.9 14.8-1.7 29.9 2.6 44.6 3.7 12.6 9.2 23.8 21.7 29.9 3.8 1.9 8.4 2.5 11.9 4.8 13.1 8.3 27.2 7.4 41.4 5.1 7.2-1.2 14.5-3 21.3-5.7 16.7-6.5 32.9-14.2 43.3-29.9 2.5-3.7 4.9-7.4 7.3-11.1 5.8-9 7.7-19.4 9.7-29.5 0.8-3.9 0.8-9-2.5-13.1-3.8-4.6-6.4-10.2-10.4-14.6-6.5-7-13-14.4-20.7-19.9-9.9-7.2-21.9-10.8-35.9-14.1zm-132.4-27c9.8 12.2 21.3 20.4 34.7 26.6 3.2 1.5 5.5 5.2 7.9 8.2 0.6 0.7 0 3-0.8 3.9-0.6 0.8-1.5 1.6-3.7 0.1-9.2-6.2-19.4-11-28.6-17.3-4.8-3.4-7.7-9.5-12.5-13.2-8.4-6.6-15.4-15.5-26.5-18.4-0.6-0.1-1-0.8-1.4-1.2 0.5-0.4 1-0.9 1.5-1.1q1.4-0.6 2.7-1.2 1.4-0.5 2.7-1.1 1.4-0.6 2.8-1.1 1.3-0.6 2.7-1.2c0.3-0.1 1 0.2 1.3 0.5 5.5 5.4 10.8 10.8 17.2 16.5zm-45.6 98.6c12.7 0.2 24.5 0 36.3 0.1 11.6 0.1 22.9-0.8 33.6-5.8 1.4-0.7 3.6 0.5 5.5 0.8-1.1 2.4-1.6 6.1-3.4 6.9-12 5.5-25.2 6.4-38.1 6.9-12.5 0.4-25-1.4-37.4-0.6-4.4 0.3-5.6-1-6.1-3.8-0.6-3.2 1.7-4.5 4.8-4.3 1.3 0 2.5-0.3 4.8-0.2zm308.5 74c-12.5-3.1-21.7-10.6-32-16q-2.4-1.2-4.8-2.5-2.5-1.3-4.9-2.7-2.4-1.3-4.8-2.6-2.4-1.4-4.8-2.7c-1.6-1-3.3-2.4-4.1-4-1.1-2.4 1.5-5.3 4.1-4.4 5.6 1.9 11.4 3.7 16.5 6.6 13.5 7.7 26.6 16.1 40 24.2 4.1 2.4 8.6 4.3 12.6 6.9 1.6 1.1 2.3 3.5 3.5 5.2-2.1 0.1-4.5 1-6.1 0.2-4.9-2.3-9.5-5.2-15.2-8.2zm-199.8-2.3c1.7 1.4 3.3 2.7 3.2 3.6-2.3 12-9.9 20.8-18 29.3-9.3 10-18.5 20.2-27.7 30.2q-1.2 1.3-2.3 2.5-1.2 1.2-2.4 2.4-1.1 1.2-2.3 2.4-1.2 1.1-2.5 2.3c-0.4 0.4-2.1 0.3-2.6-0.2-0.6-0.5-0.7-2.1-0.3-2.7 1.8-2.2 4.4-3.9 5.8-6.3 7.3-12.4 17.5-22.6 26.2-33.8 5.5-7 11.6-13.5 17-20.6 2.1-2.7 3.3-6.2 5.9-9.1zm197.9-175.5c-6.5 3.8-12.5 7-18.2 10.6-9.3 5.8-16.2 14.4-24 22.1-1.6 1.6-3.8 2.8-6 3.9-0.6 0.3-2.5-0.5-2.5-1-0.2-1.1 0.1-2.6 0.7-3.3 10.4-11.9 20.8-23.9 34.8-31.7 5.6-3.2 12-4.9 18.1-7.3 5.7-2.2 11.5-4.4 17.2-6.5 1.5-0.6 3.1-0.6 4.6-0.8-0.8 1.5-1.2 3.5-2.5 4.4-6.5 4.6-13.7 7.7-22.2 9.6zm-120 234.7c1.1 9.1 2.5 17.2 3.6 25.4 0.1 1-1.6 2.6-2.9 3.4-0.4 0.2-2.7-1.3-2.9-2.3-1.5-6.5-3.4-13-3.7-19.6-0.7-14.3-1.4-28.6-6.8-42.2-0.6-1.6-0.4-4.1 0.4-5.7 0.8-1.5 2.8-2.5 4.2-3.8 0.8 1.5 1.7 2.9 2.4 4.4 5.3 11.6 4.1 24.4 6.7 36.4 0.2 0.9-0.4 2-1 4zm-15.5-291.7c1.8-7 3.3-13 5.1-18.9 0.3-1 1.5-1.7 2.2-2.6 0.6 1.3 1.8 2.7 1.6 3.7-2.4 8.3-3.5 16.5-2.6 25.3 1 10.7 0.5 21.6 0.8 32.4 0.2 11.4-5.2 20.6-12 29-0.7 0.9-2.9 0.6-4.4 0.8 0.5-1.3 0.8-2.7 1.5-3.9 6.9-10.8 10.3-22.1 8.4-35.3-1.4-9.1 0-18.5 0.1-27.8 0-0.6-0.7-1.2-0.7-2.7zm-96.5 208.5c-2.5 8.4-9.6 12.1-13.6 18.2-0.7 0.9-4.3 0.3-6.3-0.3-0.6-0.2-1.3-3.1-0.7-4 5-8.5 12.2-15 20.7-19.9 0.1 1.7 0.1 3.3-0.1 6zm45.4-145.5c0 2.5 0.3 4 0.6 5.5-1.3 0-2.7 0.4-3.8-0.1-1-0.4-2.2-1.5-2.6-2.6-2.8-7.5-5.5-15-7.9-22.6-0.4-1.2 1.1-2.9 1.8-4.4 1.2 0.8 2.7 1.5 3.6 2.6 4.6 6.1 6.8 13.3 8.3 21.6zm28.1 211.5c-1.7 0.5-3.4 1.1-3.7 0.7-4.7-7.3-2.8-16-4.3-24-0.2-0.6 1.7-1.9 2.9-2.2 0.6-0.2 2.1 1.1 2.3 1.9 1.3 4.8 2.6 9.7 3.5 14.7 0.4 2.7 0 5.6-0.7 8.9zm73.3-33.1c5.8-4.6 9.2 0.3 12.3 2.8 2.4 2.1 3.1 6.4 4.2 9.8 0.4 1.2-0.3 2.8-0.4 4.2-1.6-0.5-3.6-0.5-4.6-1.6-4.1-4.6-7.8-9.4-11.5-15.2zm-9.3-166c3.1-7.6 9.8-12.8 10.6-21.2 0.1-0.6 1.4-1.5 2-1.4 0.8 0.1 1.9 1 2 1.7 1.6 7.1-3.4 18.4-10.2 22.4-0.8 0.5-2.6-0.6-4.4-1.5zm82.8 74.9c-2.5 7-8.5 4.7-12.7 6.2-2.5 0.9-5.8-0.7-8.7-1.5-0.2 0-0.1-3.1 0-3.2 7.2-0.9 13.7-8.1 21.4-1.5zm-235.2-37.4c2 0.3 3 0.1 3.9 0.3 2.1 0.5 4.1 1.2 6.2 1.8-1.6 1.9-3 4-4.8 5.6-0.8 0.7-2.4 0.4-3.6 0.6-4.8 0.6-5.7-0.5-4.5-5.4q0.4-1.7 2.8-2.9zm227-61.2l-3.1 1.8v-3.4c1.2 0.4 2.5 0.8 3.1 1.6z"/>
	<path class="s0" d="m255.5 311.7c-6.8-1.7-13.6-2.4-15.8-8.8-2.2-6.5-2.9-13.6-3.9-20.5-0.2-0.9 1.2-2 1.8-3.1 0.5 0.9 1.2 1.8 1.5 2.7 2 5.2 3.4 10.5 5.8 15.4 1 2 3.9 3.3 6.1 4.5 1.4 0.8 3.3 0.7 4.9 1.5 7.1 3.2 13.6 2.5 19.8-2.4 1-0.8 2.7-0.8 4-1.2-0.4 1.6-0.4 3.8-1.5 4.5-3.2 2.4-6.7 4.7-10.5 6.1-3.5 1.2-7.4 1.1-12.2 1.3zm26.2-52.1c-0.7-2.6-1.1-4.7-1.4-6.7 1.9 0.3 4.4 0.1 5.6 1.1 1.5 1.3 3.1 4.7 2.5 5.5-1.3 1.6-3.8 4.4-6.7 0.1zm-22.3-2.2c-3.2 2-4.4 0.5-5.1-1.6-1-3 0-5.3 3-6.3 0.6-0.2 2.2 0.7 2.5 1.5 0.8 2.1 4.5 4.1-0.4 6.4zm4.7 28.4c-4.5 3.5-6.2 0.6-7-2.3-0.3-1 2.1-3.7 3.4-3.9 4.3-0.5 4.5 2.7 3.6 6.2z"/>
</svg>