<?xml version="1.0" encoding="UTF-8" standalone="no"?>
<!DOCTYPE svg PUBLIC "-//W3C//DTD SVG 1.1//EN"
 "http://www.w3.org/Graphics/SVG/1.1/DTD/svg11.dtd">
<!-- Generated by graphviz version 2.47.0 (20210316.0004)
 -->
<!-- Title: dependencies Pages: 1 -->
<svg width="620pt" height="284pt"
 viewBox="0.00 0.00 620.00 284.00" xmlns="http://www.w3.org/2000/svg" xmlns:xlink="http://www.w3.org/1999/xlink">
<g id="graph0" class="graph" transform="scale(1 1) rotate(0) translate(4 280)">
<title>dependencies</title>
<polygon fill="white" stroke="transparent" points="-4,4 -4,-280 616,-280 616,4 -4,4"/>
<text text-anchor="start" x="285.01" y="-42.4" font-family="Times-12" font-weight="bold" font-size="14.00">Legend</text>
<polygon fill="#ffffb3" stroke="transparent" points="72,-10 72,-30 92,-30 92,-10 72,-10"/>
<text text-anchor="start" x="95.63" y="-15.4" font-family="Times-12" font-size="14.00"> &#160;Declarations</text>
<polygon fill="#8dd3c7" stroke="transparent" points="185,-10 185,-30 205,-30 205,-10 185,-10"/>
<text text-anchor="start" x="208.73" y="-15.4" font-family="Times-12" font-size="14.00"> &#160;Module</text>
<polygon fill="#80b1d3" stroke="transparent" points="271,-10 271,-30 291,-30 291,-10 271,-10"/>
<text text-anchor="start" x="294.78" y="-15.4" font-family="Times-12" font-size="14.00"> &#160;Bootstrap</text>
<polygon fill="#fdb462" stroke="transparent" points="368,-10 368,-30 388,-30 388,-10 368,-10"/>
<text text-anchor="start" x="391.67" y="-15.4" font-family="Times-12" font-size="14.00"> &#160;Providers</text>
<polygon fill="#fb8072" stroke="transparent" points="464,-10 464,-30 484,-30 484,-10 464,-10"/>
<text text-anchor="start" x="487.73" y="-15.4" font-family="Times-12" font-size="14.00"> &#160;Exports</text>
<g id="clust1" class="cluster">
<title>cluster_ReminderModule</title>
<polygon fill="none" stroke="black" stroke-dasharray="1,5" points="8,-70 8,-268 604,-268 604,-70 8,-70"/>
</g>
<g id="clust3" class="cluster">
<title>cluster_ReminderModule_imports</title>
<polygon fill="none" stroke="black" points="364,-78 364,-130 596,-130 596,-78 364,-78"/>
</g>
<g id="clust4" class="cluster">
<title>cluster_ReminderModule_exports</title>
<polygon fill="none" stroke="black" points="279,-208 279,-260 411,-260 411,-208 279,-208"/>
</g>
<g id="clust6" class="cluster">
<title>cluster_ReminderModule_providers</title>
<polygon fill="none" stroke="black" points="16,-78 16,-130 356,-130 356,-78 16,-78"/>
</g>
<!-- JwtUtilsModule -->
<g id="node1" class="node">
<title>JwtUtilsModule</title>
<polygon fill="#8dd3c7" stroke="black" points="588.21,-122 585.21,-126 564.21,-126 561.21,-122 481.79,-122 481.79,-86 588.21,-86 588.21,-122"/>
<text text-anchor="middle" x="535" y="-99.8" font-family="Times,serif" font-size="14.00">JwtUtilsModule</text>
</g>
<!-- ReminderModule -->
<g id="node3" class="node">
<title>ReminderModule</title>
<polygon fill="#8dd3c7" stroke="black" points="402.26,-187 399.26,-191 378.26,-191 375.26,-187 287.74,-187 287.74,-151 402.26,-151 402.26,-187"/>
<text text-anchor="middle" x="345" y="-164.8" font-family="Times,serif" font-size="14.00">ReminderModule</text>
</g>
<!-- JwtUtilsModule&#45;&gt;ReminderModule -->
<g id="edge1" class="edge">
<title>JwtUtilsModule&#45;&gt;ReminderModule</title>
<path fill="none" stroke="black" d="M535,-122.11C535,-141.34 535,-169 535,-169 535,-169 412.26,-169 412.26,-169"/>
<polygon fill="black" stroke="black" points="412.26,-165.5 402.26,-169 412.26,-172.5 412.26,-165.5"/>
</g>
<!-- UsersModule -->
<g id="node2" class="node">
<title>UsersModule</title>
<polygon fill="#8dd3c7" stroke="black" points="463.92,-122 460.92,-126 439.92,-126 436.92,-122 372.08,-122 372.08,-86 463.92,-86 463.92,-122"/>
<text text-anchor="middle" x="418" y="-99.8" font-family="Times,serif" font-size="14.00">UsersModule</text>
</g>
<!-- UsersModule&#45;&gt;ReminderModule -->
<g id="edge2" class="edge">
<title>UsersModule&#45;&gt;ReminderModule</title>
<path fill="none" stroke="black" d="M387.33,-122.11C387.33,-122.11 387.33,-140.99 387.33,-140.99"/>
<polygon fill="black" stroke="black" points="383.83,-140.99 387.33,-150.99 390.83,-140.99 383.83,-140.99"/>
</g>
<!-- ReminderService  -->
<g id="node4" class="node">
<title>ReminderService </title>
<polygon fill="#fb8072" stroke="black" points="403.19,-252 286.81,-252 286.81,-216 403.19,-216 403.19,-252"/>
<text text-anchor="middle" x="345" y="-229.8" font-family="Times,serif" font-size="14.00">ReminderService </text>
</g>
<!-- ReminderModule&#45;&gt;ReminderService  -->
<g id="edge3" class="edge">
<title>ReminderModule&#45;&gt;ReminderService </title>
<path fill="none" stroke="black" stroke-dasharray="5,2" d="M345,-187.11C345,-187.11 345,-205.99 345,-205.99"/>
<polygon fill="black" stroke="black" points="341.5,-205.99 345,-215.99 348.5,-205.99 341.5,-205.99"/>
</g>
<!-- DatabaseService -->
<g id="node5" class="node">
<title>DatabaseService</title>
<ellipse fill="#fdb462" stroke="black" cx="273" cy="-104" rx="75.26" ry="18"/>
<text text-anchor="middle" x="273" y="-99.8" font-family="Times,serif" font-size="14.00">DatabaseService</text>
</g>
<!-- DatabaseService&#45;&gt;ReminderModule -->
<g id="edge4" class="edge">
<title>DatabaseService&#45;&gt;ReminderModule</title>
<path fill="none" stroke="black" d="M318,-118.75C318,-118.75 318,-140.59 318,-140.59"/>
<polygon fill="black" stroke="black" points="314.5,-140.59 318,-150.59 321.5,-140.59 314.5,-140.59"/>
</g>
<!-- ReminderService -->
<g id="node6" class="node">
<title>ReminderService</title>
<ellipse fill="#fdb462" stroke="black" cx="102" cy="-104" rx="78.15" ry="18"/>
<text text-anchor="middle" x="102" y="-99.8" font-family="Times,serif" font-size="14.00">ReminderService</text>
</g>
<!-- ReminderService&#45;&gt;ReminderModule -->
<g id="edge5" class="edge">
<title>ReminderService&#45;&gt;ReminderModule</title>
<path fill="none" stroke="black" d="M102,-122.11C102,-141.34 102,-169 102,-169 102,-169 277.72,-169 277.72,-169"/>
<polygon fill="black" stroke="black" points="277.72,-172.5 287.72,-169 277.72,-165.5 277.72,-172.5"/>
</g>
</g>
</svg>
