<?xml version="1.0" encoding="UTF-8" standalone="no"?>
<!DOCTYPE svg PUBLIC "-//W3C//DTD SVG 1.1//EN"
 "http://www.w3.org/Graphics/SVG/1.1/DTD/svg11.dtd">
<!-- Generated by graphviz version 2.47.0 (20210316.0004)
 -->
<!-- Title: dependencies Pages: 1 -->
<svg width="504pt" height="284pt"
 viewBox="0.00 0.00 504.00 284.00" xmlns="http://www.w3.org/2000/svg" xmlns:xlink="http://www.w3.org/1999/xlink">
<g id="graph0" class="graph" transform="scale(1 1) rotate(0) translate(4 280)">
<title>dependencies</title>
<polygon fill="white" stroke="transparent" points="-4,4 -4,-280 500,-280 500,4 -4,4"/>
<text text-anchor="start" x="227.01" y="-42.4" font-family="Times-12" font-weight="bold" font-size="14.00">Legend</text>
<polygon fill="#ffffb3" stroke="transparent" points="14,-10 14,-30 34,-30 34,-10 14,-10"/>
<text text-anchor="start" x="37.63" y="-15.4" font-family="Times-12" font-size="14.00"> &#160;Declarations</text>
<polygon fill="#8dd3c7" stroke="transparent" points="127,-10 127,-30 147,-30 147,-10 127,-10"/>
<text text-anchor="start" x="150.73" y="-15.4" font-family="Times-12" font-size="14.00"> &#160;Module</text>
<polygon fill="#80b1d3" stroke="transparent" points="213,-10 213,-30 233,-30 233,-10 213,-10"/>
<text text-anchor="start" x="236.78" y="-15.4" font-family="Times-12" font-size="14.00"> &#160;Bootstrap</text>
<polygon fill="#fdb462" stroke="transparent" points="310,-10 310,-30 330,-30 330,-10 310,-10"/>
<text text-anchor="start" x="333.67" y="-15.4" font-family="Times-12" font-size="14.00"> &#160;Providers</text>
<polygon fill="#fb8072" stroke="transparent" points="406,-10 406,-30 426,-30 426,-10 406,-10"/>
<text text-anchor="start" x="429.73" y="-15.4" font-family="Times-12" font-size="14.00"> &#160;Exports</text>
<g id="clust1" class="cluster">
<title>cluster_TagModule</title>
<polygon fill="none" stroke="black" stroke-dasharray="1,5" points="93,-70 93,-268 403,-268 403,-70 93,-70"/>
</g>
<g id="clust4" class="cluster">
<title>cluster_TagModule_exports</title>
<polygon fill="none" stroke="black" points="188,-208 188,-260 288,-260 288,-208 188,-208"/>
</g>
<g id="clust6" class="cluster">
<title>cluster_TagModule_providers</title>
<polygon fill="none" stroke="black" points="101,-78 101,-130 395,-130 395,-78 101,-78"/>
</g>
<!-- TagService  -->
<g id="node1" class="node">
<title>TagService </title>
<polygon fill="#fb8072" stroke="black" points="279.75,-252 196.25,-252 196.25,-216 279.75,-216 279.75,-252"/>
<text text-anchor="middle" x="238" y="-229.8" font-family="Times,serif" font-size="14.00">TagService </text>
</g>
<!-- TagModule -->
<g id="node2" class="node">
<title>TagModule</title>
<polygon fill="#8dd3c7" stroke="black" points="278.82,-187 275.82,-191 254.82,-191 251.82,-187 197.18,-187 197.18,-151 278.82,-151 278.82,-187"/>
<text text-anchor="middle" x="238" y="-164.8" font-family="Times,serif" font-size="14.00">TagModule</text>
</g>
<!-- TagModule&#45;&gt;TagService  -->
<g id="edge1" class="edge">
<title>TagModule&#45;&gt;TagService </title>
<path fill="none" stroke="black" stroke-dasharray="5,2" d="M238,-187.11C238,-187.11 238,-205.99 238,-205.99"/>
<polygon fill="black" stroke="black" points="234.5,-205.99 238,-215.99 241.5,-205.99 234.5,-205.99"/>
</g>
<!-- DatabaseService -->
<g id="node3" class="node">
<title>DatabaseService</title>
<ellipse fill="#fdb462" stroke="black" cx="312" cy="-104" rx="75.26" ry="18"/>
<text text-anchor="middle" x="312" y="-99.8" font-family="Times,serif" font-size="14.00">DatabaseService</text>
</g>
<!-- DatabaseService&#45;&gt;TagModule -->
<g id="edge2" class="edge">
<title>DatabaseService&#45;&gt;TagModule</title>
<path fill="none" stroke="black" d="M257.64,-116.53C257.64,-116.53 257.64,-140.85 257.64,-140.85"/>
<polygon fill="black" stroke="black" points="254.14,-140.85 257.64,-150.85 261.14,-140.85 254.14,-140.85"/>
</g>
<!-- TagService -->
<g id="node4" class="node">
<title>TagService</title>
<ellipse fill="#fdb462" stroke="black" cx="164" cy="-104" rx="55.01" ry="18"/>
<text text-anchor="middle" x="164" y="-99.8" font-family="Times,serif" font-size="14.00">TagService</text>
</g>
<!-- TagService&#45;&gt;TagModule -->
<g id="edge3" class="edge">
<title>TagService&#45;&gt;TagModule</title>
<path fill="none" stroke="black" d="M208.17,-114.73C208.17,-114.73 208.17,-140.87 208.17,-140.87"/>
<polygon fill="black" stroke="black" points="204.67,-140.87 208.17,-150.87 211.67,-140.87 204.67,-140.87"/>
</g>
</g>
</svg>
