<?xml version="1.0" encoding="UTF-8" standalone="no"?>
<!DOCTYPE svg PUBLIC "-//W3C//DTD SVG 1.1//EN"
 "http://www.w3.org/Graphics/SVG/1.1/DTD/svg11.dtd">
<!-- Generated by graphviz version 2.47.0 (20210316.0004)
 -->
<!-- Title: dependencies Pages: 1 -->
<svg width="504pt" height="284pt"
 viewBox="0.00 0.00 504.00 284.00" xmlns="http://www.w3.org/2000/svg" xmlns:xlink="http://www.w3.org/1999/xlink">
<g id="graph0" class="graph" transform="scale(1 1) rotate(0) translate(4 280)">
<title>dependencies</title>
<polygon fill="white" stroke="transparent" points="-4,4 -4,-280 500,-280 500,4 -4,4"/>
<text text-anchor="start" x="227.01" y="-42.4" font-family="Times-12" font-weight="bold" font-size="14.00">Legend</text>
<polygon fill="#ffffb3" stroke="transparent" points="14,-10 14,-30 34,-30 34,-10 14,-10"/>
<text text-anchor="start" x="37.63" y="-15.4" font-family="Times-12" font-size="14.00"> &#160;Declarations</text>
<polygon fill="#8dd3c7" stroke="transparent" points="127,-10 127,-30 147,-30 147,-10 127,-10"/>
<text text-anchor="start" x="150.73" y="-15.4" font-family="Times-12" font-size="14.00"> &#160;Module</text>
<polygon fill="#80b1d3" stroke="transparent" points="213,-10 213,-30 233,-30 233,-10 213,-10"/>
<text text-anchor="start" x="236.78" y="-15.4" font-family="Times-12" font-size="14.00"> &#160;Bootstrap</text>
<polygon fill="#fdb462" stroke="transparent" points="310,-10 310,-30 330,-30 330,-10 310,-10"/>
<text text-anchor="start" x="333.67" y="-15.4" font-family="Times-12" font-size="14.00"> &#160;Providers</text>
<polygon fill="#fb8072" stroke="transparent" points="406,-10 406,-30 426,-30 426,-10 406,-10"/>
<text text-anchor="start" x="429.73" y="-15.4" font-family="Times-12" font-size="14.00"> &#160;Exports</text>
<g id="clust1" class="cluster">
<title>cluster_MediaModule</title>
<polygon fill="none" stroke="black" stroke-dasharray="1,5" points="19,-70 19,-268 477,-268 477,-70 19,-70"/>
</g>
<g id="clust4" class="cluster">
<title>cluster_MediaModule_exports</title>
<polygon fill="none" stroke="black" points="127,-208 127,-260 342,-260 342,-208 127,-208"/>
</g>
<g id="clust6" class="cluster">
<title>cluster_MediaModule_providers</title>
<polygon fill="none" stroke="black" points="27,-78 27,-130 469,-130 469,-78 27,-78"/>
</g>
<!-- FileService  -->
<g id="node1" class="node">
<title>FileService </title>
<polygon fill="#fb8072" stroke="black" points="333.76,-252 250.24,-252 250.24,-216 333.76,-216 333.76,-252"/>
<text text-anchor="middle" x="292" y="-229.8" font-family="Times,serif" font-size="14.00">FileService </text>
</g>
<!-- MediaService  -->
<g id="node2" class="node">
<title>MediaService </title>
<polygon fill="#fb8072" stroke="black" points="232.74,-252 135.26,-252 135.26,-216 232.74,-216 232.74,-252"/>
<text text-anchor="middle" x="184" y="-229.8" font-family="Times,serif" font-size="14.00">MediaService </text>
</g>
<!-- MediaModule -->
<g id="node3" class="node">
<title>MediaModule</title>
<polygon fill="#8dd3c7" stroke="black" points="285.81,-187 282.81,-191 261.81,-191 258.81,-187 190.19,-187 190.19,-151 285.81,-151 285.81,-187"/>
<text text-anchor="middle" x="238" y="-164.8" font-family="Times,serif" font-size="14.00">MediaModule</text>
</g>
<!-- MediaModule&#45;&gt;FileService  -->
<g id="edge1" class="edge">
<title>MediaModule&#45;&gt;FileService </title>
<path fill="none" stroke="black" stroke-dasharray="5,2" d="M268.01,-187.11C268.01,-187.11 268.01,-205.99 268.01,-205.99"/>
<polygon fill="black" stroke="black" points="264.51,-205.99 268.01,-215.99 271.51,-205.99 264.51,-205.99"/>
</g>
<!-- MediaModule&#45;&gt;MediaService  -->
<g id="edge2" class="edge">
<title>MediaModule&#45;&gt;MediaService </title>
<path fill="none" stroke="black" stroke-dasharray="5,2" d="M211.48,-187.11C211.48,-187.11 211.48,-205.99 211.48,-205.99"/>
<polygon fill="black" stroke="black" points="207.98,-205.99 211.48,-215.99 214.98,-205.99 207.98,-205.99"/>
</g>
<!-- DatabaseService -->
<g id="node4" class="node">
<title>DatabaseService</title>
<ellipse fill="#fdb462" stroke="black" cx="386" cy="-104" rx="75.26" ry="18"/>
<text text-anchor="middle" x="386" y="-99.8" font-family="Times,serif" font-size="14.00">DatabaseService</text>
</g>
<!-- DatabaseService&#45;&gt;MediaModule -->
<g id="edge3" class="edge">
<title>DatabaseService&#45;&gt;MediaModule</title>
<path fill="none" stroke="black" d="M322.13,-113.59C322.13,-131.67 322.13,-169 322.13,-169 322.13,-169 295.96,-169 295.96,-169"/>
<polygon fill="black" stroke="black" points="295.96,-165.5 285.96,-169 295.96,-172.5 295.96,-165.5"/>
</g>
<!-- FileService -->
<g id="node5" class="node">
<title>FileService</title>
<ellipse fill="#fdb462" stroke="black" cx="238" cy="-104" rx="55.03" ry="18"/>
<text text-anchor="middle" x="238" y="-99.8" font-family="Times,serif" font-size="14.00">FileService</text>
</g>
<!-- FileService&#45;&gt;MediaModule -->
<g id="edge4" class="edge">
<title>FileService&#45;&gt;MediaModule</title>
<path fill="none" stroke="black" d="M238,-122.11C238,-122.11 238,-140.99 238,-140.99"/>
<polygon fill="black" stroke="black" points="234.5,-140.99 238,-150.99 241.5,-140.99 234.5,-140.99"/>
</g>
<!-- MediaService -->
<g id="node6" class="node">
<title>MediaService</title>
<ellipse fill="#fdb462" stroke="black" cx="100" cy="-104" rx="64.82" ry="18"/>
<text text-anchor="middle" x="100" y="-99.8" font-family="Times,serif" font-size="14.00">MediaService</text>
</g>
<!-- MediaService&#45;&gt;MediaModule -->
<g id="edge5" class="edge">
<title>MediaService&#45;&gt;MediaModule</title>
<path fill="none" stroke="black" d="M150.02,-115.62C150.02,-134.32 150.02,-169 150.02,-169 150.02,-169 180.15,-169 180.15,-169"/>
<polygon fill="black" stroke="black" points="180.15,-172.5 190.15,-169 180.15,-165.5 180.15,-172.5"/>
</g>
</g>
</svg>
