<?xml version="1.0" encoding="UTF-8" standalone="no"?>
<!DOCTYPE svg PUBLIC "-//W3C//DTD SVG 1.1//EN"
 "http://www.w3.org/Graphics/SVG/1.1/DTD/svg11.dtd">
<!-- Generated by graphviz version 2.47.0 (20210316.0004)
 -->
<!-- Title: dependencies Pages: 1 -->
<svg width="504pt" height="211pt"
 viewBox="0.00 0.00 504.00 211.00" xmlns="http://www.w3.org/2000/svg" xmlns:xlink="http://www.w3.org/1999/xlink">
<g id="graph0" class="graph" transform="scale(1 1) rotate(0) translate(4 207)">
<title>dependencies</title>
<polygon fill="white" stroke="transparent" points="-4,4 -4,-207 500,-207 500,4 -4,4"/>
<text text-anchor="start" x="227.01" y="-42.4" font-family="Times-12" font-weight="bold" font-size="14.00">Legend</text>
<polygon fill="#ffffb3" stroke="transparent" points="14,-10 14,-30 34,-30 34,-10 14,-10"/>
<text text-anchor="start" x="37.63" y="-15.4" font-family="Times-12" font-size="14.00"> &#160;Declarations</text>
<polygon fill="#8dd3c7" stroke="transparent" points="127,-10 127,-30 147,-30 147,-10 127,-10"/>
<text text-anchor="start" x="150.73" y="-15.4" font-family="Times-12" font-size="14.00"> &#160;Module</text>
<polygon fill="#80b1d3" stroke="transparent" points="213,-10 213,-30 233,-30 233,-10 213,-10"/>
<text text-anchor="start" x="236.78" y="-15.4" font-family="Times-12" font-size="14.00"> &#160;Bootstrap</text>
<polygon fill="#fdb462" stroke="transparent" points="310,-10 310,-30 330,-30 330,-10 310,-10"/>
<text text-anchor="start" x="333.67" y="-15.4" font-family="Times-12" font-size="14.00"> &#160;Providers</text>
<polygon fill="#fb8072" stroke="transparent" points="406,-10 406,-30 426,-30 426,-10 406,-10"/>
<text text-anchor="start" x="429.73" y="-15.4" font-family="Times-12" font-size="14.00"> &#160;Exports</text>
<g id="clust1" class="cluster">
<title>cluster_CategorysModule</title>
<polygon fill="none" stroke="black" stroke-dasharray="1,5" points="68.5,-70 68.5,-195 427.5,-195 427.5,-70 68.5,-70"/>
</g>
<g id="clust6" class="cluster">
<title>cluster_CategorysModule_providers</title>
<polygon fill="none" stroke="black" points="76.5,-78 76.5,-130 419.5,-130 419.5,-78 76.5,-78"/>
</g>
<!-- CategorysService -->
<g id="node1" class="node">
<title>CategorysService</title>
<ellipse fill="#fdb462" stroke="black" cx="332.5" cy="-104" rx="79.29" ry="18"/>
<text text-anchor="middle" x="332.5" y="-99.8" font-family="Times,serif" font-size="14.00">CategorysService</text>
</g>
<!-- CategorysModule -->
<g id="node3" class="node">
<title>CategorysModule</title>
<polygon fill="#8dd3c7" stroke="black" points="303.81,-187 300.81,-191 279.81,-191 276.81,-187 187.19,-187 187.19,-151 303.81,-151 303.81,-187"/>
<text text-anchor="middle" x="245.5" y="-164.8" font-family="Times,serif" font-size="14.00">CategorysModule</text>
</g>
<!-- CategorysService&#45;&gt;CategorysModule -->
<g id="edge1" class="edge">
<title>CategorysService&#45;&gt;CategorysModule</title>
<path fill="none" stroke="black" d="M278.51,-117.47C278.51,-117.47 278.51,-140.86 278.51,-140.86"/>
<polygon fill="black" stroke="black" points="275.01,-140.86 278.51,-150.86 282.01,-140.86 275.01,-140.86"/>
</g>
<!-- DatabaseService -->
<g id="node2" class="node">
<title>DatabaseService</title>
<ellipse fill="#fdb462" stroke="black" cx="159.5" cy="-104" rx="75.26" ry="18"/>
<text text-anchor="middle" x="159.5" y="-99.8" font-family="Times,serif" font-size="14.00">DatabaseService</text>
</g>
<!-- DatabaseService&#45;&gt;CategorysModule -->
<g id="edge2" class="edge">
<title>DatabaseService&#45;&gt;CategorysModule</title>
<path fill="none" stroke="black" d="M211.11,-117.15C211.11,-117.15 211.11,-140.69 211.11,-140.69"/>
<polygon fill="black" stroke="black" points="207.61,-140.69 211.11,-150.69 214.61,-140.69 207.61,-140.69"/>
</g>
</g>
</svg>
