<svg viewBox="0 0 542.99 542.99"><path style="fill:#f03949;fill-opacity:1;fill-rule:nonzero;stroke:none" d="M299.192 47.449L182.905 366.944l61.08 22.232L360.272 69.68l-61.08-22.231z"/><path style="fill:#f78f22;fill-opacity:1;fill-rule:nonzero;stroke:none" d="M268.382 227.122c12.65 4.604 26.637-1.919 31.24-14.568 4.605-12.649-1.917-26.636-14.567-31.24-12.648-4.604-26.636 1.919-31.24 14.568-4.604 12.649 1.918 26.636 14.567 31.24"/><path style="fill:#1a3a5c;fill-opacity:1;fill-rule:nonzero;stroke:none" d="M283.374 90.91l-9.834 27.016 61.08 22.231 9.834-27.016-61.08-22.231z"/><path style="fill:#e73440;fill-opacity:1;fill-rule:nonzero;stroke:none" d="M213.445 378.06l9.406-25.842 30.54 11.116-9.406 25.842-30.54-11.116m14.109-38.762l13.03-36.537 30.734 9.843-22.163 57.937-28.403-13.294m20.055-54.362l3.42-9.397 30.54 11.115-3.42 9.397-30.54-11.115m8.123-22.318l19.452-53.445c12.65 4.604 26.637-1.919 31.24-14.568 4.605-12.649-1.917-26.636-14.567-31.24l19.026-52.273 30.54 11.116-60.57 165.678-30.886-10.167"/><path style="fill:#3f1928;fill-opacity:1;fill-rule:nonzero;stroke:none" d="M211.55 288.245l-4.703 12.92 61.08 22.232 4.702-12.92-61.08-22.232zm-7.696 21.143l-4.703 12.921 61.08 22.231 4.703-12.92-61.08-22.232z"/><path style="fill:#e73440;fill-opacity:1;fill-rule:nonzero;stroke:none" d="M313.914 102.025l2.565-7.047 30.54 11.115-2.565 7.048-30.54-11.116m7.268-19.968l8.55-23.492 30.54 11.115-8.55 23.492-30.54-11.115m0 0l-4.703 12.92 30.54 11.116 4.703-12.92-30.54-11.116z"/><path style="fill:#183452;fill-opacity:1;fill-rule:nonzero;stroke:none" d="M313.914 102.025l-9.833 27.016 30.54 11.116 9.833-27.016-30.54-11.116z"/><g><path style="fill:#5cc0ae;fill-opacity:1" d="M.775 218.026l127.28-127.279 31.314 31.315L32.09 249.342z"/><path style="fill:#f1c40f;fill-opacity:1" d="M31.314 187.282l127.28 127.28-31.315 31.314-127.28-127.28z"/></g><g><path d="M511.682 186.967L384.401 314.249l31.312 31.312L542.994 218.28l-31.312-31.313z" style="fill:#f03949;fill-opacity:1"/><path style="fill:#3498db;fill-opacity:1" d="M415.591 91.064l127.28 127.279-31.315 31.315-127.28-127.28z"/></g><g style="font-size:40px;font-style:normal;font-weight:400;line-height:125%;letter-spacing:0;word-spacing:0;fill:#fff;fill-opacity:1;stroke:none;font-family:Sans"><path d="M103.543 451.51c-.33.42-.66.75-.99.99-.3.24-.75.36-1.35.36-.57 0-1.125-.165-1.665-.495-.54-.36-1.185-.75-1.935-1.17-.75-.45-1.65-.84-2.7-1.17-1.02-.36-2.295-.54-3.825-.54-1.95 0-3.66.36-5.13 1.08a9.71 9.71 0 00-3.69 3.015c-.96 1.32-1.68 2.925-2.16 4.815-.48 1.86-.72 3.975-.72 6.345 0 2.46.255 4.65.765 6.57.54 1.92 1.305 3.54 2.295 4.86.99 1.29 2.19 2.28 3.6 2.97 1.41.66 3 .99 4.77.99 1.77 0 3.195-.21 4.275-.63 1.11-.45 2.04-.93 2.79-1.44.75-.54 1.395-1.02 1.935-1.44.57-.45 1.2-.675 1.89-.675.9 0 1.575.345 2.025 1.035l3.195 4.05c-1.23 1.44-2.565 2.655-4.005 3.645a22.95 22.95 0 01-4.5 2.34c-1.53.57-3.12.975-4.77 1.215-1.62.24-3.24.36-4.86.36-2.85 0-5.535-.525-8.055-1.575a19.287 19.287 0 01-6.615-4.68c-1.89-2.04-3.39-4.53-4.5-7.47-1.08-2.97-1.62-6.345-1.62-10.125 0-3.39.48-6.525 1.44-9.405.99-2.91 2.43-5.415 4.32-7.515 1.89-2.13 4.23-3.795 7.02-4.995 2.79-1.2 6-1.8 9.63-1.8 3.45 0 6.465.555 9.045 1.665 2.61 1.11 4.95 2.7 7.02 4.77l-2.925 4.05m29.894-10.485c3.42 0 6.525.555 9.315 1.665 2.82 1.11 5.22 2.685 7.2 4.725 2.01 2.04 3.555 4.53 4.635 7.47 1.08 2.94 1.62 6.225 1.62 9.855 0 3.66-.54 6.96-1.62 9.9-1.08 2.94-2.625 5.445-4.635 7.515-1.98 2.07-4.38 3.66-7.2 4.77-2.79 1.11-5.895 1.665-9.315 1.665-3.45 0-6.585-.555-9.405-1.665-2.82-1.11-5.235-2.7-7.245-4.77-1.98-2.07-3.525-4.575-4.635-7.515-1.08-2.94-1.62-6.24-1.62-9.9 0-3.63.54-6.915 1.62-9.855 1.11-2.94 2.655-5.43 4.635-7.47 2.01-2.04 4.425-3.615 7.245-4.725 2.82-1.11 5.955-1.665 9.405-1.665m0 39.015c3.84 0 6.675-1.29 8.505-3.87 1.86-2.58 2.79-6.36 2.79-11.34 0-4.98-.93-8.775-2.79-11.385-1.83-2.61-4.665-3.915-8.505-3.915-3.9 0-6.795 1.32-8.685 3.96-1.86 2.61-2.79 6.39-2.79 11.34s.93 8.73 2.79 11.34c1.89 2.58 4.785 3.87 8.685 3.87m31.25 7.875v-46.17h6.795c1.44 0 2.385.675 2.835 2.025l.72 3.42c.81-.9 1.65-1.725 2.52-2.475.9-.75 1.845-1.395 2.835-1.935 1.02-.54 2.1-.96 3.24-1.26 1.17-.33 2.445-.495 3.825-.495 2.91 0 5.295.795 7.155 2.385 1.89 1.56 3.3 3.645 4.23 6.255.72-1.53 1.62-2.835 2.7-3.915a14.479 14.479 0 013.555-2.7 16.42 16.42 0 014.095-1.53c1.47-.33 2.94-.495 4.41-.495 2.55 0 4.815.39 6.795 1.17 1.98.78 3.645 1.92 4.995 3.42s2.37 3.33 3.06 5.49c.72 2.16 1.08 4.635 1.08 7.425v29.385h-11.115V458.53c0-2.94-.645-5.145-1.935-6.615-1.29-1.5-3.18-2.25-5.67-2.25a8.64 8.64 0 00-3.195.585c-.96.39-1.815.96-2.565 1.71-.72.72-1.29 1.635-1.71 2.745-.42 1.11-.63 2.385-.63 3.825v29.385h-11.16V458.53c0-3.09-.63-5.34-1.89-6.75-1.23-1.41-3.045-2.115-5.445-2.115-1.62 0-3.135.405-4.545 1.215-1.38.78-2.67 1.86-3.87 3.24v33.795h-11.115m75.41 15.075v-61.245h6.795c1.44 0 2.385.675 2.835 2.025l.9 4.275c1.86-2.13 3.99-3.855 6.39-5.175 2.43-1.32 5.265-1.98 8.505-1.98 2.52 0 4.815.525 6.885 1.575 2.1 1.05 3.9 2.58 5.4 4.59 1.53 1.98 2.7 4.44 3.51 7.38.84 2.91 1.26 6.255 1.26 10.035 0 3.45-.465 6.645-1.395 9.585-.93 2.94-2.265 5.49-4.005 7.65a18.355 18.355 0 01-6.255 5.085c-2.43 1.2-5.16 1.8-8.19 1.8-2.61 0-4.83-.39-6.66-1.17-1.8-.81-3.42-1.92-4.86-3.33v18.9h-11.115m21.6-53.325c-2.31 0-4.29.495-5.94 1.485-1.62.96-3.135 2.325-4.545 4.095v20.7c1.26 1.56 2.625 2.655 4.095 3.285 1.5.6 3.12.9 4.86.9 1.68 0 3.195-.315 4.545-.945 1.35-.63 2.49-1.59 3.42-2.88.96-1.29 1.695-2.91 2.205-4.86.51-1.98.765-4.305.765-6.975 0-2.7-.225-4.98-.675-6.84-.42-1.89-1.035-3.42-1.845-4.59s-1.8-2.025-2.97-2.565c-1.14-.54-2.445-.81-3.915-.81m49.983-8.64c3.42 0 6.525.555 9.315 1.665 2.82 1.11 5.22 2.685 7.2 4.725 2.01 2.04 3.555 4.53 4.635 7.47 1.08 2.94 1.62 6.225 1.62 9.855 0 3.66-.54 6.96-1.62 9.9-1.08 2.94-2.625 5.445-4.635 7.515-1.98 2.07-4.38 3.66-7.2 4.77-2.79 1.11-5.895 1.665-9.315 1.665-3.45 0-6.585-.555-9.405-1.665-2.82-1.11-5.235-2.7-7.245-4.77-1.98-2.07-3.525-4.575-4.635-7.515-1.08-2.94-1.62-6.24-1.62-9.9 0-3.63.54-6.915 1.62-9.855 1.11-2.94 2.655-5.43 4.635-7.47 2.01-2.04 4.425-3.615 7.245-4.725 2.82-1.11 5.955-1.665 9.405-1.665m0 39.015c3.84 0 6.675-1.29 8.505-3.87 1.86-2.58 2.79-6.36 2.79-11.34 0-4.98-.93-8.775-2.79-11.385-1.83-2.61-4.665-3.915-8.505-3.915-3.9 0-6.795 1.32-8.685 3.96-1.86 2.61-2.79 6.39-2.79 11.34s.93 8.73 2.79 11.34c1.89 2.58 4.785 3.87 8.685 3.87" style="font-size:90px;font-variant:normal;font-weight:700;font-stretch:normal;font-family:Lato;-inkscape-font-specification:Lato Bold"/></g><g style="font-size:40px;font-style:normal;font-weight:400;line-height:125%;letter-spacing:0;word-spacing:0;fill:#fff;fill-opacity:1;stroke:none;font-family:Sans"><path d="M377.406 487.253c-.78 0-1.23-.39-1.35-1.17l-.45-7.065c-1.98 2.7-4.29 4.845-6.93 6.435-2.64 1.59-5.61 2.385-8.91 2.385-5.52 0-9.81-1.905-12.87-5.715-3.06-3.81-4.59-9.525-4.59-17.145 0-3.27.42-6.315 1.26-9.135.87-2.85 2.13-5.31 3.78-7.38 1.65-2.1 3.676-3.75 6.076-4.95 2.43-1.2 5.22-1.8 8.37-1.8 3.03 0 5.655.57 7.875 1.71 2.22 1.11 4.155 2.745 5.805 4.905v-26.551h4.275v65.475h-2.34m-16.425-2.88c2.94 0 5.61-.765 8.01-2.295 2.43-1.53 4.59-3.675 6.48-6.435v-23.49c-1.71-2.58-3.615-4.395-5.715-5.445-2.07-1.08-4.44-1.62-7.11-1.62-2.64 0-4.95.48-6.93 1.44a13.749 13.749 0 00-4.995 4.095c-1.32 1.74-2.325 3.84-3.015 6.3-.66 2.43-.99 5.115-.99 8.055 0 6.66 1.215 11.565 3.645 14.715 2.46 3.12 6 4.68 10.62 4.68m51.235-42.615c3.21 0 6.075.555 8.595 1.665 2.55 1.08 4.695 2.625 6.435 4.635 1.74 2.01 3.06 4.44 3.96 7.29.93 2.82 1.395 5.985 1.395 9.495 0 3.51-.465 6.675-1.395 9.495-.9 2.82-2.22 5.235-3.96 7.245-1.74 2.01-3.885 3.555-6.435 4.635-2.52 1.08-5.385 1.62-8.595 1.62-3.21 0-6.09-.54-8.64-1.62-2.52-1.08-4.665-2.625-6.435-4.635-1.74-2.01-3.075-4.425-4.005-7.245-.9-2.82-1.35-5.985-1.35-9.495 0-3.51.45-6.675 1.35-9.495.93-2.85 2.265-5.28 4.005-7.29 1.77-2.01 3.915-3.555 6.435-4.635 2.55-1.11 5.43-1.665 8.64-1.665m0 42.705c2.67 0 4.995-.45 6.975-1.35 2.01-.93 3.675-2.25 4.995-3.96 1.35-1.71 2.355-3.765 3.015-6.165.66-2.43.99-5.145.99-8.145 0-2.97-.33-5.67-.99-8.1-.66-2.43-1.665-4.5-3.015-6.21a13.047 13.047 0 00-4.995-4.005c-1.98-.93-4.305-1.395-6.975-1.395s-5.01.465-7.02 1.395a13.51 13.51 0 00-4.995 4.005c-1.32 1.71-2.325 3.78-3.015 6.21-.66 2.43-.99 5.13-.99 8.1 0 3 .33 5.715.99 8.145.69 2.4 1.695 4.455 3.015 6.165a13.696 13.696 0 004.995 3.96c2.01.9 4.35 1.35 7.02 1.35m62.649-36c-.15.15-.3.285-.45.405-.12.09-.3.135-.54.135-.3 0-.706-.195-1.215-.585-.51-.42-1.2-.87-2.07-1.35-.87-.48-1.966-.915-3.285-1.305-1.29-.42-2.866-.63-4.725-.63-2.58 0-4.876.465-6.885 1.395-1.98.9-3.66 2.205-5.04 3.915s-2.43 3.78-3.15 6.21c-.69 2.43-1.036 5.16-1.035 8.19 0 3.15.36 5.94 1.08 8.37.75 2.43 1.8 4.485 3.15 6.165a13.416 13.416 0 004.905 3.78c1.92.87 4.05 1.305 6.39 1.305 2.16 0 3.96-.255 5.4-.765 1.47-.51 2.67-1.065 3.6-1.665.96-.6 1.71-1.155 2.25-1.665s.99-.765 1.35-.765c.36 0 .66.15.9.45l1.125 1.44c-.69.9-1.56 1.74-2.61 2.52a17.701 17.701 0 01-3.555 2.025c-1.32.57-2.76 1.005-4.32 1.305-1.53.33-3.136.495-4.815.495-2.85 0-5.46-.51-7.83-1.53a17.554 17.554 0 01-6.075-4.5c-1.68-1.98-3-4.395-3.96-7.245-.93-2.85-1.396-6.09-1.395-9.72 0-3.42.45-6.54 1.35-9.36.9-2.82 2.22-5.25 3.96-7.29a17.69 17.69 0 016.345-4.725c2.52-1.14 5.4-1.71 8.64-1.71 2.91 0 5.49.465 7.74 1.395 2.25.93 4.214 2.19 5.895 3.78l-1.125 1.53" style="font-size:90px;font-variant:normal;font-weight:300;font-stretch:normal;font-family:Lato;-inkscape-font-specification:Lato Light"/></g></svg>