<svg version="1.2" xmlns="http://www.w3.org/2000/svg" viewBox="0 0 2000 2000" width="2000" height="2000">
	<title>vecteezy_a-pregnant-woman-with-long-hair-minimalist-and-flat-symbol_55580489</title>
	<style>
		.s0 { fill: #fdf2f8 } 
		.s1 { fill: #faf1ee } 
		.s2 { fill: #231f20 } 
	</style>
	<g id="_Artboards_">
	</g>
	<g id="Layer 1">
		<g id="Objects">
			<path id="&lt;Compound Path&gt;" fill-rule="evenodd" class="s0" d="m454.2 1727.1c1.8-0.9 3.6-1.8 5.4-2.7 60-31.1 123.2-49.1 191.3-48.5 36.5 0.4 72.8 2.3 108.1 11.8 33 8.8 65.6 19.4 98.5 29.1 25.2 7.4 50.3 15.2 75.6 21.9 16.1 4.3 32.6 7.1 48.9 10.5 16.1 3.4 32.1 7.4 48.3 10 28.5 4.5 57.1 7.9 86 4.9 18.8-1.9 34.6-9 46.8-24 6.6-8.1 13.9-15.8 21.7-22.8 14.1-12.7 30.7-15.7 48.5-9.4 6.6 2.3 13 5.8 18.7 9.9 15 10.7 29.4 22.5 44.5 33.1 28.6 19.8 60.3 30.2 95.3 29.6q11.3-0.2 22.6-0.3c7-0.1 13.5 1.6 19.7 5 2.5 1.5 5.3 2.5 8.1 3.6 2.3 0.9 4.5 0.9 6.3-1.1 5.4-6 12.5-6.6 19.6-5.7 16.5 2.1 31.1 8.8 43.3 20.3q6.4 6.1 8.8 14.5c1.3 4.1 0.3 7.9-3.4 10.2-2.6 1.5-5.9 2.9-8.8 2.8-5.7-0.1-11.4-1.1-17-2-14.9-2.5-29.8-4.5-44.9-1.8-11.7 2.2-23.5 3.7-35.2 6-45.4 8.7-91.3 13.3-137.6 12.7-38.9-0.5-77.7-1.5-116.5-2.9-67.2-2.4-134.4-2.2-201.6-1.5-55.5 0.7-111 2.7-166.6 3.6-90.7 1.4-181.4 1.3-271.9-8.3-43.4-4.6-86.6-10-129.3-19.8-17.4-4-34.3-9.6-49.6-19-13.5-8.3-25.2-18.8-31.3-33.6-10.8-26.4-8-51.7 9.7-74.3 7.4-9.5 15.9-18.4 24.9-26.4 27.7-24.3 57.7-45.7 89.6-64.2 47-27.3 95.9-51 146.4-71.3 49.6-20 99.3-39.7 150.2-55.9 63.1-20.1 127.1-35.8 193.7-38.4 22.2-0.9 44.3-0.9 66.2 3.7q8.6 1.7 17.2 3.5c-3.1-2.2-6.5-3.6-9.9-4.7-6.5-2.1-13.2-3.9-19.7-6-49.4-15.5-99.7-16.7-150.5-8.5-17.4 2.8-34.8 5.3-52.2 7.7-3 0.4-6.5 0.2-9.4-0.8-10.9-4-22-7.8-32.4-12.9-17.7-8.7-34.1-19.6-48.6-33-6.6-6.2-11.8-13.8-21-16.6-2.1-0.7-3.9-2.5-5.5-4-5.1-4.7-10.3-9.1-14.9-14.2-6.3-7.1-13.3-13.1-21.2-18.2-10.2-6.6-19.7-14.2-27.2-23.9-1-1.3-2.3-2.5-2.6-4-0.4-1.8-0.5-4 0.2-5.7 0.9-2.4 3.3-2.1 5.4-1.5 2.8 0.9 5.5 2.2 8.4 3 7.8 2.2 15.7 4.4 23.7 6.4 5.9 1.4 11.3-0.5 16.4-3.3 6-3.4 9.9-10.4 8.9-16.5-21.2 9.5-11.6 5.3-34.2 4.9-5.9-0.5-11.8-1.2-17.5-2.8-7-2-11.7-7.1-16.1-13.3 1.6-0.8 2.4-1.3 3.3-1.5 1.9-0.5 4-1 6-1.2 19.2-1.1 38.1-4.4 56.9-8.4 17.1-3.7 34-3.4 50.9 1 3.9 1.1 8 1.6 12 2.5 13.8 3 27 1.3 39-6.2 15.2-9.6 30.7-18.9 45.2-29.7 15.2-11.3 29.3-24 43.7-36.3 27.4-23.3 54.3-47 79.3-72.8 23.4-24 46.7-48.3 70.2-72.3 7.4-7.6 14-15.8 18.5-25.4 7.6-16.3 15.7-32.6 21.4-49.6 7.6-22.9 14.2-46.4 19.3-70 9-41.9 17.8-84 22.4-126.7 3.7-34 7.8-68 11.8-102q-3.3 6.3-4.8 12.9c-11.6 53.3-23.4 106.6-34.6 160-7.4 34.9-14.8 69.7-24.7 104-7.1 24.6-15.1 49-31.5 69.4-8.3 10.3-17.1 20.2-26.3 29.7-25.2 25.6-50.9 50.6-76 76.3-24.6 25.1-50 49.5-76.2 72.9-20.3 18.1-41 35.8-63.5 51.1-7.1 4.9-14 6.6-22.5 4.7-13.4-3-26.9-5.6-40.5-7.1-23.1-2.7-45.5 1.7-67.8 7.4-1.9 0.5-3.8 0.9-6 1.5-0.3-1.9-0.7-3.2-0.7-4.5-2-48.5 6.1-94.7 33-136.2 3.6-5.6 6.9-11.3 10.5-16.9 12.6-18.9 27.8-35.7 44.3-51.2 3.9-3.7 7.5-4.7 12.8-2.1 12.4 6.1 25.7 9 39.6 10 6 0.3 10.8-0.6 13.5-6.5 0.5-1 1.5-1.7 2.5-2.8 3 1.3 5.9 2.5 8.8 3.8 5.9 2.8 11.9 4.4 18.5 3.9 4.6-0.4 8.5-1.5 10.8-6 1.8-3.5 4.4-4.7 8.4-3.7 2.6 0.7 5.5 0.3 8.2 0.2 7.5-0.4 9.7-2.9 9.2-10.5-0.2-2.8-0.8-5.7-1.2-8.7 1.8-0.8 3.2-1.6 4.6-2.2 6-2.4 6.5-3.3 6.4-9.6-0.2-8.4-3.8-15.4-9.3-21.5-3.4-3.8-7-7.3-10.4-11-1.2-1.4-1.9-3.2-2.6-4.3 10.9-5.6 21.2-10.5 31-16.2 6.1-3.6 12.2-4.5 19-3.4 31.7 5.4 61.2-1.5 89.6-15.5 1.3-0.7 2.6-1.6 3.9-2.4-4.3 0.5-8.2 1.8-12.1 3-12.4 4.2-25.2 7.1-38.2 7.4-39.5 1.1-72.3-13.4-97.4-44-38.2-46.7-28.6-114.7 20.9-149.1 20.3-14.1 42.9-23.2 66.5-30.1 20-5.9 39.3-13.5 57.7-23.4 27.9-14.9 52.2-34 71.8-59.3 13.9-18 19.2-37.5 15.4-59.8-2.4-14.5-7.2-27.9-17.3-38.8-3.7-4-8.1-7.4-12.7-10.3-5.2-3.3-8.5-2.6-13 1.5-2 1.9-3.9 3.9-5.6 6-4.8 6.1-9.3 12.4-14.3 18.4-6.1 7.4-11.9 15.1-18.8 21.8-12.1 11.6-32 7.1-38.8-8.1-1.4-3.2-3.1-6.4-4.4-9-5.3 0.9-9.5 2-13.8 2.2-6 0.2-7.4-1.1-7.9-7-0.3-3.7 0-7.6 0-11.4-6.6-0.4-12.9 1.9-19.1 0.3-1.4-7 1.4-14.1-2.2-21.1-5.2 0.5-10.4 1.2-15.6 1.3-4.9 0.2-10 0.2-14.8-0.8-4.8-1-5.6-2.6-4.9-7.4 0.8-5.9 2.3-11.7 3.4-17.5 1.9-9.5 1.3-18.9 0.2-28.4-4.4 2.1-7.9 4.2-11.8 5.5-3.4 1-7.4 4.1-11.2-1.4 3.7-1.3 6.9-2.3 9.9-3.6 5.2-2.3 7-5.4 6.5-10.9-0.5-5.4-2.7-10.1-6.5-14-2-2.1-4.3-4-6.7-5.8-9.8-7.5-17.7-16.6-23.2-27.6-12.6-24.8-18.1-51.1-17-78.8 0.1-3 0-6.1 0-9.1q-0.6-0.1-1.3-0.3c-3.3 11.4-7 22.6-9.8 34-4 16.3-5.2 32.9-2.7 49.6 3.7 24.6 9.8 48.4 22.8 69.9 1.5 2.5 2.5 5.3 3.7 8-8.7-9.2-16.2-19-20.7-30.7-7.9-20.3-14-41.1-16.5-62.8-0.2-1.4-0.7-2.7-1-4.1-1.3 3.3-1.7 6.5-1.6 9.6 0.8 30.5 9.7 58.3 27.2 83.4 6.5 9.4 13.2 18.8 18.4 28.9 16.6 32.4 14.1 60.3-8.1 86.6-3.4 4.1-7.1 7.8-10.2 12.1-2.7 3.8-5.3 8-6.9 12.4-2.7 6.9-0.8 13.4 4.9 17.8 4.3 3.4 9.3 5.8 14.2 8 5 2.3 10.4 3.4 15.5 5.4 6.7 2.6 11.8 7 14.7 13.6 3.7 8.4 1.7 18.3-5.3 24.3 1-2.1 1.8-3.5 2.3-4.9 4.5-12.9-0.8-22.9-13.9-26.2-2.9-0.8-5.8-1.1-8.7-1.7-7.8-1.6-15.7-2.9-23.4-5-8-2.2-13.4-7.8-16.3-15.5-4.4-11.7-3.1-23.1 3.9-33.4 6.1-8.8 10.2-18.4 12.7-28.6 5.3-21.5 3.1-41.8-10.7-59.8-3.9-5.1-8-10.1-12.3-14.8-24.2-26.4-18.6-20-29.6-49.1-5-13.2-7.6-26.8-7.8-40.9-0.2-21 4.2-40.8 16.8-58.2 0.8-1 1.3-2.1 2-3.2-9.8 8.7-16 19.6-19.9 31.8-8 25-8.6 50.1 1.5 75.1-2.2-2.3-3.9-4.7-5.4-7.2-5.5-9.1-9.2-18.8-11.1-29.3-4.6-25.1-3.4-49.5 7.3-73.1 9.2-20.2 22.3-36.7 42.2-47.1 4.4-2.3 9.1-4.8 13.9-5.5 5.6-0.8 8-3.3 8.8-8.4 0.2-1.8 0.7-3.6 1.2-5.4 3.4-13.1 9.7-24.5 20.5-33.2 10.2-8.3 21.4-14.4 34-18-11.6-0.2-21.2 5.1-30.2 11.4-9.2 6.4-16.7 14.5-22.5 24.1 5.6-16.9 13.2-32.6 25.4-45.6 13.3-14.2 28.3-26.8 45.1-36.7 47.5-27.8 98.6-38 153-27.8 34.4 6.5 65.3 21.6 93.1 43 17 13 30.8 29.1 44.1 45.7 21.4 26.8 45.5 50.8 74.2 69.6 28 18.3 58.3 29.3 92.6 24.9 11.1-1.4 22.3-1.5 33.6-0.3 27.6 3.1 40.6 22.6 42.5 40.5 0.3 3.3-0.5 6.8-0.7 10.6 0.9 0.2 2.1 0.6 3.5 0.8 12.9 2.2 25.3 5.9 37.3 11.1 23.8 10.2 42.2 26.9 57.8 47.1 2.9 3.9 5.1 8.3 6.3 13.2-4.4-3.1-8.4-6.5-12.3-9.9-10.7-9.5-22.7-17-35.2-23.7-13.5-7.2-28.6-9.8-43.5-11.3-16.3-1.6-32.8-1.7-49.3-1.6-39.5 0.3-78.8 0.7-118.1-6.5-36.7-6.8-68.6-21.9-96.6-45.7-16.8-14.3-34.4-27.2-53.9-37.5-22.2-11.7-45.1-21.1-69.9-25.3-24.8-4.2-49.7-3.1-74.5-0.6-18.2 1.8-36.4 3.8-54.7 1.6-3.5-0.4-7.1-0.6-10.6-0.9 2.1 1.4 4.2 2 6.4 2.4 19.1 3.3 38.2 2.9 57.4 2 17.2-0.8 34.3-1.2 51.4-1 17 0.2 33.7 2.3 50 7.4 35.3 11 67.8 27.1 95.4 52.2 7 6.5 14.9 12.1 22.5 17.9 26.9 20.3 57.3 32.5 90.5 36.4 35 4.2 70 7.2 105.1 9.8 30.5 2.3 60.3 7 88.7 19 25.3 10.6 47.4 25.5 64.9 46.9 9.3 11.3 17.9 23.3 22.1 37.5 6.4 21.6 8.1 43.4 3.3 65.7-5.2 23.8-15.7 44.7-31.8 62.9-3.8 4.1-8 7.7-12.9 10.4 0.6-2 1.8-3.6 2.9-5.2 9.6-13.6 18.1-27.9 19.6-44.7 4.7-50.7-13.7-90.9-57-118.5-33-20.9-69.7-31.3-108.1-36.8-24-3.5-48-6.8-71.8-11.2-18.1-3.3-36.5-7-53.2-15.4-22.8-11.4-45.2-23.8-67.6-36.1-27.6-15.2-52.4-35.1-81.4-47.9-14.1-6.2-27.9-12.6-43-15.8-26.6-5.7-53.4-6.7-80.5-4.7-22.3 1.7-44.6 2.7-67.1 0.9-25.1-1.9-48.2-9.4-69.8-22.3-6.8-4.1-12.6-8.8-16.1-16.2-0.9-1.7-1.4-4.3-5.1-4.8 0.8 2.8 1.1 5 2 7 4.5 9.5 8.6 19.2 13.9 28.2 10.4 17.7 25.4 30.4 44.3 38.4 27.7 11.8 56.7 15.2 86.6 12.7 20.5-1.8 40.9-4.7 61.5-3.5 0.4 0 0.9-0.3 1.3-0.4-5.6-1.9-11.2-3.2-16.8-3.4-13-0.5-26.1-1-39.1-0.7-22.7 0.4-45.1-2.1-67.4-6.3-26.2-5.1-47.8-17.5-65.4-37.4-3.9-4.5-7.1-9.3-9.1-16.4 4.5 3.4 7.8 6 11.2 8.5 34.3 23.8 72.5 33.9 114 32.1 13-0.5 26-1.3 39-1.6 28.1-0.7 55 4.6 80.7 15.9 17.2 7.6 33.5 16.8 49.2 27 15.4 9.9 30.3 20.6 46.4 29.2 18 9.8 36.8 18.5 55.8 26.1 33.4 13.4 68.4 21.4 104.1 26.3 27.4 3.8 54.4 8.7 80.9 17.3 28.8 9.3 52 26.2 71.3 49 4 4.8 7.6 10.4 10.2 16.1 16.3 36.8 12 72.1-8.8 105.9-1.4 2.3-3.3 4.4-5.3 6.3-4.2 4-6.2 4.3-11.5 1.4-2.8-1.5-5.3-1.7-8.5-0.8 0.7 1.2 1 1.9 1.4 2.3 13.7 11.5 27.7 22.5 43.3 31.3 3.5 2 7 2.8 11.1 2.9 5.7 0.1 11.4 0.5 17 1.6 20.3 4.1 40.6 8.6 61 12.9 20.2 4.2 39.2 12.2 57.9 20.7 14.2 6.4 26.7 15.8 37.9 26.8 28.5 27.9 43.3 62.1 47.1 101.6 2.2 23.4-0.9 46.1-6.1 68.6-2.1 9.1-5.1 17.9-10.2 26 0.2-3 0.8-5.8 1.6-8.6 4.8-15.7 6.3-31.8 5.2-48.1-0.5-6.6-1-13.2-1.7-19.8-3.4-29.8-11.8-57.6-30.4-81.8-14-18.2-30.3-33.7-50.6-44.4-20.5-10.8-42.2-18.7-64.9-23.6-18.1-3.9-34.8-10.7-50.9-19.7-1.7-0.9-3.5-1.7-5.2-2.5q-0.4 0.6-0.8 1.2c3.2 2.3 6.2 5.1 9.6 6.9 13.4 7 26.9 13.7 40.4 20.4 14.5 7.1 29.4 13.7 43.7 21.3 18.1 9.6 33.6 22.7 47.6 37.7 20.1 21.6 31.9 47.8 39.6 75.8 9.5 34.6 8.7 69.5 0.9 104.5-4.7 20.8-13.1 39.8-24 57.9-1.4 2.3-2.9 4.4-4.3 6.6-0.1-2.4 0.7-4.1 1.6-5.8 5.9-10.7 10.4-21.9 12.7-33.9 5.3-28.2 7.6-56.6 3.2-85.2-3.3-21.4-9.8-41.7-20.9-60.5-19.7-33-47.8-56-82.7-71.4-21.1-9.3-43.1-16.3-65.2-23-35.8-10.8-69-26.4-97.4-51.4-1.5-1.4-3.4-2.4-5.1-3.7 0 1.7 0.6 2.6 1.3 3.5 10.5 13.8 23.6 24.6 37.8 34.4 18 12.4 36.9 23.1 57.5 30.2 24.6 8.4 47.9 19.2 69.8 33.2 16.7 10.6 31.7 23.4 43.8 39 27.8 36 41.6 76.9 39.8 122.5-1.3 33.3-9.6 65-23.3 95.3-2.2 5-4.4 10-6.8 14.9-9.9 20.4-19.8 40.7-33 59.2-1 1.4-2.3 2.5-4.3 4.8 0.2-3.7 0.3-6 0.5-8.2 1.5-12.6 0.1-25-2.4-37.4-4-19-13-35.7-23.1-51.7-24-38.1-56.6-67.5-95.9-89.2-21-11.6-42.1-23-61.5-37.1-12.9-9.4-25.5-19.5-36.6-30.9-31.8-32.8-52.2-71.9-61.3-116.7-0.4-2-1.1-3.9-1.6-5.9 0 6.8 0.9 13.3 2.1 19.8 6.2 34.2 18.6 65.8 38.6 94.3 23.5 33.5 55.7 56.2 92.1 73.7 13.4 6.5 26.6 13.2 39.7 20.2 16.7 8.8 31.5 20.3 45.3 33 15.6 14.4 28.7 30.7 38 49.9 5.2 10.6 10.7 21.1 13.8 32.7 9.3 34.4 7.1 68.4-3.5 102-10.6 33.6-30.3 61.3-55.8 85-19.6 18.2-41.3 33.1-67.7 39.9-13.1 3.4-26.4 5.7-39.9 6.5-23.6 1.2-45.2-4.6-64.2-19.3-10.9-8.4-19.8-18.2-24.5-31.4-1.4-3.9-2.8-7.9-2.2-12.4 0.7 0.3 1 0.3 1.1 0.5 0.4 0.6 0.7 1.2 0.9 1.8 3.1 10.8 9.8 19 18.3 25.9 15.4 12.3 33.6 16.3 52.6 16.7 20.5 0.5 39.4-5.7 56.4-16.7 19.4-12.4 33.6-29.3 39.9-52.1 3-11.1 4.1-22.4 3.4-33.9-1.6-26.6-11.8-49.6-29.8-69-11.1-12-24.8-20.8-39-28.7-18.3-10.2-38-16.9-57.5-24.1-42.8-15.6-76.2-42.9-100.9-80.7-10.5-16.1-18.4-33.7-21.5-53-1.1-7-2-14-2.9-21-0.9 2.1-1.2 4.1-1.2 6.2 1.1 37.7 7.9 73.9 27.8 106.8 19.6 32.3 46.8 55.1 82.2 68.1 13.1 4.8 26.3 9.2 39.3 14.3 21.8 8.6 42.3 19.6 59.7 35.6 29.2 26.8 34.8 66.6 13.9 100.3-2.1 3.4-4.8 6.4-7.3 9.5-0.6-2.3-0.1-4 0.4-5.7 2.2-6.9 5.1-13.7 6.6-20.8 5.8-26.8-3.7-48.8-23.4-66.3-12.8-11.3-28.6-17.9-44.8-23.2-16.9-5.5-33.9-10.7-50.8-16.6-40.3-14.1-71.8-39.8-94.7-75.3-10.1-15.7-17.5-33.1-26.1-49.7-1.1-2-2-4.1-2.9-6.1 0.5 8.7 1.9 17 3.4 25.3 3.1 16.3 7.9 32.1 16.6 46.2 24.4 39.9 58.9 66.8 104.4 79 3.2 0.9 6.5 1.9 9.7 2.9-3.7 0.6-7.2 0.2-10.7-0.5-55.2-10.3-94.4-41.7-119.3-91.4-10.1-20.1-13.3-42.3-14.9-64.4-1.4-19.8-1.2-39.7-1.2-59.6-0.1-5.7 0.5-11.6 2.3-16.9 4.4-13.4 9.4-26.7 14.6-39.8 4.4-11 10.1-21.5 14.3-32.6 18.6-49.1 29.6-99.8 32.2-152.2 1.4-29.2-2.8-57.6-14.4-84.5-19.5-45.3-49.4-83-86.5-115.1-2.2-1.9-4.4-3.6-6.6-5.3 11 16.2 22.6 31.7 33.9 47.5 8.3 11.7 16.4 23.7 24.3 35.7 3.6 5.6 6.1 11.7 6.1 19.1-5.7-3-11.1-5.7-16.4-8.5 0.2 1.7 0.9 2.4 1.8 2.9 18.8 11.4 30.2 28 35.6 49.1 6.3 24.4 5.5 48.9 1.6 73.5-6 38.3-17.5 75.2-31.4 111.2-11.5 30.1-23.7 59.9-35.7 89.8-7.6 18.6-15 37.3-23.3 55.6-10.8 23.7-22.3 47-33.7 70.4-11.8 24.1-27.6 45.2-48.1 62.7-12.3 10.5-25.1 20.5-37.4 31.1-19 16.5-39.7 30.8-60.5 44.8-24 16.3-48.3 32.2-72.9 47.6-28 17.6-56.5 34.5-84.9 51.5-14.1 8.5-28.5 16.4-42.6 24.9-7.6 4.6-14.9 9.7-22.3 14.7-3.3 2.2-6.2 4.9-8 8.6 5.1-1.8 9.8-4.1 14.4-6.6 23-12.1 45.8-24.7 69.1-36.2 29.5-14.7 58.1-30.8 85.8-48.6 9.4-6.1 19.2-11.6 28.5-17.8 23.6-15.6 47.4-31 70.6-47.2 16.5-11.4 32-24.4 48.5-35.8 14.6-10 28.7-20.3 40.9-33.2 1.3-1.3 3-2.4 4.9-4 0 6.8-0.1 12.7 0 18.6 0.3 7.7 0 15.5 1.2 23.2 5.3 34.2 16.3 66.6 35.7 95.5 12.4 18.4 25.3 36.4 39 53.8 23.1 29.6 45.4 59.6 60.7 94.2 19.9 45.2 24.1 92.2 13.6 140.2-7 31.5-23 58.6-45.3 81.7-32.5 33.5-70.8 57.5-115.9 70.4-38.7 11.1-78.2 15.6-118.5 14.3-41.1-1.3-81.5-7.1-120.9-18.7-36.9-10.8-74.1-19.9-112.2-25.4-43-6.2-85.7-4.5-128.1 4.6-51.9 11.2-98.3 34.9-141.7 65-1.3 0.9-2.4 2-3.7 3q0.3 0.5 0.5 1zm747.3-1228.1c20.2 8.3 40.6 16.2 60.9 24.4 28.7 11.6 54.5 27.7 75.7 50.5 0.9 1 2 1.8 3 2.7 0.1 0.1 0.3-0.1 0.9-0.3-11-13.6-23-26-37.8-35.2-10.8-6.7-22-13-33.6-18.3-13.4-6.2-27.5-11-41.2-16.7-17.9-7.3-35.8-14.8-53.7-22.2-1.6-0.7-3.2-1.4-4.9-2.1q-0.4 0.5-0.9 1.1c10.1 6.3 20.6 11.6 31.6 16.1zm93.8 449.2c20.8 30.6 48.5 53 81.1 69.9 16.4 8.6 32.7 17.5 48.3 27.3 37.1 23.4 64.1 55.2 77.5 97.6 1 3 1.8 6 3.7 8.7-0.4-2.1-0.7-4.3-1.2-6.5-7.1-26.9-20.2-50.7-38.1-72-19.2-22.9-43.4-39.5-68.9-54.5-17.1-10.1-34.5-19.8-50.8-31.2-32-22.5-57.8-50.9-73.9-87.1-1.3-2.7-2.3-5.5-3.4-8.3-1-2.7-2-5.5-3-8.2 5.1 23.8 15.4 44.7 28.7 64.3zm-117.4-631c16.7 19.7 35.7 36.7 58.4 49.2 20.3 11.2 42.3 18.3 65.2 22 23.1 3.6 46.4 4.2 69.7 4.4 0.7 0 1.4-0.3 2.6-0.5-3.9-15.5-13.3-26-28-31.2-6.9-2.4-14.6-3.4-22.1-3.8-10.2-0.6-20.5 0-30.8-0.2-30.5-0.4-58.5-9-83.8-26.1-13.6-9.2-26.9-18.7-40.3-28.1q-0.4 0.3-0.8 0.7c3.2 4.5 6.3 9.3 9.9 13.6zm86.5 261.9q-0.2-0.2-0.5-0.5 0.2 0.3 0.4 0.7 2 2.8 4.1 5.5 0.1 0.2 0.2 0.3 0-0.2-0.1-0.4-2-2.8-4.1-5.6zm-0.5-0.5q-1.7-2.7-3.3-5.3-0.6 0.5-1.2 0.9 2.2 2.2 4.5 4.4zm4.7 6.5c0.2 0.7 0.4 1.5 0.8 2.1 19.5 28.3 32.8 59.5 43.1 92.1 4.5 14.2 8.9 28.4 14.7 42.1 17 40.6 43.2 73.8 81.4 96.9 21.8 13.2 44.7 24 67.4 35.3 34.4 17.1 64.7 39.4 87.9 70.5 18.8 25.2 29.4 53.5 33.6 84.4 1.3 9.7 2.5 19.4 4.5 29.2 0.2-1.4 0.5-2.8 0.5-4.2 1-31.3-4.3-61.6-17.7-89.9-14.8-31.3-35.9-57.8-64-78.3-18.1-13.2-37.3-24.8-57.2-35.1-22.4-11.5-44.4-23.6-63.5-40.2-25.1-21.8-46.6-46.5-61.6-76.4-13.7-27.1-27-54.4-40.9-81.4-7.5-14.4-16-28.2-24.2-42.2-1.2-1.9-3.1-3.3-4.8-4.9zm-525.8-237q-0.3-0.3-0.6-0.6-1.4 1.3-2.8 2.6 0.4 0.5 0.8 0.9 1.3-1.4 2.6-2.9z"/>
			<path id="&lt;Path&gt;" class="s0" d="m1393.6 1727c-14.3-11-30.7-15.6-48.5-16.1-5.5-0.1-11-0.1-16.5 0.1-12.1 0.4-23-3.3-32.9-9.9-7.6-5-14.6-10.9-21.9-16.4-10.8-8.3-21.5-17-32.6-24.9-9.1-6.6-19.7-9.3-30.7-10.7-6.6-0.8-12.9 0-18.5 3.6-5.4 3.4-10.7 6.9-15.8 10.7-11.4 8.5-22.6 17.2-33.8 25.8-9.9 7.6-20.9 12.9-32.8 16.7-28.6 9-58 14.6-87.4 19.8-6.9 1.2-13.8 2.8-21.6 4.4 3.7 3.6 7.3 5.1 10.9 5.9 33.3 7.3 66.5 14.6 101 11.9 16.3-1.3 29.2-7.9 38.9-21.2 4.4-6.1 9-12 13.7-17.9 26.6-33.8 64.1-28.4 89.1-13.4 8 4.9 15.2 10.9 22.6 16.7 8.9 7.1 17.6 14.5 26.5 21.7 15.2 12.3 33.2 19 51.6 24.7 11.4 3.5 23.1 5.3 35 5.6 4.4 0.2 8.7 0.5 13 0.4 19.3-0.5 38.3 1.9 57.3 4.4 5.2 0.7 10.5 1.1 15.7 1.1 6 0 8.4-2.3 8.8-8.2 0.4-5.6-1-11-4.5-15.5-7.7-9.8-17.8-15.8-30.4-16.3-7.2-0.3-14.6 0.1-21.7 1.4-9.4 1.8-14.1 5.4-20 13-4.9-5.9-9.8-11.8-14.7-17.6z"/>
			<path id="&lt;Path&gt;" class="s1" d="m732 1443.3c-0.6-1.1-0.7-1.4-0.9-1.5-15.8-11.6-11.6-10.1-29.3-7.2-65.3 11.1-127.2 32.7-187.3 60-27.9 12.7-55.2 26.4-81.7 41.9-4.6 2.6-9.1 5.2-13.5 8.2-32.8 22.2-64.4 45.8-90.4 76.1-10.1 11.7-18.3 24.5-23.1 39.3-0.7 2.4-1.4 4.9-1.6 7.4-0.1 1.3 0.7 3.4 1.7 4 1 0.6 3.1 0.1 4.2-0.7 2-1.5 3.9-3.3 5.3-5.3 9.4-13 21.5-23.1 33.8-32.9 19.8-15.8 39.4-31.9 60.8-45.7 51.9-33.5 106.3-62.6 163.6-85.9 21.5-8.7 43.3-17.1 65.1-25.2 25-9.3 50.2-18.3 75.3-27.2 5.8-2 11.8-3.5 18-5.3z"/>
			<path id="&lt;Path&gt;" class="s0" d="m757.9 1044.2c-3.2-2.7-5-4.8-7.2-6.1-11.4-6.8-22.9-13.4-34.4-20-3.9-2.3-8-4.4-11.9-6.8-2.5-1.5-4.7-3.5-4.7-8.1 2.3 0.9 4.1 1.4 5.7 2.2 19.5 9.7 38.8 19.5 58.3 29.1 6.9 3.4 14.2 6.3 21.4 8.9 5.1 1.8 10.6 3 17 0.4-1.7-2.5-2.8-5-4.7-6.6-6.8-5.7-13.6-11.5-20.9-16.5-12-8-24.4-15.4-36.5-23.1q-7.8-5-15.2-10.5c-1.7-1.2-2.9-3.1-4.3-4.7q0.5-0.7 1-1.4c1.5 0.6 3 1.1 4.4 1.8 21.2 10.9 40.6 24.7 60.7 37.4 6.7 4.3 13.6 8.3 20.6 12.3 7.3 4.1 10.9 3 17.2-5.6-1.1-0.6-2.8-1-4-2.1-21.5-20.2-45.4-37.5-69.6-54.3-4.2-2.9-9.2-5.3-11.6-11.6 2.1 0.6 3.6 0.8 4.8 1.5 19.7 11.6 39.6 22.8 56.8 38.1 5.2 4.7 11.5 8.3 17.5 11.9 3.2 2 7 3 11.4 4.7 1.6-7.4 0.1-13-4-17.8-2.8-3.3-6.1-6.3-9.3-9.2-14.8-13.2-29.6-26.5-44.5-39.6-3.2-2.8-7.2-4.9-11-6.8-5.3-2.6-11-4.6-16.3-7.1-5.7-2.8-11.5-3.1-17.3-0.8-22.2 8.9-40.5 22.8-53.1 43.5-4.5 7.5-7.6 15.6-7.9 24.5-0.2 8.9 3.6 15.4 11.3 19.7 1.4 0.8 2.8 1.5 4.3 2 17.6 6.4 35.2 13 52.9 18.9 5.8 1.9 12.1 2.2 18.1 3.1 1 0.1 2.1-0.5 5-1.3z"/>
			<path id="&lt;Path&gt;" class="s0" d="m1611 1097.9c-6.7 9-12.2 17.1-11 28.9 3 28.1-2.9 55.3-13.8 80.9-11.2 26.1-27 49.3-51.5 65.2-12.6 8.2-25.2 16.6-38.1 24.3-16.3 9.7-30.4 21.8-42.9 35.9-16.6 18.9-16.8 38.3 1 56.1 17.2 17 41.6 18 58.2-2.9-1.5 1.2-3 2.4-4.6 3.6-9.9 7.2-20.1 8.7-31.2 2.3-16.1-9.4-22.2-24-16.9-42 3.9-13.2 12.3-23.5 22.5-32.1 10.9-9 22.4-17.3 34.2-25.1 22.7-14.9 43.5-31.8 60.9-52.8 5.9-7.2 11.5-14.7 16.8-22.4 16.2-23.9 24.2-50.5 25.6-79.2 0.7-14.1-2.6-27.5-9.2-40.7z"/>
			<path id="&lt;Path&gt;" class="s0" d="m770.3 944.2c9.5 8.4 18.4 14.9 29.1 18.7 7.5 2.7 13.9 0.7 19.7-4.1 4-3.2 3.5-6.2-1.5-7.9-14.8-4.9-30-7.8-47.3-6.7z"/>
			<path id="&lt;Path&gt;" class="s0" d="m1393.6 1727l-0.2-0.2c4.9 1.3 10.6-0.3 14.7 4 0.7 0.7 2.6 0.5 3.9 0.3 5.7-0.9 17.3-6.7 22.8-11.2-9.2-9.3-28.6-8.3-39.8-0.4-3 2.1-1.2 4.9-1.4 7.5z"/>
			<path id="&lt;Path&gt;" class="s0" d="m1373.5 1279.2c12.7 3.4 29.3-5 38-18.1 9.5-14.3 7.3-36.2-4.6-51.7 0.6 1.8 1.1 3.6 1.8 5.3 3.5 8.6 4.8 17.5 4.2 26.7-1.1 15.7-13.1 34.3-33.7 36.8-1.5 0.2-3 0.5-5.7 1z"/>
			<path id="&lt;Path&gt;" class="s2" d="m1408.3 1137.5q-3.3-3-6.6-6-0.5 0.7-1 1.4c2.4 1.7 4.3 4.1 7.7 4.4z"/>
			<path id="&lt;Path&gt;" class="s2" d="m1408.4 1137.3q2.4 2.6 4.9 5.2 0.5-0.6 1-1.3-3-1.9-6-3.7z"/>
		</g>
	</g>
</svg>