<?xml version="1.0" encoding="UTF-8" standalone="no"?>
<!DOCTYPE svg PUBLIC "-//W3C//DTD SVG 1.1//EN"
 "http://www.w3.org/Graphics/SVG/1.1/DTD/svg11.dtd">
<!-- Generated by graphviz version 2.47.0 (20210316.0004)
 -->
<!-- Title: dependencies Pages: 1 -->
<svg width="717pt" height="284pt"
 viewBox="0.00 0.00 717.00 284.00" xmlns="http://www.w3.org/2000/svg" xmlns:xlink="http://www.w3.org/1999/xlink">
<g id="graph0" class="graph" transform="scale(1 1) rotate(0) translate(4 280)">
<title>dependencies</title>
<polygon fill="white" stroke="transparent" points="-4,4 -4,-280 713,-280 713,4 -4,4"/>
<text text-anchor="start" x="333.51" y="-42.4" font-family="Times-12" font-weight="bold" font-size="14.00">Legend</text>
<polygon fill="#ffffb3" stroke="transparent" points="120.5,-10 120.5,-30 140.5,-30 140.5,-10 120.5,-10"/>
<text text-anchor="start" x="144.13" y="-15.4" font-family="Times-12" font-size="14.00"> &#160;Declarations</text>
<polygon fill="#8dd3c7" stroke="transparent" points="233.5,-10 233.5,-30 253.5,-30 253.5,-10 233.5,-10"/>
<text text-anchor="start" x="257.23" y="-15.4" font-family="Times-12" font-size="14.00"> &#160;Module</text>
<polygon fill="#80b1d3" stroke="transparent" points="319.5,-10 319.5,-30 339.5,-30 339.5,-10 319.5,-10"/>
<text text-anchor="start" x="343.28" y="-15.4" font-family="Times-12" font-size="14.00"> &#160;Bootstrap</text>
<polygon fill="#fdb462" stroke="transparent" points="416.5,-10 416.5,-30 436.5,-30 436.5,-10 416.5,-10"/>
<text text-anchor="start" x="440.17" y="-15.4" font-family="Times-12" font-size="14.00"> &#160;Providers</text>
<polygon fill="#fb8072" stroke="transparent" points="512.5,-10 512.5,-30 532.5,-30 532.5,-10 512.5,-10"/>
<text text-anchor="start" x="536.23" y="-15.4" font-family="Times-12" font-size="14.00"> &#160;Exports</text>
<g id="clust1" class="cluster">
<title>cluster_UsersModule</title>
<polygon fill="none" stroke="black" stroke-dasharray="1,5" points="8,-70 8,-268 701,-268 701,-70 8,-70"/>
</g>
<g id="clust4" class="cluster">
<title>cluster_UsersModule_exports</title>
<polygon fill="none" stroke="black" points="265,-208 265,-260 375,-260 375,-208 265,-208"/>
</g>
<g id="clust6" class="cluster">
<title>cluster_UsersModule_providers</title>
<polygon fill="none" stroke="black" points="250,-78 250,-130 693,-130 693,-78 250,-78"/>
</g>
<g id="clust3" class="cluster">
<title>cluster_UsersModule_imports</title>
<polygon fill="none" stroke="black" points="16,-78 16,-130 242,-130 242,-78 16,-78"/>
</g>
<!-- JwtUtilsModule -->
<g id="node1" class="node">
<title>JwtUtilsModule</title>
<polygon fill="#8dd3c7" stroke="black" points="234.21,-122 231.21,-126 210.21,-126 207.21,-122 127.79,-122 127.79,-86 234.21,-86 234.21,-122"/>
<text text-anchor="middle" x="181" y="-99.8" font-family="Times,serif" font-size="14.00">JwtUtilsModule</text>
</g>
<!-- UsersModule -->
<g id="node3" class="node">
<title>UsersModule</title>
<polygon fill="#8dd3c7" stroke="black" points="365.92,-187 362.92,-191 341.92,-191 338.92,-187 274.08,-187 274.08,-151 365.92,-151 365.92,-187"/>
<text text-anchor="middle" x="320" y="-164.8" font-family="Times,serif" font-size="14.00">UsersModule</text>
</g>
<!-- JwtUtilsModule&#45;&gt;UsersModule -->
<g id="edge1" class="edge">
<title>JwtUtilsModule&#45;&gt;UsersModule</title>
<path fill="none" stroke="black" d="M181,-122.02C181,-139.37 181,-163 181,-163 181,-163 264.1,-163 264.1,-163"/>
<polygon fill="black" stroke="black" points="264.1,-166.5 274.1,-163 264.1,-159.5 264.1,-166.5"/>
</g>
<!-- MailModule -->
<g id="node2" class="node">
<title>MailModule</title>
<polygon fill="#8dd3c7" stroke="black" points="109.99,-122 106.99,-126 85.99,-126 82.99,-122 24.01,-122 24.01,-86 109.99,-86 109.99,-122"/>
<text text-anchor="middle" x="67" y="-99.8" font-family="Times,serif" font-size="14.00">MailModule</text>
</g>
<!-- MailModule&#45;&gt;UsersModule -->
<g id="edge2" class="edge">
<title>MailModule&#45;&gt;UsersModule</title>
<path fill="none" stroke="black" d="M67,-122.28C67,-143.32 67,-175 67,-175 67,-175 264.18,-175 264.18,-175"/>
<polygon fill="black" stroke="black" points="264.18,-178.5 274.18,-175 264.18,-171.5 264.18,-178.5"/>
</g>
<!-- UsersService  -->
<g id="node4" class="node">
<title>UsersService </title>
<polygon fill="#fb8072" stroke="black" points="366.85,-252 273.15,-252 273.15,-216 366.85,-216 366.85,-252"/>
<text text-anchor="middle" x="320" y="-229.8" font-family="Times,serif" font-size="14.00">UsersService </text>
</g>
<!-- UsersModule&#45;&gt;UsersService  -->
<g id="edge3" class="edge">
<title>UsersModule&#45;&gt;UsersService </title>
<path fill="none" stroke="black" stroke-dasharray="5,2" d="M320,-187.11C320,-187.11 320,-205.99 320,-205.99"/>
<polygon fill="black" stroke="black" points="316.5,-205.99 320,-215.99 323.5,-205.99 316.5,-205.99"/>
</g>
<!-- DatabaseService -->
<g id="node5" class="node">
<title>DatabaseService</title>
<ellipse fill="#fdb462" stroke="black" cx="610" cy="-104" rx="75.26" ry="18"/>
<text text-anchor="middle" x="610" y="-99.8" font-family="Times,serif" font-size="14.00">DatabaseService</text>
</g>
<!-- DatabaseService&#45;&gt;UsersModule -->
<g id="edge4" class="edge">
<title>DatabaseService&#45;&gt;UsersModule</title>
<path fill="none" stroke="black" d="M610,-122.28C610,-143.32 610,-175 610,-175 610,-175 375.95,-175 375.95,-175"/>
<polygon fill="black" stroke="black" points="375.95,-171.5 365.95,-175 375.95,-178.5 375.95,-171.5"/>
</g>
<!-- MailService -->
<g id="node6" class="node">
<title>MailService</title>
<ellipse fill="#fdb462" stroke="black" cx="458" cy="-104" rx="58.46" ry="18"/>
<text text-anchor="middle" x="458" y="-99.8" font-family="Times,serif" font-size="14.00">MailService</text>
</g>
<!-- MailService&#45;&gt;UsersModule -->
<g id="edge5" class="edge">
<title>MailService&#45;&gt;UsersModule</title>
<path fill="none" stroke="black" d="M458,-122.02C458,-139.37 458,-163 458,-163 458,-163 375.95,-163 375.95,-163"/>
<polygon fill="black" stroke="black" points="375.95,-159.5 365.95,-163 375.95,-166.5 375.95,-159.5"/>
</g>
<!-- UsersService -->
<g id="node7" class="node">
<title>UsersService</title>
<ellipse fill="#fdb462" stroke="black" cx="320" cy="-104" rx="61.95" ry="18"/>
<text text-anchor="middle" x="320" y="-99.8" font-family="Times,serif" font-size="14.00">UsersService</text>
</g>
<!-- UsersService&#45;&gt;UsersModule -->
<g id="edge6" class="edge">
<title>UsersService&#45;&gt;UsersModule</title>
<path fill="none" stroke="black" d="M320,-122.11C320,-122.11 320,-140.99 320,-140.99"/>
<polygon fill="black" stroke="black" points="316.5,-140.99 320,-150.99 323.5,-140.99 316.5,-140.99"/>
</g>
</g>
</svg>
