<?xml version="1.0" encoding="UTF-8" standalone="no"?>
<!DOCTYPE svg PUBLIC "-//W3C//DTD SVG 1.1//EN"
 "http://www.w3.org/Graphics/SVG/1.1/DTD/svg11.dtd">
<!-- Generated by graphviz version 2.47.0 (20210316.0004)
 -->
<!-- Title: dependencies Pages: 1 -->
<svg width="504pt" height="211pt"
 viewBox="0.00 0.00 504.00 211.00" xmlns="http://www.w3.org/2000/svg" xmlns:xlink="http://www.w3.org/1999/xlink">
<g id="graph0" class="graph" transform="scale(1 1) rotate(0) translate(4 207)">
<title>dependencies</title>
<polygon fill="white" stroke="transparent" points="-4,4 -4,-207 500,-207 500,4 -4,4"/>
<text text-anchor="start" x="227.01" y="-42.4" font-family="Times-12" font-weight="bold" font-size="14.00">Legend</text>
<polygon fill="#ffffb3" stroke="transparent" points="14,-10 14,-30 34,-30 34,-10 14,-10"/>
<text text-anchor="start" x="37.63" y="-15.4" font-family="Times-12" font-size="14.00"> &#160;Declarations</text>
<polygon fill="#8dd3c7" stroke="transparent" points="127,-10 127,-30 147,-30 147,-10 127,-10"/>
<text text-anchor="start" x="150.73" y="-15.4" font-family="Times-12" font-size="14.00"> &#160;Module</text>
<polygon fill="#80b1d3" stroke="transparent" points="213,-10 213,-30 233,-30 233,-10 213,-10"/>
<text text-anchor="start" x="236.78" y="-15.4" font-family="Times-12" font-size="14.00"> &#160;Bootstrap</text>
<polygon fill="#fdb462" stroke="transparent" points="310,-10 310,-30 330,-30 330,-10 310,-10"/>
<text text-anchor="start" x="333.67" y="-15.4" font-family="Times-12" font-size="14.00"> &#160;Providers</text>
<polygon fill="#fb8072" stroke="transparent" points="406,-10 406,-30 426,-30 426,-10 406,-10"/>
<text text-anchor="start" x="429.73" y="-15.4" font-family="Times-12" font-size="14.00"> &#160;Exports</text>
<g id="clust1" class="cluster">
<title>cluster_AdminModule</title>
<polygon fill="none" stroke="black" stroke-dasharray="1,5" points="23,-70 23,-195 473,-195 473,-70 23,-70"/>
</g>
<g id="clust3" class="cluster">
<title>cluster_AdminModule_imports</title>
<polygon fill="none" stroke="black" points="357,-78 357,-130 465,-130 465,-78 357,-78"/>
</g>
<g id="clust6" class="cluster">
<title>cluster_AdminModule_providers</title>
<polygon fill="none" stroke="black" points="31,-78 31,-130 349,-130 349,-78 31,-78"/>
</g>
<!-- UsersModule -->
<g id="node1" class="node">
<title>UsersModule</title>
<polygon fill="#8dd3c7" stroke="black" points="456.92,-122 453.92,-126 432.92,-126 429.92,-122 365.08,-122 365.08,-86 456.92,-86 456.92,-122"/>
<text text-anchor="middle" x="411" y="-99.8" font-family="Times,serif" font-size="14.00">UsersModule</text>
</g>
<!-- AdminModule -->
<g id="node2" class="node">
<title>AdminModule</title>
<polygon fill="#8dd3c7" stroke="black" points="323.44,-187 320.44,-191 299.44,-191 296.44,-187 224.56,-187 224.56,-151 323.44,-151 323.44,-187"/>
<text text-anchor="middle" x="274" y="-164.8" font-family="Times,serif" font-size="14.00">AdminModule</text>
</g>
<!-- UsersModule&#45;&gt;AdminModule -->
<g id="edge1" class="edge">
<title>UsersModule&#45;&gt;AdminModule</title>
<path fill="none" stroke="black" d="M411,-122.11C411,-141.34 411,-169 411,-169 411,-169 333.46,-169 333.46,-169"/>
<polygon fill="black" stroke="black" points="333.46,-165.5 323.46,-169 333.46,-172.5 333.46,-165.5"/>
</g>
<!-- AdminService -->
<g id="node3" class="node">
<title>AdminService</title>
<ellipse fill="#fdb462" stroke="black" cx="274" cy="-104" rx="66.63" ry="18"/>
<text text-anchor="middle" x="274" y="-99.8" font-family="Times,serif" font-size="14.00">AdminService</text>
</g>
<!-- AdminService&#45;&gt;AdminModule -->
<g id="edge2" class="edge">
<title>AdminService&#45;&gt;AdminModule</title>
<path fill="none" stroke="black" d="M274,-122.11C274,-122.11 274,-140.99 274,-140.99"/>
<polygon fill="black" stroke="black" points="270.5,-140.99 274,-150.99 277.5,-140.99 270.5,-140.99"/>
</g>
<!-- DatabaseService -->
<g id="node4" class="node">
<title>DatabaseService</title>
<ellipse fill="#fdb462" stroke="black" cx="114" cy="-104" rx="75.26" ry="18"/>
<text text-anchor="middle" x="114" y="-99.8" font-family="Times,serif" font-size="14.00">DatabaseService</text>
</g>
<!-- DatabaseService&#45;&gt;AdminModule -->
<g id="edge3" class="edge">
<title>DatabaseService&#45;&gt;AdminModule</title>
<path fill="none" stroke="black" d="M114,-122.11C114,-141.34 114,-169 114,-169 114,-169 214.69,-169 214.69,-169"/>
<polygon fill="black" stroke="black" points="214.69,-172.5 224.69,-169 214.69,-165.5 214.69,-172.5"/>
</g>
</g>
</svg>
