<svg xmlns="http://www.w3.org/2000/svg" version="1.1" xmlns:xlink="http://www.w3.org/1999/xlink" xmlns:svgjs="http://svgjs.dev/svgjs" width="1440" height="560" preserveAspectRatio="none" viewBox="0 0 1440 560"><g mask="url(&quot;#SvgjsMask1009&quot;)" fill="none"><rect width="1440" height="560" x="0" y="0" fill="rgba(255, 117, 143, 1)"></rect><path d="M1488 560L0 560 L0 299.21Q72.18 299.38, 72 371.56Q107.96 335.52, 144 371.48Q167.74 323.22, 216 346.95Q253.91 264.86, 336 302.77Q387.89 282.66, 408 334.55Q460.34 266.89, 528 319.24Q581.51 252.75, 648 306.27Q678.3 264.57, 720 294.88Q769 271.88, 792 320.89Q858.62 267.5, 912 334.12Q929.29 279.41, 984 296.7Q1068.21 260.91, 1104 345.12Q1154.07 323.19, 1176 373.25Q1207.32 284.57, 1296 315.89Q1317.9 265.79, 1368 287.7Q1436.19 235.89, 1488 304.08z" fill="rgba(255, 143, 163, 1)"></path><path d="M1464 560L0 560 L0 413.96Q11.57 353.53, 72 365.11Q119.28 340.39, 144 387.67Q225.13 348.8, 264 429.93Q285 378.93, 336 399.92Q364.57 356.49, 408 385.06Q488.42 345.48, 528 425.89Q582.58 360.47, 648 415.05Q680.53 327.58, 768 360.1Q836.1 308.2, 888 376.29Q978.2 346.5, 1008 436.7Q1029.65 338.35, 1128 360Q1173.18 333.19, 1200 378.37Q1260.43 366.81, 1272 427.24Q1274.92 358.16, 1344 361.08Q1399.57 296.65, 1464 352.22z" fill="rgba(255, 179, 193, 1)"></path><path d="M1560 560L0 560 L0 507.08Q56.18 443.26, 120 499.44Q148.61 408.05, 240 436.66Q319.4 396.06, 360 475.46Q406.01 401.47, 480 447.47Q536.69 432.16, 552 488.85Q573.93 438.78, 624 460.71Q672.09 388.8, 744 436.89Q804.99 425.88, 816 486.87Q844.28 443.15, 888 471.44Q936.13 399.57, 1008 447.7Q1073.07 392.76, 1128 457.83Q1149.01 406.84, 1200 427.85Q1268.84 376.69, 1320 445.53Q1411.82 417.35, 1440 509.17Q1493.88 443.06, 1560 496.94z" fill="rgba(255, 204, 213, 1)"></path><path d="M1464 560L0 560 L0 512.51Q33.76 474.27, 72 508.03Q151.05 467.08, 192 546.13Q268.17 502.3, 312 578.46Q316.13 510.6, 384 514.73Q433.53 444.26, 504 493.79Q560.54 478.33, 576 534.86Q636.09 522.95, 648 583.05Q667.18 530.23, 720 549.41Q762.99 520.4, 792 563.39Q859.31 510.7, 912 578.01Q942.13 488.14, 1032 518.28Q1055.28 469.56, 1104 492.84Q1189.63 458.47, 1224 544.1Q1263.49 463.6, 1344 503.09Q1413.6 452.68, 1464 522.28z" fill="white"></path></g><defs><mask id="SvgjsMask1009"><rect width="1440" height="560" fill="#ffffff"></rect></mask></defs></svg>