<?xml version="1.0" encoding="utf-8"?>
<!-- Generator: Adobe Illustrator 27.8.0, SVG Export Plug-In . SVG Version: 6.00 Build 0)  -->
<svg version="1.1" id="Layer_1" xmlns="http://www.w3.org/2000/svg" xmlns:xlink="http://www.w3.org/1999/xlink" x="0px" y="0px"
	 viewBox="0 0 483.7 411.6" style="enable-background:new 0 0 483.7 411.6;" xml:space="preserve">
<style type="text/css">
	.st0{fill:#FFF4EB;}
	.st1{clip-path:url(#SVGID_00000183965907675267557240000014391055250357390466_);}
	.st2{fill:#956EB1;}
</style>
<g transform="translate(-256.067 -1616.836)">
	<path class="st0" d="M281.9,1742.5c68-134,116.5,81.4,268.4-74.3s227.3,80.6,170.5,208.7S533.8,2055,410.9,2015
		C287.9,1975.1,214,1876.5,281.9,1742.5z"/>
	<g transform="translate(434 1753.141)">
		<g>
			<defs>
				<rect id="SVGID_1_" x="-45.1" y="-98.4" width="321.5" height="297.2"/>
			</defs>
			<clipPath id="SVGID_00000040534351093333031450000013527510622458704529_">
				<use xlink:href="#SVGID_1_"  style="overflow:visible;"/>
			</clipPath>
			<g transform="translate(0 0.001)" style="clip-path:url(#SVGID_00000040534351093333031450000013527510622458704529_);">
				<path class="st2" d="M167.3,103.6L167.3,103.6c-0.2,0-12.8-0.7-28.5-1.9c-14.5-1.1-34.7-2.8-48.4-4.9
					c-5.4-0.7-10.7-2.5-15.4-5.3c-3.5-2.1-6.4-5.3-8.1-9c-3.2-7.2-1.8-16.2,3.9-24.9c7.6-11.7,14.9-26.4,18.8-34.3
					c1.1-2.2,1.9-3.8,2.3-4.7c1-1.8-0.2-5-1.5-8.6c-1.1-2.8-2-5.7-2.6-8.7c-0.6-3.5,0-7,1.6-10.2c1.6-3.2,3.9-6,6.7-8.3
					c3.2-2.7,6.9-4.7,10.9-6c4.1-1.2,7.8-1.3,10.8-0.2c3.4,1.2,5.9,4.1,6.3,7.7c0.4,3.1,0.3,6.3-0.3,9.4c-0.3,1.4-0.4,2.8-0.3,4.3
					c0.1,0.7,0.6,2.7,1.2,4.7c0.3,1.3,0.7,2.5,1.2,3.7c5.8-0.4,10,1.1,10.8,4c0.6,1.7,0.1,3.6-1.2,4.8c-1.6,1.3-3.5,2.3-5.5,2.8
					c-1.4,0.5-3.5,1.3-5.3,2c-1.3,0.4-2.5,1-3.6,1.8c-0.7,1.7-1.2,3.5-1.6,5.3c-0.8,3-1.6,6.7-2.4,10.4c-0.9,4.1-1.6,7.7-2,10.5
					c-0.7,4.1-0.6,5.3-0.5,5.5c1.5,1.3,3.4,2.3,5.4,2.7c3.9,1.1,8,1.2,12,0.4c4.3-0.9,8.4-2.3,12.4-4.3c6-2.9,12.4-4.9,18.9-6
					c3.8-0.6,7.8-0.2,11.4,1.3c3.2,1.3,6.1,3.2,8.7,5.5c2.9,2.5,5.4,5.5,7.6,8.7c0.3,0.5,0.1,1.1-0.3,1.4s-1.1,0.1-1.4-0.3
					c-2-3.1-4.4-5.9-7.2-8.3c-5.9-5.2-12.1-7.3-18.4-6.2c-6.4,1-12.6,3-18.4,5.8c-4.1,2-8.3,3.5-12.8,4.4c-4.3,0.9-8.7,0.7-13-0.4
					c-3.4-1-5.7-2.5-6.5-3.6c-0.4-0.5-0.6-1.4,0.2-6.3c0.6-3.6,1.4-7.9,2.1-10.8c0.8-3.8,1.7-7.7,2.5-10.8c1.3-5.1,1.7-5.7,1.9-5.9
					c0.4-0.6,1.6-1.5,9.9-4.6c5.3-2,6.1-3.1,5.5-5.3c-0.4-1.6-3.7-3-9.2-2.5c-0.6,0-1.1-0.3-1.3-0.8c-0.2-0.3-0.3-0.7-0.4-1
					C123.6,6,123.3,5,123,3.8c-0.6-2.1-1.2-4.5-1.3-5.4c-0.1-1.6,0-3.3,0.3-4.9c0.5-2.9,0.7-5.9,0.3-8.8c-0.3-2.9-2.3-5.3-5-6.2
					c-2.6-0.9-5.9-0.9-9.5,0.2c-3.7,1.2-7.2,3.1-10.2,5.6c-5.8,4.9-8.6,10.9-7.6,16.6c0.6,2.9,1.4,5.7,2.5,8.4
					c1.5,4.1,2.8,7.7,1.4,10.3c-0.4,0.8-1.2,2.4-2.3,4.6c-3.9,7.9-11.2,22.7-18.9,34.5c-5.3,8.1-6.6,16.4-3.7,23
					c3.1,6.9,10.7,11.4,21.9,13.1c26.1,4,76.1,6.8,76.6,6.8c0.6,0,1,0.5,1,1C168.4,103.2,167.9,103.6,167.3,103.6L167.3,103.6z"/>
				<path class="st2" d="M-12.5,67.3c-0.6,0-1-0.4-1-1c0-0.4,0.2-0.8,0.6-0.9c4.5-2.1,8.7-4.6,12.7-7.5C10.6,50.1,20.3,41,28.7,30.7
					c2.7-3.3,5.9-6.2,9.5-8.5c3.1-2,6.5-3.4,10.1-4.3c3.3-0.8,6.6-1,9.9-0.6c3.1,0.3,6.2,1.2,9,2.5c2.3,1.1,4.5,2.5,6.4,4.2
					c1.9,1.6,3.5,3.5,4.8,5.7c2.6,4.3,3.6,9.5,2.7,14.5c-0.1,0.5-0.6,0.9-1.2,0.8s-0.9-0.6-0.8-1.2l0,0c1.6-9-3.5-17.9-12.7-22.2
					c-9.2-4.3-24.2-4.1-36.1,10.4c-4.9,5.9-10.2,11.5-15.9,16.7c-4.3,3.9-8.8,7.5-13.5,10.9c-4.1,3-8.4,5.5-13,7.7
					C-12.2,67.3-12.3,67.3-12.5,67.3z"/>
				<path class="st2" d="M62.1,196.8c-4.1,0-8.2-0.2-12.4-0.6c-12.8-1.4-25.4-4.3-37.6-8.7c-4.7-1.6-9.2-3.8-13.3-6.6
					c-4-2.6-7.6-5.7-10.8-9.1c-6.1-6.6-10.5-14.6-12.8-23.4c-0.9-3.7-1.4-7.4-1.5-11.2c-0.1-3.8,0.4-7.6,1.2-11.3
					c0.9-3.8,2.3-7.5,4.1-10.9c2-3.6,4.4-7,7.2-10.1c4.1-4.5,8.3-8.6,12.2-12.3c-4.9,3.6-8.9,6.4-10.4,7.5
					c-3.3,2.5-6.9,4.6-10.6,6.5c-5.7,2.8-10.2,3.7-13.7,2.7c-2.5-0.7-4.6-2.6-5.5-5.1c-2.9-6.8-0.8-14,1.6-22.4
					c1.9-6.5,4-14,4.2-22.6c0.2-4.2,1.3-8.3,3.2-12.1c2.1-4.2,5-8,8.5-11.1c6-5.2,13.9-7.6,21.8-6.5c3.1,0.2,5.8,2,7.4,4.7
					c1.1,2.3,1.6,4.9,1.5,7.4C6.4,44.4,6,47,5.3,49.6c-0.8,3-1.8,6-3.1,8.9C1.9,59,1.3,59.2,0.8,59c-0.5-0.2-0.7-0.8-0.5-1.3
					c0.1-0.2,6.9-15.2,2.9-22.4c-1.2-2.1-3.4-3.5-5.9-3.7c-7.3-1-14.7,1.1-20.2,6c-6.4,5.5-10.9,14.2-11,21.8
					c-0.2,8.9-2.4,16.4-4.3,23.1c-2.4,8.3-4.3,14.9-1.7,21c0.7,1.9,2.3,3.4,4.2,3.9c2.9,0.8,7.1-0.1,12.3-2.6
					c3.6-1.8,7-3.9,10.3-6.3C-9.7,96,6.5,84.3,17.3,76.6c5.9-4.6,9.8-7.1,9.8-7.1c0.5-0.3,1.1-0.2,1.4,0.3c0.3,0.4,0.2,1-0.3,1.4
					l-9.8,7.1c-0.9,0.7-1.8,1.4-2.8,2.2c-9.9,7.9-19.2,16.6-27.8,25.9c-10.4,11.1-14.4,26.9-10.6,41.6c4.3,17.3,17.7,31.4,35.6,37.7
					c18.3,6.4,34.4,9.1,49.3,9.1c30.5,0,55.9-11.5,85-26.6c30.7-15.9,47.1-41.5,55.5-60.2c4-8.8,7-18,9.2-27.4
					c1.6-7,2.1-12.2,2-13.3c-0.3-4.8,3.6-11,11.7-18.3c6.3-5.6,13.1-10.6,20.3-14.9c2.4-1.5,6.6-5,10.9-10.7
					c4.9-6.4,8.8-13.5,11.4-21.1c5.1-14.7,7.8-38-8.3-65.3l0,0c-10.1-18.2-28-29.1-50.4-30.9c-2-0.2-4.1-0.2-6.2-0.2
					c-21.5,0-42.9,8.7-53.4,22.2c-12.6,18.7-11,33.1-9.8,42.6c0.2,1.5,0.3,3,0.4,4.3c0.2,2.8-0.5,4.9-2.1,6.3
					c-1.5,1.1-3.2,1.9-5,2.2c-2.2,0.6-4.1,1.2-4.7,2.9c-0.9,2.3,0.3,5.4,1.4,7.6c0.8,1.5,1.8,3,2.9,4.3c0.3,0.4,0.3,1-0.1,1.4
					c-1.2,1.2-4.3,4.8-4.3,7.5c0,0.6-0.5,1-1,1s-1-0.5-1-1c0-1.7,0.9-3.7,2.5-6c0.6-0.8,1.1-1.5,1.8-2.2c-1-1.2-1.8-2.6-2.5-3.9
					c-0.8-1.4-1.3-2.9-1.7-4.4c-0.4-1.6-0.3-3.2,0.2-4.8c0.5-1.2,1.4-2.2,2.6-2.8c1.1-0.5,2.3-1,3.5-1.3c1.5-0.3,2.9-0.9,4.2-1.8
					c0.7-0.6,1.7-1.8,1.5-4.6c-0.1-1.3-0.3-2.7-0.4-4.2c-0.9-6.1-1-12.3-0.2-18.4c0.6-4.1,1.7-8.1,3.2-12c1.9-4.8,4.3-9.4,7.3-13.6
					c0,0,0,0,0-0.1c3.2-4,7-7.5,11.3-10.3c4.6-3.1,9.6-5.6,14.8-7.5c11.3-4.1,23.3-5.8,35.3-4.9c5.1,0.4,10.2,1.3,15.1,2.7
					c5,1.4,9.7,3.5,14.2,6c9.5,5.5,17.4,13.5,22.7,23.1c7.1,12.1,11.3,24.4,12.3,36.7c0.9,10.3-0.4,20.6-3.8,30.3
					c-2.7,7.8-6.7,15.1-11.8,21.7c-3.9,5-8.1,9.2-11.5,11.2c-7.1,4.3-13.8,9.2-20,14.7c-7.5,6.8-11.4,12.6-11.1,16.7
					c0.1,1.2-0.3,6.2-2.1,13.9c-2.2,9.5-5.3,18.8-9.3,27.8c-5.3,11.8-12.2,22.8-20.6,32.7c-4.8,5.6-10.1,10.7-15.8,15.3
					c-6.2,5-13,9.4-20.1,13.1c-23.9,12.4-44.2,21.5-65.2,25.1C76,196.2,69.1,196.8,62.1,196.8z"/>
				<path class="st2" d="M154.6,49.1c-0.1,0-0.3,0-0.4-0.1c0,0-4.4-1.8-9.2-4.4c-6.6-3.5-10.9-6.8-12.8-9.8c-1.9-2.7-2.6-6.1-2-9.4
					c0.2-1,0.6-2,1.1-2.9c-0.4-0.2-0.7-0.4-1.1-0.7c-1.3-0.8-2.2-2.2-2.3-3.7c0-0.6,0.4-1,1-1c0.6,0,1,0.4,1,1
					c0,1.5,2.4,2.8,3.2,3.1c0.5,0.2,0.7,0.8,0.5,1.3c0,0.1-0.1,0.2-0.1,0.2c-0.7,1-1.1,2-1.3,3.2c-0.5,2.7,0.1,5.5,1.7,7.8
					c4.2,6.5,20.9,13.3,21.1,13.4c0.5,0.2,0.8,0.8,0.5,1.3C155.4,48.8,155,49.1,154.6,49.1L154.6,49.1z"/>
				<path class="st2" d="M44.2,142c-0.6,0-1-0.4-1-1c0-0.4,0.2-0.8,0.6-0.9c2.5-1.2,4.9-2.7,7.1-4.5c5.4-4.2,9.9-9.6,13.1-15.6
					c3.4-6.4,6.1-13.2,8.1-20.3c0.9-3.1,1.6-6.2,2.2-9.4c0.1-0.5,0.6-0.9,1.1-0.8s0.9,0.6,0.8,1.1c-0.6,3.2-1.3,6.5-2.2,9.6
					c-2,7.2-4.8,14.1-8.2,20.7c-1.9,3.5-4.2,6.8-6.8,9.8c-2.1,2.4-4.4,4.5-6.9,6.5c-2.3,1.9-4.8,3.4-7.5,4.7
					C44.5,141.9,44.3,142,44.2,142z"/>
				<path class="st2" d="M162.9-20.8c-0.3,0-0.5-0.1-0.7-0.3c-1.4-1.4-3.4-2.2-5.4-2.3c-1,0-1.9,0.1-2.8,0.3
					c-0.5,0.2-1.1-0.1-1.3-0.6s0.1-1.1,0.6-1.3c0,0,0,0,0,0c1.1-0.3,2.3-0.5,3.5-0.4c2.5,0.1,5,1.1,6.8,2.9c0.4,0.4,0.4,1,0,1.4
					C163.4-21,163.1-20.8,162.9-20.8L162.9-20.8z"/>
				<path class="st2" d="M192.3,13.5c-0.6,0-1-0.4-1-1s0.4-1,1-1c8.2-0.6,15.5-5.4,19.4-12.6c2-4.1,2.1-8,0.3-10.8
					c-1.7-2.9-5.1-4.6-8.4-4.1c-1.8,0.2-3.5,0.7-5.1,1.5c-0.5,0.3-1.1,0.1-1.4-0.4c-0.3-0.5-0.1-1.1,0.4-1.3
					c1.8-0.9,3.8-1.5,5.8-1.7c4.1-0.5,8.2,1.5,10.4,5c2.2,3.4,2.1,8-0.2,12.7c-1.9,3.7-4.7,6.8-8.1,9.2
					C201.4,11.6,197,13.2,192.3,13.5L192.3,13.5z"/>
				<path class="st2" d="M29.5,32.3c-0.2,0-0.4,0-0.5-0.1c-5.1-3.2-10-6.8-14.6-10.7c-4-3.4-7.7-7.1-11-11.2c-3.6-4.6-6-9.1-7-13.4
					C-4.9-8-4-13.2-1.2-17.5c2.6-4.1,6-7.6,10-10.4c3.4-2.3,6.9-4.2,10.6-5.9c4.8-2.3,9-4.3,11.8-7.8c3-3.8,3.9-9.2,2.9-16.8
					C32.5-70,25.4-77.7,12.7-81.2C6.6-82.8,0.3-83.4-6.1-83c-0.5,0.1-1-0.3-1.1-0.9c-0.1-0.5,0.3-1,0.9-1.1c2-0.2,4-0.2,6-0.1
					c4.6,0.1,9.1,0.8,13.5,2c5.3,1.3,10.3,4,14.4,7.6c4.7,4.5,7.7,10.5,8.4,16.9c2.4,18-6,22-15.8,26.7c-6.6,3.2-14.2,6.8-19.8,15.5
					C-2-12.6-2.8-8-1.7-3.6C0,3.5,6,11.7,15.6,19.9c4.5,3.9,9.3,7.4,14.4,10.5c0.5,0.3,0.6,0.9,0.3,1.4
					C30.2,32.2,29.8,32.3,29.5,32.3z"/>
			</g>
		</g>
	</g>
</g>
</svg>
