<svg fill="none" viewBox="0 0 32 32"><path fill="#2196F3" d="M16 6.756V0L1.028 14.639a1.422 1.422 0 00-.011 2.023L3.556 19.2"/><path fill="#1878C6" d="M16 6.756V0l14.972 14.639c.566.553.57 1.463.011 2.023L28.444 19.2"/><path fill="#1565C0" d="M3.556 19.2L9.6 13.156H16V19.2"/><path fill="#10519D" d="M28.444 19.2L22.4 13.156H16V19.2"/><path fill="#1565C0" d="M16 25.956H9.956l3.022-3.2 3.022 3.2z"/><path fill="#1878C6" d="M16 32l6.044-6.044H16V32z"/><path fill="#2196F3" d="M16 32l-6.044-6.044H16V32z"/><path fill="#10519D" d="M16 25.956h6.044l-3.022-3.2-3.022 3.2z"/><path fill="#2196F3" d="M7.724 21.75a1.422 1.422 0 00.018 1.992l2.214 2.214 6.044-6.4v-6.4"/><path fill="#1878C6" d="M24.276 21.75c.538.558.53 1.444-.018 1.992l-2.214 2.214-6.044-6.4v-6.4"/></svg>