<svg fill="none" viewBox="0 0 96 32"><g clip-path="url(#clip0)"><path fill="#fff" d="M51.592 10.368h-6.72v3.984H51.4v3.168h-6.528V24H41.56V7.2h10.032v3.168zm9.377 13.968a7.85 7.85 0 01-2.544-.408 6.206 6.206 0 01-2.04-1.152 5.346 5.346 0 01-1.344-1.848c-.32-.736-.48-1.544-.48-2.424V7.2h3.288v11.04c0 .864.248 1.56.744 2.088.512.512 1.304.768 2.376.768 1.072 0 1.856-.256 2.352-.768.512-.528.768-1.224.768-2.088V7.2h3.312v11.304c0 .88-.16 1.688-.48 2.424a5.346 5.346 0 01-1.344 1.848c-.576.496-1.264.88-2.064 1.152a7.71 7.71 0 01-2.544.408zm15.852 0c-1.664 0-3.064-.368-4.2-1.104a6.03 6.03 0 01-2.4-3.048l2.832-1.656c.304.8.776 1.432 1.416 1.896.64.448 1.456.672 2.448.672.912 0 1.584-.168 2.016-.504.448-.336.672-.76.672-1.272 0-.448-.192-.848-.576-1.2-.384-.352-1.4-.768-3.048-1.248-1.152-.336-2.08-.704-2.784-1.104a4.78 4.78 0 01-1.68-1.56c-.4-.64-.6-1.424-.6-2.352 0-.56.096-1.128.288-1.704.208-.592.576-1.16 1.104-1.704a4.776 4.776 0 011.92-1.2 6.828 6.828 0 012.208-.384c1.36 0 2.552.336 3.576 1.008 1.04.656 1.848 1.576 2.424 2.76l-2.784 1.608c-.672-1.44-1.744-2.16-3.216-2.16-.672 0-1.208.16-1.608.48-.4.32-.6.72-.6 1.2 0 .512.208.936.624 1.272.432.336 1.288.696 2.568 1.08 1.568.496 2.704.96 3.408 1.392.72.432 1.248.968 1.584 1.608.336.64.504 1.36.504 2.16a4.86 4.86 0 01-.456 2.112 4.51 4.51 0 01-1.248 1.608c-.544.432-1.192.768-1.944 1.008a8.542 8.542 0 01-2.448.336zm12.151-3.504h7.08V24H85.66V7.2h10.272v3.168h-6.96v3.576h6.36v3.12h-6.36v3.768z"/><path fill="#2196F3" d="M16 6.756V0L1.028 14.639a1.422 1.422 0 00-.011 2.023L3.556 19.2"/><path fill="#1878C6" d="M16 6.756V0l14.972 14.639c.566.553.57 1.463.011 2.023L28.444 19.2"/><path fill="#1565C0" d="M3.556 19.2L9.6 13.156H16V19.2"/><path fill="#10519D" d="M28.444 19.2L22.4 13.156H16V19.2"/><path fill="#1565C0" d="M16 25.956H9.956l3.022-3.2 3.022 3.2z"/><path fill="#1878C6" d="M16 32l6.044-6.044H16V32z"/><path fill="#2196F3" d="M16 32l-6.044-6.044H16V32z"/><path fill="#10519D" d="M16 25.956h6.044l-3.022-3.2-3.022 3.2z"/><path fill="#2196F3" d="M7.724 21.75a1.422 1.422 0 00.018 1.992l2.214 2.214 6.044-6.4v-6.4"/><path fill="#1878C6" d="M24.276 21.75c.538.558.53 1.444-.018 1.992l-2.214 2.214-6.044-6.4v-6.4"/></g><defs><clipPath id="clip0"><path fill="#fff" d="M0 0h96v32H0z"/></clipPath></defs></svg>