<?xml version="1.0" encoding="UTF-8" standalone="no"?>
<!DOCTYPE svg PUBLIC "-//W3C//DTD SVG 1.1//EN"
 "http://www.w3.org/Graphics/SVG/1.1/DTD/svg11.dtd">
<!-- Generated by graphviz version 2.47.0 (20210316.0004)
 -->
<!-- Title: dependencies Pages: 1 -->
<svg width="2553pt" height="211pt"
 viewBox="0.00 0.00 2553.00 211.00" xmlns="http://www.w3.org/2000/svg" xmlns:xlink="http://www.w3.org/1999/xlink">
<g id="graph0" class="graph" transform="scale(1 1) rotate(0) translate(4 207)">
<title>dependencies</title>
<polygon fill="white" stroke="transparent" points="-4,4 -4,-207 2549,-207 2549,4 -4,4"/>
<text text-anchor="start" x="1251.51" y="-42.4" font-family="Times-12" font-weight="bold" font-size="14.00">Legend</text>
<polygon fill="#ffffb3" stroke="transparent" points="1038.5,-10 1038.5,-30 1058.5,-30 1058.5,-10 1038.5,-10"/>
<text text-anchor="start" x="1062.13" y="-15.4" font-family="Times-12" font-size="14.00"> &#160;Declarations</text>
<polygon fill="#8dd3c7" stroke="transparent" points="1151.5,-10 1151.5,-30 1171.5,-30 1171.5,-10 1151.5,-10"/>
<text text-anchor="start" x="1175.23" y="-15.4" font-family="Times-12" font-size="14.00"> &#160;Module</text>
<polygon fill="#80b1d3" stroke="transparent" points="1237.5,-10 1237.5,-30 1257.5,-30 1257.5,-10 1237.5,-10"/>
<text text-anchor="start" x="1261.28" y="-15.4" font-family="Times-12" font-size="14.00"> &#160;Bootstrap</text>
<polygon fill="#fdb462" stroke="transparent" points="1334.5,-10 1334.5,-30 1354.5,-30 1354.5,-10 1334.5,-10"/>
<text text-anchor="start" x="1358.17" y="-15.4" font-family="Times-12" font-size="14.00"> &#160;Providers</text>
<polygon fill="#fb8072" stroke="transparent" points="1430.5,-10 1430.5,-30 1450.5,-30 1450.5,-10 1430.5,-10"/>
<text text-anchor="start" x="1454.23" y="-15.4" font-family="Times-12" font-size="14.00"> &#160;Exports</text>
<g id="clust1" class="cluster">
<title>cluster_AppModule</title>
<polygon fill="none" stroke="black" stroke-dasharray="1,5" points="8,-70 8,-195 2537,-195 2537,-70 8,-70"/>
</g>
<g id="clust3" class="cluster">
<title>cluster_AppModule_imports</title>
<polygon fill="none" stroke="black" points="154,-78 154,-130 2529,-130 2529,-78 154,-78"/>
</g>
<g id="clust6" class="cluster">
<title>cluster_AppModule_providers</title>
<polygon fill="none" stroke="black" points="16,-78 16,-130 146,-130 146,-78 16,-78"/>
</g>
<!-- AdminModule -->
<g id="node1" class="node">
<title>AdminModule</title>
<polygon fill="#8dd3c7" stroke="black" points="2521.44,-122 2518.44,-126 2497.44,-126 2494.44,-122 2422.56,-122 2422.56,-86 2521.44,-86 2521.44,-122"/>
<text text-anchor="middle" x="2472" y="-99.8" font-family="Times,serif" font-size="14.00">AdminModule</text>
</g>
<!-- AppModule -->
<g id="node21" class="node">
<title>AppModule</title>
<polygon fill="#8dd3c7" stroke="black" points="1310.66,-187 1307.66,-191 1286.66,-191 1283.66,-187 1227.34,-187 1227.34,-151 1310.66,-151 1310.66,-187"/>
<text text-anchor="middle" x="1269" y="-164.8" font-family="Times,serif" font-size="14.00">AppModule</text>
</g>
<!-- AdminModule&#45;&gt;AppModule -->
<g id="edge1" class="edge">
<title>AdminModule&#45;&gt;AppModule</title>
<path fill="none" stroke="black" d="M2472,-122.15C2472,-145.76 2472,-184 2472,-184 2472,-184 1320.76,-184 1320.76,-184"/>
<polygon fill="black" stroke="black" points="1320.76,-180.5 1310.76,-184 1320.76,-187.5 1320.76,-180.5"/>
</g>
<!-- BlogsModule -->
<g id="node2" class="node">
<title>BlogsModule</title>
<polygon fill="#8dd3c7" stroke="black" points="2405.22,-122 2402.22,-126 2381.22,-126 2378.22,-122 2312.78,-122 2312.78,-86 2405.22,-86 2405.22,-122"/>
<text text-anchor="middle" x="2359" y="-99.8" font-family="Times,serif" font-size="14.00">BlogsModule</text>
</g>
<!-- BlogsModule&#45;&gt;AppModule -->
<g id="edge2" class="edge">
<title>BlogsModule&#45;&gt;AppModule</title>
<path fill="none" stroke="black" d="M2359,-122.25C2359,-145.02 2359,-181 2359,-181 2359,-181 1320.73,-181 1320.73,-181"/>
<polygon fill="black" stroke="black" points="1320.73,-177.5 1310.73,-181 1320.73,-184.5 1320.73,-177.5"/>
</g>
<!-- CategorysModule -->
<g id="node3" class="node">
<title>CategorysModule</title>
<polygon fill="#8dd3c7" stroke="black" points="2295.31,-122 2292.31,-126 2271.31,-126 2268.31,-122 2178.69,-122 2178.69,-86 2295.31,-86 2295.31,-122"/>
<text text-anchor="middle" x="2237" y="-99.8" font-family="Times,serif" font-size="14.00">CategorysModule</text>
</g>
<!-- CategorysModule&#45;&gt;AppModule -->
<g id="edge3" class="edge">
<title>CategorysModule&#45;&gt;AppModule</title>
<path fill="none" stroke="black" d="M2237,-122.29C2237,-144.21 2237,-178 2237,-178 2237,-178 1320.9,-178 1320.9,-178"/>
<polygon fill="black" stroke="black" points="1320.9,-174.5 1310.9,-178 1320.9,-181.5 1320.9,-174.5"/>
</g>
<!-- CommentsModule -->
<g id="node4" class="node">
<title>CommentsModule</title>
<polygon fill="#8dd3c7" stroke="black" points="2161.22,-122 2158.22,-126 2137.22,-126 2134.22,-122 2040.78,-122 2040.78,-86 2161.22,-86 2161.22,-122"/>
<text text-anchor="middle" x="2101" y="-99.8" font-family="Times,serif" font-size="14.00">CommentsModule</text>
</g>
<!-- CommentsModule&#45;&gt;AppModule -->
<g id="edge4" class="edge">
<title>CommentsModule&#45;&gt;AppModule</title>
<path fill="none" stroke="black" d="M2101,-122.03C2101,-142.77 2101,-174 2101,-174 2101,-174 1320.83,-174 1320.83,-174"/>
<polygon fill="black" stroke="black" points="1320.83,-170.5 1310.83,-174 1320.83,-177.5 1320.83,-170.5"/>
</g>
<!-- FileModule -->
<g id="node5" class="node">
<title>FileModule</title>
<polygon fill="#8dd3c7" stroke="black" points="2022.83,-122 2019.83,-126 1998.83,-126 1995.83,-122 1941.17,-122 1941.17,-86 2022.83,-86 2022.83,-122"/>
<text text-anchor="middle" x="1982" y="-99.8" font-family="Times,serif" font-size="14.00">FileModule</text>
</g>
<!-- FileModule&#45;&gt;AppModule -->
<g id="edge5" class="edge">
<title>FileModule&#45;&gt;AppModule</title>
<path fill="none" stroke="black" d="M1982,-122.31C1982,-142.15 1982,-171 1982,-171 1982,-171 1320.68,-171 1320.68,-171"/>
<polygon fill="black" stroke="black" points="1320.68,-167.5 1310.68,-171 1320.68,-174.5 1320.68,-167.5"/>
</g>
<!-- HospitalModule -->
<g id="node6" class="node">
<title>HospitalModule</title>
<polygon fill="#8dd3c7" stroke="black" points="1923.49,-122 1920.49,-126 1899.49,-126 1896.49,-122 1816.51,-122 1816.51,-86 1923.49,-86 1923.49,-122"/>
<text text-anchor="middle" x="1870" y="-99.8" font-family="Times,serif" font-size="14.00">HospitalModule</text>
</g>
<!-- HospitalModule&#45;&gt;AppModule -->
<g id="edge6" class="edge">
<title>HospitalModule&#45;&gt;AppModule</title>
<path fill="none" stroke="black" d="M1870,-122.17C1870,-141.09 1870,-168 1870,-168 1870,-168 1320.78,-168 1320.78,-168"/>
<polygon fill="black" stroke="black" points="1320.78,-164.5 1310.78,-168 1320.78,-171.5 1320.78,-164.5"/>
</g>
<!-- MailModule -->
<g id="node7" class="node">
<title>MailModule</title>
<polygon fill="#8dd3c7" stroke="black" points="1798.99,-122 1795.99,-126 1774.99,-126 1771.99,-122 1713.01,-122 1713.01,-86 1798.99,-86 1798.99,-122"/>
<text text-anchor="middle" x="1756" y="-99.8" font-family="Times,serif" font-size="14.00">MailModule</text>
</g>
<!-- MailModule&#45;&gt;AppModule -->
<g id="edge7" class="edge">
<title>MailModule&#45;&gt;AppModule</title>
<path fill="none" stroke="black" d="M1756,-122.3C1756,-140.27 1756,-165 1756,-165 1756,-165 1320.94,-165 1320.94,-165"/>
<polygon fill="black" stroke="black" points="1320.94,-161.5 1310.94,-165 1320.94,-168.5 1320.94,-161.5"/>
</g>
<!-- MediaModule -->
<g id="node8" class="node">
<title>MediaModule</title>
<polygon fill="#8dd3c7" stroke="black" points="1694.81,-122 1691.81,-126 1670.81,-126 1667.81,-122 1599.19,-122 1599.19,-86 1694.81,-86 1694.81,-122"/>
<text text-anchor="middle" x="1647" y="-99.8" font-family="Times,serif" font-size="14.00">MediaModule</text>
</g>
<!-- MediaModule&#45;&gt;AppModule -->
<g id="edge8" class="edge">
<title>MediaModule&#45;&gt;AppModule</title>
<path fill="none" stroke="black" d="M1647,-122.04C1647,-138.73 1647,-161 1647,-161 1647,-161 1320.9,-161 1320.9,-161"/>
<polygon fill="black" stroke="black" points="1320.9,-157.5 1310.9,-161 1320.9,-164.5 1320.9,-157.5"/>
</g>
<!-- MembershipsModule -->
<g id="node9" class="node">
<title>MembershipsModule</title>
<polygon fill="#8dd3c7" stroke="black" points="1580.75,-122 1577.75,-126 1556.75,-126 1553.75,-122 1445.25,-122 1445.25,-86 1580.75,-86 1580.75,-122"/>
<text text-anchor="middle" x="1513" y="-99.8" font-family="Times,serif" font-size="14.00">MembershipsModule</text>
</g>
<!-- MembershipsModule&#45;&gt;AppModule -->
<g id="edge9" class="edge">
<title>MembershipsModule&#45;&gt;AppModule</title>
<path fill="none" stroke="black" d="M1513,-122.28C1513,-137.95 1513,-158 1513,-158 1513,-158 1320.67,-158 1320.67,-158"/>
<polygon fill="black" stroke="black" points="1320.67,-154.5 1310.67,-158 1320.67,-161.5 1320.67,-154.5"/>
</g>
<!-- MetricModule -->
<g id="node10" class="node">
<title>MetricModule</title>
<polygon fill="#8dd3c7" stroke="black" points="1427.37,-122 1424.37,-126 1403.37,-126 1400.37,-122 1330.63,-122 1330.63,-86 1427.37,-86 1427.37,-122"/>
<text text-anchor="middle" x="1379" y="-99.8" font-family="Times,serif" font-size="14.00">MetricModule</text>
</g>
<!-- MetricModule&#45;&gt;AppModule -->
<g id="edge10" class="edge">
<title>MetricModule&#45;&gt;AppModule</title>
<path fill="none" stroke="black" d="M1379,-122.12C1379,-136.78 1379,-155 1379,-155 1379,-155 1320.9,-155 1320.9,-155"/>
<polygon fill="black" stroke="black" points="1320.9,-151.5 1310.9,-155 1320.9,-158.5 1320.9,-151.5"/>
</g>
<!-- NoteModule -->
<g id="node11" class="node">
<title>NoteModule</title>
<polygon fill="#8dd3c7" stroke="black" points="1312.26,-122 1309.26,-126 1288.26,-126 1285.26,-122 1225.74,-122 1225.74,-86 1312.26,-86 1312.26,-122"/>
<text text-anchor="middle" x="1269" y="-99.8" font-family="Times,serif" font-size="14.00">NoteModule</text>
</g>
<!-- NoteModule&#45;&gt;AppModule -->
<g id="edge11" class="edge">
<title>NoteModule&#45;&gt;AppModule</title>
<path fill="none" stroke="black" d="M1269,-122.11C1269,-122.11 1269,-140.99 1269,-140.99"/>
<polygon fill="black" stroke="black" points="1265.5,-140.99 1269,-150.99 1272.5,-140.99 1265.5,-140.99"/>
</g>
<!-- PaymentModule -->
<g id="node12" class="node">
<title>PaymentModule</title>
<polygon fill="#8dd3c7" stroke="black" points="1207.04,-122 1204.04,-126 1183.04,-126 1180.04,-122 1098.96,-122 1098.96,-86 1207.04,-86 1207.04,-122"/>
<text text-anchor="middle" x="1153" y="-99.8" font-family="Times,serif" font-size="14.00">PaymentModule</text>
</g>
<!-- PaymentModule&#45;&gt;AppModule -->
<g id="edge12" class="edge">
<title>PaymentModule&#45;&gt;AppModule</title>
<path fill="none" stroke="black" d="M1153,-122.12C1153,-136.78 1153,-155 1153,-155 1153,-155 1217.12,-155 1217.12,-155"/>
<polygon fill="black" stroke="black" points="1217.12,-158.5 1227.12,-155 1217.12,-151.5 1217.12,-158.5"/>
</g>
<!-- PayosModule -->
<g id="node13" class="node">
<title>PayosModule</title>
<polygon fill="#8dd3c7" stroke="black" points="1080.49,-122 1077.49,-126 1056.49,-126 1053.49,-122 987.51,-122 987.51,-86 1080.49,-86 1080.49,-122"/>
<text text-anchor="middle" x="1034" y="-99.8" font-family="Times,serif" font-size="14.00">PayosModule</text>
</g>
<!-- PayosModule&#45;&gt;AppModule -->
<g id="edge13" class="edge">
<title>PayosModule&#45;&gt;AppModule</title>
<path fill="none" stroke="black" d="M1034,-122.28C1034,-137.95 1034,-158 1034,-158 1034,-158 1217.26,-158 1217.26,-158"/>
<polygon fill="black" stroke="black" points="1217.26,-161.5 1227.26,-158 1217.26,-154.5 1217.26,-161.5"/>
</g>
<!-- PostsModule -->
<g id="node14" class="node">
<title>PostsModule</title>
<polygon fill="#8dd3c7" stroke="black" points="969.61,-122 966.61,-126 945.61,-126 942.61,-122 880.39,-122 880.39,-86 969.61,-86 969.61,-122"/>
<text text-anchor="middle" x="925" y="-99.8" font-family="Times,serif" font-size="14.00">PostsModule</text>
</g>
<!-- PostsModule&#45;&gt;AppModule -->
<g id="edge14" class="edge">
<title>PostsModule&#45;&gt;AppModule</title>
<path fill="none" stroke="black" d="M925,-122.04C925,-138.73 925,-161 925,-161 925,-161 1217.16,-161 1217.16,-161"/>
<polygon fill="black" stroke="black" points="1217.16,-164.5 1227.16,-161 1217.16,-157.5 1217.16,-164.5"/>
</g>
<!-- ReactionModule -->
<g id="node15" class="node">
<title>ReactionModule</title>
<polygon fill="#8dd3c7" stroke="black" points="862.81,-122 859.81,-126 838.81,-126 835.81,-122 753.19,-122 753.19,-86 862.81,-86 862.81,-122"/>
<text text-anchor="middle" x="808" y="-99.8" font-family="Times,serif" font-size="14.00">ReactionModule</text>
</g>
<!-- ReactionModule&#45;&gt;AppModule -->
<g id="edge15" class="edge">
<title>ReactionModule&#45;&gt;AppModule</title>
<path fill="none" stroke="black" d="M808,-122.3C808,-140.27 808,-165 808,-165 808,-165 1217.28,-165 1217.28,-165"/>
<polygon fill="black" stroke="black" points="1217.28,-168.5 1227.28,-165 1217.28,-161.5 1217.28,-168.5"/>
</g>
<!-- RecordsModule -->
<g id="node16" class="node">
<title>RecordsModule</title>
<polygon fill="#8dd3c7" stroke="black" points="735.92,-122 732.92,-126 711.92,-126 708.92,-122 630.08,-122 630.08,-86 735.92,-86 735.92,-122"/>
<text text-anchor="middle" x="683" y="-99.8" font-family="Times,serif" font-size="14.00">RecordsModule</text>
</g>
<!-- RecordsModule&#45;&gt;AppModule -->
<g id="edge16" class="edge">
<title>RecordsModule&#45;&gt;AppModule</title>
<path fill="none" stroke="black" d="M683,-122.17C683,-141.09 683,-168 683,-168 683,-168 1217.33,-168 1217.33,-168"/>
<polygon fill="black" stroke="black" points="1217.33,-171.5 1227.33,-168 1217.33,-164.5 1217.33,-171.5"/>
</g>
<!-- ReminderModule -->
<g id="node17" class="node">
<title>ReminderModule</title>
<polygon fill="#8dd3c7" stroke="black" points="612.26,-122 609.26,-126 588.26,-126 585.26,-122 497.74,-122 497.74,-86 612.26,-86 612.26,-122"/>
<text text-anchor="middle" x="555" y="-99.8" font-family="Times,serif" font-size="14.00">ReminderModule</text>
</g>
<!-- ReminderModule&#45;&gt;AppModule -->
<g id="edge17" class="edge">
<title>ReminderModule&#45;&gt;AppModule</title>
<path fill="none" stroke="black" d="M555,-122.31C555,-142.15 555,-171 555,-171 555,-171 1217.26,-171 1217.26,-171"/>
<polygon fill="black" stroke="black" points="1217.26,-174.5 1227.26,-171 1217.26,-167.5 1217.26,-174.5"/>
</g>
<!-- StandardModule -->
<g id="node18" class="node">
<title>StandardModule</title>
<polygon fill="#8dd3c7" stroke="black" points="479.81,-122 476.81,-126 455.81,-126 452.81,-122 370.19,-122 370.19,-86 479.81,-86 479.81,-122"/>
<text text-anchor="middle" x="425" y="-99.8" font-family="Times,serif" font-size="14.00">StandardModule</text>
</g>
<!-- StandardModule&#45;&gt;AppModule -->
<g id="edge18" class="edge">
<title>StandardModule&#45;&gt;AppModule</title>
<path fill="none" stroke="black" d="M425,-122.03C425,-142.77 425,-174 425,-174 425,-174 1217.15,-174 1217.15,-174"/>
<polygon fill="black" stroke="black" points="1217.15,-177.5 1227.15,-174 1217.15,-170.5 1217.15,-177.5"/>
</g>
<!-- TagModule -->
<g id="node19" class="node">
<title>TagModule</title>
<polygon fill="#8dd3c7" stroke="black" points="352.82,-122 349.82,-126 328.82,-126 325.82,-122 271.18,-122 271.18,-86 352.82,-86 352.82,-122"/>
<text text-anchor="middle" x="312" y="-99.8" font-family="Times,serif" font-size="14.00">TagModule</text>
</g>
<!-- TagModule&#45;&gt;AppModule -->
<g id="edge19" class="edge">
<title>TagModule&#45;&gt;AppModule</title>
<path fill="none" stroke="black" d="M312,-122.29C312,-144.21 312,-178 312,-178 312,-178 1217.26,-178 1217.26,-178"/>
<polygon fill="black" stroke="black" points="1217.26,-181.5 1227.26,-178 1217.26,-174.5 1217.26,-181.5"/>
</g>
<!-- UsersModule -->
<g id="node20" class="node">
<title>UsersModule</title>
<polygon fill="#8dd3c7" stroke="black" points="253.92,-122 250.92,-126 229.92,-126 226.92,-122 162.08,-122 162.08,-86 253.92,-86 253.92,-122"/>
<text text-anchor="middle" x="208" y="-99.8" font-family="Times,serif" font-size="14.00">UsersModule</text>
</g>
<!-- UsersModule&#45;&gt;AppModule -->
<g id="edge20" class="edge">
<title>UsersModule&#45;&gt;AppModule</title>
<path fill="none" stroke="black" d="M208,-122.25C208,-145.02 208,-181 208,-181 208,-181 1217.08,-181 1217.08,-181"/>
<polygon fill="black" stroke="black" points="1217.08,-184.5 1227.08,-181 1217.08,-177.5 1217.08,-184.5"/>
</g>
<!-- AppService -->
<g id="node22" class="node">
<title>AppService</title>
<ellipse fill="#fdb462" stroke="black" cx="81" cy="-104" rx="56.74" ry="18"/>
<text text-anchor="middle" x="81" y="-99.8" font-family="Times,serif" font-size="14.00">AppService</text>
</g>
<!-- AppService&#45;&gt;AppModule -->
<g id="edge21" class="edge">
<title>AppService&#45;&gt;AppModule</title>
<path fill="none" stroke="black" d="M81,-122.15C81,-145.76 81,-184 81,-184 81,-184 1217.07,-184 1217.07,-184"/>
<polygon fill="black" stroke="black" points="1217.07,-187.5 1227.07,-184 1217.07,-180.5 1217.07,-187.5"/>
</g>
</g>
</svg>
